<svg width="20" height="20" viewBox="0 0 20 20" fill="none" xmlns="http://www.w3.org/2000/svg">
<g clip-path="url(#clip0)">
<path d="M19.1271 1.30183C18.2246 0.815865 17.218 1.75308 16.6279 2.30846C15.2742 3.6275 14.1287 5.15481 12.8443 6.54328C11.4211 8.07059 10.1021 9.5979 8.64421 11.0906C7.81113 11.9236 6.90863 12.8261 6.35324 13.8675C5.10363 12.6525 4.02757 11.3335 2.6391 10.2575C1.63247 9.49382 -0.0336895 8.93843 0.00102212 10.7781C0.0704453 13.1733 2.18785 15.742 3.74987 17.3733C4.40939 18.0676 5.27718 18.7965 6.28382 18.8312C7.49872 18.9007 8.74834 17.4428 9.47728 16.6444C10.7617 15.2559 11.803 13.6939 12.9832 12.2707C14.5105 10.3963 16.0725 8.55655 17.5651 6.64741C18.5023 5.46722 21.4528 2.55139 19.1271 1.30183ZM1.52828 10.6393C1.49356 10.6393 1.45885 10.6393 1.38943 10.674C1.25058 10.6393 1.14645 10.6045 1.0076 10.5351C1.11174 10.4657 1.28529 10.5004 1.52828 10.6393Z" fill="#12B366"/>
</g>
<defs>
<clipPath id="clip0">
<rect width="20" height="20" fill="white"/>
</clipPath>
</defs>
</svg>
