<svg width="60" height="60" viewBox="0 0 60 60" fill="none" xmlns="http://www.w3.org/2000/svg">
<rect width="60" height="60" rx="16" fill="#FFAF0D"/>
<g clip-path="url(#clip0)">
<path d="M41.3789 38.8742C41.2907 38.817 40.627 38.352 39.9625 36.9455C38.742 34.3625 38.4859 30.724 38.4859 28.1265C38.4859 28.1152 38.4856 28.104 38.4852 28.0927C38.4719 24.6598 36.4163 21.7004 33.4746 20.3726V18.342C33.4746 16.4992 31.9779 15 30.1382 15H29.8617C28.0219 15 26.5252 16.4992 26.5252 18.342V20.3725C23.5737 21.7046 21.514 24.679 21.514 28.1265C21.514 30.724 21.2578 34.3625 20.0374 36.9455C19.3729 38.352 18.7092 38.8169 18.6209 38.8742C18.2493 39.0462 18.0661 39.4434 18.1516 39.846C18.2379 40.2526 18.6179 40.5329 19.033 40.5329H25.4752C25.5111 43.0021 27.5264 45 30 45C32.4735 45 34.4888 43.0021 34.5247 40.5329H40.9669C41.3819 40.5329 41.762 40.2526 41.8483 39.846C41.9337 39.4434 41.7505 39.0461 41.3789 38.8742ZM28.2831 18.342C28.2831 17.47 28.9913 16.7607 29.8617 16.7607H30.1382C31.0087 16.7607 31.7169 17.47 31.7169 18.342V19.8019C31.1621 19.6873 30.5878 19.6269 29.9997 19.6269C29.4118 19.6269 28.8377 19.6872 28.2832 19.8018V18.342H28.2831ZM30 43.2393C28.4957 43.2393 27.2687 42.0313 27.233 40.533H32.7669C32.7312 42.0312 31.5042 43.2393 30 43.2393ZM33.539 38.7722C33.5388 38.7722 21.036 38.7722 21.036 38.7722C21.188 38.5352 21.3428 38.2669 21.4966 37.9637C22.6746 35.6409 23.2719 32.3312 23.2719 28.1265C23.2719 24.4106 26.29 21.3876 29.9997 21.3876C33.7093 21.3876 36.7275 24.4106 36.7275 28.1294C36.7275 28.1402 36.7276 28.151 36.728 28.1618C36.7314 32.3496 37.3286 35.6474 38.5033 37.9637C38.6571 38.267 38.8119 38.5352 38.9639 38.7722H33.539Z" fill="white"/>
</g>
<defs>
<clipPath id="clip0">
<rect width="30" height="30" fill="white" transform="translate(15 15)"/>
</clipPath>
</defs>
</svg>
