<svg width="60" height="60" viewBox="0 0 60 60" fill="none" xmlns="http://www.w3.org/2000/svg">
<rect width="60" height="60" rx="16" fill="#3E89F4"/>
<g clip-path="url(#clip0)">
<path d="M34.4999 35.025C32.8454 35.025 31.4999 33.6795 31.4999 32.025C31.4999 30.3705 32.8454 29.025 34.4999 29.025C36.1544 29.025 37.4999 30.3705 37.4999 32.025C37.4999 33.6795 36.1544 35.025 34.4999 35.025ZM34.4999 30.525C33.6719 30.525 32.9999 31.197 32.9999 32.025C32.9999 32.853 33.6719 33.525 34.4999 33.525C35.3279 33.525 35.9999 32.853 35.9999 32.025C35.9999 31.197 35.3279 30.525 34.4999 30.525Z" fill="white"/>
<path d="M25.5 35.025C23.8455 35.025 22.5 33.6795 22.5 32.025C22.5 30.3705 23.8455 29.025 25.5 29.025C27.1545 29.025 28.5 30.3705 28.5 32.025C28.5 33.6795 27.1545 35.025 25.5 35.025ZM25.5 30.525C24.672 30.525 24 31.197 24 32.025C24 32.853 24.672 33.525 25.5 33.525C26.328 33.525 27 32.853 27 32.025C27 31.197 26.328 30.525 25.5 30.525Z" fill="white"/>
<path d="M38.25 44.025H21.75C19.6815 44.025 18 42.3435 18 40.275V28.275C18 26.2065 19.6815 24.525 21.75 24.525H38.25C40.3185 24.525 42 26.2065 42 28.275V40.275C42 42.3435 40.3185 44.025 38.25 44.025ZM21.75 26.025C20.5095 26.025 19.5 27.0345 19.5 28.275V40.275C19.5 41.5155 20.5095 42.525 21.75 42.525H38.25C39.4905 42.525 40.5 41.5155 40.5 40.275V28.275C40.5 27.0345 39.4905 26.025 38.25 26.025H21.75Z" fill="white"/>
<path d="M30 26.025C29.586 26.025 29.25 25.689 29.25 25.275V20.775C29.25 20.361 29.586 20.025 30 20.025C30.414 20.025 30.75 20.361 30.75 20.775V25.275C30.75 25.689 30.414 26.025 30 26.025Z" fill="white"/>
<path d="M33.75 39.525H26.25C25.836 39.525 25.5 39.189 25.5 38.775C25.5 38.361 25.836 38.025 26.25 38.025H33.75C34.164 38.025 34.5 38.361 34.5 38.775C34.5 39.189 34.164 39.525 33.75 39.525Z" fill="white"/>
<path d="M30 21.525C28.3455 21.525 27 20.1795 27 18.525C27 16.8705 28.3455 15.525 30 15.525C31.6545 15.525 33 16.8705 33 18.525C33 20.1795 31.6545 21.525 30 21.525ZM30 17.025C29.172 17.025 28.5 17.697 28.5 18.525C28.5 19.353 29.172 20.025 30 20.025C30.828 20.025 31.5 19.353 31.5 18.525C31.5 17.697 30.828 17.025 30 17.025Z" fill="white"/>
<path d="M18.75 35.025H15.75C15.336 35.025 15 34.689 15 34.275C15 33.861 15.336 33.525 15.75 33.525H18.75C19.164 33.525 19.5 33.861 19.5 34.275C19.5 34.689 19.164 35.025 18.75 35.025Z" fill="white"/>
<path d="M44.25 35.025H41.25C40.836 35.025 40.5 34.689 40.5 34.275C40.5 33.861 40.836 33.525 41.25 33.525H44.25C44.664 33.525 45 33.861 45 34.275C45 34.689 44.664 35.025 44.25 35.025Z" fill="white"/>
<path d="M15.75 38.025C15.336 38.025 15 37.689 15 37.275V31.275C15 30.861 15.336 30.525 15.75 30.525C16.164 30.525 16.5 30.861 16.5 31.275V37.275C16.5 37.689 16.164 38.025 15.75 38.025Z" fill="white"/>
<path d="M44.25 38.025C43.836 38.025 43.5 37.689 43.5 37.275V31.275C43.5 30.861 43.836 30.525 44.25 30.525C44.664 30.525 45 30.861 45 31.275V37.275C45 37.689 44.664 38.025 44.25 38.025Z" fill="white"/>
</g>
<defs>
<clipPath id="clip0">
<rect width="30" height="30" fill="white" transform="translate(15 15)"/>
</clipPath>
</defs>
</svg>
