<svg width="63" height="24" viewBox="0 0 63 24" fill="none" xmlns="http://www.w3.org/2000/svg">
<path fill-rule="evenodd" clip-rule="evenodd" d="M16.6715 24C21.5041 22.3721 25.002 17.6149 25.002 12C25.002 6.38506 21.5041 1.62793 16.6715 0H50.002C56.6294 0 62.002 5.37258 62.002 12C62.002 18.6274 56.6294 24 50.002 24H16.6715Z" fill="#3E89F4"/>
<path d="M30.6839 9.34998V12.356H34.2179V13.304H30.6839V17H29.5199V8.40198H34.8179V9.34998H30.6839Z" fill="white"/>
<path d="M38.687 12.566C39.023 12.566 39.319 12.526 39.575 12.446C39.835 12.362 40.051 12.246 40.223 12.098C40.399 11.946 40.531 11.766 40.619 11.558C40.707 11.35 40.751 11.12 40.751 10.868C40.751 10.356 40.583 9.96998 40.247 9.70998C39.911 9.44998 39.407 9.31998 38.735 9.31998H37.463V12.566H38.687ZM42.659 17H41.627C41.415 17 41.259 16.918 41.159 16.754L38.927 13.682C38.859 13.586 38.785 13.518 38.705 13.478C38.629 13.434 38.509 13.412 38.345 13.412H37.463V17H36.305V8.40198H38.735C39.279 8.40198 39.749 8.45798 40.145 8.56998C40.541 8.67798 40.867 8.83598 41.123 9.04398C41.383 9.25198 41.575 9.50398 41.699 9.79998C41.823 10.092 41.885 10.42 41.885 10.784C41.885 11.088 41.837 11.372 41.741 11.636C41.645 11.9 41.505 12.138 41.321 12.35C41.141 12.558 40.919 12.736 40.655 12.884C40.395 13.032 40.099 13.144 39.767 13.22C39.915 13.304 40.043 13.426 40.151 13.586L42.659 17Z" fill="white"/>
<path d="M49.1325 16.052L49.1265 17H43.8285V8.40198H49.1265V9.34998H44.9925V12.206H48.3405V13.118H44.9925V16.052H49.1325Z" fill="white"/>
<path d="M56.0583 16.052L56.0523 17H50.7543V8.40198H56.0523V9.34998H51.9183V12.206H55.2663V13.118H51.9183V16.052H56.0583Z" fill="white"/>
<path d="M12.0019 24C18.6294 24 24.0019 18.6274 24.0019 12C24.0019 5.37258 18.6294 0 12.0019 0C5.37453 0 0.00195312 5.37258 0.00195312 12C0.00195312 18.6274 5.37453 24 12.0019 24Z" fill="#3E89F4" fill-opacity="0.5"/>
<path d="M18.1269 8.45418H15.3584C15.5571 8.31967 15.7277 8.18603 15.8467 8.06627C16.5519 7.36248 16.5519 6.21698 15.8467 5.5132C15.1616 4.82937 13.9663 4.8285 13.2803 5.5132C12.9014 5.89069 11.8943 7.42757 12.0334 8.45418H11.9704C12.1087 7.42757 11.1024 5.89069 10.7236 5.5132C10.0376 4.8285 8.84233 4.82937 8.1572 5.5132C7.45195 6.21698 7.45195 7.36248 8.15633 8.06627C8.2762 8.18603 8.44683 8.31967 8.64545 8.45418H5.87695C5.39483 8.45418 5.00195 8.84382 5.00195 9.32198V11.4915C5.00195 11.731 5.19795 11.9254 5.43945 11.9254H5.87695V17.1322C5.87695 17.6104 6.26983 18 6.75195 18H17.2519C17.7341 18 18.1269 17.6104 18.1269 17.1322V11.9254H18.5644C18.8059 11.9254 19.0019 11.731 19.0019 11.4915V9.32198C19.0019 8.84382 18.6091 8.45418 18.1269 8.45418ZM8.77758 6.125C8.9552 5.94797 9.19058 5.85077 9.44082 5.85077C9.6902 5.85077 9.92557 5.94797 10.1032 6.125C10.6929 6.71337 11.2792 8.2164 11.0753 8.42554C11.0753 8.42554 11.0386 8.45418 10.9134 8.45418C10.3088 8.45418 9.1547 7.8311 8.77758 7.45447C8.41095 7.08826 8.41095 6.49121 8.77758 6.125ZM11.5644 17.1322H6.75195V11.9254H11.5644V17.1322ZM11.5644 11.0576H5.87695V9.32198H10.9134H11.5644V11.0576ZM13.9007 6.125C14.2559 5.7718 14.8719 5.77267 15.2263 6.125C15.5929 6.49121 15.5929 7.08826 15.2263 7.45447C14.8492 7.8311 13.6951 8.45418 13.0904 8.45418C12.9653 8.45418 12.9286 8.42641 12.9277 8.42554C12.7247 8.2164 13.3109 6.71337 13.9007 6.125ZM17.2519 17.1322H12.4394V11.9254H17.2519V17.1322ZM18.1269 11.0576H12.4394V9.32198H13.0904H18.1269V11.0576Z" fill="white"/>
</svg>
