<svg width="20" height="20" viewBox="0 0 20 20" fill="none" xmlns="http://www.w3.org/2000/svg">
<g clip-path="url(#clip0)">
<path d="M17.0703 18.7889H2.92969C1.96043 18.7889 1.17188 18.0003 1.17188 17.0311V8.51441C1.17188 8.32473 1.26371 8.14676 1.41832 8.03684L9.66051 2.17746C9.86379 2.03297 10.1362 2.03297 10.3395 2.17746L18.5817 8.03684C18.7363 8.14676 18.8282 8.32473 18.8282 8.51441V17.0311C18.8281 18.0003 18.0396 18.7889 17.0703 18.7889Z" fill="#4175DF"/>
<path d="M17.0703 18.7889C18.0396 18.7889 18.8281 18.0003 18.8281 17.0311V8.5144C18.8281 8.32472 18.7363 8.14675 18.5817 8.03683L10.3395 2.17745C10.2379 2.10519 10.1189 2.06909 10 2.06909V18.7889H17.0703Z" fill="#4254B6"/>
<path d="M4.97926 6.92676C4.97926 8.30039 3.86473 9.41375 2.48965 9.41375C1.11457 9.41375 0 8.30039 0 6.92676H4.97926Z" fill="#4086F4"/>
<path d="M9.99999 6.92676C9.99999 8.30039 8.84398 9.41375 7.46886 9.41375C6.09374 9.41375 4.97925 8.30043 4.97925 6.92676H9.99999Z" fill="#324492"/>
<path d="M20 6.92684H15.0208L13.7345 1.21094H16.7411C17.2125 1.21094 17.6436 1.47703 17.8544 1.89816L20 6.92684Z" fill="#4254B6"/>
<path d="M15.0207 6.92684H10V1.21094H13.7345L15.0207 6.92684Z" fill="#4086F4"/>
<path d="M9.99999 1.21094V6.92684H4.97925L6.22405 1.21094H9.99999Z" fill="#4254B6"/>
<path d="M6.22406 1.21094L4.97926 6.92684H0L2.14563 1.8982C2.35641 1.47707 2.78754 1.21098 3.25891 1.21098H6.22406V1.21094Z" fill="#80AEF8"/>
<path d="M15.0207 6.92676C15.0207 8.30039 13.9062 9.41375 12.5311 9.41375C11.1561 9.41375 10 8.30039 10 6.92676H15.0207Z" fill="#4175DF"/>
<path d="M20 6.92676C20 8.30039 18.8854 9.41375 17.5104 9.41375C16.1353 9.41375 15.0208 8.30043 15.0208 6.92676H20Z" fill="#324492"/>
<path d="M15.8594 12.9294H14.1016C13.778 12.9294 13.5156 13.1917 13.5156 13.5153C13.5156 13.8389 13.778 14.1013 14.1016 14.1013H15.1727C14.9308 14.7832 14.2795 15.2732 13.5156 15.2732C12.5464 15.2732 11.7578 14.4846 11.7578 13.5153C11.7578 12.5461 12.5464 11.7575 13.5156 11.7575C13.9852 11.7575 14.4266 11.9404 14.7586 12.2724C14.9874 12.5012 15.3584 12.5012 15.5872 12.2724C15.8161 12.0436 15.816 11.6726 15.5872 11.4438C15.0339 10.8904 14.2982 10.5857 13.5156 10.5857C11.9002 10.5857 10.5859 11.9 10.5859 13.5154C10.5859 15.1308 11.9002 16.4451 13.5156 16.4451C15.1311 16.4451 16.4453 15.1308 16.4453 13.5154C16.4453 13.1917 16.183 12.9294 15.8594 12.9294Z" fill="#E3E7EA"/>
</g>
<defs>
<clipPath id="clip0">
<rect width="20" height="20" fill="white"/>
</clipPath>
</defs>
</svg>
