<svg width="60" height="60" viewBox="0 0 60 60" fill="none" xmlns="http://www.w3.org/2000/svg">
<rect width="60" height="60" rx="16" fill="#FF6A00"/>
<path d="M15 45C15 42.5625 18.25 42.5625 19.875 40.9375C20.6875 40.125 18.25 40.125 18.25 36.0625C18.25 33.3544 19.3331 32 21.5 32C23.6669 32 24.75 33.3544 24.75 36.0625C24.75 40.125 22.3125 40.125 23.125 40.9375C24.75 42.5625 28 42.5625 28 45" stroke="white" stroke-width="2" stroke-linecap="square"/>
<path d="M15 28C15 25.5625 18.25 25.5625 19.875 23.9375C20.6875 23.125 18.25 23.125 18.25 19.0625C18.25 16.3544 19.3331 15 21.5 15C23.6669 15 24.75 16.3544 24.75 19.0625C24.75 23.125 22.3125 23.125 23.125 23.9375C24.75 25.5625 28 25.5625 28 28" stroke="white" stroke-width="2" stroke-linecap="square"/>
<path d="M32 28C32 25.5625 35.25 25.5625 36.875 23.9375C37.6875 23.125 35.25 23.125 35.25 19.0625C35.25 16.3544 36.3331 15 38.5 15C40.6669 15 41.75 16.3544 41.75 19.0625C41.75 23.125 39.3125 23.125 40.125 23.9375C41.75 25.5625 45 25.5625 45 28" stroke="white" stroke-width="2" stroke-linecap="square"/>
<path fill-rule="evenodd" clip-rule="evenodd" d="M39.62 37.0384C39.4009 36.6364 39.1874 36.3022 38.9651 36.0286C39.0405 35.9523 39.1045 35.8884 39.143 35.8523C39.7807 35.2528 40.4091 35 41.4545 35C43.3549 35 45 36.5157 45 38.5C45 40.4843 43.3549 42 41.4545 42C39.769 42 39.0529 41.1344 37.9612 38.7394C37.0586 36.7594 36.5682 36.1667 35.5455 36.1667C34.2154 36.1667 33.1818 37.2564 33.1818 38.5C33.1818 39.749 34.207 40.8333 35.5455 40.8333C36.162 40.8333 36.8988 40.5912 37.5423 40.2484C37.771 40.6366 37.9973 40.9517 38.2381 41.202C37.4093 41.668 36.4383 42 35.5455 42C33.5354 42 32 40.376 32 38.5C32 36.6286 33.5446 35 35.5455 35C37.231 35 37.9471 35.8656 39.0388 38.2606C39.9414 40.2406 40.4318 40.8333 41.4545 40.8333C42.7198 40.8333 43.8182 39.8213 43.8182 38.5C43.8182 37.1787 42.7198 36.1667 41.4545 36.1667C40.7153 36.1667 40.3779 36.3024 39.958 36.6971C39.9025 36.7493 39.7644 36.8902 39.62 37.0384Z" fill="white"/>
</svg>
