<svg width="60" height="60" viewBox="0 0 60 60" fill="none" xmlns="http://www.w3.org/2000/svg">
<rect width="60" height="60" rx="16" fill="#FF2D5A"/>
<path d="M24.0986 24.4822H20.7939V26.8528H24.0986V24.4822Z" fill="white"/>
<path d="M24.0986 28.4469H20.7939V30.8175H24.0986V28.4469Z" fill="white"/>
<path d="M24.0986 32.4115H20.7939V34.7821H24.0986V32.4115Z" fill="white"/>
<path d="M29.9353 28.4469H26.6306V30.8175H29.9353V28.4469Z" fill="white"/>
<path d="M29.9353 24.4822H26.6306V26.8528H29.9353V24.4822Z" fill="white"/>
<path d="M35.7294 24.4822H32.4247V26.8528H35.7294V24.4822Z" fill="white"/>
<path d="M28.6909 38.8692C28.6909 38.8284 28.6909 38.7875 28.6909 38.7058H17.1888C16.8884 38.7058 16.6309 38.4605 16.6309 38.1744V19.4959C16.6309 19.2098 16.8884 18.9646 17.1888 18.9646H20.794V20.5586C20.794 21.0082 21.1802 21.3352 21.6094 21.3352C22.0815 21.3352 22.4249 20.9673 22.4249 20.5586V18.9646H27.4034V20.5586C27.4034 21.0082 27.7896 21.3352 28.2188 21.3352C28.648 21.3352 29.0343 20.9673 29.0343 20.5586V18.9646H34.0128V20.5586C34.0128 21.0082 34.399 21.3352 34.8282 21.3352C35.3003 21.3352 35.6437 20.9673 35.6437 20.5586V18.9646H39.2488C39.5492 18.9646 39.8067 19.2098 39.8067 19.4959V29.5504C40.3647 29.6322 40.9226 29.7548 41.4805 29.9183V19.4959C41.4805 18.3515 40.4934 17.3706 39.2488 17.3706H35.6437V15.7766C35.6437 15.327 35.2574 15 34.8282 15C34.3561 15 34.0128 15.3678 34.0128 15.7766V17.3706H29.0772V15.7766C29.0772 15.327 28.6909 15 28.2617 15C27.8325 15 27.4463 15.3678 27.4463 15.7766V17.3706H22.4678V15.7766C22.4678 15.327 22.0815 15 21.6523 15C21.1802 15 20.8369 15.3678 20.8369 15.7766V17.3706H17.2317C16.03 17.3706 15 18.3106 15 19.4959V38.2153C15 39.3597 15.9871 40.3406 17.2317 40.3406H28.8197C28.7338 39.8502 28.6909 39.3597 28.6909 38.8692Z" fill="white"/>
<path d="M35.7294 29.8774V28.4469H32.4247V30.8175H33.4976C34.1843 30.4088 34.9139 30.0818 35.7294 29.8774Z" fill="white"/>
<path d="M29.9353 34.3325V32.4115H26.6306V34.7821H29.7207C29.7636 34.6186 29.8495 34.4551 29.9353 34.3325Z" fill="white"/>
<path d="M38.5622 45C42.1245 45 45 42.2616 45 38.8692C45 35.4768 42.1245 32.7384 38.5622 32.7384C35 32.7384 32.1245 35.4768 32.1245 38.8692C32.1245 42.2616 35 45 38.5622 45Z" stroke="white" stroke-width="1.5" stroke-linecap="square"/>
<path d="M38.5623 34.782V38.9509L41.1373 41.3215" stroke="white" stroke-width="1.5" stroke-linecap="round" stroke-linejoin="round"/>
</svg>
