<svg width="60" height="60" viewBox="0 0 60 60" fill="none" xmlns="http://www.w3.org/2000/svg">
<rect width="60" height="60" rx="16" fill="#FF6A00"/>
<path d="M27.7512 44.0206H17.5387C17.012 44.0206 16.5812 43.601 16.5812 43.0882V33.1415C16.5812 32.6287 17.012 32.2092 17.5387 32.2092H27.7512C28.2777 32.2092 28.7088 32.6287 28.7088 33.1415V43.0878C28.7088 43.6007 28.2777 44.0204 27.7512 44.0204V44.0206Z" stroke="white" stroke-width="1.5"/>
<path d="M17.0858 31.4714C16.8623 31.4718 16.6447 31.5426 16.4649 31.6734C16.2852 31.8042 16.1525 31.9882 16.0864 32.1984L15 36.2604C14.9994 36.5077 15.0484 36.7528 15.1443 36.9814C15.2402 37.2101 15.381 37.4178 15.5587 37.5926C15.7364 37.7674 15.9475 37.9059 16.1797 38.0002C16.4119 38.0944 16.6608 38.1425 16.912 38.1416C17.9635 38.1416 18.8238 37.3036 18.8238 36.2604L19.4581 31.4714H17.0858Z" fill="#FFB783"/>
<path d="M29.1622 32.1982C29.0961 31.988 28.9635 31.8041 28.7837 31.6733C28.6039 31.5426 28.3864 31.4718 28.1629 31.4714H25.7904L26.4249 36.2604C26.4242 36.5077 26.4732 36.7528 26.5691 36.9814C26.665 37.21 26.8058 37.4177 26.9835 37.5925C27.1612 37.7674 27.3722 37.9059 27.6044 38.0001C27.8366 38.0943 28.0855 38.1425 28.3367 38.1416C28.5878 38.1425 28.8367 38.0943 29.0689 38.0001C29.3011 37.9059 29.5122 37.7674 29.6898 37.5925C29.8675 37.4177 30.0083 37.21 30.1042 36.9814C30.2 36.7528 30.2491 36.5077 30.2484 36.2604L29.1622 32.1982ZM22.6011 31.4716H19.4118L18.7775 36.2606C18.7768 36.5079 18.8259 36.753 18.9218 36.9816C19.0176 37.2102 19.1584 37.4179 19.3361 37.5928C19.5138 37.7676 19.7248 37.9061 19.957 38.0003C20.1893 38.0946 20.4381 38.1427 20.6893 38.1418C21.7407 38.1418 22.6011 37.3038 22.6011 36.2606V31.4714V31.4716Z" fill="white"/>
<path d="M22.6027 31.4714V36.2604C22.6027 37.295 23.463 38.1416 24.5144 38.1416C24.7656 38.1425 25.0145 38.0943 25.2467 38.0001C25.4789 37.9059 25.6899 37.7674 25.8676 37.5925C26.0453 37.4177 26.1861 37.21 26.282 36.9814C26.3778 36.7528 26.4269 36.5077 26.4262 36.2604L25.792 31.4714H22.6027Z" fill="#FFB783"/>
<path opacity="0.1" d="M30.2947 36.2095C30.2954 36.4568 30.2463 36.7018 30.1505 36.9304C30.0546 37.1591 29.9138 37.3668 29.7361 37.5416C29.5584 37.7164 29.3474 37.855 29.1152 37.9492C28.883 38.0434 28.6341 38.0916 28.383 38.0907C28.1318 38.0916 27.8829 38.0434 27.6507 37.9492C27.4185 37.855 27.2075 37.7164 27.0298 37.5416C26.8521 37.3668 26.7113 37.1591 26.6154 36.9304C26.5196 36.7018 26.4705 36.4568 26.4712 36.2095H30.2947ZM18.8238 36.2095C18.8244 36.4568 18.7754 36.7018 18.6795 36.9304C18.5836 37.1591 18.4428 37.3668 18.2652 37.5416C18.0875 37.7164 17.8765 37.855 17.6442 37.9492C17.412 38.0434 17.1632 38.0916 16.912 38.0907C16.6608 38.0916 16.4119 38.0435 16.1797 37.9493C15.9474 37.855 15.7364 37.7165 15.5587 37.5417C15.381 37.3669 15.2402 37.1591 15.1443 36.9305C15.0484 36.7019 14.9993 36.4568 15 36.2095H18.824H18.8238ZM22.6474 36.2095C22.648 36.4568 22.599 36.7018 22.5031 36.9304C22.4072 37.1591 22.2664 37.3668 22.0887 37.5416C21.9111 37.7164 21.7001 37.855 21.4678 37.9492C21.2356 38.0434 20.9867 38.0916 20.7356 38.0907C20.4844 38.0916 20.2356 38.0434 20.0033 37.9492C19.7711 37.855 19.5601 37.7164 19.3824 37.5416C19.2047 37.3668 19.0639 37.1591 18.9681 36.9304C18.8722 36.7018 18.8232 36.4568 18.8238 36.2095H22.6474ZM26.4712 36.2095C26.4718 36.4568 26.4228 36.7018 26.3269 36.9304C26.231 37.1591 26.0902 37.3668 25.9126 37.5416C25.7349 37.7164 25.5238 37.855 25.2916 37.9492C25.0594 38.0434 24.8105 38.0916 24.5594 38.0907C24.3082 38.0916 24.0593 38.0435 23.827 37.9493C23.5948 37.855 23.3838 37.7165 23.2061 37.5417C23.0284 37.3669 22.8875 37.1591 22.7917 36.9305C22.6958 36.7019 22.6467 36.4568 22.6474 36.2095H26.4712Z" fill="#231F20"/>
<path d="M26.1245 40.8948V41.5768H27.0885C27.0112 41.9822 26.6511 42.2771 26.1245 42.2771C25.5397 42.2771 25.0658 41.7906 25.0658 41.2153C25.0658 40.64 25.5397 40.1537 26.1245 40.1537C26.3875 40.1537 26.6236 40.2425 26.8093 40.4171L27.3232 39.9116C27.0128 39.627 26.6074 39.4524 26.1243 39.4524C25.1349 39.4524 24.3328 40.2418 24.3328 41.2153C24.3328 42.1891 25.1349 42.9782 26.1245 42.9782C27.1594 42.9782 27.8444 42.2627 27.8444 41.2553C27.8444 41.1303 27.8328 41.0101 27.8118 40.8948H26.1245Z" fill="white"/>
<path fill-rule="evenodd" clip-rule="evenodd" d="M27.2301 16.8807C26.0135 15.6686 24.3956 15.0007 22.6719 15C19.1201 15 16.2294 17.8767 16.228 21.4125C16.2275 22.5428 16.5242 23.6461 17.0881 24.6186L16.174 27.9417L19.5899 27.0499C20.5312 27.5609 21.5908 27.8302 22.6692 27.8305H22.672C26.2234 27.8305 29.1143 24.9535 29.1157 21.4176C29.1164 19.704 28.4467 18.0928 27.2301 16.8807ZM22.6719 26.7475H22.6696C21.7087 26.7471 20.7661 26.4901 19.9437 26.0045L19.7482 25.8889L17.7211 26.4182L18.2622 24.4512L18.1348 24.2496C17.5986 23.4009 17.3155 22.42 17.316 21.4129C17.3171 18.4741 19.7198 16.0831 22.674 16.0831C24.1046 16.0836 25.4494 16.6387 26.4605 17.6462C27.4717 18.6538 28.0282 19.993 28.0277 21.4172C28.0265 24.3563 25.624 26.7475 22.6719 26.7475ZM25.6097 22.7554C25.4487 22.6751 24.6571 22.2876 24.5094 22.2341C24.362 22.1806 24.2545 22.154 24.1473 22.3143C24.0399 22.4747 23.7314 22.8357 23.6374 22.9425C23.5434 23.0495 23.4496 23.0629 23.2886 22.9827C23.1275 22.9025 22.6088 22.7332 21.9937 22.1873C21.5152 21.7624 21.192 21.2377 21.098 21.0773C21.0042 20.9168 21.0973 20.8385 21.1687 20.7503C21.343 20.5349 21.5175 20.3091 21.5712 20.2022C21.6249 20.0952 21.598 20.0017 21.5577 19.9215C21.5175 19.8413 21.1955 19.0526 21.0614 18.7316C20.9306 18.4193 20.798 18.4615 20.699 18.4566C20.6052 18.452 20.4979 18.451 20.3905 18.451C20.2832 18.451 20.1087 18.4911 19.9611 18.6516C19.8135 18.812 19.3976 19.1996 19.3976 19.9883C19.3976 20.777 19.9746 21.5389 20.0551 21.6459C20.1355 21.7529 21.1904 23.3714 22.8055 24.0654C23.1897 24.2306 23.4896 24.3291 23.7234 24.403C24.1092 24.5249 24.4601 24.5077 24.7376 24.4665C25.047 24.4204 25.6901 24.0788 25.8244 23.7045C25.9585 23.3302 25.9585 23.0094 25.9182 22.9425C25.878 22.8757 25.7706 22.8357 25.6097 22.7554Z" fill="white"/>
<path d="M38.3489 22.524L41.0074 24.5311L42.3493 18.8027L35.4911 21.5005L37.578 22.1917L41.3866 19.637L38.3489 22.524Z" fill="white"/>
<path d="M37.5778 22.1917L38.1493 24.2484L38.3487 22.5239L41.3864 19.637L37.5778 22.1917Z" fill="#FFB783"/>
<path d="M39.2141 23.1765L38.1508 24.2486L38.3501 22.5242L39.2141 23.1765Z" fill="#FFB783"/>
<path d="M41.6666 15.5884H36.1761C34.3351 15.5884 32.8427 17.0808 32.8427 18.9219V24.4123C32.8427 26.2533 34.3351 27.7458 36.1761 27.7458H41.6666C43.5076 27.7458 45 26.2533 45 24.4123V18.9219C45 17.0808 43.5076 15.5884 41.6666 15.5884Z" stroke="white" stroke-width="1.5"/>
</svg>
