<svg width="60" height="60" viewBox="0 0 60 60" fill="none" xmlns="http://www.w3.org/2000/svg">
<rect width="60" height="60" rx="16" fill="#12B366"/>
<path d="M37.75 15H19.375C17.7181 15 16.375 16.3431 16.375 18V30.375C16.375 32.0319 17.7181 33.375 19.375 33.375H37.75C39.4069 33.375 40.75 32.0319 40.75 30.375V18C40.75 16.3431 39.4069 15 37.75 15Z" stroke="white" stroke-width="1.5"/>
<path d="M16.375 29.0624L21.14 24.9781C21.4195 24.7385 21.8316 24.7372 22.1126 24.975L25.9058 28.1846C26.2303 28.4592 26.718 28.4095 26.9804 28.0749L33.4854 19.7811C33.7603 19.4305 34.2785 19.3955 34.5981 19.706L40.5625 25.4999" stroke="white" stroke-width="1.5" stroke-linecap="round" stroke-linejoin="round"/>
<path d="M21.4375 21.1875C22.2659 21.1875 22.9375 20.5159 22.9375 19.6875C22.9375 18.8591 22.2659 18.1875 21.4375 18.1875C20.6091 18.1875 19.9375 18.8591 19.9375 19.6875C19.9375 20.5159 20.6091 21.1875 21.4375 21.1875Z" stroke="white" stroke-width="1.5"/>
<path d="M40.375 36.375H16.75C16.3358 36.375 16 36.7108 16 37.125C16 37.5392 16.3358 37.875 16.75 37.875H40.375C40.7892 37.875 41.125 37.5392 41.125 37.125C41.125 36.7108 40.7892 36.375 40.375 36.375Z" fill="white"/>
<path d="M40.375 40.125H16.75C16.3358 40.125 16 40.4608 16 40.875C16 41.2892 16.3358 41.625 16.75 41.625H40.375C40.7892 41.625 41.125 41.2892 41.125 40.875C41.125 40.4608 40.7892 40.125 40.375 40.125Z" fill="white"/>
<path d="M37.375 45.75C42.1385 45.75 46 41.8885 46 37.125C46 32.3615 42.1385 28.5 37.375 28.5C32.6115 28.5 28.75 32.3615 28.75 37.125C28.75 41.8885 32.6115 45.75 37.375 45.75Z" fill="#12B366"/>
<path fill-rule="evenodd" clip-rule="evenodd" d="M37.375 32.625C38.9293 32.625 40.4156 33.4297 41.8007 34.7519C42.2732 35.203 42.7007 35.6845 43.077 36.1663C43.3041 36.457 43.4653 36.6857 43.5536 36.8219L43.75 37.125L43.5536 37.4281C43.4653 37.5643 43.3041 37.793 43.077 38.0837C42.7007 38.5655 42.2732 39.047 41.8007 39.4981C40.4156 40.8203 38.9293 41.625 37.375 41.625C35.8207 41.625 34.3344 40.8203 32.9493 39.4981C32.4768 39.047 32.0493 38.5655 31.673 38.0837C31.4459 37.793 31.2847 37.5643 31.1964 37.4281L31 37.125L31.1964 36.8219C31.2847 36.6857 31.4459 36.457 31.673 36.1663C32.0493 35.6845 32.4768 35.203 32.9493 34.7519C34.3344 33.4297 35.8207 32.625 37.375 32.625ZM42.1745 36.8532C41.8299 36.4122 41.4382 35.9709 41.0084 35.5606C39.8154 34.4219 38.5746 33.75 37.375 33.75C36.1754 33.75 34.9346 34.4219 33.7416 35.5606C33.3118 35.9709 32.9201 36.4122 32.5755 36.8532C32.5011 36.9485 32.4324 37.0394 32.3695 37.125C32.4324 37.2106 32.5011 37.3015 32.5755 37.3968C32.9201 37.8378 33.3118 38.2791 33.7416 38.6894C34.9346 39.8281 36.1754 40.5 37.375 40.5C38.5746 40.5 39.8154 39.8281 41.0084 38.6894C41.4382 38.2791 41.8299 37.8378 42.1745 37.3968C42.2489 37.3015 42.3176 37.2106 42.3805 37.125C42.3176 37.0394 42.2489 36.9485 42.1745 36.8532ZM37.375 39.375C36.1161 39.375 35.0956 38.3676 35.0956 37.125C35.0956 35.8824 36.1161 34.875 37.375 34.875C38.6339 34.875 39.6544 35.8824 39.6544 37.125C39.6544 38.3676 38.6339 39.375 37.375 39.375ZM37.375 38.25C38.0044 38.25 38.5147 37.7463 38.5147 37.125C38.5147 36.5037 38.0044 36 37.375 36C36.7456 36 36.2353 36.5037 36.2353 37.125C36.2353 37.7463 36.7456 38.25 37.375 38.25Z" fill="white"/>
</svg>
