<svg width="60" height="60" viewBox="0 0 60 60" fill="none" xmlns="http://www.w3.org/2000/svg">
<rect width="60" height="60" rx="16" fill="#3E89F4"/>
<path d="M42.5006 16.8125H38.4375V14.9375C38.4375 14.4191 38.0184 14 37.5 14C36.9816 14 36.5625 14.4191 36.5625 14.9375V16.8125H30.9375V14.9375C30.9375 14.4191 30.5175 14 30 14C29.4825 14 29.0625 14.4191 29.0625 14.9375V16.8125H23.4375V14.9375C23.4375 14.4191 23.0175 14 22.5 14C21.9825 14 21.5625 14.4191 21.5625 14.9375V16.8125H17.5003C16.1194 16.8125 15 17.931 15 19.3119V41.4997C15 42.8806 16.1194 44 17.5003 44H42.5006C43.8816 44 45 42.8806 45 41.4997V19.3119C45 17.931 43.8816 16.8125 42.5006 16.8125ZM43.125 41.4997C43.125 41.8447 42.8447 42.125 42.5006 42.125H17.5003C17.1553 42.125 16.875 41.8447 16.875 41.4997V19.3119C16.875 18.9678 17.1553 18.6875 17.5003 18.6875H21.5625V20.5625C21.5625 21.0809 21.9825 21.5 22.5 21.5C23.0175 21.5 23.4375 21.0809 23.4375 20.5625V18.6875H29.0625V20.5625C29.0625 21.0809 29.4825 21.5 30 21.5C30.5175 21.5 30.9375 21.0809 30.9375 20.5625V18.6875H36.5625V20.5625C36.5625 21.0809 36.9816 21.5 37.5 21.5C38.0184 21.5 38.4375 21.0809 38.4375 20.5625V18.6875H42.5006C42.8447 18.6875 43.125 18.9678 43.125 19.3119V41.4997Z" fill="white"/>
<path d="M25.3125 25.25H21.5625V28.0625H25.3125V25.25Z" fill="white"/>
<path d="M25.3125 29.9375H21.5625V32.75H25.3125V29.9375Z" fill="#E4EFFF"/>
<path d="M25.3125 34.625H21.5625V37.4375H25.3125V34.625Z" fill="#B3D2FF"/>
<path d="M31.875 34.625H28.125V37.4375H31.875V34.625Z" fill="white"/>
<path d="M31.875 29.9375H28.125V32.75H31.875V29.9375Z" fill="#B3D2FF"/>
<path d="M31.875 25.25H28.125V28.0625H31.875V25.25Z" fill="#E4EFFF"/>
<path d="M38.4375 34.625H34.6875V37.4375H38.4375V34.625Z" fill="#E4EFFF"/>
<path d="M38.4375 29.9375H34.6875V32.75H38.4375V29.9375Z" fill="white"/>
<path d="M38.4375 25.25H34.6875V28.0625H38.4375V25.25Z" fill="#B3D2FF"/>
</svg>
