<svg width="60" height="60" viewBox="0 0 60 60" fill="none" xmlns="http://www.w3.org/2000/svg">
<rect width="60" height="60" rx="16" fill="#FF2D5A"/>
<path d="M23.0209 19.8889C21.3913 19.8889 20.0542 21.226 20.0542 22.8557C20.0542 24.4853 21.3913 25.8224 23.0209 25.8224C24.6505 25.8224 25.9877 24.4853 25.9877 22.8557C25.9877 21.1843 24.6505 19.8889 23.0209 19.8889ZM23.0209 24.1092C22.3106 24.1092 21.7256 23.5242 21.7256 22.8139C21.7256 22.1035 22.3106 21.5185 23.0209 21.5185C23.7313 21.5185 24.3163 22.1035 24.3163 22.8139C24.3163 23.5242 23.7313 24.1092 23.0209 24.1092Z" fill="white"/>
<path d="M30.168 42.035H22.7721C19.4292 42.035 16.6714 39.319 16.6714 35.9344V35.8508L21.5185 31.4216C21.6439 31.2962 21.8528 31.2962 22.0199 31.4216L25.697 34.8062C26.1149 35.1823 26.6999 35.3912 27.2849 35.3494C27.8699 35.3076 28.4131 34.9733 28.7473 34.5137L35.2658 25.5299C35.3494 25.4045 35.4748 25.4045 35.5165 25.3627C35.6001 25.3627 35.6837 25.3627 35.809 25.4881L39.8622 29.792C41.2411 29.8755 42.5365 30.2098 43.7065 30.7948V22.7721C43.7065 18.4682 40.2383 15 35.9344 15H22.7721C18.51 15 15 18.51 15 22.7721V35.9344C15 40.2383 18.4682 43.7065 22.7721 43.7065H30.7948C30.5441 43.205 30.3352 42.62 30.168 42.035ZM16.7132 22.7721C16.7132 19.4292 19.4292 16.6714 22.8138 16.6714H35.9762C39.319 16.6714 42.0768 19.3874 42.0768 22.7721V29.6248L37.0626 24.3599C36.6448 23.9003 36.0598 23.6913 35.433 23.7331C34.8062 23.7749 34.263 24.0674 33.9287 24.5688L27.3684 33.5526C27.2849 33.678 27.1595 33.678 27.1177 33.7198C27.0759 33.7198 26.9506 33.7198 26.8252 33.6362L23.1481 30.2098C22.3542 29.4995 21.1424 29.4995 20.3903 30.2098L16.7132 33.5944V22.7721Z" fill="white"/>
<path fill-rule="evenodd" clip-rule="evenodd" d="M37.813 36.2683C38.0637 35.349 38.9412 34.6804 39.9858 34.6804C41.1976 34.6804 42.2004 35.5997 42.2004 36.7697C42.2004 37.9397 41.1976 38.8589 39.9858 38.8589C38.9412 38.8589 38.0637 38.1904 37.813 37.2711H33.8434V36.2265H37.813V36.2683ZM35.0134 41.4914C35.2641 40.5721 36.1416 39.9036 37.1862 39.9036C38.398 39.9036 39.4008 40.8228 39.4008 41.9928C39.4008 43.1628 38.398 44.0821 37.1862 44.0821C36.1416 44.0821 35.2641 43.4135 35.0134 42.4943H33.8434V41.4914H35.0134ZM40.529 42.536V41.4914H45V42.536H40.529ZM37.1862 43.0793C37.813 43.0793 38.3144 42.6196 38.3144 42.0346C38.3144 41.4496 37.813 40.99 37.1862 40.99C36.5594 40.99 36.058 41.4496 36.058 42.0346C36.058 42.6196 36.5594 43.0793 37.1862 43.0793ZM43.2868 37.3129V36.2683H44.9583V37.3129H43.2868ZM39.944 37.8561C40.5708 37.8561 41.0722 37.3965 41.0722 36.8115C41.0722 36.2265 40.5708 35.7668 39.944 35.7668C39.3173 35.7668 38.8158 36.2265 38.8158 36.8115C38.8158 37.3965 39.359 37.8561 39.944 37.8561Z" fill="white" stroke="white" stroke-width="0.5"/>
</svg>
