<svg width="60" height="60" viewBox="0 0 60 60" fill="none" xmlns="http://www.w3.org/2000/svg">
<rect width="60" height="60" rx="16" fill="#3E89F4"/>
<path fill-rule="evenodd" clip-rule="evenodd" d="M21.8182 27.2727C24.8306 27.2727 27.2727 24.8306 27.2727 21.8182C27.2727 18.8057 24.8306 16.3636 21.8182 16.3636C18.8057 16.3636 16.3636 18.8057 16.3636 21.8182C16.3636 24.8306 18.8057 27.2727 21.8182 27.2727ZM21.8182 28.6364C25.5838 28.6364 28.6364 25.5838 28.6364 21.8182C28.6364 18.0526 25.5838 15 21.8182 15C18.0526 15 15 18.0526 15 21.8182C15 25.5838 18.0526 28.6364 21.8182 28.6364Z" fill="white"/>
<path d="M23.072 21.8103H22.2631V25.9091H21.0375V21.8103H20.4546V20.3698H21.0375V19.4377C21.0375 18.7711 21.2664 17.7273 22.274 17.7273L23.1819 17.7325V19.1308H22.5232C22.4151 19.1308 22.2632 19.2055 22.2632 19.5234V20.3712H23.1791L23.072 21.8103Z" fill="white"/>
<path fill-rule="evenodd" clip-rule="evenodd" d="M40.9091 16.3636H35.4546C33.9483 16.3636 32.7273 17.5847 32.7273 19.0909V24.5455C32.7273 26.0517 33.9483 27.2727 35.4546 27.2727H40.9091C42.4153 27.2727 43.6364 26.0517 43.6364 24.5455V19.0909C43.6364 17.5847 42.4153 16.3636 40.9091 16.3636ZM35.4546 15C33.1952 15 31.3636 16.8316 31.3636 19.0909V24.5455C31.3636 26.8048 33.1952 28.6364 35.4546 28.6364H40.9091C43.1684 28.6364 45 26.8048 45 24.5455V19.0909C45 16.8316 43.1684 15 40.9091 15H35.4546Z" fill="white"/>
<path fill-rule="evenodd" clip-rule="evenodd" d="M21.8182 39.5455C22.5713 39.5455 23.1819 38.935 23.1819 38.1819C23.1819 37.4287 22.5713 36.8182 21.8182 36.8182C21.0651 36.8182 20.4546 37.4287 20.4546 38.1819C20.4546 38.935 21.0651 39.5455 21.8182 39.5455ZM21.8182 40.9091C23.3245 40.9091 24.5455 39.6881 24.5455 38.1819C24.5455 36.6756 23.3245 35.4546 21.8182 35.4546C20.312 35.4546 19.0909 36.6756 19.0909 38.1819C19.0909 39.6881 20.312 40.9091 21.8182 40.9091Z" fill="white"/>
<path fill-rule="evenodd" clip-rule="evenodd" d="M24.5455 32.7272H19.0909C17.5847 32.7272 16.3636 33.9482 16.3636 35.4544V40.909C16.3636 42.4152 17.5847 43.6363 19.0909 43.6363H24.5455C26.0517 43.6363 27.2727 42.4152 27.2727 40.909V35.4544C27.2727 33.9482 26.0517 32.7272 24.5455 32.7272ZM19.0909 31.3635C16.8316 31.3635 15 33.1951 15 35.4544V40.909C15 43.1683 16.8316 44.9999 19.0909 44.9999H24.5455C26.8048 44.9999 28.6364 43.1683 28.6364 40.909V35.4544C28.6364 33.1951 26.8048 31.3635 24.5455 31.3635H19.0909Z" fill="white"/>
<path d="M24.5454 34.0908H25.909V35.4545H24.5454V34.0908Z" fill="white"/>
<path d="M36.9123 20.4637V24.843H35.6811V20.4637H36.9123ZM37.0394 19.2644C37.0394 19.3686 37.0195 19.4671 36.9798 19.56C36.9401 19.6501 36.8858 19.7304 36.817 19.8007C36.7481 19.8683 36.6674 19.9232 36.5747 19.9654C36.4846 20.0048 36.388 20.0246 36.2847 20.0246C36.1841 20.0246 36.0901 20.0048 36.0028 19.9654C35.9154 19.9232 35.8373 19.8683 35.7684 19.8007C35.7022 19.7304 35.6493 19.6501 35.6096 19.56C35.5725 19.4671 35.554 19.3686 35.554 19.2644C35.554 19.1575 35.5725 19.0575 35.6096 18.9646C35.6493 18.8717 35.7022 18.79 35.7684 18.7197C35.8373 18.6493 35.9154 18.5944 36.0028 18.555C36.0901 18.5156 36.1841 18.4958 36.2847 18.4958C36.388 18.4958 36.4846 18.5156 36.5747 18.555C36.6674 18.5944 36.7481 18.6493 36.817 18.7197C36.8858 18.79 36.9401 18.8717 36.9798 18.9646C37.0195 19.0575 37.0394 19.1575 37.0394 19.2644Z" fill="white"/>
<path d="M38.9086 20.9368C38.9881 20.858 39.0701 20.7848 39.1549 20.7172C39.2396 20.6496 39.3296 20.5933 39.4249 20.5483C39.5229 20.5004 39.6275 20.4638 39.7387 20.4385C39.8526 20.4103 39.9757 20.3962 40.1081 20.3962C40.3331 20.3962 40.5317 20.4385 40.7038 20.5229C40.8786 20.6046 41.0255 20.72 41.1447 20.8692C41.2639 21.0156 41.3539 21.1916 41.4148 21.3971C41.4756 21.5998 41.5061 21.8208 41.5061 22.0601V24.843H40.2749V22.0601C40.2749 21.8461 40.2286 21.68 40.1359 21.5618C40.0432 21.4407 39.9068 21.3802 39.7268 21.3802C39.5917 21.3802 39.4646 21.4112 39.3455 21.4731C39.229 21.5322 39.1152 21.6139 39.0039 21.718V24.843H37.7727V20.4638H38.5353C38.6889 20.4638 38.7895 20.537 38.8371 20.6834L38.9086 20.9368Z" fill="white"/>
<path fill-rule="evenodd" clip-rule="evenodd" d="M39.2272 36.6827C39.0127 36.284 38.8036 35.9526 38.5861 35.6812C38.6599 35.6055 38.7226 35.5422 38.7602 35.5064C39.3845 34.9118 39.9998 34.6611 41.0233 34.6611C42.8838 34.6611 44.4943 36.1643 44.4943 38.1322C44.4943 40.1001 42.8838 41.6033 41.0233 41.6033C39.3731 41.6033 38.672 40.7449 37.6032 38.3696C36.7196 36.406 36.2395 35.8182 35.2382 35.8182C33.936 35.8182 32.9241 36.8988 32.9241 38.1322C32.9241 39.3709 33.9278 40.4462 35.2382 40.4462C35.8417 40.4462 36.5631 40.2061 37.1931 39.8662C37.417 40.2511 37.6386 40.5636 37.8743 40.8118C37.0629 41.274 36.1124 41.6033 35.2382 41.6033C33.2703 41.6033 31.7671 39.9927 31.7671 38.1322C31.7671 36.2762 33.2793 34.6611 35.2382 34.6611C36.8884 34.6611 37.5894 35.5195 38.6583 37.8948C39.5419 39.8584 40.022 40.4462 41.0233 40.4462C42.2619 40.4462 43.3373 39.4426 43.3373 38.1322C43.3373 36.8218 42.2619 35.8182 41.0233 35.8182C40.2996 35.8182 39.9692 35.9527 39.5582 36.3442C39.5038 36.396 39.3686 36.5357 39.2272 36.6827Z" fill="white"/>
</svg>
