<svg width="60" height="60" viewBox="0 0 60 60" fill="none" xmlns="http://www.w3.org/2000/svg">
<rect width="60" height="60" rx="16" fill="#FFAF0D"/>
<path d="M16.7632 24.3924L15.0197 36.6326C14.9386 37.202 15.356 37.7143 15.901 37.7143H36.6534C37.0843 37.7143 37.4535 37.3885 37.5303 36.9405L39.6283 24.7002C39.7274 24.1225 39.3072 23.5909 38.7514 23.5909H17.6445M16.7632 24.3924C16.8289 23.9316 17.2035 23.5909 17.6445 23.5909M16.7632 24.3924L15 36.7727V17.9416C15 17.4215 15.399 17 15.8912 17H22.0619C22.4114 17 22.7287 17.2159 22.8733 17.5521L23.6711 19.4071C23.8156 19.7433 24.1329 19.9592 24.4824 19.9592H37.0164C37.5085 19.9592 37.9075 20.3807 37.9075 20.9007V23.1201L17.6445 23.5909M16.7632 24.3924L17.6445 23.5909" stroke="white" stroke-width="1.5" stroke-linecap="round" stroke-linejoin="round"/>
<path d="M36.7857 42.7144C41.3223 42.7144 45 39.9961 45 36.643C45 33.2898 41.3223 30.5715 36.7857 30.5715C32.2491 30.5715 28.5714 33.2898 28.5714 36.643C28.5714 39.9961 32.2491 42.7144 36.7857 42.7144Z" fill="#FFAF0D"/>
<path fill-rule="evenodd" clip-rule="evenodd" d="M37.7703 35.3005C37.5777 34.9313 37.3899 34.6244 37.1946 34.3731C37.2609 34.303 37.3172 34.2444 37.3509 34.2112C37.9116 33.6606 38.4641 33.4285 39.3831 33.4285C41.0538 33.4285 42.5 34.8205 42.5 36.6428C42.5 38.465 41.0538 39.857 39.3831 39.857C37.9013 39.857 37.2718 39.0621 36.312 36.8626C35.5185 35.0443 35.0874 34.4999 34.1883 34.4999C33.019 34.4999 32.1104 35.5006 32.1104 36.6428C32.1104 37.7898 33.0117 38.7856 34.1883 38.7856C34.7303 38.7856 35.3781 38.5633 35.9438 38.2485C36.1448 38.6049 36.3438 38.8943 36.5554 39.1241C35.8269 39.5521 34.9733 39.857 34.1883 39.857C32.4212 39.857 31.0714 38.3656 31.0714 36.6428C31.0714 34.9241 32.4293 33.4285 34.1883 33.4285C35.6701 33.4285 36.2996 34.2234 37.2594 36.4229C38.0529 38.2412 38.484 38.7856 39.3831 38.7856C40.4954 38.7856 41.461 37.8562 41.461 36.6428C41.461 35.4293 40.4954 34.4999 39.3831 34.4999C38.7332 34.4999 38.4366 34.6245 38.0675 34.987C38.0187 35.035 37.8972 35.1644 37.7703 35.3005Z" fill="white"/>
</svg>
