<svg width="60" height="60" viewBox="0 0 60 60" fill="none" xmlns="http://www.w3.org/2000/svg">
<rect width="60" height="60" rx="16" fill="#12B366"/>
<g clip-path="url(#clip0)">
<path d="M38.2923 19H21.7077C20.2123 19 19 20.1695 19 21.6122V32.3878C19 33.8305 20.2123 35 21.7077 35H38.2923C39.7877 35 41 33.8305 41 32.3878V21.6122C41 20.1695 39.7877 19 38.2923 19Z" stroke="white" stroke-width="1.5"/>
<path d="M40.5538 16H19.4462C17.5429 16 16 17.9005 16 20.2449V37.7551C16 40.0995 17.5429 42 19.4462 42H40.5538C42.4571 42 44 40.0995 44 37.7551V20.2449C44 17.9005 42.4571 16 40.5538 16Z" stroke="white" stroke-width="1.5"/>
<path d="M19 32L23.3341 28.1584C23.5883 27.933 23.9631 27.9318 24.2187 28.1554L27.6688 31.1744C27.964 31.4327 28.4076 31.3858 28.6462 31.0712L34.5629 23.2701C34.813 22.9403 35.2843 22.9074 35.575 23.1995L41 28.6492" stroke="white" stroke-width="1.5" stroke-linecap="round" stroke-linejoin="round"/>
<path d="M24 24C24.5523 24 25 23.5523 25 23C25 22.4477 24.5523 22 24 22C23.4477 22 23 22.4477 23 23C23 23.5523 23.4477 24 24 24Z" stroke="white" stroke-width="2"/>
<path d="M37.2717 37.7993C37.029 37.7993 36.8324 37.996 36.8324 38.2386V39.6331H35.4379C35.1953 39.6331 34.9987 39.8297 34.9987 40.0723C34.9987 40.315 35.1953 40.5116 35.4379 40.5116H36.8324V41.9061C36.8324 42.1487 37.029 42.3454 37.2717 42.3454C37.5143 42.3454 37.711 42.1487 37.711 41.9061V40.5116H39.1054C39.3481 40.5116 39.5447 40.315 39.5447 40.0723C39.5447 39.8297 39.3481 39.6331 39.1054 39.6331H37.711V38.2386C37.7109 37.996 37.5143 37.7993 37.2717 37.7993Z" fill="white"/>
<path d="M21.0038 38.768C21.0563 38.2408 20.6715 37.771 20.1444 37.7186C19.6172 37.6661 19.1474 38.0509 19.095 38.578C19.0425 39.1052 19.4273 39.575 19.9544 39.6274C20.4816 39.6799 20.9514 39.2951 21.0038 38.768Z" fill="white"/>
<path d="M24.3947 38.7682C24.4472 38.2411 24.0624 37.7712 23.5352 37.7188C23.0081 37.6663 22.5383 38.0511 22.4858 38.5783C22.4334 39.1054 22.8182 39.5752 23.3453 39.6277C23.8724 39.6801 24.3423 39.2953 24.3947 38.7682Z" fill="white"/>
<path d="M27.7863 38.7687C27.8388 38.2416 27.454 37.7717 26.9268 37.7193C26.3997 37.6669 25.9299 38.0516 25.8774 38.5788C25.825 39.1059 26.2098 39.5757 26.7369 39.6282C27.264 39.6806 27.7339 39.2958 27.7863 38.7687Z" fill="white"/>
<path d="M38.2143 48.1429C42.7509 48.1429 46.4286 45.4246 46.4286 42.0714C46.4286 38.7183 42.7509 36 38.2143 36C33.6777 36 30 38.7183 30 42.0714C30 45.4246 33.6777 48.1429 38.2143 48.1429Z" fill="#12B366"/>
<path fill-rule="evenodd" clip-rule="evenodd" d="M38.1989 39.7292C38.0062 39.36 37.8185 39.0531 37.6232 38.8018C37.6895 38.7317 37.7458 38.6731 37.7795 38.6399C38.3401 38.0893 38.8926 37.8572 39.8117 37.8572C41.4824 37.8572 42.9286 39.2492 42.9286 41.0715C42.9286 42.8937 41.4824 44.2857 39.8117 44.2857C38.3299 44.2857 37.7004 43.4909 36.7406 41.2913C35.9471 39.473 35.516 38.9286 34.6169 38.9286C33.4476 38.9286 32.539 39.9294 32.539 41.0715C32.539 42.2185 33.4403 43.2143 34.6169 43.2143C35.1589 43.2143 35.8066 42.992 36.3724 42.6772C36.5734 43.0336 36.7724 43.323 36.984 43.5529C36.2555 43.9809 35.4019 44.2857 34.6169 44.2857C32.8498 44.2857 31.5 42.7943 31.5 41.0715C31.5 39.3528 32.8579 37.8572 34.6169 37.8572C36.0987 37.8572 36.7282 38.6521 37.688 40.8516C38.4815 42.6699 38.9126 43.2143 39.8117 43.2143C40.924 43.2143 41.8896 42.2849 41.8896 41.0715C41.8896 39.858 40.924 38.9286 39.8117 38.9286C39.1618 38.9286 38.8652 39.0532 38.4961 39.4157C38.4473 39.4637 38.3258 39.5931 38.1989 39.7292Z" fill="white"/>
</g>
<defs>
<clipPath id="clip0">
<rect width="30" height="30" fill="white" transform="translate(15 15)"/>
</clipPath>
</defs>
</svg>
