<svg width="60" height="60" viewBox="0 0 60 60" fill="none" xmlns="http://www.w3.org/2000/svg">
<rect width="60" height="60" rx="16" fill="#FFAF0D"/>
<path d="M32.8666 16.8667C32.8666 15.8357 33.7023 15 34.7333 15C35.7642 15 36.6 15.8357 36.6 16.8667V18.7333H41.2666V23.4H43.1333C44.1642 23.4 45 24.2357 45 25.2667C45 26.2976 44.1642 27.1333 43.1333 27.1333H41.2666V31.8H36.6V29.9333C36.6 28.9024 35.7642 28.0667 34.7333 28.0667C33.7023 28.0667 32.8666 28.9024 32.8666 29.9333V31.8H28.2V27.1333H30.0666C31.0976 27.1333 31.9333 26.2976 31.9333 25.2667C31.9333 24.2357 31.0976 23.4 30.0666 23.4H28.2V18.7333H32.8666V16.8667Z" stroke="white" stroke-width="1.5" stroke-linecap="square"/>
<path d="M19.7778 16.8667C19.7778 15.8357 20.6334 15 21.6889 15C22.7444 15 23.6 15.8357 23.6 16.8667V18.7333H28.3778V23.4H30.2889C31.3444 23.4 32.2 24.2357 32.2 25.2667C32.2 26.2976 31.3444 27.1333 30.2889 27.1333H28.3778V31.8H23.6V29.9333C23.6 28.9024 22.7444 28.0667 21.6889 28.0667C20.6334 28.0667 19.7778 28.9024 19.7778 29.9333V31.8H15V27.1333H16.9111C17.9666 27.1333 18.8222 26.2976 18.8222 25.2667C18.8222 24.2357 17.9666 23.4 16.9111 23.4H15V18.7333H19.7778V16.8667Z" stroke="white" stroke-width="1.5" stroke-linecap="square"/>
<path d="M19.7778 30.0666C19.7778 29.0357 20.6334 28.2 21.6889 28.2C22.7444 28.2 23.6 29.0357 23.6 30.0666V31.9333H28.3778V36.6H30.2889C31.3444 36.6 32.2 37.4357 32.2 38.4666C32.2 39.4976 31.3444 40.3333 30.2889 40.3333H28.3778V45H23.6V43.1333C23.6 42.1023 22.7444 41.2666 21.6889 41.2666C20.6334 41.2666 19.7778 42.1023 19.7778 43.1333V45H15V40.3333H16.9111C17.9666 40.3333 18.8222 39.4976 18.8222 38.4666C18.8222 37.4357 17.9666 36.6 16.9111 36.6H15V31.9333H19.7778V30.0666Z" stroke="white" stroke-width="1.5" stroke-linecap="square"/>
<path d="M32.8666 30.0666C32.8666 29.0357 33.7023 28.2 34.7333 28.2C35.7642 28.2 36.6 29.0357 36.6 30.0666V31.9333H41.2666V36.6H43.1333C44.1642 36.6 45 37.4357 45 38.4666C45 39.4976 44.1642 40.3333 43.1333 40.3333H41.2666V45H36.6V43.1333C36.6 42.1023 35.7642 41.2666 34.7333 41.2666C33.7023 41.2666 32.8666 42.1023 32.8666 43.1333V45H28.2V40.3333H30.0666C31.0976 40.3333 31.9333 39.4976 31.9333 38.4666C31.9333 37.4357 31.0976 36.6 30.0666 36.6H28.2V31.9333H32.8666V30.0666Z" stroke="white" stroke-width="1.5" stroke-linecap="square"/>
</svg>
