<svg width="60" height="60" viewBox="0 0 60 60" fill="none" xmlns="http://www.w3.org/2000/svg">
<rect width="60" height="60" rx="16" fill="#12B366"/>
<path d="M30.7383 15.9469C30.1279 15.3362 29.316 15 28.4527 15C27.5894 15 26.7775 15.3362 26.167 15.9467C25.5564 16.5573 25.2201 17.369 25.2201 18.2323C25.2201 18.8895 25.4154 19.5161 25.7775 20.0474L19.4838 35.4584C19.0924 35.2939 18.6683 35.2073 18.2309 35.2073C17.3678 35.2073 16.5559 35.5433 15.9453 36.1538C14.685 37.4143 14.6848 39.4649 15.9453 40.7253L19.2737 44.0538C19.8842 44.6642 20.696 45.0004 21.5594 45.0004C22.423 45.0004 23.2346 44.6642 23.845 44.0538C24.4554 43.4433 24.7917 42.6315 24.7919 41.7681C24.7919 41.3307 24.7052 40.9066 24.5406 40.5152L27.7416 39.2081L28.9926 40.4591C29.7946 41.2611 31.043 41.712 32.2407 41.712C32.7827 41.712 33.3144 41.6198 33.7896 41.4257L36.8576 40.1726C37.7058 39.826 38.2815 39.1856 38.4366 38.4152C38.5919 37.645 38.3094 36.8313 37.6612 36.1833L36.9322 35.4543L39.9512 34.2213C40.4826 34.5834 41.1094 34.7786 41.7665 34.7786C41.7667 34.7786 41.7667 34.7786 41.7667 34.7786C42.6298 34.7786 43.4417 34.4424 44.0521 33.832C45.3124 32.5715 45.3124 30.5207 44.0521 29.2604L30.7383 15.9469ZM35.0491 34.3246C35.0462 34.3257 35.0432 34.327 35.0402 34.3282L27.6234 37.3575C27.6205 37.3586 27.6175 37.3598 27.6147 37.3609L23.4319 39.0693L20.9297 36.5671L27.1021 21.4532L38.5454 32.8967L35.0491 34.3246ZM22.6019 42.8109C22.3236 43.0893 21.9533 43.2426 21.5594 43.2426C21.1655 43.2426 20.7951 43.0892 20.5165 42.8107L17.1881 39.4825C16.6132 38.9075 16.6132 37.9718 17.1881 37.3969C17.4667 37.1183 17.837 36.9649 18.2309 36.9649C18.6248 36.9649 18.9951 37.1185 19.2737 37.3971L22.6019 40.7253C22.8805 41.0038 23.034 41.3742 23.034 41.7679C23.0338 42.162 22.8805 42.5321 22.6019 42.8109ZM36.4183 37.4264C36.6429 37.6509 36.7505 37.8848 36.7134 38.0679C36.6765 38.2513 36.4868 38.4253 36.1929 38.5452L33.1249 39.7983C32.2522 40.1547 30.9022 39.8825 30.2357 39.2163L29.5065 38.4873L35.167 36.1753L36.4183 37.4264ZM42.8091 32.5889C42.5305 32.8675 42.1604 33.0208 41.7667 33.0208C41.7667 33.0208 41.7667 33.0208 41.7665 33.0208C41.3726 33.0208 41.002 32.8672 40.7234 32.5889L27.4099 19.2751V19.2749C27.1313 18.9966 26.978 18.6265 26.978 18.2325C26.978 17.8386 27.1313 17.4683 27.4099 17.1897C27.6885 16.9112 28.0588 16.7578 28.4527 16.7578C28.8466 16.7578 29.2169 16.9112 29.4955 17.1897L42.8091 30.5033C43.384 31.0785 43.384 32.0139 42.8091 32.5889Z" fill="white"/>
<path d="M40.1035 20.7757C40.3282 20.7757 40.5532 20.6899 40.7249 20.5182L44.7425 16.5006C45.0858 16.1573 45.0858 15.6008 44.7425 15.2575C44.3992 14.9142 43.8428 14.9142 43.4997 15.2575L39.4818 19.2751C39.1387 19.6185 39.1387 20.1749 39.4818 20.5182C39.6535 20.6899 39.8785 20.7757 40.1035 20.7757Z" fill="white"/>
<path d="M36.1086 18.1128C36.3336 18.1128 36.5586 18.027 36.7302 17.8553L38.0853 16.5003C38.4286 16.1573 38.4286 15.6008 38.0853 15.2575C37.7421 14.9142 37.1855 14.9142 36.8422 15.2575L35.4872 16.6125C35.1441 16.9556 35.1441 17.512 35.4872 17.8553C35.6589 18.027 35.8839 18.1128 36.1086 18.1128Z" fill="white"/>
<path d="M43.497 21.914L42.142 23.2693C41.7987 23.6126 41.7987 24.169 42.142 24.5124C42.3137 24.684 42.5385 24.7696 42.7635 24.7696C42.9884 24.7696 43.2134 24.6838 43.3848 24.5124L44.7399 23.1571C45.0832 22.8138 45.0832 22.2574 44.7399 21.914C44.3965 21.571 43.8401 21.571 43.497 21.914Z" fill="white"/>
</svg>
