<svg width="30" height="30" viewBox="0 0 30 30" fill="none" xmlns="http://www.w3.org/2000/svg">
<path fill-rule="evenodd" clip-rule="evenodd" d="M0 14.8323C0 6.91708 6.71575 0.500488 15 0.500488C23.2843 0.500488 30 6.91708 30 14.8323C30 22.7475 23.2843 29.1641 15 29.1641C6.71575 29.1641 0 22.7475 0 14.8323ZM10.6003 12.3707H7.201V22.1294H10.6003V12.3707ZM10.8243 9.352C10.8022 8.39517 10.0861 7.6664 8.92313 7.6664C7.76025 7.6664 7 8.39517 7 9.352C7 10.289 7.73781 11.0387 8.879 11.0387H8.90075C10.0861 11.0387 10.8243 10.289 10.8243 9.352ZM22.8596 16.534C22.8596 13.5367 21.1826 12.1416 18.9457 12.1416C17.1409 12.1416 16.3328 13.0887 15.8817 13.7532V12.371H12.4819C12.5267 13.2867 12.4819 22.1296 12.4819 22.1296H15.8817V16.6796C15.8817 16.3879 15.9037 16.097 15.9936 15.8882C16.2393 15.3055 16.7987 14.7022 17.7378 14.7022C18.9684 14.7022 19.4603 15.5971 19.4603 16.9084V22.1294H22.8595L22.8596 16.534Z" fill="#3E89F4"/>
</svg>
