<svg width="20" height="18" viewBox="0 0 20 18" fill="none" xmlns="http://www.w3.org/2000/svg">
<path d="M19.127 0.301888C18.2245 -0.184074 17.2179 0.753139 16.6278 1.30852C15.2741 2.62756 14.1286 4.15487 12.8442 5.54334C11.4211 7.07065 10.102 8.59796 8.64415 10.0906C7.81107 10.9237 6.90857 11.8262 6.35318 12.8675C5.10356 11.6526 4.0275 10.3335 2.63904 9.25753C1.63241 8.49388 -0.0337505 7.93849 0.000961081 9.77821C0.0703842 12.1734 2.18779 14.742 3.74981 16.3734C4.40933 17.0676 5.27712 17.7966 6.28376 17.8313C7.49866 17.9007 8.74828 16.4428 9.47722 15.6445C10.7616 14.256 11.803 12.6939 12.9831 11.2708C14.5104 9.39638 16.0724 7.55661 17.565 5.64747C18.5022 4.46728 21.4527 1.55145 19.127 0.301888ZM1.52821 9.63936C1.4935 9.63936 1.45879 9.63936 1.38937 9.67402C1.25052 9.63936 1.14639 9.60459 1.00754 9.53517C1.11168 9.46575 1.28523 9.50046 1.52821 9.63936Z" fill="#2BBD56"/>
</svg>
