<svg width="59" height="24" viewBox="0 0 59 24" fill="none" xmlns="http://www.w3.org/2000/svg">
<path fill-rule="evenodd" clip-rule="evenodd" d="M16.5734 24C21.4175 22.3721 24.9236 17.6149 24.9236 12C24.9236 6.38506 21.4174 1.62793 16.5734 0H46.002C52.6294 0 58.002 5.37258 58.002 12C58.002 18.6274 52.6294 24 46.002 24H16.5734Z" fill="#FF6A00"/>
<path d="M31.9444 12.613C32.2691 12.613 32.5546 12.5714 32.8011 12.4881C33.0514 12.4049 33.2607 12.2895 33.429 12.142C33.6011 11.9906 33.7302 11.811 33.8162 11.6029C33.9023 11.3948 33.9453 11.1659 33.9453 10.9162C33.9453 10.398 33.7791 9.99317 33.4466 9.70187C33.118 9.41057 32.6172 9.26492 31.9444 9.26492H30.5947V12.613H31.9444ZM31.9444 8.3967C32.4764 8.3967 32.938 8.45723 33.3292 8.57829C33.7243 8.69557 34.051 8.86392 34.3091 9.08334C34.5673 9.30276 34.759 9.56757 34.8842 9.87779C35.0133 10.188 35.0778 10.5342 35.0778 10.9162C35.0778 11.2946 35.0094 11.6407 34.8725 11.9547C34.7356 12.2687 34.5341 12.5392 34.2681 12.7662C34.006 12.9932 33.6793 13.171 33.2881 13.2996C32.9008 13.4244 32.4529 13.4869 31.9444 13.4869H30.5947V16.5285H29.4622V8.3967H31.9444Z" fill="white"/>
<path d="M38.8402 12.3349C39.1688 12.3349 39.4583 12.2971 39.7087 12.2214C39.9629 12.142 40.1742 12.0323 40.3424 11.8923C40.5145 11.7485 40.6436 11.5783 40.7297 11.3816C40.8158 11.1848 40.8588 10.9673 40.8588 10.729C40.8588 10.2447 40.6945 9.87968 40.3659 9.63378C40.0373 9.38788 39.5444 9.26492 38.8872 9.26492H37.6432V12.3349H38.8402ZM42.7248 16.5285H41.7155C41.5082 16.5285 41.3556 16.4509 41.2578 16.2958L39.0749 13.3904C39.0084 13.2996 38.9361 13.2353 38.8578 13.1975C38.7835 13.1558 38.6661 13.135 38.5057 13.135H37.6432V16.5285H36.5106V8.3967H38.8872C39.4192 8.3967 39.8788 8.44967 40.2661 8.55559C40.6534 8.65774 40.9722 8.80717 41.2226 9.00389C41.4769 9.20061 41.6647 9.43895 41.7859 9.7189C41.9072 9.99506 41.9678 10.3053 41.9678 10.6495C41.9678 10.9371 41.9209 11.2057 41.827 11.4553C41.7331 11.705 41.5962 11.9301 41.4162 12.1306C41.2402 12.3273 41.0231 12.4957 40.7649 12.6357C40.5106 12.7756 40.2211 12.8816 39.8964 12.9534C40.0412 13.0329 40.1664 13.1483 40.272 13.2996L42.7248 16.5285Z" fill="white"/>
<path d="M51.5574 12.4654C51.5574 13.0745 51.4577 13.6344 51.2582 14.1451C51.0587 14.6521 50.777 15.089 50.4132 15.456C50.0494 15.8229 49.6112 16.1086 49.0988 16.3128C48.5902 16.5133 48.0269 16.6136 47.4088 16.6136C46.7907 16.6136 46.2274 16.5133 45.7188 16.3128C45.2103 16.1086 44.7741 15.8229 44.4103 15.456C44.0465 15.089 43.7648 14.6521 43.5653 14.1451C43.3658 13.6344 43.266 13.0745 43.266 12.4654C43.266 11.8564 43.3658 11.2983 43.5653 10.7914C43.7648 10.2807 44.0465 9.84185 44.4103 9.47489C44.7741 9.10414 45.2103 8.81663 45.7188 8.61234C46.2274 8.40805 46.7907 8.30591 47.4088 8.30591C48.0269 8.30591 48.5902 8.40805 49.0988 8.61234C49.6112 8.81663 50.0494 9.10414 50.4132 9.47489C50.777 9.84185 51.0587 10.2807 51.2582 10.7914C51.4577 11.2983 51.5574 11.8564 51.5574 12.4654ZM50.3897 12.4654C50.3897 11.9661 50.3193 11.5178 50.1785 11.1205C50.0376 10.7233 49.8381 10.3885 49.5799 10.1161C49.3218 9.83996 49.0088 9.6281 48.6411 9.48056C48.2733 9.33302 47.8626 9.25925 47.4088 9.25925C46.9589 9.25925 46.5501 9.33302 46.1824 9.48056C45.8147 9.6281 45.4998 9.83996 45.2377 10.1161C44.9795 10.3885 44.78 10.7233 44.6391 11.1205C44.4983 11.5178 44.4279 11.9661 44.4279 12.4654C44.4279 12.9648 44.4983 13.4131 44.6391 13.8103C44.78 14.2038 44.9795 14.5386 45.2377 14.8147C45.4998 15.0871 45.8147 15.2971 46.1824 15.4446C46.5501 15.5884 46.9589 15.6603 47.4088 15.6603C47.8626 15.6603 48.2733 15.5884 48.6411 15.4446C49.0088 15.2971 49.3218 15.0871 49.5799 14.8147C49.8381 14.5386 50.0376 14.2038 50.1785 13.8103C50.3193 13.4131 50.3897 12.9648 50.3897 12.4654Z" fill="white"/>
<path d="M11.9702 24C18.5801 24 23.9384 18.6274 23.9384 12C23.9384 5.37258 18.5801 0 11.9702 0C5.36032 0 0.00195312 5.37258 0.00195312 12C0.00195312 18.6274 5.36032 24 11.9702 24Z" fill="#FF6A00" fill-opacity="0.5"/>
<path fill-rule="evenodd" clip-rule="evenodd" d="M20.2859 9.39226L12.6614 4.99065L5.0369 9.39226L12.6614 13.7939L20.2859 9.39226ZM13.5194 4.49533C13.0455 4.22176 12.2772 4.22176 11.8034 4.49533L4.1789 8.89693C3.70504 9.1705 3.70503 9.61403 4.1789 9.88759L11.8034 14.2892C12.2772 14.5628 13.0455 14.5628 13.5194 14.2892L21.1439 9.88759C21.6177 9.61403 21.6177 9.1705 21.1439 8.89693L13.5194 4.49533Z" fill="white"/>
<path d="M3.99261 9.78589C3.99261 9.51231 4.21439 9.29053 4.48797 9.29053C4.76155 9.29053 4.98333 9.51231 4.98333 9.78589V13.7488C4.98333 14.0223 4.76155 14.2441 4.48797 14.2441C4.21439 14.2441 3.99261 14.0223 3.99261 13.7488V9.78589Z" fill="white"/>
<path fill-rule="evenodd" clip-rule="evenodd" d="M4.48803 16.7208C4.76161 16.7208 4.98339 16.499 4.98339 16.2255C4.98339 15.9519 4.76161 15.7301 4.48803 15.7301C4.21445 15.7301 3.99267 15.9519 3.99267 16.2255C3.99267 16.499 4.21445 16.7208 4.48803 16.7208ZM4.48803 17.7115C5.30876 17.7115 5.9741 17.0462 5.9741 16.2255C5.9741 15.4047 5.30876 14.7394 4.48803 14.7394C3.66729 14.7394 3.00195 15.4047 3.00195 16.2255C3.00195 17.0462 3.66729 17.7115 4.48803 17.7115Z" fill="white"/>
<path fill-rule="evenodd" clip-rule="evenodd" d="M8.92766 17.5565C9.92108 18.0532 11.3281 18.3747 12.9094 18.3747C14.4906 18.3747 15.8977 18.0532 16.8911 17.5565C17.9142 17.045 18.3583 16.43 18.3583 15.8979H19.349C19.349 17.0074 18.4625 17.8785 17.3342 18.4426C16.1762 19.0216 14.6111 19.3655 12.9094 19.3655C11.2077 19.3655 9.64259 19.0216 8.4846 18.4426C7.35623 17.8785 6.46973 17.0074 6.46973 15.8979H7.46044C7.46044 16.43 7.90461 17.045 8.92766 17.5565Z" fill="white"/>
<path fill-rule="evenodd" clip-rule="evenodd" d="M8.92748 14.5751C9.9209 15.0718 11.328 15.3933 12.9092 15.3933C14.4904 15.3933 15.8975 15.0718 16.8909 14.5751C17.914 14.0635 18.3581 13.4485 18.3581 12.9165H19.3489C19.3489 14.0259 18.4623 14.897 17.334 15.4612C16.176 16.0402 14.6109 16.384 12.9092 16.384C11.2075 16.384 9.64241 16.0402 8.48442 15.4612C7.35605 14.897 6.46954 14.0259 6.46954 12.9165H7.46026C7.46026 13.4485 7.90443 14.0635 8.92748 14.5751Z" fill="white"/>
<path d="M6.46973 11.5462C6.46973 11.2087 6.69358 10.9351 6.96973 10.9351C7.24587 10.9351 7.46973 11.2087 7.46973 11.5462V15.8239C7.46973 16.1615 7.24587 16.4351 6.96973 16.4351C6.69358 16.4351 6.46973 16.1615 6.46973 15.8239V11.5462Z" fill="white"/>
<path d="M18.3579 11.0395C18.3579 10.7081 18.5818 10.4395 18.8579 10.4395C19.1341 10.4395 19.3579 10.7081 19.3579 11.0395V15.8395C19.3579 16.1708 19.1341 16.4395 18.8579 16.4395C18.5818 16.4395 18.3579 16.1708 18.3579 15.8395V11.0395Z" fill="white"/>
</svg>
