<svg width="20" height="18" viewBox="0 0 20 18" fill="none" xmlns="http://www.w3.org/2000/svg">
<path d="M3.73099 11.1527C3.73099 12.17 2.89999 13.001 1.88271 13.001C0.865455 13.001 0.0344238 12.17 0.0344238 11.1527C0.0344238 10.1355 0.865455 9.30444 1.88271 9.30444H3.73099V11.1527Z" fill="#E01E5A"/>
<path d="M4.66223 11.1527C4.66223 10.1355 5.49326 9.30444 6.51051 9.30444C7.5278 9.30444 8.35879 10.1355 8.35879 11.1527V15.7806C8.35879 16.7979 7.5278 17.6289 6.51051 17.6289C5.49326 17.6289 4.66223 16.7979 4.66223 15.7806V11.1527Z" fill="#E01E5A"/>
<path d="M6.51051 3.73099C5.49326 3.73099 4.66223 2.89999 4.66223 1.88271C4.66223 0.865455 5.49326 0.0344238 6.51051 0.0344238C7.5278 0.0344238 8.35879 0.865455 8.35879 1.88271V3.73099H6.51051Z" fill="#36C5F0"/>
<path d="M6.51058 4.66211C7.52786 4.66211 8.35886 5.49314 8.35886 6.51039C8.35886 7.52768 7.52786 8.35867 6.51058 8.35867H1.88271C0.865455 8.35867 0.0344238 7.52768 0.0344238 6.51039C0.0344238 5.49314 0.865455 4.66211 1.88271 4.66211H6.51058Z" fill="#36C5F0"/>
<path d="M13.9323 6.51039C13.9323 5.49314 14.7633 4.66211 15.7805 4.66211C16.7978 4.66211 17.6288 5.49314 17.6288 6.51039C17.6288 7.52768 16.7978 8.35867 15.7805 8.35867H13.9323V6.51039Z" fill="#2EB67D"/>
<path d="M13.001 6.51058C13.001 7.52786 12.17 8.35886 11.1527 8.35886C10.1355 8.35886 9.30444 7.52786 9.30444 6.51058V1.88271C9.30444 0.865455 10.1355 0.0344238 11.1527 0.0344238C12.17 0.0344238 13.001 0.865455 13.001 1.88271V6.51058Z" fill="#2EB67D"/>
<path d="M11.1527 13.9324C12.17 13.9324 13.001 14.7634 13.001 15.7807C13.001 16.7979 12.17 17.6289 11.1527 17.6289C10.1355 17.6289 9.30444 16.7979 9.30444 15.7807V13.9324H11.1527Z" fill="#ECB22E"/>
<path d="M11.1527 13.001C10.1355 13.001 9.30444 12.17 9.30444 11.1527C9.30444 10.1355 10.1355 9.30444 11.1527 9.30444H15.7806C16.7979 9.30444 17.6289 10.1355 17.6289 11.1527C17.6289 12.17 16.7979 13.001 15.7806 13.001H11.1527Z" fill="#ECB22E"/>
</svg>
