<svg width="66" height="24" viewBox="0 0 66 24" fill="none" xmlns="http://www.w3.org/2000/svg">
<path fill-rule="evenodd" clip-rule="evenodd" d="M16.5734 24C21.4175 22.3721 24.9236 17.6149 24.9236 12C24.9236 6.38506 21.4174 1.62793 16.5734 0H53.0021C59.6295 0 65.0021 5.37258 65.0021 12C65.0021 18.6274 59.6295 24 53.0021 24H16.5734Z" fill="#2BBD56"/>
<path d="M33.2734 9.37998H30.4894V17H29.3314V9.37998H26.5414V8.40198H33.2734V9.37998Z" fill="white"/>
<path d="M39.8532 16.052L39.8472 17H34.5492V8.40198H39.8472V9.34998H35.7132V12.206H39.0612V13.118H35.7132V16.052H39.8532Z" fill="white"/>
<path d="M46.041 13.808L44.691 10.31C44.651 10.206 44.609 10.086 44.565 9.94998C44.521 9.80998 44.479 9.66198 44.439 9.50598C44.355 9.82998 44.269 10.1 44.181 10.316L42.831 13.808H46.041ZM48.465 17H47.565C47.461 17 47.377 16.974 47.313 16.922C47.249 16.87 47.201 16.804 47.169 16.724L46.365 14.648H42.507L41.703 16.724C41.679 16.796 41.633 16.86 41.565 16.916C41.497 16.972 41.413 17 41.313 17H40.413L43.851 8.40198H45.027L48.465 17Z" fill="white"/>
<path d="M58.5421 8.40198V17H57.5221V10.682C57.5221 10.598 57.5241 10.508 57.5281 10.412C57.5361 10.316 57.5441 10.218 57.5521 10.118L54.6001 15.494C54.5081 15.674 54.3681 15.764 54.1801 15.764H54.0121C53.8241 15.764 53.6841 15.674 53.5921 15.494L50.5801 10.094C50.6041 10.306 50.6161 10.502 50.6161 10.682V17H49.5961V8.40198H50.4541C50.5581 8.40198 50.6381 8.41198 50.6941 8.43198C50.7501 8.45198 50.8041 8.50798 50.8561 8.59998L53.8261 13.892C53.8741 13.988 53.9201 14.088 53.9641 14.192C54.0121 14.296 54.0561 14.402 54.0961 14.51C54.1361 14.402 54.1781 14.296 54.2221 14.192C54.2661 14.084 54.3141 13.982 54.3661 13.886L57.2821 8.59998C57.3301 8.50798 57.3821 8.45198 57.4381 8.43198C57.4981 8.41198 57.5801 8.40198 57.6841 8.40198H58.5421Z" fill="white"/>
<path d="M11.9702 24C18.5801 24 23.9385 18.6274 23.9385 12C23.9385 5.37258 18.5801 0 11.9702 0C5.36032 0 0.00195312 5.37258 0.00195312 12C0.00195312 18.6274 5.36032 24 11.9702 24Z" fill="#2BBD56" fill-opacity="0.5"/>
<path fill-rule="evenodd" clip-rule="evenodd" d="M8.66821 6.6C8.66821 5.71635 9.27711 5 10.0282 5H14.1082C14.8593 5 15.4682 5.71635 15.4682 6.6V7.4H14.7882V6.6C14.7882 6.15817 14.4838 5.8 14.1082 5.8H10.0282C9.65266 5.8 9.34821 6.15817 9.34821 6.6V7.4H8.66821V6.6Z" fill="white"/>
<path fill-rule="evenodd" clip-rule="evenodd" d="M5.78629 10.1333V18.1939H18.551V10.1333H19.402V18.1939C19.402 18.6391 19.021 19 18.551 19H5.78629C5.3163 19 4.9353 18.6391 4.9353 18.1939V10.1333H5.78629Z" fill="white"/>
<path fill-rule="evenodd" clip-rule="evenodd" d="M4.00195 8.48058C4.00195 7.84713 4.52429 7.33362 5.16862 7.33362H19.1687C19.813 7.33362 20.3353 7.84713 20.3353 8.48058V9.39704C20.3353 9.95565 19.926 10.433 19.366 10.5275L13.4011 11.5336L13.2696 10.78L19.2344 9.77386C19.4211 9.74237 19.5576 9.58325 19.5576 9.39704V8.48058C19.5576 8.26943 19.3834 8.09826 19.1687 8.09826H5.16862C4.95385 8.09826 4.77973 8.26943 4.77973 8.48058V9.39704C4.77973 9.58325 4.91618 9.74237 5.10286 9.77386L11.0677 10.78L10.9362 11.5336L4.97133 10.5275C4.41131 10.433 4.00195 9.95565 4.00195 9.39704V8.48058Z" fill="white"/>
<path fill-rule="evenodd" clip-rule="evenodd" d="M12.985 10.4959H11.3517V12.57H12.985V10.4959ZM11.3517 9.66626C10.9007 9.66626 10.535 10.0377 10.535 10.4959V12.57C10.535 13.0282 10.9007 13.3996 11.3517 13.3996H12.985C13.4361 13.3996 13.8017 13.0282 13.8017 12.57V10.4959C13.8017 10.0377 13.4361 9.66626 12.985 9.66626H11.3517Z" fill="white"/>
</svg>
