<svg width="20" height="20" viewBox="0 0 20 20" fill="none" xmlns="http://www.w3.org/2000/svg">
<path d="M10 20C15.5228 20 20 15.5228 20 10C20 4.47715 15.5228 0 10 0C4.47715 0 0 4.47715 0 10C0 15.5228 4.47715 20 10 20Z" fill="#039BE5"/>
<path d="M4.57581 9.78326L14.2175 6.06576C14.665 5.9041 15.0558 6.17493 14.9108 6.8516L14.9116 6.85076L13.27 14.5849C13.1483 15.1333 12.8225 15.2666 12.3666 15.0083L9.86664 13.1658L8.66081 14.3274C8.52748 14.4608 8.41498 14.5733 8.15664 14.5733L8.33414 12.0291L12.9675 7.84326C13.1691 7.66576 12.9225 7.56576 12.6566 7.74243L6.93081 11.3474L4.46247 10.5774C3.92664 10.4074 3.91497 10.0416 4.57581 9.78326Z" fill="white"/>
</svg>
