<svg width="30" height="25" viewBox="0 0 30 25" fill="none" xmlns="http://www.w3.org/2000/svg">
<path d="M9.43474 24.1302C20.7561 24.1302 26.9472 14.8474 26.9472 6.79804C26.9472 6.53436 26.9417 6.27182 26.9298 6.01064C28.1314 5.15074 29.176 4.07769 30 2.85626C28.8972 3.34148 27.7103 3.66791 26.4654 3.81537C27.7361 3.06104 28.7119 1.86816 29.1719 0.446029C27.9826 1.14373 26.6656 1.65069 25.2635 1.92456C24.1404 0.740513 22.5412 0 20.7706 0C17.3717 0 14.6152 2.72805 14.6152 6.09083C14.6152 6.56902 14.6693 7.03385 14.7748 7.47988C9.65927 7.22504 5.12306 4.80121 2.08763 1.11519C1.55914 2.0154 1.25427 3.06127 1.25427 4.17714C1.25427 6.2904 2.341 8.15629 3.9933 9.24769C2.98347 9.21688 2.03499 8.94256 1.20575 8.48588C1.20483 8.51148 1.20483 8.5364 1.20483 8.56358C1.20483 11.5139 3.32634 13.9771 6.14296 14.5353C5.62569 14.6746 5.08141 14.7495 4.51996 14.7495C4.12399 14.7495 3.7381 14.711 3.36296 14.6397C4.14665 17.0601 6.41899 18.8214 9.11293 18.8707C7.0063 20.5049 4.35242 21.4783 1.46828 21.4783C0.972061 21.4783 0.481796 21.4502 0 21.394C2.72392 23.1219 5.95871 24.1304 9.43497 24.1304" fill="#3E89F4"/>
</svg>
