<svg width="20" height="20" viewBox="0 0 20 20" fill="none" xmlns="http://www.w3.org/2000/svg">
<path d="M1.42125 9.99969C1.42125 13.4059 3.39 16.3434 6.265 17.7203L2.16406 6.50844C1.68813 7.5625 1.40625 8.75 1.40625 9.99969H1.42125ZM15.7909 9.56688C15.7909 8.50625 15.41 7.7725 15.0834 7.20125C14.6487 6.49406 14.2412 5.89594 14.2412 5.18906C14.2412 4.40062 14.8387 3.66656 15.6816 3.66656C15.7194 3.66656 15.7441 3.66656 15.8066 3.67344C14.2666 2.28125 12.2188 1.40625 10 1.42125C7.00281 1.42125 4.36656 2.95906 2.8325 5.29625C3.03406 5.29625 3.23875 5.29625 3.395 5.30656C4.29219 5.30656 5.68125 5.1975 5.68125 5.1975C6.14344 5.17063 6.2125 5.85375 5.74375 5.91625C5.74375 5.91625 5.27906 5.97063 4.76188 5.99781L7.88594 15.29L9.76344 9.65969L8.42719 5.99781C7.965 5.97063 7.5275 5.91625 7.5275 5.91625C7.065 5.88906 7.11937 5.18219 7.58187 5.20937C7.58187 5.20937 8.98812 5.30312 9.83187 5.31844C10.7288 5.31844 12.1184 5.20937 12.1184 5.20937C12.5806 5.1825 12.6497 5.86562 12.1809 5.91625C12.1809 5.91625 11.7156 5.97063 11.1991 5.99781L14.2991 15.2191L15.155 12.3603C15.5087 11.1562 15.7812 10.3125 15.7812 9.56688H15.7909ZM10.1503 10.75L7.57625 18.2294C8.345 18.4481 9.17 18.5731 10.0138 18.5731C11.0128 18.5731 11.9706 18.4006 12.8625 18.0869C12.84 18.05 12.8184 18.0109 12.8013 17.9684L10.1503 10.75ZM17.5275 5.875C17.5647 6.15625 17.59 6.4375 17.59 6.75719C17.59 7.6275 17.4272 8.60594 16.9375 9.82969L14.3172 17.4053C16.8675 15.9184 18.5828 13.1553 18.5828 9.99031C18.5784 8.5 18.1875 7.09375 17.5312 5.88438L17.5275 5.875ZM10 0C4.48594 0 0 4.48594 0 10C0 15.5 4.5 20 10 20C15.5 20 20 15.5141 20 9.99969C20 4.5 15.5 0 10 0ZM10 19.5416C4.73906 19.5416 0.458438 15.2609 0.458438 9.99969C0.458438 4.75 4.75 0.46875 10 0.46875C15.25 0.46875 19.5419 4.75 19.5312 10.01C19.5416 15.25 15.25 19.5312 10 19.5416Z" fill="#0073AA"/>
</svg>
