<svg width="60" height="60" viewBox="0 0 60 60" fill="none" xmlns="http://www.w3.org/2000/svg">
<rect width="60" height="60" rx="16" fill="#FF2D5A"/>
<g clip-path="url(#clip0)">
<path d="M45 20.8633C45 17.6324 42.3715 15.0039 39.1406 15.0039C37.0844 15.0039 35.2022 16.0883 34.1502 17.7936C32.8311 17.3465 31.4336 17.1133 30 17.1133C28.5664 17.1133 27.1689 17.3465 25.8498 17.7936C24.7978 16.0883 22.9156 15.0039 20.8594 15.0039C17.6285 15.0039 15 17.6324 15 20.8633C15 22.9195 16.0844 24.8017 17.7896 25.8537C17.3426 27.1728 17.1094 28.5703 17.1094 30.0039C17.1094 33.4471 18.4502 36.6842 20.885 39.1189C21.3114 39.5453 21.7628 39.9374 22.2352 40.2953L19.552 43.4883L21.3463 44.9961L24.2457 41.5458C26.0106 42.4278 27.9694 42.8945 30 42.8945C32.0306 42.8945 33.9893 42.4278 35.7543 41.5458L38.6537 44.9961L40.448 43.4883L37.7648 40.2953C38.2372 39.9374 38.6887 39.5453 39.1151 39.1189C41.5498 36.6842 42.8906 33.4471 42.8906 30.0039C42.8906 28.5704 42.6574 27.1728 42.2104 25.8537C43.9156 24.8017 45 22.9195 45 20.8633ZM17.3438 20.8633C17.3438 18.9248 18.9209 17.3477 20.8594 17.3477C21.9862 17.3477 23.0258 17.8902 23.6786 18.7634C22.6676 19.3339 21.7281 20.0457 20.8849 20.8889C20.0418 21.7321 19.33 22.6716 18.7594 23.6825C17.8863 23.0297 17.3438 21.99 17.3438 20.8633ZM30 40.5508C24.1845 40.5508 19.4531 35.8195 19.4531 30.0039C19.4531 24.1884 24.1845 19.457 30 19.457C35.8155 19.457 40.5469 24.1884 40.5469 30.0039C40.5469 35.8195 35.8155 40.5508 30 40.5508ZM41.2405 23.6825C40.67 22.6715 39.9582 21.732 39.115 20.8888C38.2719 20.0457 37.3323 19.3339 36.3214 18.7633C36.9742 17.8902 38.0138 17.3477 39.1406 17.3477C41.0791 17.3477 42.6562 18.9248 42.6562 20.8633C42.6562 21.99 42.1137 23.0297 41.2405 23.6825ZM31.1719 24.1445H28.8281V31.1758H35.8594V28.832H31.1719V24.1445Z" fill="white"/>
</g>
<defs>
<clipPath id="clip0">
<rect width="30" height="30" fill="white" transform="translate(15 15)"/>
</clipPath>
</defs>
</svg>
