<svg width="60" height="60" viewBox="0 0 60 60" fill="none" xmlns="http://www.w3.org/2000/svg">
<rect width="60" height="60" rx="16" fill="#3E89F4"/>
<path d="M30.4377 39.2616C33.9999 39.2616 36.8755 36.5232 36.8755 33.1308C36.8755 29.7384 33.9999 27 30.4377 27C26.8755 27 24 29.7384 24 33.1308C24 36.5232 26.8755 39.2616 30.4377 39.2616Z" stroke="white" stroke-width="1.5" stroke-linecap="square"/>
<path d="M30.4377 29.0435V33.2124L33.0128 35.583" stroke="white" stroke-width="1.5" stroke-linecap="round" stroke-linejoin="round"/>
<rect x="15.75" y="16.75" width="28.5" height="26.5" rx="1.25" stroke="white" stroke-width="1.5"/>
<line x1="16" y1="22.75" x2="44" y2="22.75" stroke="white" stroke-width="1.5"/>
<line x1="16" y1="22.75" x2="44" y2="22.75" stroke="white" stroke-width="1.5"/>
<rect x="18" y="19" width="7" height="1.5" rx="0.75" fill="white"/>
<rect x="39" y="19" width="3" height="1.5" rx="0.75" fill="white"/>
<rect x="35" y="19" width="3" height="1.5" rx="0.75" fill="white"/>
</svg>
