<svg width="60" height="60" viewBox="0 0 60 60" fill="none" xmlns="http://www.w3.org/2000/svg">
<rect width="60" height="60" rx="16" fill="#12B366"/>
<g clip-path="url(#clip0)">
<rect x="15.75" y="17.75" width="23.5" height="23.5" rx="5.25" stroke="white" stroke-width="1.5"/>
<path d="M42 26L38.7771 29L37 21.5L39.7152 19L42 26Z" fill="#12B366"/>
<path d="M44.3775 20.4338L42.5652 18.6213C41.7371 17.7932 40.3899 17.7932 39.5618 18.6213C38.7821 19.401 26.8737 31.3103 26.0779 32.1062C25.9931 32.191 25.9363 32.3036 25.9161 32.4138L25.0099 37.3075C24.9748 37.4973 25.0353 37.6922 25.1717 37.8286C25.3083 37.9652 25.5032 38.0256 25.6927 37.9904L30.586 37.0841C30.6991 37.0631 30.8103 37.0057 30.8937 36.9223L44.3775 23.4374C45.2075 22.6074 45.2077 21.2639 44.3775 20.4338ZM26.3173 36.6829L26.8655 33.7226L29.2775 36.1347L26.3173 36.6829ZM30.4794 35.6793L27.3208 32.5206L38.8524 20.988L42.011 24.1468L30.4794 35.6793ZM43.5489 22.6088L42.8396 23.3182L39.681 20.1594L40.3904 19.45C40.7615 19.0788 41.3654 19.0788 41.7366 19.45L43.5489 21.2625C43.921 21.6346 43.921 22.2367 43.5489 22.6088Z" fill="white"/>
<rect x="20" y="23.5" width="15" height="1.5" rx="0.75" fill="white"/>
<rect x="20" y="27.5" width="11" height="1.5" rx="0.75" fill="white"/>
</g>
<defs>
<clipPath id="clip0">
<rect width="30" height="30" fill="white" transform="translate(15 15)"/>
</clipPath>
</defs>
</svg>
