<svg width="60" height="60" viewBox="0 0 60 60" fill="none" xmlns="http://www.w3.org/2000/svg">
<rect width="60" height="60" rx="16" fill="#FF6A00"/>
<g clip-path="url(#clip0)">
<path d="M24 36C24 33.75 27 33.75 28.5 32.25C29.25 31.5 27 31.5 27 27.75C27 25.2503 27.9997 24 30 24C32.0003 24 33 25.2503 33 27.75C33 31.5 30.75 31.5 31.5 32.25C33 33.75 36 33.75 36 36" stroke="white" stroke-width="1.5" stroke-linecap="square"/>
<path d="M18 33C18 31.5 20 31.5 21 30.5C21.5 30 20 30 20 27.5C20 25.8335 20.6665 25 22 25C23.3335 25 24 25.8335 24 27.5C24 30 22.5 30 23 30.5C24 31.5 26 31.5 26 33" stroke="white" stroke-width="1.5" stroke-linecap="square"/>
<path d="M34 33C34 31.5 36 31.5 37 30.5C37.5 30 36 30 36 27.5C36 25.8335 36.6665 25 38 25C39.3335 25 40 25.8335 40 27.5C40 30 38.5 30 39 30.5C40 31.5 42 31.5 42 33" stroke="white" stroke-width="1.5" stroke-linecap="square"/>
<path d="M15 15.75C15 15.3358 15.3358 15 15.75 15C16.1642 15 16.5 15.3358 16.5 15.75V19.25C16.5 19.6642 16.1642 20 15.75 20C15.3358 20 15 19.6642 15 19.25V15.75Z" fill="white"/>
<path d="M15.75 16.5C15.3358 16.5 15 16.1642 15 15.75C15 15.3358 15.3358 15 15.75 15L19.25 15C19.6642 15 20 15.3358 20 15.75C20 16.1642 19.6642 16.5 19.25 16.5L15.75 16.5Z" fill="white"/>
<path d="M15 44.25C15 44.6642 15.3358 45 15.75 45C16.1642 45 16.5 44.6642 16.5 44.25V40.75C16.5 40.3358 16.1642 40 15.75 40C15.3358 40 15 40.3358 15 40.75V44.25Z" fill="white"/>
<path d="M15.75 43.5C15.3358 43.5 15 43.8358 15 44.25C15 44.6642 15.3358 45 15.75 45L19.25 45C19.6642 45 20 44.6642 20 44.25C20 43.8358 19.6642 43.5 19.25 43.5L15.75 43.5Z" fill="white"/>
<path d="M45 15.75C45 15.3358 44.6642 15 44.25 15C43.8358 15 43.5 15.3358 43.5 15.75V19.25C43.5 19.6642 43.8358 20 44.25 20C44.6642 20 45 19.6642 45 19.25V15.75Z" fill="white"/>
<path d="M44.25 16.5C44.6642 16.5 45 16.1642 45 15.75C45 15.3358 44.6642 15 44.25 15L40.75 15C40.3358 15 40 15.3358 40 15.75C40 16.1642 40.3358 16.5 40.75 16.5L44.25 16.5Z" fill="white"/>
<path d="M45 44.25C45 44.6642 44.6642 45 44.25 45C43.8358 45 43.5 44.6642 43.5 44.25V40.75C43.5 40.3358 43.8358 40 44.25 40C44.6642 40 45 40.3358 45 40.75V44.25Z" fill="white"/>
<path d="M44.25 43.5C44.6642 43.5 45 43.8358 45 44.25C45 44.6642 44.6642 45 44.25 45L40.75 45C40.3358 45 40 44.6642 40 44.25C40 43.8358 40.3358 43.5 40.75 43.5L44.25 43.5Z" fill="white"/>
</g>
<defs>
<clipPath id="clip0">
<rect width="30" height="30" fill="white" transform="translate(15 15)"/>
</clipPath>
</defs>
</svg>
