<svg width="169" height="202" viewBox="0 0 169 202" fill="none" xmlns="http://www.w3.org/2000/svg">
<path d="M11.7147 195.977C11.1752 196.095 10.6419 195.754 10.5233 195.215C10.4048 194.675 10.7459 194.142 11.2853 194.023L11.7147 195.977ZM128 113L127.759 112.03L128 113ZM150 127.5L150.887 127.037L150 127.5ZM11.2853 194.023C12.1142 193.841 12.9326 193.657 13.7408 193.47L14.1908 195.419C13.3756 195.607 12.5503 195.793 11.7147 195.977L11.2853 194.023ZM18.4684 192.324C20.1021 191.908 21.6909 191.483 23.2366 191.049L23.7777 192.974C22.2157 193.413 20.6108 193.843 18.9615 194.262L18.4684 192.324ZM27.8895 189.673C29.4894 189.177 31.0392 188.669 32.541 188.152L33.1924 190.043C31.6708 190.567 30.1016 191.081 28.4827 191.583L27.8895 189.673ZM37.1547 186.475C38.7147 185.878 40.2181 185.268 41.6677 184.649L42.4539 186.488C40.9803 187.118 39.4535 187.736 37.8705 188.343L37.1547 186.475ZM46.0857 182.65C47.5921 181.929 49.0345 181.195 50.4171 180.451L51.3652 182.212C49.9542 182.972 48.4835 183.719 46.9492 184.454L46.0857 182.65ZM54.6514 178.027C56.0804 177.157 57.4382 176.274 58.7308 175.38L59.8683 177.025C58.5434 177.941 57.1531 178.845 55.6914 179.735L54.6514 178.027ZM62.6339 172.499C63.9393 171.47 65.1709 170.429 66.3371 169.378L67.6758 170.864C66.4774 171.944 65.2122 173.013 63.872 174.07L62.6339 172.499ZM69.8359 166.007C70.9913 164.817 72.0774 163.617 73.106 162.411L74.6279 163.708C73.573 164.945 72.458 166.177 71.271 167.4L69.8359 166.007ZM76.1474 158.621C77.1414 157.308 78.0828 155.991 78.9864 154.673L80.636 155.804C79.7175 157.143 78.7577 158.487 77.742 159.828L76.1474 158.621ZM81.6802 150.592C82.5691 149.201 83.4316 147.816 84.2872 146.436L85.9868 147.491C85.1307 148.871 84.2621 150.266 83.3654 151.669L81.6802 150.592ZM86.8909 142.258C87.7738 140.86 88.6678 139.474 89.5908 138.108L91.2479 139.228C90.3404 140.571 89.4584 141.938 88.582 143.326L86.8909 142.258ZM92.4786 134.06C93.4756 132.745 94.5211 131.456 95.634 130.197L97.1324 131.522C96.0569 132.738 95.043 133.989 94.0722 135.269L92.4786 134.06ZM99.112 126.597C100.303 125.473 101.569 124.383 102.927 123.331L104.152 124.912C102.847 125.922 101.63 126.97 100.485 128.051L99.112 126.597ZM107.019 120.466C108.381 119.606 109.824 118.78 111.36 117.992L112.274 119.771C110.79 120.533 109.398 121.33 108.087 122.157L107.019 120.466ZM115.889 115.892C117.366 115.275 118.917 114.689 120.55 114.133L121.194 116.027C119.602 116.568 118.093 117.139 116.66 117.738L115.889 115.892ZM125.3 112.674C126.102 112.453 126.921 112.238 127.759 112.03L128.241 113.97C127.42 114.175 126.618 114.385 125.834 114.602L125.3 112.674ZM127.759 112.03C128.592 111.822 129.411 111.631 130.215 111.454L130.644 113.408C129.858 113.58 129.058 113.767 128.241 113.97L127.759 112.03ZM135.044 110.545C136.752 110.281 138.384 110.091 139.943 109.97L140.097 111.964C138.592 112.08 137.011 112.264 135.351 112.522L135.044 110.545ZM144.889 109.817C146.642 109.851 148.285 109.984 149.823 110.205L149.539 112.184C148.088 111.976 146.527 111.849 144.851 111.817L144.889 109.817ZM154.736 111.306C156.453 111.847 157.993 112.519 159.368 113.297L158.383 115.038C157.136 114.332 155.725 113.715 154.135 113.213L154.736 111.306ZM163.457 116.352C164.751 117.62 165.779 119.005 166.567 120.446L164.813 121.406C164.118 120.135 163.208 118.908 162.057 117.78L163.457 116.352ZM168.324 125.281C168.675 127.057 168.723 128.815 168.51 130.446L166.527 130.188C166.711 128.774 166.671 127.235 166.362 125.669L168.324 125.281ZM166.81 135.418C165.772 137.075 164.289 138.33 162.449 138.757L161.996 136.809C163.199 136.53 164.284 135.684 165.115 134.356L166.81 135.418ZM157.083 137.71C155.809 136.949 154.516 135.819 153.224 134.287L154.753 132.998C155.937 134.402 157.067 135.371 158.108 135.992L157.083 137.71ZM150.346 130.178C149.935 129.486 149.523 128.748 149.113 127.963L150.887 127.037C151.28 127.792 151.674 128.498 152.065 129.155L150.346 130.178ZM149.113 127.963C148.711 127.191 148.331 126.421 147.972 125.652L149.785 124.807C150.131 125.549 150.498 126.292 150.887 127.037L149.113 127.963ZM146.015 120.924C145.423 119.294 144.913 117.667 144.471 116.041L146.401 115.516C146.829 117.093 147.323 118.666 147.895 120.241L146.015 120.924ZM143.316 111.068C142.988 109.396 142.717 107.722 142.487 106.042L144.468 105.77C144.694 107.418 144.959 109.054 145.278 110.684L143.316 111.068ZM141.902 101C141.739 99.3302 141.599 97.6507 141.47 95.9603L143.464 95.8072C143.593 97.4903 143.731 99.1547 143.892 100.806L141.902 101ZM141.1 90.933C140.979 89.2779 140.854 87.6096 140.71 85.9228L142.703 85.7536C142.848 87.4523 142.974 89.13 143.095 90.7873L141.1 90.933ZM140.228 80.9311C140.048 79.2986 139.841 77.6477 139.596 75.9753L141.575 75.685C141.824 77.3844 142.034 79.0593 142.216 80.7118L140.228 80.9311ZM138.764 71.0459C138.456 69.4436 138.106 67.8201 137.704 66.1733L139.647 65.6994C140.057 67.3802 140.415 69.036 140.728 70.6687L138.764 71.0459ZM136.4 61.3712C135.933 59.8164 135.416 58.2398 134.841 56.6398L136.723 55.9634C137.31 57.5977 137.839 59.2081 138.315 60.7962L136.4 61.3712ZM133.031 51.9931C132.403 50.4977 131.723 48.9814 130.984 47.443L132.786 46.5769C133.54 48.1456 134.235 49.6925 134.875 51.2189L133.031 51.9931ZM128.715 42.9981C127.945 41.5723 127.123 40.1274 126.245 38.6625L127.961 37.6349C128.853 39.1247 129.69 40.5952 130.474 42.0473L128.715 42.9981ZM123.594 34.4358C122.704 33.0789 121.766 31.705 120.777 30.3135L122.407 29.155C123.41 30.5665 124.362 31.961 125.266 33.3391L123.594 34.4358ZM117.809 26.2873C116.818 24.989 115.782 23.6756 114.7 22.3465L116.251 21.0835C117.346 22.4285 118.395 23.7584 119.399 25.0736L117.809 26.2873ZM111.464 18.4893C110.405 17.262 109.306 16.0217 108.165 14.7679L109.645 13.4222C110.796 14.6885 111.907 15.9417 112.978 17.1823L111.464 18.4893ZM104.751 11.1046C103.611 9.9098 102.433 8.70295 101.217 7.4838L102.634 6.07145C103.86 7.3008 105.047 8.5182 106.198 9.7239L104.751 11.1046ZM97.6676 3.99592C97.0584 3.40905 96.4403 2.81936 95.8132 2.22684L97.1868 0.77314C97.8185 1.37003 98.4412 1.96416 99.0551 2.55556L97.6676 3.99592Z" fill="#FFD3DD"/>
<path d="M0.548331 195.403C0.276423 195.203 0.276422 194.797 0.548331 194.597L7.45393 189.523C7.78414 189.28 8.25 189.516 8.25 189.926L8.25 200.074C8.25 200.484 7.78414 200.72 7.45393 200.477L0.548331 195.403Z" fill="#FFD3DD"/>
</svg>
