<svg width="316" height="217" viewBox="0 0 316 217" fill="none" xmlns="http://www.w3.org/2000/svg">
<path d="M16.2784 210.46C15.7479 210.614 15.1933 210.309 15.0395 209.778C14.8858 209.248 15.1912 208.693 15.7216 208.54L16.2784 210.46ZM15.7216 208.54C16.5473 208.3 17.3672 208.062 18.1813 207.823L18.7427 209.743C17.927 209.982 17.1056 210.221 16.2784 210.46L15.7216 208.54ZM22.9974 206.402C24.5801 205.93 26.1402 205.461 27.6781 204.994L28.2592 206.908C26.7179 207.376 25.1545 207.846 23.5685 208.318L22.9974 206.402ZM32.4264 203.537C34.0442 203.036 35.6363 202.538 37.2035 202.042L37.8069 203.949C36.2358 204.446 34.6398 204.946 33.0183 205.448L32.4264 203.537ZM41.8304 200.562C43.4519 200.038 45.0454 199.516 46.6116 198.998L47.24 200.897C45.6694 201.417 44.0715 201.939 42.4457 202.465L41.8304 200.562ZM51.3041 197.426C52.8774 196.893 54.4218 196.363 55.938 195.835L56.5949 197.725C55.0737 198.253 53.5244 198.785 51.9463 199.32L51.3041 197.426ZM60.676 194.166C62.224 193.613 63.741 193.063 65.2279 192.517L65.9176 194.394C64.425 194.942 62.9024 195.494 61.3489 196.049L60.676 194.166ZM69.9658 190.749C71.5158 190.162 73.0311 189.579 74.5129 189L75.2409 190.863C73.7525 191.445 72.2306 192.03 70.6742 192.62L69.9658 190.749ZM79.1789 187.145C80.7181 186.522 82.2188 185.904 83.6824 185.291L84.4555 187.136C82.984 187.752 81.4756 188.373 79.9289 188.999L79.1789 187.145ZM88.3006 183.318C89.8264 182.653 91.3092 181.993 92.7508 181.339L93.5772 183.16C92.1263 183.819 90.6343 184.482 89.0996 185.151L88.3006 183.318ZM97.29 179.234C98.8186 178.509 100.298 177.79 101.73 177.078L102.62 178.869C101.177 179.587 99.6866 180.31 98.1472 181.041L97.29 179.234ZM106.078 174.863C107.6 174.067 109.065 173.281 110.478 172.502L111.444 174.253C110.018 175.039 108.539 175.833 107.004 176.635L106.078 174.863ZM114.776 170.063C116.24 169.208 117.643 168.364 118.991 167.528L120.044 169.228C118.681 170.073 117.263 170.927 115.785 171.79L114.776 170.063ZM123.13 164.881C124.547 163.947 125.9 163.024 127.198 162.113L128.347 163.75C127.034 164.672 125.665 165.606 124.231 166.551L123.13 164.881ZM131.192 159.221C132.553 158.205 133.855 157.202 135.11 156.213L136.348 157.784C135.081 158.783 133.765 159.796 132.388 160.823L131.192 159.221ZM138.96 153.109C140.261 152.039 141.522 150.984 142.762 149.941L144.049 151.472C142.807 152.516 141.54 153.577 140.23 154.654L138.96 153.109ZM146.554 146.75C147.829 145.682 149.101 144.626 150.389 143.584L151.647 145.138C150.371 146.171 149.109 147.218 147.839 148.283L146.554 146.75ZM154.31 140.502C155.614 139.512 156.953 138.533 158.346 137.564L159.488 139.206C158.12 140.157 156.804 141.119 155.519 142.095L154.31 140.502ZM162.516 134.806C163.887 133.946 165.316 133.094 166.818 132.25L167.798 133.993C166.325 134.821 164.923 135.656 163.579 136.5L162.516 134.806ZM171.233 129.9C172.668 129.178 174.167 128.461 175.74 127.749L176.565 129.571C175.016 130.272 173.542 130.977 172.133 131.687L171.233 129.9ZM180.322 125.777C181.81 125.168 183.359 124.563 184.976 123.96L185.675 125.834C184.077 126.43 182.547 127.028 181.08 127.628L180.322 125.777ZM189.711 122.272C191.225 121.755 192.794 121.24 194.422 120.727L195.023 122.635C193.41 123.143 191.856 123.653 190.357 124.165L189.711 122.272ZM199.156 119.29C200.718 118.832 202.331 118.376 203.997 117.921L204.524 119.85C202.869 120.302 201.268 120.755 199.718 121.209L199.156 119.29ZM208.767 116.659C209.585 116.449 210.416 116.239 211.259 116.03L211.741 117.97C210.903 118.179 210.077 118.387 209.264 118.596L208.767 116.659ZM211.259 116.03C212.129 115.813 212.989 115.607 213.837 115.411L214.287 117.36C213.45 117.553 212.601 117.757 211.741 117.97L211.259 116.03ZM218.79 114.355C220.548 114.014 222.253 113.718 223.907 113.468L224.207 115.445C222.582 115.691 220.904 115.982 219.172 116.319L218.79 114.355ZM228.983 112.82C230.738 112.639 232.428 112.514 234.056 112.439L234.147 114.437C232.559 114.51 230.906 114.633 229.187 114.809L228.983 112.82ZM239.227 112.377C241.039 112.421 242.763 112.535 244.402 112.715L244.184 114.703C242.605 114.53 240.938 114.419 239.179 114.377L239.227 112.377ZM249.521 113.543C251.306 113.934 252.967 114.415 254.512 114.976L253.829 116.856C252.373 116.326 250.797 115.87 249.093 115.497L249.521 113.543ZM259.306 117.172C260.917 118.087 262.352 119.109 263.621 120.219L262.305 121.724C261.14 120.706 259.816 119.761 258.319 118.911L259.306 117.172ZM267.192 124.125C268.258 125.599 269.115 127.155 269.783 128.757L267.937 129.526C267.326 128.061 266.544 126.642 265.572 125.297L267.192 124.125ZM271.273 133.841C271.589 135.597 271.718 137.365 271.684 139.104L269.685 139.066C269.716 137.451 269.596 135.815 269.304 134.195L271.273 133.841ZM271.096 144.337C270.729 146.107 270.203 147.804 269.545 149.378L267.7 148.608C268.307 147.153 268.796 145.579 269.137 143.932L271.096 144.337ZM266.969 154.022C265.834 155.583 264.528 156.894 263.095 157.836L261.996 156.165C263.189 155.381 264.328 154.254 265.351 152.846L266.969 154.022ZM257.703 159.428C255.941 159.339 254.188 158.657 252.524 157.336L253.768 155.769C255.15 156.867 256.512 157.365 257.804 157.43L257.703 159.428ZM248.969 153.29C248.505 152.581 248.053 151.806 247.613 150.963L249.387 150.037C249.799 150.828 250.219 151.546 250.643 152.197L248.969 153.29ZM247.613 150.963C247.198 150.165 246.855 149.356 246.582 148.535L248.48 147.905C248.718 148.622 249.019 149.333 249.387 150.037L247.613 150.963ZM245.766 143.405C245.766 141.732 246.006 140.035 246.451 138.319L248.387 138.821C247.978 140.396 247.766 141.924 247.766 143.406L245.766 143.405ZM248.17 133.537C248.835 132.068 249.624 130.582 250.518 129.081L252.236 130.105C251.374 131.553 250.621 132.971 249.992 134.361L248.17 133.537ZM253.245 124.897C254.168 123.584 255.159 122.258 256.208 120.918L257.782 122.151C256.751 123.468 255.781 124.767 254.881 126.048L253.245 124.897ZM259.328 117.086C260.366 115.854 261.444 114.611 262.555 113.357L264.052 114.683C262.95 115.927 261.883 117.158 260.857 118.375L259.328 117.086ZM265.857 109.698C266.952 108.502 268.071 107.297 269.206 106.083L270.667 107.449C269.535 108.659 268.421 109.859 267.331 111.049L265.857 109.698ZM272.581 102.493C273.693 101.315 274.832 100.111 275.96 98.9168L277.414 100.29C276.274 101.497 275.157 102.678 274.035 103.866L272.581 102.493ZM279.319 95.3463C280.433 94.1557 281.548 92.9575 282.658 91.7519L284.129 93.1065C283.015 94.3172 281.896 95.5195 280.779 96.7131L279.319 95.3463ZM285.958 88.1245C287.05 86.9085 288.132 85.6855 289.2 84.4555L290.71 85.7668C289.634 87.0062 288.545 88.2376 287.446 89.4607L285.958 88.1245ZM292.369 80.7293C293.417 79.4689 294.446 78.2018 295.449 76.9282L297.02 78.1661C296.005 79.4548 294.965 80.7355 293.907 82.0081L292.369 80.7293ZM298.412 73.0454C299.385 71.7265 300.325 70.4014 301.229 69.0701L302.884 70.1936C301.964 71.548 301.008 72.8943 300.022 74.2321L298.412 73.0454ZM303.867 64.9907C304.723 63.5941 305.533 62.1916 306.292 60.7833L308.053 61.7321C307.275 63.1755 306.446 64.6103 305.572 66.0361L303.867 64.9907ZM308.455 56.439C309.132 54.9531 309.746 53.4618 310.29 51.9653L312.17 52.6487C311.607 54.1981 310.973 55.7382 310.275 57.2684L308.455 56.439ZM311.731 47.3688C312.14 45.8074 312.467 44.2409 312.705 42.6694L314.682 42.9686C314.433 44.6139 314.092 46.2498 313.665 47.8757L311.731 47.3688ZM313.144 37.9051C313.195 36.3193 313.149 34.7278 312.998 33.1306L314.99 32.943C315.148 34.626 315.197 36.3016 315.143 37.9692L313.144 37.9051ZM312.246 28.4102C311.901 26.8809 311.455 25.345 310.901 23.8026L312.783 23.126C313.365 24.745 313.834 26.3599 314.197 27.9702L312.246 28.4102ZM309.027 19.4003C308.345 18.0159 307.571 16.6256 306.701 15.2298L308.399 14.1718C309.303 15.6221 310.109 17.0704 310.821 18.5165L309.027 19.4003ZM303.976 11.2635C303.029 10.003 302 8.73808 300.885 7.46896L302.388 6.14944C303.534 7.4549 304.596 8.75906 305.575 10.0618L303.976 11.2635ZM297.614 3.97923C297.032 3.3959 296.432 2.81178 295.813 2.22685L297.187 0.773142C297.82 1.37135 298.434 1.96928 299.03 2.56693L297.614 3.97923Z" fill="#FFD3DD"/>
<path d="M0.548331 210.403C0.276423 210.203 0.276422 209.797 0.548331 209.597L7.45393 204.523C7.78414 204.28 8.25 204.516 8.25 204.926L8.25 215.074C8.25 215.484 7.78414 215.72 7.45393 215.477L0.548331 210.403Z" fill="#FFD3DD"/>
</svg>
