<?xml version="1.0" encoding="utf-8"?>
<!-- Generator: Adobe Illustrator 22.0.1, SVG Export Plug-In . SVG Version: 6.00 Build 0)  -->
<svg version="1.1" id="Слой_1" xmlns="http://www.w3.org/2000/svg" xmlns:xlink="http://www.w3.org/1999/xlink" x="0px" y="0px"
	 viewBox="0 0 253.9 47.3" style="enable-background:new 0 0 253.9 47.3;" xml:space="preserve">
<style type="text/css">
	.st0{fill:#000000;}
</style>
<path class="st0" d="M203.9,25.2c0.1,0.1,0.1,0.4,0,0.4l-0.8,0.2c-0.5,0.1-0.6,0.5-0.6,1.4c-0.1,1-0.1,1.9,0,2.9
	c0.1,0.5,0.1,0.5,0.6,0.7l-0.1,0.4c-0.7,0.2-3.2,0.9-5.3,0.9c-5.7,0-8.8-2.8-8.8-8.4c0-3.3,1.7-5.9,4.4-7.1c1.4-0.6,2.8-1,4.9-1
	c1.9,0,3.4,0.4,4.7,0.5c-0.2,0.7-0.4,2.5-0.4,3.7l-0.5,0.1c-0.2-1.9-0.5-2.5-1.2-2.9c-0.8-0.5-2-0.7-3.5-0.7c-4,0-6.1,2.8-6.1,7.3
	s2.4,7.9,6.8,7.9c0.7,0,1.5-0.1,1.8-0.3c0.5-0.2,0.6-0.5,0.7-1.2l0.1-2.9c-0.1-1-0.2-1.2-1-1.4l-1.2-0.2c-0.1-0.1-0.1-0.4,0-0.4
	l3.2,0.1L203.9,25.2L203.9,25.2z M222.7,26.5c0,1.8-0.8,3.5-2.3,4.5c-0.6,0.4-1.7,0.9-2.8,0.9c-3.6,0-4.9-2.8-4.9-5.3
	c0-1.9,0.9-3.3,2.2-4.1c0.8-0.6,2-1,3.2-1C221,21.5,222.7,23.7,222.7,26.5z M220.7,27.3c0-2.9-1.2-5.1-3.5-5.1c-0.4,0-1,0.1-1.3,0.4
	c-0.6,0.4-1.3,1.5-1.3,3.4c0,3,1.4,5.2,3.5,5.2c0.5,0,1.1-0.2,1.6-0.6C220.5,29.9,220.7,28.8,220.7,27.3z M245.9,26.1
	c0,1.9-0.7,3.4-2.1,4.5c-1.1,0.9-2.5,1.4-4,1.5l-1-0.2l-0.1,0.1l0.1,4.8c0,0.7,0.2,0.9,0.8,1l1.2,0.1c0.1,0.1,0,0.4-0.1,0.4h-1.2
	c-2.1,0-3.4,0.3-4.3,0.3c-0.1-0.1-0.1-0.4,0-0.4l1-0.3c0.4-0.2,0.6-0.5,0.6-1.1l0.1-6.7l-0.1-6c0-0.4-0.1-0.7-0.3-0.8
	c-0.2-0.1-0.6-0.3-1.1-0.3c-0.1-0.1,0-0.3,0.1-0.4c0.9-0.2,2.4-0.8,3.1-1.3l0.2,0.2l-0.1,1.7h0.1c1.5-1,2.7-1.6,3.6-1.6
	c1,0,1.9,0.5,2.4,1.1C245.5,23.7,245.9,24.9,245.9,26.1z M244.1,27.1c0-1.3-0.4-2.4-0.9-3.1c-0.6-0.7-1.3-1-2.2-1
	c-0.8,0-1.5,0.3-2.1,0.8c-0.1,0.1-0.3,0.3-0.3,0.5v5c0,0.8,0.2,1.1,0.6,1.5c0.4,0.3,1,0.5,1.8,0.5c0.7,0,1.3-0.3,1.9-0.7
	C243.7,29.8,244.1,28.7,244.1,27.1z M234.1,30.6c-0.5,0-0.7-0.2-0.7-1.2v-5l0.1-2.7c-0.6,0.2-2.6,0.4-3.9,0.4l-0.1,0.4l1.6,0.2
	c0.4,0.1,0.5,0.5,0.5,0.7v5.8c0,0.3-0.1,0.6-0.3,0.7c-0.6,0.5-1.3,0.7-2,0.7c-1.3,0-1.9-0.7-2.1-1.6l-0.1-2.7l0.1-4.8
	c-0.7,0.2-2.3,0.4-3.3,0.4l-0.1,0.4l1.1,0.2c0.3,0.1,0.3,0.4,0.4,0.9v5c0,1.7,0.5,3.4,2.9,3.4c0.8,0,1.9-0.4,3.3-1.6
	c0.1-0.1,0.2,0,0.2,0.1v1.5l0.2,0.2l3.1-1l0.1-0.4C235.1,30.6,234.1,30.6,234.1,30.6z M167.3,30.7c-0.6,0-1.1-0.3-1.3-0.9
	c-0.2-0.5-0.2-1-0.2-1.5V23l0.1-0.2h2.5l0.2-1.1l-2.8,0.1l-0.1-0.2c0-1.8,0.1-2.8,0.2-3.2l-0.3-0.1c-0.2,0.3-1.1,1.1-1.6,1.3v2
	l-0.1,0.2l-1.1,0.2l-0.2,0.6l1.3,0.1l0.1,0.2v4.9c0,1.6,0,2.3,0.3,2.9c0.4,0.8,1.2,1.1,2,1.1s1.7-0.3,2.3-1.1l0.1-0.4
	C168.3,30.6,167.9,30.7,167.3,30.7z M211.1,21.5c-0.5,0-0.9,0.2-1.3,0.5c-0.6,0.5-1.1,1.1-1.5,1.7h-0.1v-2.1l-0.1-0.1
	c-0.7,0.4-2.1,0.8-2.9,0.9l-0.1,0.3c1.1,0.3,1.2,0.7,1.2,1l0.1,2.1l-0.1,4.5c0,0.5-0.2,0.6-0.4,0.7l-0.9,0.2c-0.1,0.1-0.1,0.4,0,0.4
	l2.4-0.1l2.6,0.1l0.1-0.4l-1.3-0.2c-0.3-0.1-0.5-0.4-0.5-0.9l-0.1-4.9l0.2-1c0.4-0.6,0.8-1,1.3-1s1.1,0.3,1.5,0.7l0.2-0.1
	c0.3-0.4,0.6-0.9,0.8-1.4V22C211.9,21.7,211.5,21.5,211.1,21.5L211.1,21.5z M161.3,26.5c0,1.8-0.8,3.5-2.3,4.5
	c-0.6,0.4-1.7,0.9-2.8,0.9c-3.6,0-4.9-2.8-4.9-5.3c0-1.9,0.9-3.3,2.2-4.1c0.8-0.6,2-1,3.2-1C159.7,21.5,161.3,23.7,161.3,26.5z
	 M159.4,27.3c0-2.9-1.2-5.1-3.5-5.1c-0.4,0-1,0.1-1.3,0.4c-0.6,0.4-1.3,1.5-1.3,3.4c0,3,1.4,5.2,3.5,5.2c0.5,0,1.1-0.2,1.6-0.6
	C159.2,29.9,159.4,28.8,159.4,27.3z M182.4,31.1c-0.4-0.2-0.5-0.4-0.5-1.2l-0.1-6.7v-6.1c0-1.7,0.1-2.4,0.2-2.9l-0.1-0.1
	c-0.9,0.5-2.3,0.8-3.3,0.9c-0.1,0.1-0.1,0.3,0,0.4l1,0.2c0.3,0.1,0.3,0.4,0.4,0.7l0.1,7.1l-0.1,6.9c0,0.5-0.2,0.6-0.4,0.8
	c-0.3,0.1-0.7,0.2-1,0.2v0.4l2.4-0.1l2.4,0.1l0.1-0.4L182.4,31.1L182.4,31.1z M177.8,25.2l-0.1,0.3c-1,0.3-4.5,0.5-6.5,0.6l-0.2,0.3
	c0,1,0.4,2.1,0.9,2.8c0.8,0.9,1.7,1.3,2.8,1.3c1,0,1.9-0.2,2.8-1.1l0.1,0.1l-0.1,0.4c-1,1.2-2.4,1.9-4,2c-1.3,0-2.3-0.5-3-1.2
	c-1-1-1.3-2.5-1.3-3.9c0-2.1,0.8-3.6,2.2-4.5c0.7-0.5,1.9-0.8,2.6-0.8c2.4,0,3.2,2.2,3.4,3.5L177.8,25.2L177.8,25.2z M175.7,25.1
	c-0.2-1.3-0.9-2.9-2.3-2.9c-1.1,0-2.1,1.1-2.2,3.1l0.1,0.2c0.7,0.1,3.8-0.1,4.3-0.2L175.7,25.1L175.7,25.1z M149.2,31
	c-0.5-0.2-0.6-0.4-0.6-1.2l-0.1-5.8l0.1-6.1c0-1,0.2-1.2,0.7-1.3l1.1-0.2c0.1-0.1,0.1-0.3,0-0.4l-2.8,0.1l-2.9-0.1
	c-0.1,0.1-0.1,0.3,0,0.4l1.2,0.2c0.4,0.1,0.5,0.4,0.5,0.9l0.1,5.6l-0.1,0.1h-3.9l-4.5-0.1l-0.1-0.2l0.1-5.2c0-0.9,0.2-1,0.7-1.2
	l1-0.2c0.1-0.1,0.1-0.3,0-0.4l-2.8,0.1l-3.1-0.1c-0.1,0.1-0.1,0.3,0,0.4l1.3,0.2c0.4,0.1,0.6,0.4,0.7,1.1l0.1,5.9V29
	c-0.1,1.2-0.1,1.7-0.8,1.9l-1.2,0.2c-0.1,0.1-0.1,0.4,0,0.4l3.1-0.1l2.9,0.1l0.1-0.4l-1.4-0.3c-0.6-0.2-0.6-0.7-0.7-1.5l-0.1-5.2
	l0.1-0.2l4.4-0.1h3.9l0.1,0.2v5.5c0,0.9-0.2,1.2-0.7,1.3l-1.2,0.2c-0.1,0.1-0.1,0.3,0,0.4l3-0.1l2.9,0.1l0.1-0.4
	C149.8,31.2,149.5,31.2,149.2,31L149.2,31z M81.6,31.1l0.9,0.2l-0.1,0.4l-2.3-0.1l-2.4,0.1c-0.1-0.1-0.1-0.4,0-0.4l1-0.2
	c0.3-0.1,0.4-0.3,0.5-1v-6.4c0-0.2,0-0.3-0.2-0.5c-0.2-0.3-0.6-0.4-1-0.5v-0.4c0.7-0.1,2.1-0.3,3-0.8l-0.1,4.3v4.4
	C81,30.7,81.2,31,81.6,31.1z M92.6,30.7c-1-0.8-3.3-3.7-4.1-4.9v-0.1l2.7-2.7c0.5-0.5,1.1-0.8,1.9-0.9c0.1-0.1,0.1-0.4,0-0.4
	c-1.2,0.2-2.8,0.2-4.3,0.2c-0.1,0.1-0.1,0.4,0,0.4l1.1,0.2l0.4,0.3c0,0.4-1.7,2.2-2.5,3c-0.5,0.4-0.9,0.5-1.2,0.6l0.1-9.7
	c0-1.6,0.1-2.2,0.2-2.5L86.8,14c-0.8,0.3-1.6,0.6-3.4,0.7c-0.1,0.1-0.1,0.3,0,0.4l1,0.1c0.4,0.1,0.5,0.4,0.5,0.7L85,26.1l-0.1,4
	c0,0.5-0.2,0.7-0.5,0.9l-0.9,0.2c-0.1,0.1-0.1,0.4,0,0.4l2.3-0.1l2.5,0.1c0.1-0.1,0.1-0.3,0-0.4l-0.9-0.1c-0.5-0.1-0.7-0.3-0.7-1.1
	l-0.1-3.3c0.5,0,0.7,0.2,0.8,0.4c1,1.3,2.4,3.4,3.3,4.1c0.3,0.3,0.7,0.5,1.3,0.5l2.3-0.1c0.1-0.1,0.1-0.4,0-0.4
	C93.6,31.3,93.2,31.3,92.6,30.7L92.6,30.7z M76.9,25.2l-0.1,0.3c-1,0.3-4.5,0.5-6.5,0.6l-0.2,0.3c0,1,0.4,2.1,0.9,2.8
	c0.8,0.9,1.7,1.3,2.8,1.3c1,0,1.9-0.2,2.8-1.1l0.1,0.1l-0.1,0.4c-1,1.2-2.4,1.9-4,2c-1.3,0-2.3-0.5-3-1.2c-1-1-1.3-2.5-1.3-3.9
	c0-2.1,0.8-3.6,2.2-4.5c0.7-0.5,1.9-0.8,2.6-0.8c2.4,0,3.2,2.2,3.4,3.5C76.6,25.1,76.6,25.2,76.9,25.2z M74.7,25.1
	c-0.2-1.3-0.9-2.9-2.3-2.9c-1.1,0-2.1,1.1-2.2,3.1l0.1,0.2c0.7,0.1,3.8-0.1,4.3-0.2L74.7,25.1z M79.6,19c0.2,0.1,0.8,0,1-0.1
	c0.3-0.1,0.5-0.6,0.5-1l-0.2-0.6l-0.7-0.2c-0.4,0-0.8,0.2-1,0.4c-0.1,0.2-0.2,0.4-0.1,0.6C79,18.5,79.2,18.9,79.6,19z M68.3,31.3
	l-0.1,0.4c-1.2,0.1-2.5,0-3.7-0.4l-1.2-0.9c-1-1.1-2.7-4-3.6-5.4c-0.2-0.3-0.4-0.4-0.6-0.4h-1.6l-0.1,0.2l0.1,5
	c0,1.1,0.2,1.2,0.7,1.4l1.3,0.2c0.1,0.1,0.1,0.3,0,0.4l-3-0.1l-3,0.1c-0.1,0-0.1-0.4,0-0.4l1.2-0.2c0.6-0.2,0.7-0.5,0.8-1.4l0.1-5.9
	l-0.1-6.1c0-0.7-0.2-1-0.8-1.1l-1.2-0.2c-0.1-0.1,0-0.4,0-0.4l2.6,0.1l3.9-0.1c2.9,0,4.3,1.7,4.3,3.8c0,2.2-1.5,3.4-3,4
	c-0.1,0.1-0.1,0.1,0,0.2c0.9,1.4,3.1,4.7,4.3,5.9C66.8,31.1,67.2,31.2,68.3,31.3L68.3,31.3z M60.6,23.6c0.8-0.3,1.8-1.1,1.8-3.2
	c0-2.3-1.3-3.8-4-3.8l-0.8,0.1L57.5,17l-0.1,6.6l0.1,0.1C58.5,23.9,59.6,23.8,60.6,23.6z M110,21.5c-0.5,0-0.9,0.2-1.3,0.5
	c-0.6,0.5-1.1,1.1-1.5,1.7h-0.1v-2.1l-0.1-0.1c-0.7,0.4-2.1,0.8-2.9,0.9l-0.1,0.3c1.1,0.3,1.2,0.7,1.2,1l0.1,2.1l-0.1,4.5
	c0,0.5-0.2,0.6-0.4,0.7l-0.9,0.2c-0.1,0.1-0.1,0.4,0,0.4l2.4-0.1l2.6,0.1l0.1-0.4l-1.3-0.2c-0.3-0.1-0.5-0.4-0.5-0.9l-0.1-4.9l0.2-1
	c0.4-0.6,0.8-1,1.3-1s1.1,0.3,1.5,0.7l0.2-0.1c0.3-0.4,0.6-0.9,0.8-1.4V22C110.9,21.7,110.5,21.5,110,21.5z M116.6,30.7
	c-0.6,0-1.1-0.3-1.3-0.9c-0.2-0.5-0.2-1-0.2-1.5V23l0.1-0.2h2.5l0.2-1.1l-2.8,0.1l-0.1-0.2c0-1.8,0.1-2.8,0.2-3.2l-0.3-0.1
	c-0.2,0.3-1.1,1.1-1.6,1.3v2l-0.1,0.2l-1.1,0.2l-0.2,0.6l1.3,0.1l0.1,0.2v4.9c0,1.6,0,2.3,0.3,2.9c0.4,0.8,1.2,1.1,2,1.1
	s1.7-0.3,2.3-1.1l0.1-0.4C117.6,30.6,117.2,30.7,116.6,30.7z M102.5,30.6l0.9-0.1l-0.1,0.5c-0.6,0.7-1.4,0.9-2,0.9s-1-0.2-1.2-0.6
	l-0.2-0.7l-0.1-0.1c-0.8,0.6-1.8,1.1-2.8,1.3c-0.5,0-0.9-0.2-1.3-0.6c-0.5-0.5-0.8-1.3-0.8-2.2l0.3-1.2c0.7-0.4,3.8-1.2,4.7-1.7
	l0.2-0.2v-1c0-0.5-0.2-1.1-0.4-1.5c-0.5-0.6-1.2-1-2-1c-0.3,0-0.6,0.1-0.9,0.2c-0.3,0.2-0.7,0.9-1,1.8c-0.1,0.1-0.5-0.3-0.5-0.5
	c0-0.3,0.3-1.1,0.5-1.2c1-0.8,2.6-1.5,3.2-1.5c1,0,1.8,0.5,2.3,1.3c0.4,0.7,0.5,1.7,0.5,2.5l-0.1,4.2
	C101.6,30,101.8,30.6,102.5,30.6z M100,26.8C100,26.8,99.9,26.7,100,26.8c-1.1,0.2-2.2,0.6-3.2,1.2l-0.2,0.8c0,1.1,0.7,1.9,1.8,1.9
	c0.4,0,0.9-0.1,1.3-0.4l0.2-0.5C99.9,29.8,100,26.8,100,26.8z M126.7,28.8c-0.8,2-1.5,2.3-1.8,2.3c-0.6,0-2.6,0-3.3-0.2l-0.1-0.2
	l5-8.7l-0.1-0.3l-1.9,0.1h-3.4l-1.7-0.2l-0.6,2.8c0.1,0.1,0.4,0.2,0.5,0.1c0.8-1.9,1.1-2,1.8-2.1l3.2-0.1c0,0,0.1,0,0,0.1
	c-1.2,2.3-3.9,6.6-5.2,8.7l0.1,0.3l6.7,0.1c0.1,0,0.4-0.1,0.5-0.4c0.2-0.5,0.6-1.4,0.8-2.5l-0.1-0.1
	C127.1,28.7,126.8,28.7,126.7,28.8z M20.5,3.7c-11,0-20,9-20,20s9,20,20,20s20-9,20-20S31.6,3.7,20.5,3.7z M6.7,36.8l-0.4-0.5
	c-0.4-0.6-0.6-1.2-0.6-2c0-1.6,0.5-2.5,1.6-2.5c0.2,0,0.3,0.1,0.3,0.2l-0.1,0.7l0.1,0.8c0.3,0.3,0.6,0.5,1,0.5
	c0.9,0,1.3-0.5,1.3-1.5c0-1.2-0.7-1.8-2-1.8c-0.9,0-1.6,0.4-2.2,1.2c-0.5,0.7-0.8,1.5-0.8,2.5v0.5c-6.1-8.6-4.1-20.4,4.5-26.5
	c3.2-2.3,7.1-3.5,11-3.5c4.3,0,8.2,1.4,11.4,3.8l-1.2,0.6l-1.1,0.6l-2.1-0.4c-4-0.8-8.2-0.2-11.9,1.6c-1,0.5-1.9,1.3-2.8,2.3
	C11,15.3,10,17.7,10,20.3c0,1.4,0.3,2.4,0.8,3.2c0.7,1.1,1.9,2,3.5,2c1.8,0.1,3.5-0.8,4.8-2.6c1.1-1.4,1.8-3.1,1.8-4.9
	c0-1.4-0.3-2-1-2l-0.3,0.1c0.4,0.4,0.7,1,0.7,1.8c0,1.5-0.5,2.9-1.6,4.4c-1.7,2.8-7,4-7.4-0.9c0-1.4,0.4-2.8,1.1-4
	c2.8-6.3,10-9.3,16.5-7l-0.4,0.5c-3.6,4.3-6.1,9.4-7.5,14.8c-0.8,2.9-2.1,5.7-3.9,8.2C15,36.6,12.5,38,9.9,38
	c-1.2,0-2.2-0.3-2.9-0.9C7,37.1,6.7,36.8,6.7,36.8z M20.5,42.8c-4.6,0-8.9-1.7-12.2-4.4l1.6,0.2c2.2,0,4.4-0.8,6.5-2.4
	c1.9-1.4,3.5-3.2,4.7-5.3c1-1.8,2-4.1,2.9-6.9l2.2-6.8c1-2.4,1.9-4.3,2.9-5.7c0.4-0.6,0.7-0.9,1-0.9L31,11c1.8,1,2.8,2.9,2.7,4.9
	c0,3.3-1.2,5.8-3.5,7.4c-0.5,0.4-1,0.5-1.3,0.5l-0.5-0.2c-0.8-0.4-3.4-0.9-3.4,0.5c0,0.6,0.5,0.9,1.4,0.9l1-0.2l1-0.1
	c0.6,0,0.9,0.8,0.9,2.4l-0.6,6.1c0,2.1,0.7,3.4,2.2,4l1.2,0.3c1.7,0,3-1,3.9-3l0.3-1c0-0.5-0.3-0.6-0.3-0.4c0,0.7-0.3,1.4-1,2.2
	c-0.6,0.8-1.3,1.1-2,1.1c-1,0-1.6-0.6-1.9-1.9l-0.2-1c0-2.4,0.3-4.6-0.3-7c-0.3-1-0.9-1.6-1.2-2c1.7-0.8,3.1-1.3,4.6-2.8
	c2.7-2.6,3.1-5.8,0.7-8.8c-1-1.2-2.3-2.2-3.7-2.8c-0.2-0.1-0.2-0.1-0.1-0.2c0.4-0.5,1-0.8,1.6-1c4.4,3.5,7.2,8.8,7.2,14.9
	C39.5,34.2,31,42.8,20.5,42.8L20.5,42.8z"/>
</svg>
