<svg xmlns="http://www.w3.org/2000/svg" viewBox="0 0 802.4 262"><path fill="#111" d="M71 262h16.4V158.3H71V262zm65.5-1.5h16.7V195l70.6 67V159.8h-16.7v64.3l-70.6-65.9v102.3zm131.8-25.2c9.5 7.4 20.8 11.6 32.9 11.6 11.8 0 20.1-4.1 20.1-13.1 0-7.9-5.2-11-14.5-14.4l-15-5.2c-13.9-4.9-24.3-12.1-24.3-28.6 0-17.7 15.9-27.3 35-27.3 11.7 0 22.3 2.9 30.6 8.2V184c-8.6-6.4-18.1-10.8-30.2-10.8-10.5 0-18.2 3.9-18.2 12.1 0 7.4 4.9 10.3 13.5 13.2l16.7 5.9c16.2 5.7 23.7 14.6 23.7 29.1 0 18.3-16 28.5-37.2 28.5-13.9 0-25.7-3.9-32.9-8.8l-.2-17.9zM376.6 262H393V158.3h-16.4V262zm108.9-15.7c21.1 0 32.4-14 32.4-36.2 0-22.3-11.3-36.3-32.4-36.3h-20.9v72.5h20.9zm-37.9-88h38.6c29.6 0 48.8 20.3 48.8 51.9 0 31.6-19.2 51.9-48.8 51.9h-38.6V158.3zm185.6 0v15.5h-43.6v25h39.1v15.4h-39.1v32.1h43.6V262h-60V158.3h60zm60.3 46.9h18.7c11.1 0 17.3-6.2 17.3-15.9 0-9.6-6.3-15.9-17.3-15.9h-18.7v31.8zm0 14.7V262h-16.7V158.3h35.8c20.4 0 33.6 10.8 33.6 31.1 0 17.4-7.3 27.4-22.9 29.9l35.5 42.7h-19l-34.3-42.1h-12zm37.9-192.6c0 16.5 10.5 23.7 24.3 28.6l15 5.2c9.3 3.4 14.5 6.5 14.5 14.4 0 9-8.3 13.1-20.1 13.1-12.2 0-23.5-4.3-32.9-11.6v17.8c7.3 4.9 19.1 8.8 32.9 8.8 21.1 0 37.2-10.1 37.2-28.5 0-14.6-7.4-23.4-23.7-29.1L762 40.2c-8.6-2.9-13.5-5.9-13.5-13.3 0-8.2 7.8-12.1 18.2-12.1 12.2 0 21.6 4.4 30.2 10.8V8.2C788.7 2.9 778 0 766.4 0c-19.1 0-35 9.7-35 27.3M518.5 0v103.7h60V88H535V55.8h39.1V40.5H535v-25h43.6V0h-60.1zM285.3 47h20c11.8 0 18.5-6.2 18.5-15.9 0-9.6-6.7-15.9-18.5-15.9h-20V47zm0 14.7v42.1h-17.8V0h38.2c21.8 0 35.8 10.8 35.8 31.1 0 17.4-7.8 27.4-24.5 29.9l37.8 42.7h-20.2l-36.6-42h-12.7zm125.1-16.6L451.7 0h21.6l-46.5 49.7 48 54h-22.1l-42.3-47.5v47.5H393V0h17.4v45.1zM616.8 0h87.3v15.5h-34.8v88.2h-17.7V15.5h-34.8V0zM165.6 75.5l17.1-39.7 17.1 39.7h-34.2zm46.5 28.2h17.2L182.9 0l-46.4 103.7h17l5.7-13.3h47.1l5.8 13.3zM86.8 44.8v58.9h16.9V0L51.9 55.3 0 0v103.7h16.9V44.8l35 37.3 34.9-37.3z"/></svg>