<?xml version="1.0" encoding="UTF-8"?>
<!-- Generator: Adobe Illustrator 22.0.1, SVG Export Plug-In . SVG Version: 6.00 Build 0)  -->
<svg version="1.1" id="Capa_1" xmlns="http://www.w3.org/2000/svg" xmlns:xlink="http://www.w3.org/1999/xlink" x="0px" y="0px" viewBox="0 0 200 80" style="enable-background:new 0 0 200 80;" xml:space="preserve">
<style type="text/css">
	.st0{fill:#434142;}
	.st1{fill:#152E80;}
	.st2{fill:#1C96C3;}
	.st3{fill:#191E7D;}
	.st4{fill:url(#SVGID_1_);}
	.st5{fill:#FFFFFF;}
	.st6{fill:url(#SVGID_2_);}
	.st7{fill:url(#SVGID_3_);}
</style>
<g>
	<g>
		<path class="st0" d="M81.6,58h1v8.6h-1.1v-5.9l-2.5,5.9h-0.9l-2.6-5.9v5.9h-1.1V58h1l3.1,7.1L81.6,58z"/>
		<path class="st0" d="M89.9,60.6v6.1h-1.2v-1.1c-0.2,0.4-0.4,0.6-0.8,0.8c-0.4,0.2-0.8,0.3-1.2,0.3c-0.5,0-1-0.1-1.4-0.4    c-0.4-0.3-0.7-0.6-1-1.1c-0.2-0.5-0.4-1-0.4-1.7c0-0.6,0.1-1.2,0.4-1.7c0.2-0.5,0.5-0.9,1-1.1c0.4-0.3,0.9-0.4,1.4-0.4    c0.5,0,0.9,0.1,1.2,0.3c0.4,0.2,0.6,0.5,0.8,0.8v-1H89.9z M88.3,65.2c0.3-0.4,0.4-0.9,0.4-1.6s-0.2-1.2-0.4-1.6    c-0.3-0.4-0.7-0.6-1.3-0.6c-0.5,0-1,0.2-1.3,0.6c-0.3,0.4-0.5,0.9-0.5,1.6s0.2,1.2,0.5,1.6s0.7,0.6,1.3,0.6    C87.6,65.8,88,65.6,88.3,65.2z"/>
		<path class="st0" d="M95.2,60.5l0,1.1c-0.2-0.1-0.4-0.1-0.7-0.1c-0.5,0-1,0.2-1.2,0.5c-0.3,0.4-0.4,0.8-0.4,1.3v3.4h-1.2v-4.4    c0-0.6,0-1.2-0.1-1.7h1.1l0.1,1.1c0.2-0.4,0.4-0.7,0.8-0.9c0.4-0.2,0.7-0.3,1.1-0.3C94.9,60.4,95,60.4,95.2,60.5z"/>
		<path class="st0" d="M101.7,66.6h-1.6l-2.9-2.9v2.9H96v-8.9h1.2v5.6l2.7-2.7h1.5l-2.9,2.9L101.7,66.6z"/>
		<path class="st0" d="M107.5,63.6h-4.4c0,1.4,0.7,2.1,1.9,2.1c0.7,0,1.3-0.2,1.9-0.7l0.4,0.9c-0.3,0.3-0.6,0.4-1.1,0.6    c-0.4,0.1-0.9,0.2-1.3,0.2c-1,0-1.8-0.3-2.3-0.8c-0.5-0.5-0.8-1.3-0.8-2.3c0-0.6,0.1-1.2,0.4-1.7c0.3-0.5,0.6-0.9,1-1.1    c0.4-0.3,1-0.4,1.5-0.4c0.8,0,1.5,0.3,1.9,0.8c0.5,0.5,0.7,1.3,0.7,2.2L107.5,63.6L107.5,63.6z M103.7,61.7    c-0.3,0.3-0.5,0.7-0.5,1.2h3.2c-0.1-0.5-0.2-0.9-0.5-1.2c-0.3-0.3-0.6-0.4-1.1-0.4S104,61.4,103.7,61.7z"/>
		<path class="st0" d="M110.3,61.5v3.1c0,0.4,0.1,0.7,0.3,0.9c0.2,0.2,0.4,0.3,0.8,0.3c0.2,0,0.4,0,0.6-0.1v1    c-0.3,0.1-0.6,0.1-0.9,0.1c-0.6,0-1.1-0.2-1.5-0.5c-0.4-0.4-0.5-0.9-0.5-1.6v-3.2h-1.2v-1h1.2V59l1.2-0.4v1.9h1.7v1L110.3,61.5    L110.3,61.5z"/>
		<path class="st0" d="M112.9,57.9h1.4v1.3h-1.4V57.9z M113,66.6v-6.1h1.2v6.1H113z"/>
		<path class="st0" d="M121.3,62.8v3.8h-1.2v-3.7c0-0.5-0.1-0.9-0.3-1.1c-0.2-0.3-0.5-0.4-1-0.4c-0.5,0-0.9,0.2-1.2,0.5    s-0.5,0.8-0.5,1.3v3.5h-1.2v-4.4c0-0.6,0-1.2-0.1-1.7h1.1l0.1,1.1c0.2-0.4,0.5-0.7,0.8-0.9c0.4-0.2,0.8-0.3,1.2-0.3    C120.5,60.4,121.3,61.2,121.3,62.8z"/>
		<path class="st0" d="M128.5,60.6v6c0,0.9-0.3,1.6-0.7,2.1s-1.2,0.7-2.2,0.7c-0.9,0-1.8-0.2-2.4-0.6l0.2-1c0.4,0.2,0.7,0.4,1.1,0.4    c0.4,0.1,0.7,0.2,1.1,0.2c1.1,0,1.7-0.6,1.7-1.8v-1.3c-0.2,0.4-0.4,0.6-0.8,0.8c-0.4,0.2-0.8,0.3-1.2,0.3c-0.5,0-1-0.1-1.4-0.4    s-0.7-0.6-1-1.1c-0.2-0.4-0.4-1-0.4-1.6s0.1-1.1,0.4-1.6c0.2-0.4,0.5-0.8,1-1.1c0.4-0.3,0.9-0.4,1.4-0.4c0.5,0,0.9,0.1,1.2,0.3    c0.4,0.2,0.6,0.5,0.8,0.8v-1L128.5,60.6L128.5,60.6z M126.8,65c0.3-0.4,0.5-0.9,0.5-1.5c0-0.6-0.2-1.1-0.5-1.5s-0.7-0.5-1.3-0.5    c-0.5,0-1,0.2-1.3,0.5c-0.3,0.4-0.5,0.9-0.5,1.5c0,0.6,0.2,1.1,0.5,1.5c0.3,0.4,0.8,0.5,1.3,0.5C126.1,65.5,126.5,65.3,126.8,65z"/>
		<path class="st0" d="M133.4,66.6V58h5.6v1h-4.4v2.7h4.1v1h-4.1v2.9h4.4v1L133.4,66.6L133.4,66.6z"/>
		<path class="st0" d="M140,66l0.4-0.9c0.6,0.5,1.4,0.7,2.2,0.7c0.4,0,0.7-0.1,1-0.2c0.2-0.1,0.3-0.4,0.3-0.6c0-0.2-0.1-0.4-0.2-0.5    c-0.2-0.1-0.4-0.2-0.8-0.3l-1-0.3c-0.5-0.1-0.9-0.3-1.2-0.6c-0.3-0.3-0.4-0.6-0.4-1.1c0-0.5,0.2-1,0.7-1.3c0.4-0.4,1-0.5,1.8-0.5    c0.4,0,0.9,0.1,1.2,0.2s0.7,0.3,1,0.6l-0.4,0.9c-0.6-0.5-1.2-0.7-1.9-0.7c-0.4,0-0.7,0.1-0.9,0.2c-0.2,0.2-0.3,0.4-0.3,0.6    c0,0.2,0.1,0.4,0.2,0.5c0.1,0.1,0.4,0.2,0.7,0.3l1.1,0.3c0.6,0.1,1,0.3,1.3,0.6c0.3,0.3,0.4,0.6,0.4,1.1c0,0.5-0.2,1-0.7,1.3    c-0.4,0.3-1.1,0.5-1.8,0.5C141.4,66.7,140.6,66.5,140,66z"/>
		<path class="st0" d="M147.8,61.5v3.1c0,0.4,0.1,0.7,0.3,0.9c0.2,0.2,0.4,0.3,0.8,0.3c0.2,0,0.4,0,0.6-0.1v1    c-0.3,0.1-0.6,0.1-0.9,0.1c-0.6,0-1.1-0.2-1.5-0.5c-0.4-0.4-0.5-0.9-0.5-1.6v-3.2h-1.2v-1h1.2V59l1.2-0.4v1.9h1.7v1L147.8,61.5    L147.8,61.5z"/>
		<path class="st0" d="M154.1,60.5l0,1.1c-0.2-0.1-0.4-0.1-0.7-0.1c-0.5,0-1,0.2-1.2,0.5c-0.3,0.4-0.4,0.8-0.4,1.3v3.4h-1.2v-4.4    c0-0.6,0-1.2-0.1-1.7h1.1l0.1,1.1c0.2-0.4,0.4-0.7,0.8-0.9c0.4-0.2,0.7-0.3,1.1-0.3C153.7,60.4,153.9,60.4,154.1,60.5z"/>
		<path class="st0" d="M160.4,60.6v6.1h-1.2v-1.1c-0.2,0.4-0.4,0.6-0.8,0.8c-0.4,0.2-0.8,0.3-1.2,0.3c-0.5,0-1-0.1-1.4-0.4    c-0.4-0.3-0.7-0.6-1-1.1c-0.2-0.5-0.4-1-0.4-1.7c0-0.6,0.1-1.2,0.4-1.7c0.2-0.5,0.5-0.9,1-1.1c0.4-0.3,0.9-0.4,1.4-0.4    c0.5,0,0.9,0.1,1.2,0.3s0.6,0.5,0.8,0.8v-1H160.4z M158.7,65.2c0.3-0.4,0.4-0.9,0.4-1.6s-0.2-1.2-0.4-1.6    c-0.3-0.4-0.7-0.6-1.3-0.6s-1,0.2-1.3,0.6c-0.3,0.4-0.5,0.9-0.5,1.6s0.2,1.2,0.5,1.6c0.3,0.4,0.7,0.6,1.3,0.6    C158,65.8,158.4,65.6,158.7,65.2z"/>
		<path class="st0" d="M163.6,61.5v3.1c0,0.4,0.1,0.7,0.3,0.9c0.2,0.2,0.4,0.3,0.8,0.3c0.2,0,0.4,0,0.6-0.1v1    c-0.3,0.1-0.6,0.1-0.9,0.1c-0.6,0-1.1-0.2-1.5-0.5c-0.4-0.4-0.5-0.9-0.5-1.6v-3.2h-1.2v-1h1.2V59l1.2-0.4v1.9h1.7v1L163.6,61.5    L163.6,61.5z"/>
		<path class="st0" d="M171.5,63.6h-4.4c0,1.4,0.7,2.1,1.9,2.1c0.7,0,1.3-0.2,1.9-0.7l0.4,0.9c-0.3,0.3-0.6,0.4-1.1,0.6    c-0.4,0.1-0.9,0.2-1.3,0.2c-1,0-1.8-0.3-2.3-0.8c-0.5-0.5-0.8-1.3-0.8-2.3c0-0.6,0.1-1.2,0.4-1.7c0.3-0.5,0.6-0.9,1-1.1    c0.4-0.3,1-0.4,1.5-0.4c0.8,0,1.5,0.3,1.9,0.8c0.5,0.5,0.7,1.3,0.7,2.2V63.6z M167.8,61.7c-0.3,0.3-0.5,0.7-0.5,1.2h3.2    c-0.1-0.5-0.2-0.9-0.5-1.2c-0.3-0.3-0.6-0.4-1.1-0.4C168.4,61.3,168.1,61.4,167.8,61.7z M169.3,59.8h-0.8l1.2-2.5h1.3L169.3,59.8z    "/>
		<path class="st0" d="M178.4,60.6v6c0,0.9-0.3,1.6-0.7,2.1c-0.5,0.5-1.2,0.7-2.2,0.7c-0.9,0-1.8-0.2-2.4-0.6l0.2-1    c0.4,0.2,0.7,0.4,1.1,0.4c0.4,0.1,0.7,0.2,1.1,0.2c1.1,0,1.7-0.6,1.7-1.8v-1.3c-0.2,0.4-0.4,0.6-0.8,0.8c-0.4,0.2-0.8,0.3-1.2,0.3    c-0.5,0-1-0.1-1.4-0.4s-0.7-0.6-1-1.1c-0.2-0.4-0.4-1-0.4-1.6s0.1-1.1,0.4-1.6c0.2-0.4,0.5-0.8,1-1.1c0.4-0.3,0.9-0.4,1.4-0.4    c0.5,0,0.9,0.1,1.2,0.3c0.4,0.2,0.6,0.5,0.8,0.8v-1L178.4,60.6L178.4,60.6z M176.8,65c0.3-0.4,0.5-0.9,0.5-1.5    c0-0.6-0.2-1.1-0.5-1.5c-0.3-0.4-0.7-0.5-1.3-0.5c-0.5,0-1,0.2-1.3,0.5s-0.5,0.9-0.5,1.5c0,0.6,0.2,1.1,0.5,1.5s0.8,0.5,1.3,0.5    C176,65.5,176.4,65.3,176.8,65z"/>
		<path class="st0" d="M180,57.9h1.4v1.3H180V57.9z M180.1,66.6v-6.1h1.2v6.1H180.1z"/>
		<path class="st0" d="M184.1,66.4c-0.4-0.3-0.8-0.6-1.1-1.1c-0.3-0.5-0.4-1-0.4-1.7c0-0.6,0.1-1.2,0.4-1.7c0.3-0.5,0.6-0.9,1.1-1.1    c0.4-0.3,1-0.4,1.6-0.4c0.4,0,0.8,0.1,1.2,0.2c0.4,0.2,0.7,0.3,1,0.6l-0.4,0.9c-0.6-0.4-1.1-0.7-1.7-0.7c-0.6,0-1.1,0.2-1.4,0.6    c-0.3,0.4-0.5,0.9-0.5,1.6c0,0.7,0.2,1.2,0.5,1.6c0.4,0.4,0.8,0.6,1.4,0.6c0.6,0,1.2-0.2,1.7-0.7l0.4,0.9c-0.3,0.3-0.6,0.4-1,0.6    c-0.4,0.1-0.8,0.2-1.2,0.2C185,66.7,184.5,66.6,184.1,66.4z"/>
		<path class="st0" d="M190,66.4c-0.4-0.3-0.8-0.6-1.1-1.1c-0.3-0.5-0.4-1-0.4-1.7s0.1-1.2,0.4-1.7c0.3-0.5,0.6-0.9,1.1-1.1    c0.4-0.3,1-0.4,1.6-0.4c0.6,0,1.1,0.1,1.6,0.4c0.4,0.3,0.8,0.6,1.1,1.1c0.3,0.5,0.4,1.1,0.4,1.7s-0.1,1.2-0.4,1.7    c-0.3,0.5-0.6,0.8-1.1,1.1c-0.4,0.3-1,0.4-1.6,0.4C190.9,66.7,190.4,66.6,190,66.4z M192.8,65.2c0.3-0.4,0.4-0.9,0.4-1.6    s-0.2-1.2-0.4-1.6c-0.3-0.4-0.7-0.6-1.3-0.6c-0.5,0-1,0.2-1.3,0.6c-0.3,0.4-0.4,0.9-0.4,1.6c0,0.7,0.2,1.3,0.4,1.6    c0.3,0.4,0.7,0.5,1.3,0.5C192.1,65.8,192.5,65.6,192.8,65.2z"/>
	</g>
	<g>
		<path class="st1" d="M74.1,54.9V19.2c0-0.3,0.2-0.4,0.4-0.4h8.8c0.3,0,0.4,0.2,0.4,0.4v35.8c0,0.3-0.2,0.4-0.4,0.4h-8.8    C74.3,55.4,74.1,55.2,74.1,54.9z"/>
		<path class="st2" d="M119.1,31.3c1.5,1.9,2.3,4.7,2.3,8.5v15.2c0,0.3-0.2,0.4-0.4,0.4h-8.4c-0.3,0-0.4-0.2-0.4-0.4V40.2    c0-1.6-0.3-2.8-0.8-3.5c-0.5-0.7-1.4-1.1-2.6-1.1c-1.4,0-2.5,0.5-3.4,1.4c-0.9,1-1.3,2.2-1.3,3.7v14.1c0,0.3-0.2,0.4-0.4,0.4h-8.4    c-0.3,0-0.4-0.2-0.4-0.4V36.7c0-2.6-0.1-4.9-0.4-7c0-0.3,0.2-0.5,0.4-0.5h7.8c0.2,0,0.4,0.2,0.4,0.4l0.3,2.4    c0,0.4,0.5,0.5,0.8,0.2c0.9-1.1,1.9-1.9,3.1-2.5c1.5-0.8,3.2-1.2,5-1.2C115.2,28.5,117.5,29.4,119.1,31.3z"/>
		<path class="st2" d="M160.2,55.4H150c-0.1,0-0.3-0.1-0.4-0.2l-8-10.1c-0.3-0.4-0.8-0.2-0.8,0.3v9.5c0,0.3-0.2,0.4-0.4,0.4H132    c-0.3,0-0.4-0.2-0.4-0.4v-37c0-0.3,0.2-0.4,0.4-0.4h8.4c0.3,0,0.4,0.2,0.4,0.4v20.9c0,0.4,0.5,0.6,0.8,0.3l7.8-9.7    c0.1-0.1,0.2-0.2,0.4-0.2h9.8c0.4,0,0.6,0.4,0.4,0.7l-9.4,11.5c-0.1,0.2-0.1,0.4,0,0.6l9.9,12.6C160.7,54.9,160.5,55.4,160.2,55.4    z"/>
		<path class="st1" d="M194.5,29.7v25.3c0,0.3-0.2,0.4-0.4,0.4h-8.3c-0.3,0-0.4-0.2-0.4-0.4v-1.8c0-0.4-0.5-0.6-0.8-0.3    c-0.7,0.7-1.5,1.4-2.5,1.8c-1.4,0.7-3,1.1-4.7,1.1c-2.2,0-4.2-0.5-6-1.7c-1.8-1.1-3.1-2.7-4.1-4.7c-1-2-1.5-4.4-1.5-7.1    c0-2.7,0.5-5.1,1.5-7.2c1-2.1,2.4-3.7,4.1-4.9c1.8-1.2,3.7-1.8,5.9-1.8c1.7,0,3.3,0.4,4.7,1.1c1,0.5,1.8,1.1,2.5,1.9    c0.3,0.3,0.8,0.1,0.8-0.3v-1.6c0-0.3,0.2-0.4,0.4-0.4h8.3C194.3,29.2,194.5,29.4,194.5,29.7z M184,47.1c0.9-1.1,1.3-2.8,1.3-4.9    c0-2.2-0.4-3.8-1.3-5s-2.2-1.7-3.8-1.7c-1.6,0-2.9,0.6-3.8,1.8c-0.9,1.2-1.4,2.9-1.4,5c0,2.1,0.4,3.7,1.3,4.8    c0.9,1.1,2.2,1.7,3.9,1.7C181.9,48.9,183.1,48.3,184,47.1z"/>
	</g>
	<g>
		<path class="st3" d="M178.1,21.8c0.2,0.3,0.4,0.7,0.4,1.1c0,0.4-0.1,0.8-0.4,1.1c-0.2,0.3-0.5,0.5-1,0.7s-0.9,0.3-1.5,0.3    c-0.5,0-1-0.1-1.5-0.2c-0.5-0.1-0.9-0.3-1.1-0.5l0.6-1.3c0.6,0.4,1.3,0.6,1.9,0.6c0.4,0,0.7-0.1,0.9-0.2c0.2-0.1,0.3-0.3,0.3-0.6    c0-0.3-0.1-0.4-0.3-0.6c-0.2-0.1-0.4-0.2-0.8-0.2h-1.1v-1.4h0.9c0.4,0,0.6-0.1,0.8-0.2s0.3-0.3,0.3-0.5c0-0.3-0.1-0.4-0.2-0.6    c-0.2-0.1-0.4-0.2-0.7-0.2c-0.3,0-0.6,0.1-0.9,0.2s-0.6,0.3-0.9,0.5l-0.6-1.3c0.3-0.2,0.7-0.4,1.1-0.5c0.5-0.1,0.9-0.2,1.4-0.2    c0.5,0,1,0.1,1.3,0.3c0.4,0.2,0.7,0.4,0.9,0.7c0.2,0.3,0.3,0.6,0.3,1.1c0,0.4-0.1,0.7-0.3,1c-0.2,0.3-0.5,0.5-0.8,0.6    C177.6,21.3,177.9,21.5,178.1,21.8z"/>
		<path class="st3" d="M183.5,20.5c0.3,0.2,0.6,0.5,0.8,0.8c0.2,0.4,0.3,0.8,0.3,1.2c0,0.5-0.1,0.9-0.3,1.3    c-0.2,0.4-0.5,0.7-0.9,0.9c-0.4,0.2-0.8,0.3-1.3,0.3c-1,0-1.7-0.3-2.2-0.9c-0.5-0.6-0.8-1.5-0.8-2.7c0-0.8,0.1-1.4,0.4-2    c0.3-0.6,0.6-1,1.1-1.3c0.5-0.3,1-0.4,1.7-0.4c0.4,0,0.9,0.1,1.3,0.2c0.4,0.1,0.8,0.3,1.1,0.6l-0.6,1.3c-0.3-0.2-0.6-0.4-0.9-0.5    c-0.3-0.1-0.6-0.2-0.8-0.2c-0.8,0-1.2,0.6-1.3,1.8c0.2-0.2,0.4-0.4,0.6-0.5c0.3-0.1,0.5-0.2,0.9-0.2    C182.8,20.1,183.2,20.2,183.5,20.5z M182.6,23.2c0.2-0.2,0.2-0.4,0.2-0.7c0-0.3-0.1-0.5-0.2-0.7s-0.4-0.3-0.6-0.3    c-0.3,0-0.4,0.1-0.6,0.3s-0.2,0.4-0.2,0.7s0.1,0.5,0.2,0.7c0.2,0.2,0.4,0.3,0.6,0.3C182.2,23.5,182.4,23.4,182.6,23.2z"/>
		<path class="st3" d="M185.7,24c-0.5-0.6-0.7-1.5-0.7-2.7c0-1.2,0.2-2.1,0.7-2.7c0.5-0.6,1.1-0.9,2-0.9c0.9,0,1.6,0.3,2,0.9    c0.5,0.6,0.7,1.5,0.7,2.7c0,1.2-0.2,2.1-0.7,2.7c-0.5,0.6-1.1,1-2,1S186.2,24.6,185.7,24z M188.4,23c0.1-0.4,0.2-0.9,0.2-1.7    s-0.1-1.3-0.2-1.7c-0.1-0.4-0.4-0.5-0.7-0.5c-0.3,0-0.5,0.2-0.7,0.5c-0.1,0.4-0.2,0.9-0.2,1.7c0,0.8,0.1,1.4,0.2,1.7    c0.1,0.4,0.4,0.5,0.7,0.5C188.1,23.6,188.3,23.4,188.4,23z"/>
		<path class="st3" d="M191.3,20.4c-0.3-0.3-0.5-0.7-0.5-1.1c0-0.4,0.2-0.8,0.5-1.1c0.3-0.3,0.8-0.4,1.4-0.4c0.6,0,1.1,0.2,1.4,0.4    c0.3,0.3,0.4,0.7,0.4,1.1c0,0.4-0.2,0.8-0.4,1.1c-0.3,0.3-0.8,0.4-1.4,0.4C192,20.8,191.5,20.7,191.3,20.4z M192.9,19.6    c0.1-0.1,0.1-0.2,0.1-0.3c0-0.3-0.1-0.4-0.4-0.4c-0.3,0-0.4,0.1-0.4,0.4c0,0.1,0,0.3,0.1,0.3c0.1,0.1,0.2,0.1,0.3,0.1    C192.7,19.7,192.8,19.6,192.9,19.6z"/>
	</g>
	<g>
		<g>
			
				<radialGradient id="SVGID_1_" cx="34.7007" cy="42.1115" r="29.2397" gradientTransform="matrix(1 0 0 -1 0 82)" gradientUnits="userSpaceOnUse">
				<stop offset="0" style="stop-color:#13115E"/>
				<stop offset="0.2185" style="stop-color:#151662"/>
				<stop offset="0.4693" style="stop-color:#12256F"/>
				<stop offset="0.7348" style="stop-color:#183C85"/>
				<stop offset="1" style="stop-color:#175A9E"/>
			</radialGradient>
			<path class="st4" d="M24.9,49.6H5.5V30.1H25L24.9,49.6L24.9,49.6z M44.4,10.6H24.9v19.5h19.5V10.6z M44.4,49.6H24.9v19.5h19.5     V49.6z M63.9,30.2H44.4v19.5h19.5V30.2z"/>
		</g>
		<g>
			<circle class="st5" cx="34.7" cy="39.9" r="15.9"/>
		</g>
		<g>
			<g>
				
					<radialGradient id="SVGID_2_" cx="34.6848" cy="42.1115" r="26.6367" gradientTransform="matrix(1 0 0 -1 0 82)" gradientUnits="userSpaceOnUse">
					<stop offset="1.721070e-03" style="stop-color:#69A5C6"/>
					<stop offset="0.3395" style="stop-color:#538EBB"/>
					<stop offset="1" style="stop-color:#19498D"/>
				</radialGradient>
				<path class="st6" d="M24.9,30.2h-9.8v-9.8h9.8V30.2z M54.2,20.4h-9.8v9.8h9.8V20.4z M54.2,49.6h-9.8v9.8h9.8V49.6z M24.9,49.6      h-9.8v9.8h9.8V49.6z"/>
			</g>
		</g>
		
			<radialGradient id="SVGID_3_" cx="72.1305" cy="24.1068" r="18.18" gradientTransform="matrix(7.669650e-02 -0.9971 -0.8834 -6.795201e-02 51.1265 105.5669)" gradientUnits="userSpaceOnUse">
			<stop offset="1.721070e-03" style="stop-color:#69A5C6"/>
			<stop offset="0.3395" style="stop-color:#538EBB"/>
			<stop offset="1" style="stop-color:#19498D"/>
		</radialGradient>
		<path class="st7" d="M27.6,42.7c0.5,3.4,1.8,7.3,4.3,10.7c-2.6-0.5-5-1.8-6.9-3.6c0.4-2.6,1.2-5,2.3-7.1    C27.4,42.7,27.5,42.7,27.6,42.7z M45.4,31.2c-0.9,0-2.4,0.1-4.3,0.6c-1,0.3-2.2,0.6-3.5,1.1c0,0.1,0.1,0.3,0.1,0.4    c0,0.2,0,0.4-0.1,0.6c1.6,1,3,2.1,4,3.2c2.4,2.4,4,5.1,5,7.5c0,0,0,0,0.1,0c0.4,0,0.7,0.1,0.9,0.3c0.6-1.6,0.9-3.3,0.9-5    C48.5,36.6,47.3,33.5,45.4,31.2z M26.7,39.9c0.2-0.2,0.4-0.3,0.7-0.3c0.1-3,0.8-5.7,1.7-7.8c-0.3-0.2-0.4-0.5-0.4-0.9    c0,0,0-0.1,0-0.1c-1.3-0.3-2.6-0.4-4-0.5c-1.1,1.1-1.9,2.4-2.6,3.7c0.1,0.1,0.1,0.2,0.2,0.3C23.3,36,24.7,38,26.7,39.9z M46,44.7    c-1-2.3-2.5-4.9-4.8-7.2c-1.1-1.1-2.4-2.2-4-3.2c-0.3,0.3-0.7,0.5-1.1,0.5c-0.5,0-0.9-0.2-1.2-0.6c-1.2,0.7-2.5,1.7-3.6,2.8    c-0.8,0.8-1.7,1.8-2.4,3c0.3,0.3,0.4,0.6,0.4,1.1c0,0.3-0.1,0.5-0.2,0.7c0.8,0.6,1.7,1.1,2.6,1.6c3.3,1.8,8.2,3.2,13.4,2.9    c0-0.1,0-0.1,0-0.2C45.1,45.5,45.5,44.9,46,44.7z M29.9,29.6c0.1,0,0.1,0,0.2,0c0.2-0.3,0.3-0.6,0.5-0.8c0.7-1.1,1.3-1.9,1.9-2.6    c-2.8,0.4-5.3,1.7-7.2,3.5c1.2,0.1,2.4,0.2,3.6,0.5C29.1,29.9,29.5,29.6,29.9,29.6z M45.3,46.9c-0.5,0-1,0-1.4,0    c-4.8,0-9.3-1.3-12.4-3c-1-0.5-1.8-1.1-2.7-1.7c-0.2,0.2-0.4,0.3-0.6,0.4c0.5,3.5,1.8,7.5,4.6,11c0.6,0.1,1.3,0.1,1.9,0.1    c4.8,0,9-2.4,11.5-6.1C45.8,47.5,45.5,47.2,45.3,46.9z M26.1,41.1c0-0.3,0.1-0.6,0.3-0.8c-2-1.9-3.5-3.9-4.5-5.6    c-0.7,1.6-1,3.4-1,5.2c0,3.6,1.4,6.9,3.7,9.4c0.4-2.5,1.2-4.8,2.2-6.9C26.4,42.2,26.1,41.7,26.1,41.1z M31,31.4    c-0.2,0.4-0.6,0.7-1.1,0.7c-0.1,0-0.2,0-0.4-0.1c-0.9,2-1.6,4.6-1.6,7.5c0.2,0,0.3,0.1,0.5,0.2c0.8-1.1,1.7-2.2,2.5-3    c1.2-1.2,2.5-2.2,3.7-2.9c0-0.2-0.1-0.3-0.1-0.4s0-0.3,0.1-0.4C33.5,32.3,32.3,31.8,31,31.4z M30.6,29.9c0.3,0.2,0.5,0.6,0.5,1    c1.3,0.4,2.6,0.9,3.8,1.5c0.3-0.4,0.7-0.6,1.2-0.6c0.5,0,1,0.3,1.2,0.6c1.3-0.6,2.6-1,3.6-1.2c1.7-0.4,3-0.5,4-0.6    c-2.5-2.8-6.2-4.6-10.3-4.6c-0.4,0-0.9,0-1.4,0.1c-0.6,0.7-1.4,1.7-2.3,3C30.9,29.4,30.8,29.6,30.6,29.9z"/>
	</g>
</g>
</svg>