<svg id="Capa_1" data-name="Capa 1" xmlns="http://www.w3.org/2000/svg" viewBox="0 0 263.86 63.74"><defs><style>.cls-1{fill:#8a6e4b;}</style></defs><title>imagotipo-hm-bc</title><path class="cls-1" d="M46.26,58.92V58c1.71,0,2.56-.72,2.56-2.14l-.2-13.61L42.4,58.92h-.81L34.94,42.55l-.12,12.91c0,1.72,1,2.58,2.92,2.58v.88h-7V58c1.77,0,2.7-.94,2.8-2.82l.23-13.07v-.3a2.1,2.1,0,0,0-.07-.58.88.88,0,0,0-.38-.47,2.35,2.35,0,0,0-.89-.31,9.4,9.4,0,0,0-1.58-.1v-.88h6l5.9,14.84,5.63-14.84h5.92v.88a6.73,6.73,0,0,0-1.52.13,2,2,0,0,0-.83.38,1.09,1.09,0,0,0-.35.57,3,3,0,0,0-.07.68l.32,13.54c0,1.57.88,2.35,2.65,2.35v.88Z" transform="translate(-14.11 -17.63)"/><path class="cls-1" d="M61.39,38.34l-.19.35a.29.29,0,0,0,0,.27.25.25,0,0,0,.22.13l.4,0h.65a9.65,9.65,0,0,0,4.84-1,6.24,6.24,0,0,0,2.89-3.9l.08-.24a.28.28,0,0,0,0-.22.31.31,0,0,0-.17-.13l-.25-.06a6.2,6.2,0,0,0-4.81.57,10.36,10.36,0,0,0-3.64,4.25m1.34-.26A8.4,8.4,0,0,1,65.56,35,4.69,4.69,0,0,1,68,34.33a6.36,6.36,0,0,1,1,.09,5,5,0,0,1-2.23,2.75,8.5,8.5,0,0,1-4.08.91" transform="translate(-14.11 -17.63)"/><path class="cls-1" d="M42.7,71a.25.25,0,0,0-.24-.12.26.26,0,0,0-.22.13l-.2.34a10.43,10.43,0,0,0-1.75,5.33,6.26,6.26,0,0,0,2,4.42l.18.19a.27.27,0,0,0,.19.08h0a.34.34,0,0,0,.19-.09l.18-.2a6.23,6.23,0,0,0,1.82-4.49,10.26,10.26,0,0,0-2-5.25Zm1.14,5.62A5,5,0,0,1,42.65,80a5,5,0,0,1-1.32-3.28,8.44,8.44,0,0,1,1.17-4,8.48,8.48,0,0,1,1.34,4" transform="translate(-14.11 -17.63)"/><path class="cls-1" d="M42.48,28a.27.27,0,0,0,.19.08h0a.25.25,0,0,0,.19-.09l.18-.19a6.27,6.27,0,0,0,1.82-4.49,10.26,10.26,0,0,0-2-5.26l-.21-.33a.28.28,0,0,0-.23-.13h0a.3.3,0,0,0-.22.14l-.2.34a10.37,10.37,0,0,0-1.75,5.33,6.28,6.28,0,0,0,2,4.42Zm-1.15-4.62a8.44,8.44,0,0,1,1.17-4,8.52,8.52,0,0,1,1.34,4,5.06,5.06,0,0,1-1.19,3.34,5,5,0,0,1-1.32-3.29" transform="translate(-14.11 -17.63)"/><path class="cls-1" d="M70.13,64.82A6.21,6.21,0,0,0,67.19,61,10.22,10.22,0,0,0,61.67,60l-.39,0a.26.26,0,0,0-.22.14.24.24,0,0,0,0,.26l.19.35A10.27,10.27,0,0,0,65,65a5.72,5.72,0,0,0,2.87.75,7.61,7.61,0,0,0,1.94-.27l.25-.06a.27.27,0,0,0,.17-.13.23.23,0,0,0,0-.21ZM69,64.59a5,5,0,0,1-3.5-.51,8.35,8.35,0,0,1-2.87-3h0a8.4,8.4,0,0,1,4.09.85A5.05,5.05,0,0,1,69,64.59" transform="translate(-14.11 -17.63)"/><path class="cls-1" d="M15.08,34.17A6.24,6.24,0,0,0,18,38.07a9.67,9.67,0,0,0,4.85,1h.64l.4,0a.25.25,0,0,0,.22-.13.29.29,0,0,0,0-.27l-.19-.35a10.29,10.29,0,0,0-3.64-4.25,6.2,6.2,0,0,0-4.81-.57l-.25.06a.31.31,0,0,0-.17.13.28.28,0,0,0,0,.22Zm1.17.25a5,5,0,0,1,3.49.56,8.47,8.47,0,0,1,2.82,3.1,8.5,8.5,0,0,1-4.08-.91,5,5,0,0,1-2.23-2.75" transform="translate(-14.11 -17.63)"/><path class="cls-1" d="M24,60.79l.2-.35a.3.3,0,0,0,0-.26A.29.29,0,0,0,24,60l-.39,0A10.22,10.22,0,0,0,18.1,61a6.21,6.21,0,0,0-2.94,3.85l-.08.25a.26.26,0,0,0,0,.21.27.27,0,0,0,.17.13l.25.06a7.61,7.61,0,0,0,1.94.27A5.72,5.72,0,0,0,20.33,65,10.27,10.27,0,0,0,24,60.79M22.7,61a8.35,8.35,0,0,1-2.87,3,5,5,0,0,1-3.5.51,5.05,5.05,0,0,1,2.27-2.71A8.4,8.4,0,0,1,22.69,61Z" transform="translate(-14.11 -17.63)"/><path class="cls-1" d="M22.14,29.63h.06a5.25,5.25,0,0,1,3.46,2.46,7.22,7.22,0,0,0-.72,4.72,4.81,4.81,0,0,0,1.18,2.64,1.27,1.27,0,0,0,.85.36H27a1.24,1.24,0,0,0,.86-.42,3.64,3.64,0,0,0,.76-2.22s0-.11,0-.18A9.84,9.84,0,0,0,27,32a9.41,9.41,0,0,1,.87-1.18,11.17,11.17,0,0,1,6-3.48,10.58,10.58,0,0,1,1.45-.17,9.67,9.67,0,0,0,3.44,3.93l.16.09a3.69,3.69,0,0,0,2.29.44,1.22,1.22,0,0,0,.79-.53,1.25,1.25,0,0,0,.16-1,4.91,4.91,0,0,0-1.7-2.34A7.17,7.17,0,0,0,36,26.09a5.34,5.34,0,0,1-.39-4.25l.06-.1a.62.62,0,0,0,.06-.26.56.56,0,0,0-.56-.56.53.53,0,0,0-.43.22l0,.06-.08.15a6,6,0,0,0,.19,4.76,9.71,9.71,0,0,0-1.17.17A12.06,12.06,0,0,0,30,27.66a12.47,12.47,0,0,0-3,2.45c-.26.31-.51.62-.73.94a6,6,0,0,0-4-2.54H22.1a.31.31,0,0,0-.13,0,.57.57,0,0,0-.39.54.56.56,0,0,0,.56.56M27.53,37v.13a2.75,2.75,0,0,1-.47,1.53.27.27,0,0,1-.09.08.4.4,0,0,1-.12-.07,3.74,3.74,0,0,1-.81-2,5.82,5.82,0,0,1,.34-3.38A8.14,8.14,0,0,1,27.53,37m9.09-9.67a5.88,5.88,0,0,1,3.1,1.39c1.08,1,1.29,1.52,1.33,1.72a.31.31,0,0,1,0,.13s0,0-.11.05a2.81,2.81,0,0,1-1.56-.36l-.11-.06a8.31,8.31,0,0,1-2.66-2.87M27,39.53Z" transform="translate(-14.11 -17.63)"/><path class="cls-1" d="M15.15,57.42l.06-.1a5.3,5.3,0,0,1,3.86-1.79,7.17,7.17,0,0,0,3.72,3,6.59,6.59,0,0,0,2.09.42,2.32,2.32,0,0,0,.78-.12,1.23,1.23,0,0,0,.75-.61,1.24,1.24,0,0,0,.07-1,3.65,3.65,0,0,0-1.54-1.77,1,1,0,0,1-.15-.11,9.58,9.58,0,0,0-5.11-1A9.63,9.63,0,0,1,19.1,53a11.28,11.28,0,0,1,0-7,9.63,9.63,0,0,1,.58-1.35,9.65,9.65,0,0,0,5.11-1l.15-.1a3.65,3.65,0,0,0,1.54-1.77,1.23,1.23,0,0,0-.82-1.57,4.87,4.87,0,0,0-2.87.3,7.22,7.22,0,0,0-3.72,3,5.26,5.26,0,0,1-3.86-1.78l-.06-.1-.05-.06a.56.56,0,0,0-1,.35.53.53,0,0,0,.06.24.14.14,0,0,0,0,.06l.1.13a6,6,0,0,0,4.2,2.22A9.74,9.74,0,0,0,18,45.7a12.39,12.39,0,0,0,0,7.68,9.74,9.74,0,0,0,.45,1.1,6,6,0,0,0-4.2,2.21l-.1.14,0,.05a.53.53,0,0,0-.06.24.56.56,0,0,0,.56.56.57.57,0,0,0,.42-.19l.06-.07m5.25-2a8,8,0,0,1,3.8.87l.11.07a2.65,2.65,0,0,1,1.09,1.17.23.23,0,0,1,0,.12.33.33,0,0,1-.12.06,4,4,0,0,1-2.15-.3,5.78,5.78,0,0,1-2.75-2m0-11.87a5.82,5.82,0,0,1,2.75-2,5.55,5.55,0,0,1,1.72-.36,1.69,1.69,0,0,1,.43.05.43.43,0,0,1,.12.07.23.23,0,0,1,0,.12,2.61,2.61,0,0,1-1.08,1.16l-.12.08a8.09,8.09,0,0,1-3.8.86" transform="translate(-14.11 -17.63)"/><path class="cls-1" d="M44.72,27.83A4.87,4.87,0,0,0,43,30.17a1.29,1.29,0,0,0,.15,1,1.24,1.24,0,0,0,.79.53,3.73,3.73,0,0,0,2.3-.44l.16-.09a9.67,9.67,0,0,0,3.44-3.93,10.58,10.58,0,0,1,1.45.17,11.17,11.17,0,0,1,3.28,1.26,10.79,10.79,0,0,1,2.72,2.22A9.5,9.5,0,0,1,58.2,32,9.65,9.65,0,0,0,56.53,37a1,1,0,0,0,0,.18,3.64,3.64,0,0,0,.76,2.22,1.22,1.22,0,0,0,.85.42h.06a1.29,1.29,0,0,0,.85-.36,4.75,4.75,0,0,0,1.17-2.64,7.16,7.16,0,0,0-.72-4.72A5.29,5.29,0,0,1,63,29.63H63a.56.56,0,0,0,.57-.56.57.57,0,0,0-.47-.56h-.22a6,6,0,0,0-4,2.54c-.23-.32-.47-.63-.74-.94a12.23,12.23,0,0,0-3-2.45,12.06,12.06,0,0,0-3.62-1.38,9.87,9.87,0,0,0-1.18-.17,6.08,6.08,0,0,0,.2-4.76l-.08-.15,0-.06a.54.54,0,0,0-.44-.22.56.56,0,0,0-.56.56.63.63,0,0,0,.07.26l0,.1a5.3,5.3,0,0,1-.39,4.25,7.2,7.2,0,0,0-4.44,1.74m-.6,2.56c0-.2.25-.76,1.34-1.72a5.81,5.81,0,0,1,3.09-1.39,8.2,8.2,0,0,1-2.65,2.87l-.12.06a2.68,2.68,0,0,1-1.55.36l-.11,0a.26.26,0,0,1,0-.14m13.53,6.69s0-.09,0-.13a8.17,8.17,0,0,1,1.16-3.74,5.9,5.9,0,0,1,.34,3.38,3.68,3.68,0,0,1-.82,2,.29.29,0,0,1-.11.08.23.23,0,0,1-.1-.08,2.76,2.76,0,0,1-.46-1.53m.56,2.45Z" transform="translate(-14.11 -17.63)"/><path class="cls-1" d="M71,56.83l-.09-.14a6,6,0,0,0-4.2-2.21,8.14,8.14,0,0,0,.44-1.1,11.93,11.93,0,0,0,.62-3.84,12.21,12.21,0,0,0-.61-3.84,9.74,9.74,0,0,0-.45-1.1,6,6,0,0,0,4.2-2.21l.09-.14,0-.06a.52.52,0,0,0,0-.24.55.55,0,0,0-1-.35l0,.06-.06.1a5.26,5.26,0,0,1-3.86,1.78,7.19,7.19,0,0,0-3.72-3,4.82,4.82,0,0,0-2.87-.31,1.21,1.21,0,0,0-.82,1.57,3.65,3.65,0,0,0,1.54,1.77l.15.1a9.58,9.58,0,0,0,5.11,1,9.63,9.63,0,0,1,.58,1.35,11.28,11.28,0,0,1,0,7,9.63,9.63,0,0,1-.58,1.35,9.47,9.47,0,0,0-5.11,1l-.15.1a3.65,3.65,0,0,0-1.54,1.77,1.19,1.19,0,0,0,.82,1.56,2.28,2.28,0,0,0,.78.12,6.59,6.59,0,0,0,2.09-.42,7.21,7.21,0,0,0,3.72-3A5.3,5.3,0,0,1,70,57.32l.06.1,0,.06a.55.55,0,0,0,.43.2.56.56,0,0,0,.55-.56.52.52,0,0,0,0-.24l0-.05M64.79,43.6A8.16,8.16,0,0,1,61,42.74l-.11-.07a2.78,2.78,0,0,1-1.09-1.17.27.27,0,0,1,0-.12.28.28,0,0,1,.12-.07,4.09,4.09,0,0,1,2.15.31,5.82,5.82,0,0,1,2.75,2m0,11.87a5.78,5.78,0,0,1-2.75,2,4,4,0,0,1-2.15.3c-.1,0-.12-.06-.12-.06a.27.27,0,0,1,0-.12,2.78,2.78,0,0,1,1.09-1.17l.11-.07a8,8,0,0,1,3.81-.87" transform="translate(-14.11 -17.63)"/><path class="cls-1" d="M63,69.45H63A5.3,5.3,0,0,1,59.51,67a7.2,7.2,0,0,0,.72-4.73,4.82,4.82,0,0,0-1.17-2.64,1.28,1.28,0,0,0-.85-.35h-.06a1.24,1.24,0,0,0-.85.42,3.69,3.69,0,0,0-.76,2.22,1,1,0,0,0,0,.19,9.65,9.65,0,0,0,1.67,4.94,8.82,8.82,0,0,1-.88,1.18,10.79,10.79,0,0,1-2.72,2.22,10.9,10.9,0,0,1-3.28,1.26,9.22,9.22,0,0,1-1.45.17A9.67,9.67,0,0,0,46.43,68l-.16-.08a3.67,3.67,0,0,0-2.3-.45,1.2,1.2,0,0,0-.94,1.5,4.92,4.92,0,0,0,1.69,2.34A7.19,7.19,0,0,0,49.16,73a5.3,5.3,0,0,1,.39,4.25l0,.1a.68.68,0,0,0-.07.26.57.57,0,0,0,.56.57.57.57,0,0,0,.44-.22l0-.07.08-.15a6.08,6.08,0,0,0-.2-4.76,9.81,9.81,0,0,0,1.18-.16,12.2,12.2,0,0,0,3.61-1.39,11.88,11.88,0,0,0,3-2.45A10.9,10.9,0,0,0,58.9,68a6,6,0,0,0,4,2.55h.16a.32.32,0,0,0,.14,0A.56.56,0,0,0,63.6,70a.57.57,0,0,0-.57-.57m-5.39-7.32s0-.08,0-.13a2.68,2.68,0,0,1,.46-1.53c.06-.06.09-.07.1-.07a.32.32,0,0,1,.11.07,3.73,3.73,0,0,1,.82,2,5.89,5.89,0,0,1-.34,3.38,8.14,8.14,0,0,1-1.16-3.74m-9.09,9.68a5.75,5.75,0,0,1-3.09-1.4c-1.09-1-1.3-1.52-1.34-1.71a.24.24,0,0,1,0-.14.25.25,0,0,1,.11,0,2.71,2.71,0,0,1,1.55.37.34.34,0,0,1,.12.06,8,8,0,0,1,2.65,2.87" transform="translate(-14.11 -17.63)"/><path class="cls-1" d="M40.45,71.25a4.89,4.89,0,0,0,1.7-2.33A1.27,1.27,0,0,0,42,68a1.29,1.29,0,0,0-.79-.53,3.64,3.64,0,0,0-2.29.45l-.17.08a9.73,9.73,0,0,0-3.43,3.93,9.22,9.22,0,0,1-1.45-.17,10.8,10.8,0,0,1-3.28-1.26,11,11,0,0,1-2.73-2.22A8.73,8.73,0,0,1,27,67.05a9.84,9.84,0,0,0,1.67-4.95c0-.07,0-.13,0-.18a3.69,3.69,0,0,0-.76-2.22,1.24,1.24,0,0,0-.86-.42H27a1.26,1.26,0,0,0-.85.35,4.89,4.89,0,0,0-1.18,2.64A7.26,7.26,0,0,0,25.66,67a5.33,5.33,0,0,1-3.46,2.46h-.06a.57.57,0,0,0-.56.57.56.56,0,0,0,.46.55h.23a6,6,0,0,0,4-2.55A10.77,10.77,0,0,0,27,69a12.24,12.24,0,0,0,3,2.45,12.36,12.36,0,0,0,3.62,1.39,9.65,9.65,0,0,0,1.17.16,6,6,0,0,0-.19,4.76l.08.15a.15.15,0,0,0,0,.06.54.54,0,0,0,.43.23.57.57,0,0,0,.56-.57.54.54,0,0,0-.07-.26l-.05-.1A5.34,5.34,0,0,1,36,73a7.12,7.12,0,0,0,4.44-1.74m.6-2.55c0,.19-.25.76-1.33,1.71a5.82,5.82,0,0,1-3.1,1.4,8.13,8.13,0,0,1,2.66-2.87l.11-.06a3.36,3.36,0,0,1,1.34-.39l.22,0a.25.25,0,0,1,.11,0,.37.37,0,0,1,0,.14m-14.2-8.23A.25.25,0,0,1,27,60.4s0,0,.09.07A2.78,2.78,0,0,1,27.53,62v.13a8.11,8.11,0,0,1-1.15,3.74A5.81,5.81,0,0,1,26,62.49a3.68,3.68,0,0,1,.81-2" transform="translate(-14.11 -17.63)"/><path class="cls-1" d="M128.1,73.59a2.76,2.76,0,0,1-.48,1.59,1.63,1.63,0,0,1-1.35.7h-1.84V61.3h1.84a1.64,1.64,0,0,1,1.35.73,2.75,2.75,0,0,1,.48,1.58v2.94a2.3,2.3,0,0,1-.95,2,2.32,2.32,0,0,1,.95,2.06Zm-1.17-6.68v-3.3c0-.71-.22-1.07-.66-1.07h-.67V68h.67c.44,0,.66-.35.66-1.07m0,6.68v-3.3c0-.71-.22-1.06-.66-1.06h-.67v5.43h.67c.44,0,.66-.35.66-1.07" transform="translate(-14.11 -17.63)"/><path class="cls-1" d="M136.28,73.68a2.67,2.67,0,0,1-.48,1.59,1.68,1.68,0,0,1-1.36.71,1.56,1.56,0,0,1-1.32-.7,2.65,2.65,0,0,1-.51-1.6V61.3h1.16V73.68a1.47,1.47,0,0,0,.15.69.58.58,0,0,0,.52.38c.45,0,.67-.36.67-1.07V61.3h1.17Z" transform="translate(-14.11 -17.63)"/><path class="cls-1" d="M144.44,73.68a2.59,2.59,0,0,1-.49,1.57,1.59,1.59,0,0,1-1.35.73,1.56,1.56,0,0,1-1.33-.7,2.65,2.65,0,0,1-.51-1.6V72h1.18v1.69c0,.71.22,1.07.66,1.07a.59.59,0,0,0,.52-.38,1.58,1.58,0,0,0,.15-.69v-1.6a4.64,4.64,0,0,0-.65-2.3c-.4-.67-.8-1.33-1.2-2a5.74,5.74,0,0,1-.66-2.68v-1.6a2.64,2.64,0,0,1,.49-1.57,1.6,1.6,0,0,1,2.7,0,2.7,2.7,0,0,1,.49,1.59v1.69h-1.17V63.53c0-.71-.23-1.07-.67-1.07a.53.53,0,0,0-.5.35,1.64,1.64,0,0,0-.16.72v1.6a4.6,4.6,0,0,0,.64,2.3l.6,1,.6,1a5.55,5.55,0,0,1,.66,2.66Z" transform="translate(-14.11 -17.63)"/><rect class="cls-1" x="134.79" y="43.67" width="1.17" height="14.58"/><polygon class="cls-1" points="144.2 58.25 143.06 58.25 141.69 50.48 141.69 58.25 140.52 58.25 140.52 43.67 141.66 43.67 143.02 51.45 143.02 43.67 144.2 43.67 144.2 58.25"/><polygon class="cls-1" points="151.93 58.25 148.75 58.25 148.75 43.67 151.93 43.67 151.93 44.91 149.93 44.91 149.93 50.35 151.59 50.35 151.59 51.59 149.93 51.59 149.93 57.03 151.93 57.03 151.93 58.25"/><path class="cls-1" d="M174,73.68a2.65,2.65,0,0,1-.48,1.57,1.61,1.61,0,0,1-1.35.73,1.55,1.55,0,0,1-1.33-.7,2.65,2.65,0,0,1-.51-1.6V72h1.17v1.69c0,.71.22,1.07.67,1.07a.59.59,0,0,0,.51-.38,1.58,1.58,0,0,0,.15-.69v-1.6a4.63,4.63,0,0,0-.64-2.3c-.41-.67-.81-1.33-1.21-2a5.73,5.73,0,0,1-.65-2.68v-1.6a2.57,2.57,0,0,1,.49-1.57,1.59,1.59,0,0,1,1.35-.75,1.61,1.61,0,0,1,1.35.73,2.76,2.76,0,0,1,.48,1.59v1.69h-1.17V63.53c0-.71-.22-1.07-.66-1.07a.52.52,0,0,0-.5.35,1.65,1.65,0,0,0-.17.72v1.6a4.62,4.62,0,0,0,.65,2.3l.6,1,.6,1a5.54,5.54,0,0,1,.65,2.66Z" transform="translate(-14.11 -17.63)"/><path class="cls-1" d="M182.14,73.68a2.66,2.66,0,0,1-.49,1.57,1.59,1.59,0,0,1-1.35.73,1.56,1.56,0,0,1-1.33-.7,2.65,2.65,0,0,1-.51-1.6V72h1.17v1.69c0,.71.23,1.07.67,1.07a.6.6,0,0,0,.52-.38,1.74,1.74,0,0,0,.14-.69v-1.6a4.63,4.63,0,0,0-.64-2.3l-1.2-2a5.74,5.74,0,0,1-.66-2.68v-1.6A2.57,2.57,0,0,1,179,62a1.6,1.6,0,0,1,2.7,0,2.77,2.77,0,0,1,.49,1.59v1.69H181V63.53c0-.71-.22-1.07-.66-1.07a.52.52,0,0,0-.5.35,1.65,1.65,0,0,0-.17.72v1.6a4.62,4.62,0,0,0,.65,2.3l.6,1,.6,1a5.55,5.55,0,0,1,.66,2.66Z" transform="translate(-14.11 -17.63)"/><path class="cls-1" d="M198.4,73.68a2.67,2.67,0,0,1-.48,1.59,1.66,1.66,0,0,1-1.36.71,1.56,1.56,0,0,1-1.32-.7,2.65,2.65,0,0,1-.51-1.6V63.53a2.65,2.65,0,0,1,.51-1.6,1.55,1.55,0,0,1,1.32-.72,1.62,1.62,0,0,1,1.36.73,2.63,2.63,0,0,1,.48,1.59v1.69h-1.16V63.53c0-.71-.23-1.07-.68-1.07a.57.57,0,0,0-.51.37,1.54,1.54,0,0,0-.15.7V73.68a1.47,1.47,0,0,0,.15.69.56.56,0,0,0,.51.38c.45,0,.68-.36.68-1.07V72h1.16Z" transform="translate(-14.11 -17.63)"/><polygon class="cls-1" points="191.93 58.25 188.75 58.25 188.75 43.67 189.93 43.67 189.93 57.03 191.93 57.03 191.93 58.25"/><path class="cls-1" d="M214.68,75.88h-1.21l-.29-2.65h-1.53l-.31,2.65h-1.18l1.65-14.58H213ZM213,72l-.65-5.69L211.75,72Z" transform="translate(-14.11 -17.63)"/><path class="cls-1" d="M222.67,73.68a2.59,2.59,0,0,1-.49,1.57,1.59,1.59,0,0,1-1.35.73,1.57,1.57,0,0,1-1.33-.7,2.65,2.65,0,0,1-.51-1.6V72h1.18v1.69c0,.71.22,1.07.66,1.07a.59.59,0,0,0,.52-.38,1.58,1.58,0,0,0,.15-.69v-1.6a4.64,4.64,0,0,0-.65-2.3c-.4-.67-.8-1.33-1.2-2a5.74,5.74,0,0,1-.66-2.68v-1.6a2.64,2.64,0,0,1,.49-1.57,1.61,1.61,0,0,1,1.35-.75,1.59,1.59,0,0,1,1.35.73,2.7,2.7,0,0,1,.49,1.59v1.69H221.5V63.53c0-.71-.22-1.07-.67-1.07a.54.54,0,0,0-.5.35,1.64,1.64,0,0,0-.16.72v1.6a4.6,4.6,0,0,0,.64,2.3c.21.33.41.67.61,1s.39.66.6,1a5.66,5.66,0,0,1,.65,2.66Z" transform="translate(-14.11 -17.63)"/><path class="cls-1" d="M230.87,73.68a2.59,2.59,0,0,1-.49,1.57A1.59,1.59,0,0,1,229,76a1.56,1.56,0,0,1-1.33-.7,2.65,2.65,0,0,1-.51-1.6V72h1.18v1.69c0,.71.22,1.07.66,1.07a.59.59,0,0,0,.52-.38,1.58,1.58,0,0,0,.15-.69v-1.6a4.64,4.64,0,0,0-.65-2.3c-.4-.67-.81-1.33-1.2-2a5.74,5.74,0,0,1-.66-2.68v-1.6a2.57,2.57,0,0,1,.49-1.57,1.6,1.6,0,0,1,2.7,0,2.7,2.7,0,0,1,.49,1.59v1.69H229.7V63.53c0-.71-.23-1.07-.67-1.07a.53.53,0,0,0-.5.35,1.64,1.64,0,0,0-.16.72v1.6a4.6,4.6,0,0,0,.64,2.3l.6,1,.6,1a5.55,5.55,0,0,1,.66,2.66Z" transform="translate(-14.11 -17.63)"/><path class="cls-1" d="M120.9,67.74a1.54,1.54,0,1,1-1.54-1.55,1.54,1.54,0,0,1,1.54,1.55" transform="translate(-14.11 -17.63)"/><path class="cls-1" d="M238.13,67.74a1.54,1.54,0,1,1-1.54-1.55,1.54,1.54,0,0,1,1.54,1.55" transform="translate(-14.11 -17.63)"/><path class="cls-1" d="M88.32,55.81v-.73q2.4,0,2.4-1.68V48.31a3.13,3.13,0,0,0-1.84-.37H84.51a4.49,4.49,0,0,0-.92.09,3.25,3.25,0,0,0-.83.28V53.4c0,1.12.74,1.68,2.23,1.68v.73H77.88v-.73c1.65,0,2.48-.56,2.48-1.68V42.54c0-1.43-.83-2.15-2.48-2.15v-.73H85v.73c-1.49,0-2.23.72-2.23,2.15v4.18a5.44,5.44,0,0,0,1.75.27h4.37a4.2,4.2,0,0,0,1.84-.27V42.54c0-1.43-.8-2.15-2.4-2.15v-.73h7v.73a1.93,1.93,0,0,0-2.21,2.15V53.4c0,1.12.74,1.68,2.21,1.68v.73Z" transform="translate(-14.11 -17.63)"/><path class="cls-1" d="M106.05,56.18a7.76,7.76,0,0,1-5.7-2.42A8.52,8.52,0,0,1,98.7,51.1a9,9,0,0,1-.59-3.25,8.89,8.89,0,0,1,.56-3.14,8.36,8.36,0,0,1,1.6-2.7,8,8,0,0,1,2.51-1.9,7.33,7.33,0,0,1,3.27-.72,8.54,8.54,0,0,1,3.27.62,7.76,7.76,0,0,1,2.57,1.73,8,8,0,0,1,1.69,2.62,8.87,8.87,0,0,1,.6,3.29,8.68,8.68,0,0,1-.58,3.1A9,9,0,0,1,112,53.49a8.29,8.29,0,0,1-2.56,1.95,7.52,7.52,0,0,1-3.35.74m.19-1a4.5,4.5,0,0,0,2.33-.57,4.74,4.74,0,0,0,1.61-1.57,7.41,7.41,0,0,0,.93-2.35,12.79,12.79,0,0,0,.31-2.91,12.5,12.5,0,0,0-.31-2.82,7.66,7.66,0,0,0-1-2.42,5.06,5.06,0,0,0-1.71-1.7,4.82,4.82,0,0,0-2.56-.65,4.31,4.31,0,0,0-2.34.61A4.78,4.78,0,0,0,102,42.48a7.34,7.34,0,0,0-.85,2.36,15,15,0,0,0-.25,2.8,13.45,13.45,0,0,0,.31,3,7.61,7.61,0,0,0,1,2.41,4.88,4.88,0,0,0,1.68,1.61,4.74,4.74,0,0,0,2.4.58" transform="translate(-14.11 -17.63)"/><path class="cls-1" d="M119.07,55.81v-.73c1.73,0,2.59-.74,2.59-2.24V41.61c0-.6-.39-.9-1.19-.9a3.43,3.43,0,0,0-2.59,1,6.54,6.54,0,0,0-1.48,3.13l-.76-.19.66-5.19,1,.12c.34,0,.66,0,1,0h9.35c.34,0,.69,0,1.05,0l1.09-.12v5.09l-.66.1q-.28-3.9-3.86-3.9c-.81,0-1.21.28-1.21.83V52.84c0,1.5.87,2.24,2.62,2.24v.73Z" transform="translate(-14.11 -17.63)"/><path class="cls-1" d="M132,55.81v-.73c1.49,0,2.24-.53,2.24-1.58V42.44c0-1.37-.81-2-2.41-2v-.73h12.78l.19,4.56-.75.09a6,6,0,0,0-.66-2,3,3,0,0,0-1-1.09,3.46,3.46,0,0,0-1.43-.41q-.8-.06-1.74-.06h-.68c-1.23,0-1.85.36-1.85,1.09v4.36c0,.49.19.74.58.74H138a8.06,8.06,0,0,0,1.13-.07,2.14,2.14,0,0,0,.92-.31,1.84,1.84,0,0,0,.66-.78,4.59,4.59,0,0,0,.35-1.43h.9v6.31h-.9a6.36,6.36,0,0,0-.29-1.42,1.81,1.81,0,0,0-.56-.81,2,2,0,0,0-.9-.36,8.06,8.06,0,0,0-1.31-.09h-.29c-.75,0-1.12.27-1.12.81V53.4c0,.93.65,1.39,1.94,1.39h.76a10.79,10.79,0,0,0,2.46-.23,3.78,3.78,0,0,0,1.52-.73,3.51,3.51,0,0,0,.93-1.26,17.18,17.18,0,0,0,.72-1.78l.66.2-.66,4.82Z" transform="translate(-14.11 -17.63)"/><path class="cls-1" d="M148.33,55.81v-.73c1.42,0,2.14-.44,2.14-1.32V42.24c0-1.23-.8-1.85-2.41-1.85v-.73h7.05v.73c-1.49,0-2.24.62-2.24,1.85V53.77c0,.68.53,1,1.58,1h1.12a10.06,10.06,0,0,0,1.94-.16,5.08,5.08,0,0,0,1.41-.45q1.07-.59,1.92-3.48l.65.09-.73,5Z" transform="translate(-14.11 -17.63)"/><path class="cls-1" d="M183.35,55.81v-.73c1.42,0,2.14-.59,2.14-1.78L185.32,42l-5.18,13.84h-.68l-5.53-13.62-.1,10.75c0,1.43.79,2.14,2.43,2.14v.73h-5.85v-.73c1.47,0,2.25-.78,2.33-2.34l.19-10.89v-.24a1.88,1.88,0,0,0-.06-.49.79.79,0,0,0-.31-.39,2,2,0,0,0-.75-.25,7.49,7.49,0,0,0-1.31-.09v-.73h5L180.41,52l4.69-12.35H190v.73a5.79,5.79,0,0,0-1.26.11,1.57,1.57,0,0,0-.7.32.91.91,0,0,0-.29.47,2.6,2.6,0,0,0-.06.56L188,53.13c0,1.3.74,1.95,2.21,1.95v.73Z" transform="translate(-14.11 -17.63)"/><path class="cls-1" d="M200.91,56.18a7.76,7.76,0,0,1-5.7-2.42,8.52,8.52,0,0,1-1.65-2.66,9,9,0,0,1-.59-3.25,8.89,8.89,0,0,1,.56-3.14,8.36,8.36,0,0,1,1.6-2.7,7.9,7.9,0,0,1,2.51-1.9,7.33,7.33,0,0,1,3.27-.72,8.54,8.54,0,0,1,3.27.62,7.76,7.76,0,0,1,2.57,1.73,8,8,0,0,1,1.69,2.62,8.87,8.87,0,0,1,.6,3.29,8.68,8.68,0,0,1-.58,3.1,9,9,0,0,1-1.64,2.74,8.29,8.29,0,0,1-2.56,1.95,7.52,7.52,0,0,1-3.35.74m.19-1a4.5,4.5,0,0,0,2.33-.57A4.74,4.74,0,0,0,205,53.09a7.41,7.41,0,0,0,.93-2.35,13.39,13.39,0,0,0,.31-2.91A13.1,13.1,0,0,0,206,45a7.66,7.66,0,0,0-1-2.42,5.06,5.06,0,0,0-1.71-1.7,4.82,4.82,0,0,0-2.56-.65,4.37,4.37,0,0,0-2.35.61,4.85,4.85,0,0,0-1.55,1.63,7.34,7.34,0,0,0-.85,2.36,15,15,0,0,0-.25,2.8,13.45,13.45,0,0,0,.31,3A7.61,7.61,0,0,0,197,53a4.88,4.88,0,0,0,1.68,1.61,4.74,4.74,0,0,0,2.4.58" transform="translate(-14.11 -17.63)"/><path class="cls-1" d="M212,55.81v-.73a7.24,7.24,0,0,0,1.16-.07,1.37,1.37,0,0,0,.7-.3,1.25,1.25,0,0,0,.34-.69,7.34,7.34,0,0,0,.08-1.18V42.73a5,5,0,0,0-.12-1.28,1,1,0,0,0-.41-.61,1.7,1.7,0,0,0-.74-.23,8.85,8.85,0,0,1-1.11-.2v-.75a6.59,6.59,0,0,0,1,.08l1.09,0q.74,0,1.38,0t1.26-.06l1.29-.06c.44,0,.92,0,1.44,0a10.93,10.93,0,0,1,3.67.56,7.27,7.27,0,0,1,2.69,1.6,6.86,6.86,0,0,1,1.67,2.57,9.75,9.75,0,0,1,.57,3.43,9.51,9.51,0,0,1-.56,3.34,6.2,6.2,0,0,1-1.76,2.53,8.29,8.29,0,0,1-3.07,1.62,15.59,15.59,0,0,1-4.5.57Zm7.58-1a5.15,5.15,0,0,0,4.25-1.71q1.38-1.73,1.38-5.4t-1.55-5.4a5.73,5.73,0,0,0-4.5-1.74h-1a5.07,5.07,0,0,0-.73,0,.81.81,0,0,0-.46.19,1,1,0,0,0-.24.45,3.46,3.46,0,0,0-.07.81V53a3.62,3.62,0,0,0,.11,1,1,1,0,0,0,.36.56,1.4,1.4,0,0,0,.67.22q.41,0,1,0Z" transform="translate(-14.11 -17.63)"/><path class="cls-1" d="M231.05,55.81v-.73c1.49,0,2.23-.53,2.23-1.58V42.44c0-1.37-.8-2-2.4-2v-.73h12.77l.2,4.56-.76.09a5.82,5.82,0,0,0-.65-2,3,3,0,0,0-1.06-1.09,3.41,3.41,0,0,0-1.42-.41c-.53,0-1.12-.06-1.75-.06h-.68c-1.23,0-1.84.36-1.84,1.09v4.36c0,.49.19.74.58.74h.82a7.87,7.87,0,0,0,1.13-.07,2.18,2.18,0,0,0,.93-.31,1.89,1.89,0,0,0,.65-.78,4.32,4.32,0,0,0,.35-1.43h.9v6.31h-.9a5.84,5.84,0,0,0-.29-1.42,1.74,1.74,0,0,0-.56-.81,2,2,0,0,0-.89-.36,8.2,8.2,0,0,0-1.32-.09h-.29q-1.11,0-1.11.81V53.4c0,.93.64,1.39,1.94,1.39h.75a11,11,0,0,0,2.47-.23,3.42,3.42,0,0,0,2.45-2c.23-.5.47-1.09.72-1.78l.65.2L244,55.81Z" transform="translate(-14.11 -17.63)"/><path class="cls-1" d="M247.42,55.81v-.73q2.13,0,2.13-1.32V42.24c0-1.23-.8-1.85-2.4-1.85v-.73h7v.73c-1.49,0-2.23.62-2.23,1.85V53.77c0,.68.52,1,1.58,1h1.11a10.1,10.1,0,0,0,2-.16,4.9,4.9,0,0,0,1.4-.45q1.08-.59,1.92-3.48l.66.09-.73,5Z" transform="translate(-14.11 -17.63)"/><path class="cls-1" d="M269.83,56.18a7.76,7.76,0,0,1-3.18-.65,7.62,7.62,0,0,1-2.51-1.77,8.16,8.16,0,0,1-1.65-2.66,8.81,8.81,0,0,1-.6-3.25,9.12,9.12,0,0,1,.56-3.14,8.36,8.36,0,0,1,1.6-2.7,8.13,8.13,0,0,1,2.51-1.9,7.33,7.33,0,0,1,3.27-.72,8.54,8.54,0,0,1,3.27.62,7.76,7.76,0,0,1,2.57,1.73,7.88,7.88,0,0,1,1.69,2.62,8.87,8.87,0,0,1,.61,3.29,8.69,8.69,0,0,1-.59,3.1,8.93,8.93,0,0,1-1.63,2.74,8.33,8.33,0,0,1-2.57,1.95,7.52,7.52,0,0,1-3.35.74m.2-1a4.55,4.55,0,0,0,2.33-.57,4.8,4.8,0,0,0,1.6-1.57,7.66,7.66,0,0,0,.94-2.35,13.4,13.4,0,0,0,.3-2.91,13.1,13.1,0,0,0-.3-2.82,8.16,8.16,0,0,0-1-2.42,5.18,5.18,0,0,0-1.72-1.7,4.79,4.79,0,0,0-2.56-.65,4.33,4.33,0,0,0-2.34.61,4.78,4.78,0,0,0-1.56,1.63,7.58,7.58,0,0,0-.85,2.36,15,15,0,0,0-.25,2.8,13.45,13.45,0,0,0,.31,3A7.39,7.39,0,0,0,266,53,4.57,4.57,0,0,0,270,55.23" transform="translate(-14.11 -17.63)"/></svg>