<svg width="199" height="130" viewBox="0 0 199 130" fill="none" xmlns="http://www.w3.org/2000/svg">
<path d="M199 65C199 80.3716 191.996 98.722 183.075 109.85C171.163 124.71 154.527 130 134 130C114.854 130 101.045 123.022 89.15 109.85C78.7417 98.3247 69 81.7524 69 65C69 46.4918 73.3314 28.413 85.7458 16.575C97.4104 5.45205 116.61 0 134 0C160.78 0 185.145 8.3948 195.1 31.525C198.49 39.4011 199 55.8812 199 65Z" fill="#FFF2F5"/>
<path d="M40 20C40 24.7297 37.8448 30.376 35.1 33.8C31.4347 38.3723 26.316 40 20 40C14.1089 40 9.86014 37.8529 6.2 33.8C2.99744 30.2537 0 25.1546 0 20C0 14.3052 1.33274 8.74247 5.15256 5.1C8.74165 1.67755 14.6491 0 20 0C28.2399 0 35.7368 2.58301 38.8 9.7C39.843 12.1234 40 17.1942 40 20Z" fill="#FFF2F5"/>
</svg>
