<svg width="243" height="147" viewBox="0 0 243 147" fill="none" xmlns="http://www.w3.org/2000/svg">
<path d="M130 65C130 80.3716 122.996 98.722 114.075 109.85C102.163 124.71 85.5269 130 65 130C45.8539 130 32.0455 123.022 20.15 109.85C9.74169 98.3247 0 81.7524 0 65C0 46.4918 4.3314 28.413 16.7458 16.575C28.4104 5.45205 47.6097 0 65 0C91.7797 0 116.145 8.3948 126.1 31.525C129.49 39.4011 130 55.8812 130 65Z" fill="#E7F7F0"/>
<path d="M243 127C243 131.73 240.845 137.376 238.1 140.8C234.435 145.372 229.316 147 223 147C217.109 147 212.86 144.853 209.2 140.8C205.997 137.254 203 132.155 203 127C203 121.305 204.333 115.742 208.153 112.1C211.742 108.678 217.649 107 223 107C231.24 107 238.737 109.583 241.8 116.7C242.843 119.123 243 124.194 243 127Z" fill="#E7F7F0"/>
</svg>
