<svg width="336" height="236" viewBox="0 0 336 236" fill="none" xmlns="http://www.w3.org/2000/svg">
<path d="M336 118C336 145.905 323.284 179.218 307.09 199.42C285.465 226.397 255.264 236 218 236C183.243 236 158.175 223.332 136.58 199.42C117.685 178.497 100 148.412 100 118C100 84.4004 107.863 51.5806 130.4 30.09C151.576 9.89756 186.43 0 218 0C266.616 0 310.847 15.2398 328.92 57.23C335.074 71.5281 336 101.446 336 118Z" fill="#E7F7F0"/>
<path d="M51 46.5C51 52.5304 48.2521 59.7294 44.7525 64.095C40.0792 69.9247 33.5528 72 25.5 72C17.9889 72 12.5717 69.2625 7.905 64.095C3.82174 59.5735 0 53.0721 0 46.5C0 39.2391 1.69924 32.1466 6.56951 27.5025C11.1456 23.1389 18.6777 21 25.5 21C36.0059 21 45.5644 24.2933 49.47 33.3675C50.7999 36.4573 51 42.9226 51 46.5Z" fill="#E7F7F0"/>
</svg>
