<svg width="326" height="236" viewBox="0 0 326 236" fill="none" xmlns="http://www.w3.org/2000/svg">
<path d="M236 118C236 145.905 223.284 179.218 207.09 199.42C185.465 226.397 155.264 236 118 236C83.2425 236 58.1748 223.332 36.58 199.42C17.6849 178.497 0 148.412 0 118C0 84.4004 7.86315 51.5806 30.4001 30.09C51.5757 9.89756 86.43 0 118 0C166.616 0 210.847 15.2398 228.92 57.23C235.074 71.5281 236 101.446 236 118Z" fill="#FFF7E7"/>
<path d="M326 54.5C326 60.5304 323.252 67.7294 319.752 72.095C315.079 77.9247 308.553 80 300.5 80C292.989 80 287.572 77.2625 282.905 72.095C278.822 67.5735 275 61.0721 275 54.5C275 47.2391 276.699 40.1466 281.57 35.5025C286.146 31.1389 293.678 29 300.5 29C311.006 29 320.564 32.2933 324.47 41.3675C325.8 44.4573 326 50.9226 326 54.5Z" fill="#FFF7E7"/>
</svg>
