<svg width="213" height="130" viewBox="0 0 213 130" fill="none" xmlns="http://www.w3.org/2000/svg">
<path d="M213 65C213 80.3716 205.996 98.722 197.075 109.85C185.163 124.71 168.527 130 148 130C128.854 130 115.045 123.022 103.15 109.85C92.7417 98.3247 83 81.7524 83 65C83 46.4918 87.3314 28.413 99.7458 16.575C111.41 5.45205 130.61 0 148 0C174.78 0 199.145 8.3948 209.1 31.525C212.49 39.4011 213 55.8812 213 65Z" fill="#FFF7E7"/>
<path d="M40 107C40 111.73 37.8448 117.376 35.1 120.8C31.4347 125.372 26.316 127 20 127C14.1089 127 9.86014 124.853 6.2 120.8C2.99744 117.254 0 112.155 0 107C0 101.305 1.33274 95.7425 5.15256 92.1C8.74165 88.6776 14.6491 87 20 87C28.2399 87 35.7368 89.583 38.8 96.7C39.843 99.1234 40 104.194 40 107Z" fill="#FFF7E7"/>
</svg>
