<svg width="340" height="236" viewBox="0 0 340 236" fill="none" xmlns="http://www.w3.org/2000/svg">
<path d="M236 118C236 145.905 223.284 179.218 207.09 199.42C185.465 226.397 155.264 236 118 236C83.2425 236 58.1748 223.332 36.58 199.42C17.6849 178.497 0 148.412 0 118C0 84.4004 7.86315 51.5806 30.4001 30.09C51.5757 9.89756 86.43 0 118 0C166.616 0 210.847 15.2398 228.92 57.23C235.074 71.5281 236 101.446 236 118Z" fill="#FFF2F5"/>
<path d="M340 71.5C340 77.5304 337.252 84.7294 333.752 89.095C329.079 94.9247 322.553 97 314.5 97C306.989 97 301.572 94.2625 296.905 89.095C292.822 84.5735 289 78.0721 289 71.5C289 64.2391 290.699 57.1466 295.57 52.5025C300.146 48.1389 307.678 46 314.5 46C325.006 46 334.564 49.2933 338.47 58.3675C339.8 61.4573 340 67.9226 340 71.5Z" fill="#FFF2F5"/>
</svg>
