<svg width="270" height="31" viewBox="0 0 270 31" fill="none" xmlns="http://www.w3.org/2000/svg">
<path d="M73.6974 9.69443C73.9112 9.86283 74.0977 10.0633 74.2502 10.2887C74.4087 10.5241 74.4907 10.8028 74.4852 11.0865C74.4861 11.3111 74.4375 11.533 74.3431 11.7367C74.2511 11.9359 74.1198 12.1145 73.957 12.2616C73.7888 12.411 73.5961 12.5302 73.3874 12.6141C72.9495 12.7837 72.4654 12.7916 72.0221 12.6365C71.8169 12.5556 71.6247 12.4451 71.4514 12.3086C71.0269 11.9848 70.6136 11.6976 70.2115 11.4469C69.8175 11.1999 69.4026 10.9879 68.9716 10.8135C68.5382 10.6382 68.0883 10.507 67.6287 10.4218C67.1116 10.3295 66.5872 10.285 66.062 10.2887C65.4434 10.2835 64.8258 10.3413 64.2189 10.461C63.7093 10.5574 63.2182 10.7342 62.7641 10.9847C62.3788 11.199 62.0536 11.5069 61.8185 11.88C61.5893 12.2596 61.4729 12.6967 61.4828 13.14C61.4853 13.5547 61.6202 13.9577 61.8677 14.2904C62.1598 14.6833 62.5203 15.0203 62.932 15.2853C63.4292 15.6102 63.9601 15.8803 64.5154 16.091C65.1479 16.3349 65.7976 16.5313 66.4593 16.6785C67.1411 16.8337 67.8368 17.0057 68.5463 17.1944C69.2463 17.3796 69.9343 17.6072 70.6065 17.8759C71.2576 18.1351 71.8854 18.4492 72.4832 18.8148C73.0543 19.1623 73.5709 19.5921 74.0163 20.0906C74.4601 20.5942 74.8119 21.1718 75.0559 21.7971C75.3235 22.5074 75.4541 23.2619 75.4409 24.0207C75.4574 24.9833 75.2459 25.936 74.8237 26.8012C74.4014 27.6663 73.7804 28.4192 73.0114 28.9983C72.156 29.6404 71.1904 30.1206 70.1623 30.4151C68.937 30.7687 67.6662 30.9395 66.391 30.922C65.4121 30.9242 64.4372 30.7951 63.4926 30.5382C62.5839 30.2951 61.7088 29.9403 60.8874 29.4818C60.1166 29.053 59.4024 28.5297 58.7612 27.924C58.1718 27.3743 57.6766 26.7316 57.2952 26.0216C57.2324 25.9104 57.1843 25.7916 57.152 25.668C57.1131 25.5281 57.0935 25.3835 57.0938 25.2383C57.0925 25.0137 57.141 24.7916 57.2359 24.5881C57.3279 24.3889 57.4558 24.2084 57.613 24.0554C57.7747 23.9008 57.9647 23.7789 58.1726 23.6962C58.3989 23.6059 58.6406 23.5606 58.8843 23.563C59.17 23.5668 59.452 23.628 59.7135 23.7432C59.9966 23.8613 60.2346 24.0668 60.3928 24.3296C60.548 24.5725 60.7184 24.8054 60.9031 25.0268C61.1484 25.3203 61.4208 25.59 61.7167 25.8325C62.0062 26.0677 62.308 26.2873 62.6209 26.4905C62.9684 26.7164 63.3358 26.9101 63.7187 27.0691C64.1281 27.2409 64.5516 27.3771 64.9843 27.4764C65.4456 27.5829 65.9176 27.6355 66.391 27.6331C67.0614 27.6343 67.73 27.5634 68.3852 27.4216C68.9911 27.2966 69.5737 27.0776 70.1119 26.7725C70.5963 26.4964 71.0115 26.1137 71.3261 25.6534C71.6423 25.1676 71.8031 24.5969 71.7871 24.0174C71.8038 23.4708 71.6518 22.9324 71.3518 22.4753C71.0327 22.0268 70.6175 21.6552 70.1365 21.3876C69.5468 21.0554 68.9194 20.795 68.2677 20.612C67.541 20.3987 66.7424 20.198 65.8718 20.01C65.5707 19.9462 65.1656 19.8455 64.6564 19.7045C64.0944 19.5466 63.5408 19.3599 62.998 19.145C62.3732 18.897 61.766 18.6068 61.1806 18.2766C60.5748 17.9387 60.0145 17.525 59.5132 17.0456C59.0164 16.5722 58.6053 16.0164 58.2979 15.4028C57.9778 14.7475 57.8171 14.0259 57.829 13.2967C57.829 12.2112 58.0581 11.2746 58.5161 10.4867C58.969 9.70183 59.5956 9.03113 60.348 8.52613C61.1518 7.99323 62.042 7.60403 62.979 7.37573C63.9848 7.12333 65.0182 6.99737 66.0553 7.00083C66.9052 6.99438 67.7534 7.07843 68.5855 7.25153C69.3051 7.40253 70.009 7.62013 70.6882 7.90173C71.2764 8.14523 71.8428 8.43843 72.3814 8.77793C72.8782 9.09653 73.3165 9.40203 73.6963 9.69443" fill="#FF2D5A"/>
<path d="M36.2975 7.00125C37.5289 6.98793 38.756 7.14875 39.9423 7.47905C40.9806 7.77025 41.9713 8.21055 42.8832 8.78615C43.7279 9.32745 44.4849 9.99465 45.1281 10.7647C45.7584 11.5147 46.2905 12.3421 46.7115 13.2267C47.1331 14.1153 47.4482 15.0506 47.6504 16.0131C48.0637 17.964 48.0637 19.9799 47.6504 21.9308C47.4477 22.8968 47.1325 23.8357 46.7115 24.7284C46.2934 25.6147 45.761 26.4423 45.1281 27.1904C44.4819 27.9565 43.7222 28.6193 42.8754 29.1555C41.9635 29.7292 40.9727 30.1669 39.9345 30.4547C37.5503 31.0816 35.0447 31.0816 32.6605 30.4547C31.6246 30.1682 30.6367 29.7304 29.7286 29.1555C28.8849 28.6177 28.1277 27.9551 27.4826 27.1904C26.85 26.4421 26.3177 25.6144 25.8991 24.7284C25.4782 23.8358 25.1634 22.8968 24.9613 21.9308C24.548 19.9799 24.548 17.964 24.9613 16.0131C25.1636 15.0472 25.4783 14.1082 25.8991 13.2155C26.318 12.3297 26.8503 11.5021 27.4826 10.7535C28.128 9.98905 28.8852 9.32655 29.7286 8.78835C30.6369 8.21395 31.6248 7.77625 32.6605 7.48915C33.8447 7.16395 35.0684 7.00575 36.2964 7.01915L36.2975 7.00125ZM36.2964 27.6526C37.6706 27.6526 38.8643 27.4123 39.8774 26.9319C40.8424 26.4876 41.6956 25.8325 42.374 25.0149C43.0373 24.1965 43.5317 23.2548 43.8288 22.2441C44.149 21.1857 44.31 20.0856 44.3067 18.9798C44.31 17.8803 44.149 16.7864 43.8288 15.7345C43.5293 14.7248 43.035 13.7836 42.374 12.9637C41.6983 12.1428 40.8486 11.4823 39.8863 11.0299C38.8799 10.545 37.6844 10.3025 36.2997 10.3025C34.927 10.3025 33.7374 10.5402 32.731 11.0154C31.7707 11.4532 30.921 12.101 30.2445 12.9111C29.5814 13.7296 29.087 14.6713 28.7897 15.6819C28.4688 16.7455 28.3078 17.8509 28.3118 18.9619C28.3098 20.0464 28.4678 21.1252 28.7807 22.1635C29.0791 23.1749 29.5713 24.1186 30.2299 24.9422C30.9035 25.7717 31.7538 26.4404 32.7187 26.8994C33.7251 27.3896 34.9188 27.6347 36.2997 27.6347" fill="#FF2D5A"/>
<path d="M8.55107 7.37671C9.16714 7.37921 9.78147 7.44221 10.3852 7.56481C11.0188 7.69051 11.6368 7.88481 12.2283 8.14441C12.8286 8.40711 13.3968 8.73791 13.9215 9.13031C14.4529 9.52791 14.9215 10.0033 15.3114 10.5404C15.7186 11.1042 16.0375 11.7268 16.257 12.3868C16.4996 13.1293 16.6183 13.9066 16.6084 14.6876C16.6163 15.6852 16.4015 16.672 15.9794 17.5759C15.5699 18.4563 14.9859 19.2444 14.2628 19.8924C13.5131 20.5595 12.6466 21.0823 11.7068 21.4345C10.7034 21.8136 9.63828 22.0033 8.56562 21.994H3.65739V29.2109C3.65894 29.4395 3.61196 29.6658 3.51956 29.8749C3.42715 30.084 3.29143 30.2712 3.12136 30.4239C2.94896 30.5781 2.75036 30.7001 2.53497 30.7843C2.31089 30.8728 2.07202 30.918 1.83107 30.9174C1.58457 30.9192 1.33999 30.874 1.11039 30.7843C0.896927 30.7016 0.701008 30.5794 0.532955 30.4239C0.368537 30.2733 0.235768 30.0915 0.142401 29.889C0.0471952 29.6781 -0.00128538 29.449 0.000280083 29.2176V9.02071C-0.00394471 8.80321 0.0396712 8.58741 0.128044 8.38861C0.216417 8.18981 0.347388 8.01281 0.511694 7.87031C0.854901 7.56131 1.29778 7.38621 1.75945 7.37671H8.55107ZM8.48393 18.7095C9.10796 18.7176 9.72863 18.6169 10.3181 18.4119C10.8421 18.2316 11.3241 17.9468 11.7348 17.5748C12.1229 17.2182 12.4311 16.7834 12.639 16.2991C12.8555 15.7893 12.9641 15.2403 12.958 14.6865C12.9615 14.1423 12.8501 13.6035 12.6312 13.1053C12.4165 12.6202 12.1023 12.1856 11.7091 11.8295C11.2952 11.4585 10.8149 11.1692 10.2935 10.9768C9.71463 10.7621 9.10123 10.6559 8.48393 10.6635H3.65739V18.7095H8.48393Z" fill="#FF2D5A"/>
<path d="M100.138 7.37701C100.373 7.37531 100.607 7.42061 100.825 7.51021C101.029 7.59331 101.216 7.71281 101.378 7.86271C101.535 8.00951 101.663 8.18491 101.755 8.37971C101.848 8.58051 101.897 8.79941 101.897 9.02091C101.897 9.24251 101.848 9.46131 101.755 9.66211C101.662 9.85841 101.534 10.0362 101.378 10.187C101.219 10.3407 101.031 10.4609 100.825 10.5406C100.606 10.6255 100.373 10.668 100.138 10.6659H94.4908V29.2156C94.4924 29.4442 94.4454 29.6706 94.353 29.8797C94.2606 30.0888 94.1249 30.2759 93.9548 30.4287C93.7821 30.5824 93.5836 30.7044 93.3684 30.789C93.1443 30.8776 92.9054 30.9228 92.6645 30.9222C92.418 30.9241 92.1734 30.8789 91.9438 30.789C91.7302 30.7059 91.534 30.5837 91.3653 30.4287C91.2026 30.2761 91.0717 30.0927 90.9803 29.8893C90.8851 29.6783 90.8366 29.4493 90.8382 29.2178V10.6648H85.1914C84.9565 10.6671 84.7233 10.6246 84.5043 10.5395C84.297 10.4586 84.1071 10.339 83.9447 10.187C83.7849 10.0393 83.6566 9.86071 83.5676 9.66211C83.4318 9.36091 83.3951 9.02431 83.4629 8.70091C83.5307 8.37751 83.6994 8.08401 83.9447 7.86271C84.1097 7.71401 84.299 7.59481 84.5043 7.51021C84.7221 7.42041 84.9557 7.37511 85.1914 7.37701H100.138Z" fill="#FF2D5A"/>
<path d="M120.714 7.00125C121.945 6.98798 123.172 7.14885 124.357 7.47915C125.396 7.77035 126.386 8.21065 127.298 8.78625C128.143 9.32745 128.901 9.99465 129.544 10.7647C130.174 11.515 130.706 12.3422 131.128 13.2266C131.549 14.1153 131.864 15.0506 132.066 16.0131C132.479 17.964 132.479 19.9798 132.066 21.9307C131.863 22.8967 131.549 23.8356 131.128 24.7284C130.709 25.6144 130.177 26.442 129.544 27.1903C128.898 27.9565 128.138 28.6192 127.291 29.1554C126.379 29.7292 125.388 30.1669 124.35 30.4547C121.966 31.0815 119.46 31.0815 117.076 30.4547C116.04 30.1679 115.052 29.7301 114.144 29.1554C113.3 28.6176 112.543 27.9551 111.898 27.1903C111.266 26.4414 110.734 25.6139 110.314 24.7284C109.893 23.8357 109.579 22.8967 109.377 21.9307C108.963 19.9798 108.963 17.964 109.377 16.0131C109.579 15.0471 109.894 14.1082 110.314 13.2154C110.734 12.33 111.266 11.5026 111.898 10.7535C112.543 9.98905 113.3 9.32655 114.144 8.78845C115.052 8.21425 116.04 7.77645 117.076 7.48925C118.26 7.16405 119.484 7.00585 120.713 7.01925L120.714 7.00125ZM120.713 27.6525C122.085 27.6525 123.279 27.4123 124.294 26.9318C125.259 26.4872 126.112 25.8322 126.79 25.0149C127.453 24.1962 127.948 23.2545 128.245 22.2441C128.565 21.1856 128.726 20.0855 128.723 18.9797C128.726 17.8802 128.565 16.7863 128.245 15.7345C127.945 14.725 127.451 13.7837 126.79 12.9636C126.114 12.143 125.264 11.4825 124.302 11.0299C123.297 10.545 122.103 10.3025 120.721 10.3025C119.346 10.3025 118.156 10.5401 117.151 11.0153C116.189 11.4569 115.338 12.1094 114.663 12.9245C114 13.7428 113.505 14.6845 113.208 15.6953C112.887 16.7589 112.726 17.8643 112.73 18.9753C112.729 20.0597 112.887 21.1385 113.199 22.1769C113.5 23.1885 113.994 24.1322 114.654 24.9556C115.327 25.7851 116.177 26.4538 117.142 26.9128C118.147 27.403 119.341 27.648 120.723 27.648" fill="#FF2D5A"/>
<path d="M151.359 7.37671C151.975 7.37911 152.59 7.44211 153.194 7.56471C153.828 7.69061 154.446 7.88501 155.038 8.14441C155.638 8.40711 156.206 8.73791 156.73 9.13031C157.262 9.52821 157.731 10.0035 158.121 10.5403C158.529 11.1045 158.847 11.7275 159.067 12.3879C159.31 13.1302 159.429 13.9076 159.419 14.6887C159.427 15.6862 159.213 16.6729 158.791 17.577C158.382 18.4575 157.797 19.2455 157.074 19.8935C156.324 20.5604 155.457 21.0832 154.518 21.4356C153.514 21.8148 152.449 22.0045 151.377 21.9951H146.467V29.212C146.468 29.4435 146.419 29.6725 146.324 29.8834C146.232 30.0884 146.098 30.2721 145.931 30.4228C145.758 30.5772 145.559 30.6993 145.344 30.7832C145.12 30.8717 144.881 30.9169 144.64 30.9163C144.393 30.9181 144.149 30.8729 143.919 30.7832C143.706 30.7005 143.51 30.5782 143.342 30.4228C143.178 30.2705 143.047 30.0871 142.956 29.8834C142.86 29.6725 142.812 29.4434 142.813 29.212V9.02071C142.809 8.80311 142.853 8.58741 142.941 8.38861C143.03 8.18981 143.161 8.01281 143.325 7.87031C143.668 7.56131 144.111 7.38621 144.573 7.37671H151.359ZM151.293 18.7095C151.917 18.7176 152.537 18.6169 153.127 18.4119C153.651 18.2319 154.133 17.9471 154.543 17.5748C154.932 17.2182 155.24 16.7834 155.448 16.2991C155.664 15.7893 155.773 15.2403 155.767 14.6865C155.771 14.1422 155.659 13.6033 155.44 13.1053C155.225 12.6202 154.911 12.1856 154.518 11.8295C154.104 11.4585 153.624 11.1692 153.102 10.9768C152.523 10.7623 151.91 10.6561 151.293 10.6634H146.467V18.7095H151.293Z" fill="#FF2D5A"/>
<path d="M170.199 8.70811C170.199 8.48141 170.248 8.25721 170.343 8.05121C170.435 7.84581 170.566 7.65981 170.728 7.50291C170.895 7.34351 171.091 7.21841 171.306 7.13471C171.535 7.04491 171.78 6.99975 172.026 7.00151C172.267 7.00081 172.506 7.04601 172.731 7.13471C172.947 7.21991 173.146 7.34481 173.317 7.50291C173.484 7.65771 173.617 7.84411 173.711 8.05121C173.805 8.25751 173.853 8.48151 173.853 8.70811V27.2902H183.539C183.774 27.2885 184.008 27.3338 184.226 27.4234C184.429 27.5072 184.617 27.6266 184.779 27.7759C184.935 27.9232 185.063 28.0985 185.155 28.2929C185.249 28.4937 185.298 28.7128 185.298 28.9347C185.298 29.1565 185.249 29.3757 185.155 29.5765C185.061 29.7724 184.934 29.9501 184.779 30.1013C184.62 30.254 184.432 30.3735 184.226 30.4527C184.007 30.5376 183.774 30.5801 183.539 30.578H171.96C171.725 30.5803 171.492 30.5378 171.273 30.4527C171.065 30.3723 170.876 30.253 170.713 30.1013C170.554 29.9531 170.426 29.7747 170.336 29.5765C170.246 29.3745 170.2 29.1554 170.202 28.9341L170.199 8.70811Z" fill="#FF2D5A"/>
<path d="M198.678 25.3025L196.785 29.8269C196.648 30.1434 196.424 30.415 196.14 30.6102C195.827 30.8241 195.455 30.9337 195.076 30.9236C194.601 30.9293 194.142 30.7526 193.793 30.4301C193.63 30.2809 193.498 30.101 193.405 29.9007C193.309 29.6926 193.26 29.4655 193.262 29.236C193.26 29.1254 193.272 29.015 193.295 28.907C193.314 28.8276 193.336 28.7491 193.363 28.672L202.227 8.1326C202.375 7.7938 202.619 7.5054 202.928 7.303C203.238 7.1005 203.6 6.99268 203.97 6.99268C204.34 6.99268 204.701 7.1005 205.011 7.303C205.321 7.5054 205.564 7.7938 205.713 8.1326L214.56 28.6563C214.582 28.7201 214.607 28.7973 214.635 28.8925C214.665 29.0044 214.68 29.1201 214.677 29.236C214.68 29.4655 214.631 29.6926 214.534 29.9007C214.441 30.103 214.307 30.2843 214.141 30.4334C213.969 30.5874 213.77 30.7094 213.554 30.7938C213.33 30.8825 213.092 30.9277 212.851 30.9269C212.492 30.9301 212.14 30.8294 211.837 30.6371C211.524 30.4371 211.28 30.1441 211.141 29.7989L203.97 12.5753L198.678 25.3025Z" fill="#FF2D5A"/>
<path d="M243.215 7.00152C243.456 7.00072 243.695 7.04592 243.919 7.13472C244.136 7.21922 244.335 7.34422 244.506 7.50292C244.672 7.65802 244.805 7.84432 244.899 8.05122C244.994 8.25722 245.042 8.48142 245.042 8.70812V29.2161C245.043 29.4477 244.994 29.6767 244.899 29.8876C244.807 30.0926 244.673 30.2762 244.506 30.427C244.146 30.7479 243.68 30.9237 243.198 30.9205C242.904 30.925 242.614 30.8577 242.352 30.7246C242.109 30.6007 241.895 30.4277 241.723 30.2166L228.704 13.8278V29.2161C228.705 29.4448 228.658 29.6711 228.566 29.8802C228.473 30.0893 228.338 30.2764 228.168 30.4292C227.995 30.583 227.796 30.705 227.581 30.7895C227.357 30.8781 227.118 30.9233 226.877 30.9227C226.631 30.9245 226.386 30.8793 226.157 30.7895C225.943 30.7065 225.748 30.5843 225.579 30.4292C225.416 30.2769 225.285 30.0935 225.193 29.8898C225.098 29.6789 225.05 29.4498 225.051 29.2184V8.72382C225.049 8.49232 225.098 8.26322 225.193 8.05232C225.286 7.84672 225.417 7.66062 225.579 7.50402C225.746 7.34432 225.942 7.21912 226.157 7.13582C226.386 7.04612 226.631 7.00092 226.877 7.00272C227.162 7.00142 227.443 7.06572 227.699 7.19072C227.958 7.31802 228.187 7.49972 228.37 7.72332L241.388 24.0819V8.70812C241.388 8.48152 241.437 8.25752 241.531 8.05122C241.623 7.84562 241.754 7.65952 241.917 7.50292C242.083 7.34292 242.28 7.21772 242.495 7.13472C242.724 7.04492 242.969 6.99969 243.215 7.00152Z" fill="#FF2D5A"/>
<path d="M264.552 0.565091C263.295 1.33333 262.694 2.76619 262.925 4.13434C261.593 5.41876 259.981 6.40397 258.23 7.00365C256.555 5.75759 254.069 6.28939 253.064 8.13614C252.14 9.83382 252.767 11.9594 254.464 12.8834C255.687 13.5493 257.132 13.4103 258.19 12.6459C259.904 13.0805 261.517 13.8936 262.902 14.9899C262.748 16.3626 263.419 17.7553 264.707 18.4563C266.405 19.3808 268.531 18.7538 269.455 17.0561C270.379 15.3584 269.752 13.2329 268.054 12.3084C266.688 11.5648 265.045 11.8256 263.974 12.8407C262.316 12.2756 260.947 11.3921 259.609 10.2636C259.653 9.92939 259.647 9.59336 259.595 9.2658C261.012 7.95013 262.509 7.05509 264.32 6.38448C265.43 7.18962 266.959 7.29768 268.203 6.53773C269.852 5.52979 270.372 3.37537 269.363 1.72605C268.355 0.076788 266.201 -0.442842 264.552 0.565091Z" fill="#3E89F4"/>
</svg>
