<svg width="331" height="30" viewBox="0 0 331 30" fill="none" xmlns="http://www.w3.org/2000/svg">
<path d="M144.004 0H143.996C135.726 0 129 6.7275 129 15C129 18.2812 130.058 21.3225 131.856 23.7919L129.986 29.3644L135.752 27.5213C138.124 29.0925 140.953 30 144.004 30C152.274 30 159 23.2706 159 15C159 6.72938 152.274 0 144.004 0Z" fill="#4CAF50"/>
<path d="M152.732 21.1818C152.37 22.2037 150.934 23.0512 149.788 23.2987C149.005 23.4656 147.981 23.5987 144.535 22.17C140.126 20.3437 137.288 15.8643 137.066 15.5737C136.855 15.2831 135.285 13.2018 135.285 11.0493C135.285 8.89685 136.378 7.84872 136.819 7.39872C137.181 7.02935 137.779 6.8606 138.353 6.8606C138.538 6.8606 138.705 6.86997 138.855 6.87747C139.296 6.89622 139.517 6.92247 139.808 7.6181C140.17 8.48997 141.051 10.6425 141.156 10.8637C141.263 11.085 141.37 11.385 141.22 11.6756C141.079 11.9756 140.955 12.1087 140.734 12.3637C140.513 12.6187 140.303 12.8137 140.081 13.0875C139.879 13.3256 139.65 13.5806 139.905 14.0212C140.16 14.4525 141.041 15.8906 142.339 17.0456C144.013 18.5362 145.371 19.0125 145.856 19.215C146.218 19.365 146.65 19.3293 146.914 19.0481C147.25 18.6862 147.664 18.0862 148.086 17.4956C148.386 17.0718 148.765 17.0193 149.162 17.1693C149.567 17.31 151.71 18.3693 152.151 18.5887C152.591 18.81 152.882 18.915 152.989 19.1006C153.094 19.2862 153.094 20.1581 152.732 21.1818Z" fill="#FAFAFA"/>
<path d="M306.596 17.729C306.596 19.2549 305.35 20.5014 303.824 20.5014C302.298 20.5014 301.051 19.2549 301.051 17.729C301.051 16.2031 302.298 14.9565 303.824 14.9565H306.596V17.729Z" fill="#E01E5A"/>
<path d="M307.994 17.729C307.994 16.2031 309.24 14.9565 310.766 14.9565C312.292 14.9565 313.538 16.2031 313.538 17.729V24.6708C313.538 26.1967 312.292 27.4432 310.766 27.4432C309.24 27.4432 307.994 26.1967 307.994 24.6708V17.729Z" fill="#E01E5A"/>
<path d="M310.766 6.59636C309.24 6.59636 307.994 5.34986 307.994 3.82394C307.994 2.29806 309.24 1.05151 310.766 1.05151C312.292 1.05151 313.538 2.29806 313.538 3.82394V6.59636H310.766Z" fill="#36C5F0"/>
<path d="M310.765 7.99341C312.291 7.99341 313.538 9.23995 313.538 10.7658C313.538 12.2918 312.291 13.5383 310.765 13.5383H303.824C302.298 13.5383 301.051 12.2918 301.051 10.7658C301.051 9.23995 302.298 7.99341 303.824 7.99341H310.765Z" fill="#36C5F0"/>
<path d="M321.899 10.7658C321.899 9.23995 323.145 7.99341 324.671 7.99341C326.197 7.99341 327.444 9.23995 327.444 10.7658C327.444 12.2918 326.197 13.5383 324.671 13.5383H321.899V10.7658Z" fill="#2EB67D"/>
<path d="M320.502 10.7657C320.502 12.2917 319.255 13.5382 317.729 13.5382C316.203 13.5382 314.957 12.2917 314.957 10.7657V3.82394C314.957 2.29806 316.203 1.05151 317.729 1.05151C319.255 1.05151 320.502 2.29806 320.502 3.82394V10.7657Z" fill="#2EB67D"/>
<path d="M317.729 21.8984C319.255 21.8984 320.502 23.145 320.502 24.6709C320.502 26.1968 319.255 27.4433 317.729 27.4433C316.203 27.4433 314.957 26.1968 314.957 24.6709V21.8984H317.729Z" fill="#ECB22E"/>
<path d="M317.729 20.5014C316.203 20.5014 314.957 19.2549 314.957 17.729C314.957 16.2031 316.203 14.9565 317.729 14.9565H324.671C326.197 14.9565 327.443 16.2031 327.443 17.729C327.443 19.2549 326.197 20.5014 324.671 20.5014H317.729Z" fill="#ECB22E"/>
<g clip-path="url(#clip0)">
<path d="M71.344 5.30167e-08H44.6546C43.7407 0.000457817 42.9998 0.741806 43 1.65596V28.3454C43.0005 29.2593 43.7418 30.0002 44.656 30H71.344C72.2584 30.0002 72.9998 29.2591 73 28.3447C73 28.3445 73 28.3443 73 28.344V1.65459C72.9995 0.740662 72.2582 -0.000228829 71.344 5.30167e-08Z" fill="#4267B2"/>
<path d="M63.7129 30V18.3985H67.624L68.21 13.8575H63.7129V10.9653C63.7129 9.65359 64.077 8.75981 65.958 8.75981H68.3418V4.70929C67.9271 4.65413 66.5041 4.53076 64.8484 4.53076C61.3913 4.53076 59.0254 6.64014 59.0254 10.5156V13.8575H55.1289V18.3985H59.0254V30H63.7129Z" fill="white"/>
</g>
<g clip-path="url(#clip1)">
<path d="M101.001 29.9997C109.285 29.9997 116.001 23.2841 116.001 14.9999C116.001 6.71567 109.285 0 101.001 0C92.7166 0 86.001 6.71567 86.001 14.9999C86.001 23.2841 92.7166 29.9997 101.001 29.9997Z" fill="#55ACEE"/>
<path d="M110.188 10.78C109.545 11.065 108.854 11.2578 108.129 11.3439C108.869 10.9003 109.437 10.1984 109.705 9.36067C109.013 9.77165 108.245 10.0698 107.429 10.2305C106.775 9.53394 105.843 9.09863 104.811 9.09863C102.831 9.09863 101.225 10.7043 101.225 12.684C101.225 12.965 101.257 13.2386 101.319 13.5012C98.339 13.3517 95.697 11.9244 93.9285 9.75453C93.6199 10.284 93.4429 10.9003 93.4429 11.5573C93.4429 12.8009 94.0764 13.8988 95.0379 14.5416C94.4504 14.5231 93.8972 14.3619 93.414 14.0926C93.4138 14.1079 93.4138 14.1231 93.4138 14.1381C93.4138 15.8753 94.6502 17.3243 96.2901 17.6534C95.9895 17.7358 95.6721 17.7793 95.3457 17.7793C95.1141 17.7793 94.8898 17.7572 94.671 17.7154C95.1272 19.1395 96.451 20.1762 98.0203 20.2053C96.793 21.1671 95.2473 21.7401 93.567 21.7401C93.2782 21.7401 92.9921 21.7233 92.7122 21.6899C94.298 22.7076 96.1831 23.3009 98.2078 23.3009C104.803 23.3009 108.409 17.8376 108.409 13.0993C108.409 12.9439 108.406 12.7891 108.399 12.6356C109.1 12.1303 109.708 11.499 110.188 10.78Z" fill="#F1F2F2"/>
</g>
<g clip-path="url(#clip2)">
<path d="M242.836 0H217.164C215.969 0 215 0.968628 215 2.16362V27.8364C215 29.0314 215.969 30 217.164 30H242.836C244.031 30 245 29.0314 245 27.8364V2.16362C245 0.968628 244.031 0 242.836 0V0ZM225.641 22.6758H221.988V11.6851H225.641V22.6758ZM223.815 10.1843H223.791C222.565 10.1843 221.772 9.34044 221.772 8.28575C221.772 7.20726 222.589 6.38672 223.839 6.38672C225.089 6.38672 225.858 7.20726 225.882 8.28575C225.882 9.34044 225.089 10.1843 223.815 10.1843ZM238.814 22.6758H235.161V16.796C235.161 15.3184 234.632 14.3106 233.31 14.3106C232.301 14.3106 231.7 14.9904 231.436 15.6466C231.339 15.8814 231.316 16.2096 231.316 16.5381V22.6758H227.663C227.663 22.6758 227.711 12.7162 227.663 11.6851H231.316V13.2413C231.801 12.4924 232.67 11.4272 234.608 11.4272C237.012 11.4272 238.814 12.998 238.814 16.3737V22.6758Z" fill="#0077B7"/>
</g>
<path d="M187 30C195.284 30 202 23.2843 202 15C202 6.71573 195.284 0 187 0C178.716 0 172 6.71573 172 15C172 23.2843 178.716 30 187 30Z" fill="#039BE5"/>
<path d="M178.864 14.675L193.326 9.09877C193.998 8.85627 194.584 9.26252 194.366 10.2775L194.368 10.2763L191.905 21.8775C191.723 22.7 191.234 22.9 190.55 22.5125L186.8 19.7488L184.991 21.4913C184.791 21.6913 184.623 21.86 184.235 21.86L184.501 18.0438L191.451 11.765C191.754 11.4988 191.384 11.3488 190.985 11.6138L182.396 17.0213L178.694 15.8663C177.89 15.6113 177.873 15.0625 178.864 14.675Z" fill="white"/>
<g clip-path="url(#clip3)">
<path d="M283.605 28.1832H262.395C260.941 28.1832 259.758 27.0004 259.758 25.5465V12.7715C259.758 12.487 259.896 12.22 260.127 12.0551L272.491 3.26607C272.796 3.04933 273.204 3.04933 273.509 3.26607L285.873 12.0551C286.104 12.22 286.242 12.487 286.242 12.7715V25.5465C286.242 27.0004 285.059 28.1832 283.605 28.1832Z" fill="#4175DF"/>
<path d="M283.605 28.1835C285.059 28.1835 286.242 27.0006 286.242 25.5467V12.7717C286.242 12.4872 286.104 12.2202 285.873 12.0554L273.509 3.2663C273.357 3.1579 273.178 3.10376 273 3.10376V28.1835H283.605Z" fill="#4254B6"/>
<path d="M265.469 10.3904C265.469 12.4508 263.797 14.1209 261.734 14.1209C259.672 14.1209 258 12.4508 258 10.3904H265.469Z" fill="#4086F4"/>
<path d="M273 10.3904C273 12.4508 271.266 14.1209 269.203 14.1209C267.141 14.1209 265.469 12.4509 265.469 10.3904H273Z" fill="#324492"/>
<path d="M288 10.3903H280.531L278.602 1.81641H283.112C283.819 1.81641 284.465 2.21555 284.781 2.84725L288 10.3903Z" fill="#4254B6"/>
<path d="M280.531 10.3903H273V1.81641H278.602L280.531 10.3903Z" fill="#4086F4"/>
<path d="M273 1.81641V10.3903H265.469L267.336 1.81641H273Z" fill="#4254B6"/>
<path d="M267.336 1.81641L265.469 10.3903H258L261.218 2.8473C261.535 2.21561 262.181 1.81646 262.888 1.81646H267.336V1.81641Z" fill="#80AEF8"/>
<path d="M280.531 10.3904C280.531 12.4508 278.859 14.1209 276.797 14.1209C274.734 14.1209 273 12.4508 273 10.3904H280.531Z" fill="#4175DF"/>
<path d="M288 10.3904C288 12.4508 286.328 14.1209 284.266 14.1209C282.203 14.1209 280.531 12.4509 280.531 10.3904H288Z" fill="#324492"/>
<path d="M281.789 19.3942H279.152C278.667 19.3942 278.273 19.7877 278.273 20.2731C278.273 20.7585 278.667 21.152 279.152 21.152H280.759C280.396 22.175 279.419 22.9099 278.273 22.9099C276.82 22.9099 275.637 21.727 275.637 20.2731C275.637 18.8192 276.82 17.6364 278.273 17.6364C278.978 17.6364 279.64 17.9107 280.138 18.4087C280.481 18.7519 281.038 18.7519 281.381 18.4087C281.724 18.0655 281.724 17.509 281.381 17.1658C280.551 16.3358 279.447 15.8787 278.273 15.8787C275.85 15.8787 273.879 17.85 273.879 20.2732C273.879 22.6963 275.85 24.6677 278.273 24.6677C280.697 24.6677 282.668 22.6963 282.668 20.2732C282.668 19.7877 282.274 19.3942 281.789 19.3942Z" fill="#E3E7EA"/>
</g>
<g clip-path="url(#clip4)">
<path d="M1.87513 2.04137C-0.482373 4.49012 0.00012701 7.09137 0.00012701 14.9939C0.00012701 21.5564 -1.14487 28.1351 4.84763 29.6839C6.71888 30.1651 23.2989 30.1651 25.1676 29.6814C27.6626 29.0376 29.6926 27.0139 29.9701 23.4851C30.0089 22.9926 30.0089 7.00387 29.9689 6.50137C29.6739 2.74262 27.3601 0.576369 24.3114 0.137619C23.6126 0.036369 23.4726 0.00636903 19.8876 0.00011903C7.17138 0.00636903 4.38388 -0.559881 1.87513 2.04137Z" fill="url(#paint0_linear)"/>
<path d="M14.9978 3.92378C10.459 3.92378 6.14901 3.52003 4.50276 7.74503C3.82276 9.49003 3.92151 11.7563 3.92151 15.0013C3.92151 17.8488 3.83026 20.525 4.50276 22.2563C6.14526 26.4838 10.4903 26.0788 14.9953 26.0788C19.3415 26.0788 23.8228 26.5313 25.489 22.2563C26.1703 20.4938 26.0703 18.2613 26.0703 15.0013C26.0703 10.6738 26.309 7.88003 24.2103 5.78253C22.0853 3.65753 19.2115 3.92378 14.9928 3.92378H14.9978ZM14.0053 5.92003C23.4728 5.90503 24.6778 4.85253 24.0128 19.4738C23.7765 24.645 19.839 24.0775 14.999 24.0775C6.17401 24.0775 5.92026 23.825 5.92026 14.9963C5.92026 6.06503 6.62026 5.92503 14.0053 5.91753V5.92003ZM20.9103 7.75878C20.1765 7.75878 19.5815 8.35378 19.5815 9.08753C19.5815 9.82128 20.1765 10.4163 20.9103 10.4163C21.644 10.4163 22.239 9.82128 22.239 9.08753C22.239 8.35378 21.644 7.75878 20.9103 7.75878ZM14.9978 9.31253C11.8565 9.31253 9.31026 11.86 9.31026 15.0013C9.31026 18.1425 11.8565 20.6888 14.9978 20.6888C18.139 20.6888 20.684 18.1425 20.684 15.0013C20.684 11.86 18.139 9.31253 14.9978 9.31253ZM14.9978 11.3088C19.879 11.3088 19.8853 18.6938 14.9978 18.6938C10.1178 18.6938 10.1103 11.3088 14.9978 11.3088Z" fill="white"/>
</g>
<defs>
<linearGradient id="paint0_linear" x1="1.93265" y1="28.084" x2="29.8145" y2="3.95258" gradientUnits="userSpaceOnUse">
<stop stop-color="#FFDD55"/>
<stop offset="0.5" stop-color="#FF543E"/>
<stop offset="1" stop-color="#C837AB"/>
</linearGradient>
<clipPath id="clip0">
<rect width="30" height="30" fill="white" transform="translate(43)"/>
</clipPath>
<clipPath id="clip1">
<rect width="30" height="30" fill="white" transform="translate(86)"/>
</clipPath>
<clipPath id="clip2">
<rect width="30" height="30" fill="white" transform="translate(215)"/>
</clipPath>
<clipPath id="clip3">
<rect width="30" height="30" fill="white" transform="translate(258)"/>
</clipPath>
<clipPath id="clip4">
<rect width="30" height="30" fill="white"/>
</clipPath>
</defs>
</svg>
