<svg width="1163" height="360" viewBox="0 0 1163 360" fill="none" xmlns="http://www.w3.org/2000/svg">
<path d="M105 30.0001C113.284 30.0001 120 23.2843 120 15C120 6.71575 113.284 0 105 0C96.7157 0 90 6.71575 90 15C90 23.2843 96.7157 30.0001 105 30.0001Z" fill="#3E89F4"/>
<path d="M100.185 12.2227H97.4072V20.3708H100.185V12.2227Z" fill="white"/>
<path d="M112.408 12.9634C112.408 12.2226 111.852 11.6671 111.111 11.6671H106.852L107.408 8.51895V8.33376C107.408 7.96338 107.222 7.77821 107.037 7.59303L106.297 6.85229L101.852 11.2967C101.667 11.4819 101.482 11.8523 101.482 12.2227V18.8893C101.482 19.6301 102.037 20.1857 102.778 20.1857H108.889C109.445 20.1857 110 19.8153 110.185 19.4449L112.222 14.6301C112.222 14.4449 112.408 14.2597 112.408 14.0745V12.9634Z" fill="white"/>
<path d="M61 288C61 296.333 54.3333 303 46 303C37.6667 303 31 296.333 31 288C31 279.667 37.6667 273 46 273C54.3333 273 61 279.667 61 288Z" fill="#FF2D5A"/>
<path d="M61 288C61 296.333 54.3333 303 46 303C37.6667 303 31 296.333 31 288C31 279.667 37.6667 273 46 273C54.3333 273 61 279.667 61 288Z" stroke="#FF2D5A" stroke-miterlimit="10"/>
<path d="M45.9999 294.667L45.074 293.741C41.5555 290.593 39.3333 288.556 39.3333 285.963C39.3333 283.926 40.9999 282.26 43.037 282.26C44.1481 282.26 45.2592 282.815 45.9999 283.741C46.7407 282.815 47.8518 282.26 48.9629 282.26C50.9999 282.26 52.6666 283.926 52.6666 285.963C52.6666 288.556 50.4444 290.593 46.9259 293.741L45.9999 294.667Z" fill="white"/>
<path d="M969.004 325H968.996C960.726 325 954 331.727 954 340C954 343.281 955.058 346.323 956.856 348.792L954.986 354.364L960.752 352.521C963.124 354.093 965.953 355 969.004 355C977.274 355 984 348.271 984 340C984 331.729 977.274 325 969.004 325Z" fill="#4CAF50"/>
<path d="M977.732 346.182C977.37 347.204 975.934 348.051 974.788 348.299C974.004 348.466 972.981 348.599 969.534 347.17C965.126 345.344 962.288 340.864 962.066 340.574C961.854 340.283 960.285 338.202 960.285 336.049C960.285 333.897 961.378 332.849 961.819 332.399C962.181 332.029 962.779 331.861 963.353 331.861C963.538 331.861 963.705 331.87 963.855 331.877C964.296 331.896 964.517 331.922 964.808 332.618C965.169 333.49 966.051 335.642 966.156 335.864C966.263 336.085 966.369 336.385 966.219 336.676C966.079 336.976 965.955 337.109 965.734 337.364C965.513 337.619 965.303 337.814 965.081 338.087C964.879 338.326 964.65 338.581 964.905 339.021C965.16 339.452 966.041 340.891 967.339 342.046C969.013 343.536 970.371 344.012 970.856 344.215C971.218 344.365 971.649 344.329 971.914 344.048C972.249 343.686 972.664 343.086 973.086 342.496C973.386 342.072 973.764 342.019 974.162 342.169C974.567 342.31 976.71 343.369 977.151 343.589C977.591 343.81 977.882 343.915 977.989 344.101C978.094 344.286 978.094 345.158 977.732 346.182Z" fill="#FAFAFA"/>
<path d="M1132.6 133.729C1132.6 135.255 1131.35 136.501 1129.82 136.501C1128.3 136.501 1127.05 135.255 1127.05 133.729C1127.05 132.203 1128.3 130.957 1129.82 130.957H1132.6V133.729Z" fill="#E01E5A"/>
<path d="M1133.99 133.729C1133.99 132.203 1135.24 130.957 1136.77 130.957C1138.29 130.957 1139.54 132.203 1139.54 133.729V140.671C1139.54 142.197 1138.29 143.443 1136.77 143.443C1135.24 143.443 1133.99 142.197 1133.99 140.671V133.729Z" fill="#E01E5A"/>
<path d="M1136.77 122.596C1135.24 122.596 1133.99 121.35 1133.99 119.824C1133.99 118.298 1135.24 117.052 1136.77 117.052C1138.29 117.052 1139.54 118.298 1139.54 119.824V122.596H1136.77Z" fill="#36C5F0"/>
<path d="M1136.77 123.993C1138.29 123.993 1139.54 125.24 1139.54 126.766C1139.54 128.292 1138.29 129.538 1136.77 129.538H1129.82C1128.3 129.538 1127.05 128.292 1127.05 126.766C1127.05 125.24 1128.3 123.993 1129.82 123.993H1136.77Z" fill="#36C5F0"/>
<path d="M1147.9 126.766C1147.9 125.24 1149.14 123.993 1150.67 123.993C1152.2 123.993 1153.44 125.24 1153.44 126.766C1153.44 128.292 1152.2 129.538 1150.67 129.538H1147.9V126.766Z" fill="#2EB67D"/>
<path d="M1146.5 126.766C1146.5 128.292 1145.26 129.538 1143.73 129.538C1142.2 129.538 1140.96 128.292 1140.96 126.766V119.824C1140.96 118.298 1142.2 117.052 1143.73 117.052C1145.26 117.052 1146.5 118.298 1146.5 119.824V126.766Z" fill="#2EB67D"/>
<path d="M1143.73 137.898C1145.26 137.898 1146.5 139.145 1146.5 140.671C1146.5 142.197 1145.26 143.443 1143.73 143.443C1142.2 143.443 1140.96 142.197 1140.96 140.671V137.898H1143.73Z" fill="#ECB22E"/>
<path d="M1143.73 136.501C1142.2 136.501 1140.96 135.255 1140.96 133.729C1140.96 132.203 1142.2 130.957 1143.73 130.957H1150.67C1152.2 130.957 1153.44 132.203 1153.44 133.729C1153.44 135.255 1152.2 136.501 1150.67 136.501H1143.73Z" fill="#ECB22E"/>
<g clip-path="url(#clip0)">
<path d="M2.50001 111.722C-0.643327 114.987 6.59376e-06 118.455 6.59376e-06 128.992C6.59376e-06 137.742 -1.52666 146.514 6.46334 148.579C8.95834 149.22 31.065 149.22 33.5567 148.575C36.8833 147.717 39.59 145.019 39.96 140.314C40.0117 139.657 40.0117 118.339 39.9583 117.669C39.565 112.657 36.48 109.769 32.415 109.184C31.4833 109.049 31.2967 109.009 26.5167 109C9.56167 109.009 5.84501 108.254 2.50001 111.722Z" fill="url(#paint0_linear)"/>
<path d="M19.9967 114.232C13.945 114.232 8.19835 113.693 6.00335 119.327C5.09668 121.653 5.22835 124.675 5.22835 129.002C5.22835 132.798 5.10668 136.367 6.00335 138.675C8.19335 144.312 13.9867 143.772 19.9933 143.772C25.7883 143.772 31.7633 144.375 33.985 138.675C34.8933 136.325 34.76 133.348 34.76 129.002C34.76 123.232 35.0783 119.507 32.28 116.71C29.4467 113.877 25.615 114.232 19.99 114.232H19.9967ZM18.6733 116.893C31.2967 116.873 32.9033 115.47 32.0167 134.965C31.7017 141.86 26.4517 141.103 19.9983 141.103C8.23168 141.103 7.89335 140.767 7.89335 128.995C7.89335 117.087 8.82668 116.9 18.6733 116.89V116.893ZM27.88 119.345C26.9017 119.345 26.1083 120.138 26.1083 121.117C26.1083 122.095 26.9017 122.888 27.88 122.888C28.8583 122.888 29.6517 122.095 29.6517 121.117C29.6517 120.138 28.8583 119.345 27.88 119.345ZM19.9967 121.417C15.8083 121.417 12.4133 124.813 12.4133 129.002C12.4133 133.19 15.8083 136.585 19.9967 136.585C24.185 136.585 27.5783 133.19 27.5783 129.002C27.5783 124.813 24.185 121.417 19.9967 121.417ZM19.9967 124.078C26.505 124.078 26.5133 133.925 19.9967 133.925C13.49 133.925 13.48 124.078 19.9967 124.078Z" fill="white"/>
</g>
<g clip-path="url(#clip1)">
<path d="M167.792 320H132.206C130.988 320.001 130 320.989 130 322.208V357.794C130.001 359.012 130.989 360 132.208 360H167.792C169.011 360 170 359.012 170 357.793C170 357.793 170 357.792 170 357.792V322.206C169.999 320.988 169.011 320 167.792 320Z" fill="#4267B2"/>
<path d="M157.617 360V344.531H162.832L163.613 338.477H157.617V334.62C157.617 332.871 158.103 331.68 160.611 331.68H163.789V326.279C163.236 326.206 161.339 326.041 159.131 326.041C154.522 326.041 151.367 328.854 151.367 334.021V338.477H146.172V344.531H151.367V360H157.617Z" fill="white"/>
</g>
<g clip-path="url(#clip2)">
<path d="M1092 59.9997C1100.29 59.9997 1107 53.2841 1107 44.9999C1107 36.7157 1100.29 30 1092 30C1083.72 30 1077 36.7157 1077 44.9999C1077 53.2841 1083.72 59.9997 1092 59.9997Z" fill="#55ACEE"/>
<path d="M1101.19 40.78C1100.55 41.065 1099.85 41.2578 1099.13 41.3439C1099.87 40.9003 1100.44 40.1984 1100.71 39.3607C1100.01 39.7716 1099.24 40.0698 1098.43 40.2305C1097.77 39.5339 1096.84 39.0986 1095.81 39.0986C1093.83 39.0986 1092.23 40.7043 1092.23 42.684C1092.23 42.965 1092.26 43.2386 1092.32 43.5012C1089.34 43.3517 1086.7 41.9244 1084.93 39.7545C1084.62 40.284 1084.44 40.9003 1084.44 41.5573C1084.44 42.8009 1085.08 43.8988 1086.04 44.5416C1085.45 44.5231 1084.9 44.3619 1084.41 44.0926C1084.41 44.1079 1084.41 44.1231 1084.41 44.1381C1084.41 45.8753 1085.65 47.3243 1087.29 47.6534C1086.99 47.7358 1086.67 47.7793 1086.35 47.7793C1086.11 47.7793 1085.89 47.7572 1085.67 47.7154C1086.13 49.1395 1087.45 50.1762 1089.02 50.2053C1087.79 51.1671 1086.25 51.7401 1084.57 51.7401C1084.28 51.7401 1083.99 51.7233 1083.71 51.6899C1085.3 52.7076 1087.18 53.3009 1089.21 53.3009C1095.8 53.3009 1099.41 47.8376 1099.41 43.0993C1099.41 42.9439 1099.41 42.7891 1099.4 42.6356C1100.1 42.1303 1100.71 41.499 1101.19 40.78Z" fill="#F1F2F2"/>
</g>
<g clip-path="url(#clip3)">
<path d="M1160.84 305H1135.16C1133.97 305 1133 305.969 1133 307.164V332.836C1133 334.031 1133.97 335 1135.16 335H1160.84C1162.03 335 1163 334.031 1163 332.836V307.164C1163 305.969 1162.03 305 1160.84 305V305ZM1143.64 327.676H1139.99V316.685H1143.64V327.676ZM1141.81 315.184H1141.79C1140.57 315.184 1139.77 314.34 1139.77 313.286C1139.77 312.207 1140.59 311.387 1141.84 311.387C1143.09 311.387 1143.86 312.207 1143.88 313.286C1143.88 314.34 1143.09 315.184 1141.81 315.184ZM1156.81 327.676H1153.16V321.796C1153.16 320.318 1152.63 319.311 1151.31 319.311C1150.3 319.311 1149.7 319.99 1149.44 320.647C1149.34 320.881 1149.32 321.21 1149.32 321.538V327.676H1145.66C1145.66 327.676 1145.71 317.716 1145.66 316.685H1149.32V318.241C1149.8 317.492 1150.67 316.427 1152.61 316.427C1155.01 316.427 1156.81 317.998 1156.81 321.374V327.676Z" fill="#0077B7"/>
</g>
<g clip-path="url(#clip4)">
<path d="M1090.61 264.183H1069.39C1067.94 264.183 1066.76 263 1066.76 261.547V248.771C1066.76 248.487 1066.9 248.22 1067.13 248.055L1079.49 239.266C1079.8 239.049 1080.2 239.049 1080.51 239.266L1092.87 248.055C1093.1 248.22 1093.24 248.487 1093.24 248.771V261.547C1093.24 263 1092.06 264.183 1090.61 264.183Z" fill="#4175DF"/>
<path d="M1090.61 264.183C1092.06 264.183 1093.24 263.001 1093.24 261.547V248.772C1093.24 248.487 1093.1 248.22 1092.87 248.055L1080.51 239.266C1080.36 239.158 1080.18 239.104 1080 239.104V264.183H1090.61Z" fill="#4254B6"/>
<path d="M1072.47 246.39C1072.47 248.451 1070.8 250.121 1068.73 250.121C1066.67 250.121 1065 248.451 1065 246.39H1072.47Z" fill="#4086F4"/>
<path d="M1080 246.39C1080 248.451 1078.27 250.121 1076.2 250.121C1074.14 250.121 1072.47 248.451 1072.47 246.39H1080Z" fill="#324492"/>
<path d="M1095 246.39H1087.53L1085.6 237.816H1090.11C1090.82 237.816 1091.47 238.216 1091.78 238.847L1095 246.39Z" fill="#4254B6"/>
<path d="M1087.53 246.39H1080V237.816H1085.6L1087.53 246.39Z" fill="#4086F4"/>
<path d="M1080 237.816V246.39H1072.47L1074.34 237.816H1080Z" fill="#4254B6"/>
<path d="M1074.34 237.816L1072.47 246.39H1065L1068.22 238.847C1068.53 238.216 1069.18 237.816 1069.89 237.816H1074.34V237.816Z" fill="#80AEF8"/>
<path d="M1087.53 246.39C1087.53 248.451 1085.86 250.121 1083.8 250.121C1081.73 250.121 1080 248.451 1080 246.39H1087.53Z" fill="#4175DF"/>
<path d="M1095 246.39C1095 248.451 1093.33 250.121 1091.27 250.121C1089.2 250.121 1087.53 248.451 1087.53 246.39H1095Z" fill="#324492"/>
<path d="M1088.79 255.394H1086.15C1085.67 255.394 1085.27 255.788 1085.27 256.273C1085.27 256.759 1085.67 257.152 1086.15 257.152H1087.76C1087.4 258.175 1086.42 258.91 1085.27 258.91C1083.82 258.91 1082.64 257.727 1082.64 256.273C1082.64 254.819 1083.82 253.636 1085.27 253.636C1085.98 253.636 1086.64 253.911 1087.14 254.409C1087.48 254.752 1088.04 254.752 1088.38 254.409C1088.72 254.065 1088.72 253.509 1088.38 253.166C1087.55 252.336 1086.45 251.879 1085.27 251.879C1082.85 251.879 1080.88 253.85 1080.88 256.273C1080.88 258.696 1082.85 260.668 1085.27 260.668C1087.7 260.668 1089.67 258.696 1089.67 256.273C1089.67 255.788 1089.27 255.394 1088.79 255.394Z" fill="#E3E7EA"/>
</g>
<path d="M150 241C158.284 241 165 234.284 165 226C165 217.716 158.284 211 150 211C141.716 211 135 217.716 135 226C135 234.284 141.716 241 150 241Z" fill="#039BE5"/>
<path d="M141.864 225.675L156.326 220.099C156.997 219.856 157.584 220.263 157.366 221.278L157.367 221.276L154.905 232.878C154.722 233.7 154.234 233.9 153.55 233.513L149.8 230.749L147.991 232.491C147.791 232.691 147.622 232.86 147.235 232.86L147.501 229.044L154.451 222.765C154.754 222.499 154.384 222.349 153.985 222.614L145.396 228.021L141.694 226.866C140.89 226.611 140.872 226.063 141.864 225.675Z" fill="white"/>
<defs>
<linearGradient id="paint0_linear" x1="2.57671" y1="146.445" x2="39.7525" y2="114.27" gradientUnits="userSpaceOnUse">
<stop stop-color="#FFDD55"/>
<stop offset="0.5" stop-color="#FF543E"/>
<stop offset="1" stop-color="#C837AB"/>
</linearGradient>
<clipPath id="clip0">
<rect width="40" height="40" fill="white" transform="translate(0 109)"/>
</clipPath>
<clipPath id="clip1">
<rect width="40" height="40" fill="white" transform="translate(130 320)"/>
</clipPath>
<clipPath id="clip2">
<rect width="30" height="30" fill="white" transform="translate(1077 30)"/>
</clipPath>
<clipPath id="clip3">
<rect width="30" height="30" fill="white" transform="translate(1133 305)"/>
</clipPath>
<clipPath id="clip4">
<rect width="30" height="30" fill="white" transform="translate(1065 236)"/>
</clipPath>
</defs>
</svg>
