<svg width="617" height="325" viewBox="0 0 617 325" fill="none" xmlns="http://www.w3.org/2000/svg">
<path d="M46 38.0001C54.2843 38.0001 61 31.2843 61 23C61 14.7157 54.2843 8 46 8C37.7157 8 31 14.7157 31 23C31 31.2843 37.7157 38.0001 46 38.0001Z" fill="#3E89F4"/>
<path d="M41.185 20.2227H38.4072V28.3708H41.185V20.2227Z" fill="white"/>
<path d="M53.4077 20.9634C53.4077 20.2226 52.8521 19.6671 52.1114 19.6671H47.8521L48.4076 16.519V16.3338C48.4076 15.9634 48.2224 15.7782 48.0373 15.593L47.2965 14.8523L42.8521 19.2967C42.6669 19.4819 42.4817 19.8523 42.4817 20.2227V26.8893C42.4817 27.6301 43.0373 28.1857 43.778 28.1857H49.8891C50.4447 28.1857 51.0002 27.8153 51.1854 27.4449L53.2225 22.6301C53.2225 22.4449 53.4077 22.2597 53.4077 22.0745V20.9634Z" fill="white"/>
<path d="M46 215C46 223.333 39.3333 230 31 230C22.6667 230 16 223.333 16 215C16 206.667 22.6667 200 31 200C39.3333 200 46 206.667 46 215Z" fill="#FF2D5A"/>
<path d="M46 215C46 223.333 39.3333 230 31 230C22.6667 230 16 223.333 16 215C16 206.667 22.6667 200 31 200C39.3333 200 46 206.667 46 215Z" stroke="#FF2D5A" stroke-miterlimit="10"/>
<path d="M30.9999 221.667L30.074 220.741C26.5555 217.593 24.3333 215.556 24.3333 212.963C24.3333 210.926 25.9999 209.26 28.037 209.26C29.1481 209.26 30.2592 209.815 30.9999 210.741C31.7407 209.815 32.8518 209.26 33.9629 209.26C35.9999 209.26 37.6666 210.926 37.6666 212.963C37.6666 215.556 35.4444 217.593 31.9259 220.741L30.9999 221.667Z" fill="white"/>
<g clip-path="url(#clip0)">
<path d="M2.50001 77.7219C-0.643327 80.9869 6.59376e-06 84.4552 6.59376e-06 94.9919C6.59376e-06 103.742 -1.52666 112.514 6.46334 114.579C8.95834 115.22 31.065 115.22 33.5567 114.575C36.8833 113.717 39.59 111.019 39.96 106.314C40.0117 105.657 40.0117 84.3386 39.9583 83.6686C39.565 78.6569 36.48 75.7686 32.415 75.1836C31.4833 75.0486 31.2967 75.0086 26.5167 75.0002C9.56167 75.0086 5.84501 74.2536 2.50001 77.7219Z" fill="url(#paint0_linear)"/>
<path d="M19.9967 80.2315C13.945 80.2315 8.19835 79.6932 6.00335 85.3265C5.09668 87.6532 5.22835 90.6749 5.22835 95.0015C5.22835 98.7982 5.10668 102.367 6.00335 104.675C8.19335 110.312 13.9867 109.772 19.9933 109.772C25.7883 109.772 31.7633 110.375 33.985 104.675C34.8933 102.325 34.76 99.3482 34.76 95.0015C34.76 89.2315 35.0783 85.5065 32.28 82.7099C29.4467 79.8765 25.615 80.2315 19.99 80.2315H19.9967ZM18.6733 82.8932C31.2967 82.8732 32.9033 81.4699 32.0167 100.965C31.7017 107.86 26.4517 107.103 19.9983 107.103C8.23168 107.103 7.89335 106.767 7.89335 94.9949C7.89335 83.0865 8.82668 82.8999 18.6733 82.8899V82.8932ZM27.88 85.3449C26.9017 85.3449 26.1083 86.1382 26.1083 87.1165C26.1083 88.0949 26.9017 88.8882 27.88 88.8882C28.8583 88.8882 29.6517 88.0949 29.6517 87.1165C29.6517 86.1382 28.8583 85.3449 27.88 85.3449ZM19.9967 87.4165C15.8083 87.4165 12.4133 90.8132 12.4133 95.0015C12.4133 99.1899 15.8083 102.585 19.9967 102.585C24.185 102.585 27.5783 99.1899 27.5783 95.0015C27.5783 90.8132 24.185 87.4165 19.9967 87.4165ZM19.9967 90.0782C26.505 90.0782 26.5133 99.9249 19.9967 99.9249C13.49 99.9249 13.48 90.0782 19.9967 90.0782Z" fill="white"/>
</g>
<g clip-path="url(#clip1)">
<path d="M107.792 272H72.2061C70.9875 272.001 69.9997 272.989 70 274.208V309.794C70.0006 311.012 70.9891 312 72.2079 312H107.792C109.011 312 110 311.012 110 309.793C110 309.793 110 309.792 110 309.792V274.206C109.999 272.988 109.011 272 107.792 272Z" fill="#4267B2"/>
<path d="M97.6172 312V296.531H102.832L103.613 290.477H97.6172V286.62C97.6172 284.871 98.1027 283.68 100.611 283.68H103.789V278.279C103.236 278.206 101.339 278.041 99.1312 278.041C94.5218 278.041 91.3672 280.854 91.3672 286.021V290.477H86.1719V296.531H91.3672V312H97.6172Z" fill="white"/>
</g>
<path d="M85 142C93.2843 142 100 135.284 100 127C100 118.716 93.2843 112 85 112C76.7157 112 70 118.716 70 127C70 135.284 76.7157 142 85 142Z" fill="#039BE5"/>
<path d="M76.8638 126.675L91.3263 121.099C91.9976 120.856 92.5838 121.263 92.3663 122.278L92.3676 122.276L89.9051 133.878C89.7226 134.7 89.2338 134.9 88.5501 134.513L84.8001 131.749L82.9913 133.491C82.7913 133.691 82.6226 133.86 82.2351 133.86L82.5013 130.044L89.4513 123.765C89.7538 123.499 89.3838 123.349 88.9851 123.614L80.3963 129.021L76.6938 127.866C75.8901 127.611 75.8726 127.063 76.8638 126.675Z" fill="white"/>
<path d="M596.004 295H595.996C587.726 295 581 301.727 581 310C581 313.281 582.058 316.323 583.856 318.792L581.986 324.364L587.752 322.521C590.124 324.093 592.953 325 596.004 325C604.274 325 611 318.271 611 310C611 301.729 604.274 295 596.004 295Z" fill="#4CAF50"/>
<path d="M604.732 316.182C604.37 317.204 602.934 318.051 601.788 318.299C601.005 318.466 599.981 318.599 596.535 317.17C592.126 315.344 589.288 310.864 589.066 310.574C588.855 310.283 587.285 308.202 587.285 306.049C587.285 303.897 588.378 302.849 588.819 302.399C589.181 302.029 589.779 301.861 590.353 301.861C590.538 301.861 590.705 301.87 590.855 301.877C591.296 301.896 591.517 301.922 591.808 302.618C592.17 303.49 593.051 305.642 593.156 305.864C593.263 306.085 593.37 306.385 593.22 306.676C593.079 306.976 592.955 307.109 592.734 307.364C592.513 307.619 592.303 307.814 592.081 308.087C591.879 308.326 591.65 308.581 591.905 309.021C592.16 309.452 593.041 310.891 594.339 312.046C596.013 313.536 597.371 314.012 597.856 314.215C598.218 314.365 598.65 314.329 598.914 314.048C599.25 313.686 599.664 313.086 600.086 312.496C600.386 312.072 600.765 312.019 601.162 312.169C601.567 312.31 603.71 313.369 604.151 313.589C604.591 313.81 604.882 313.915 604.989 314.101C605.094 314.286 605.094 315.158 604.732 316.182Z" fill="#FAFAFA"/>
<path d="M586.597 54.729C586.597 56.2549 585.35 57.5014 583.824 57.5014C582.298 57.5014 581.052 56.2549 581.052 54.729C581.052 53.2031 582.298 51.9565 583.824 51.9565H586.597V54.729Z" fill="#E01E5A"/>
<path d="M587.993 54.729C587.993 53.2031 589.24 51.9565 590.766 51.9565C592.292 51.9565 593.538 53.2031 593.538 54.729V61.6708C593.538 63.1967 592.292 64.4432 590.766 64.4432C589.24 64.4432 587.993 63.1967 587.993 61.6708V54.729Z" fill="#E01E5A"/>
<path d="M590.766 43.5964C589.24 43.5964 587.993 42.3499 587.993 40.8239C587.993 39.2981 589.24 38.0515 590.766 38.0515C592.292 38.0515 593.538 39.2981 593.538 40.8239V43.5964H590.766Z" fill="#36C5F0"/>
<path d="M590.766 44.9934C592.292 44.9934 593.538 46.24 593.538 47.7658C593.538 49.2918 592.292 50.5383 590.766 50.5383H583.824C582.298 50.5383 581.052 49.2918 581.052 47.7658C581.052 46.24 582.298 44.9934 583.824 44.9934H590.766Z" fill="#36C5F0"/>
<path d="M601.898 47.7658C601.898 46.24 603.145 44.9934 604.671 44.9934C606.197 44.9934 607.443 46.24 607.443 47.7658C607.443 49.2918 606.197 50.5383 604.671 50.5383H601.898V47.7658Z" fill="#2EB67D"/>
<path d="M600.501 47.7657C600.501 49.2917 599.255 50.5382 597.729 50.5382C596.203 50.5382 594.957 49.2917 594.957 47.7657V40.8239C594.957 39.2981 596.203 38.0515 597.729 38.0515C599.255 38.0515 600.501 39.2981 600.501 40.8239V47.7657Z" fill="#2EB67D"/>
<path d="M597.729 58.8984C599.255 58.8984 600.501 60.145 600.501 61.6709C600.501 63.1968 599.255 64.4433 597.729 64.4433C596.203 64.4433 594.957 63.1968 594.957 61.6709V58.8984H597.729Z" fill="#ECB22E"/>
<path d="M597.729 57.5014C596.203 57.5014 594.957 56.2549 594.957 54.729C594.957 53.2031 596.203 51.9565 597.729 51.9565H604.671C606.197 51.9565 607.443 53.2031 607.443 54.729C607.443 56.2549 606.197 57.5014 604.671 57.5014H597.729Z" fill="#ECB22E"/>
<g clip-path="url(#clip2)">
<path d="M518.001 29.9997C526.285 29.9997 533.001 23.2841 533.001 14.9999C533.001 6.71567 526.285 0 518.001 0C509.717 0 503.001 6.71567 503.001 14.9999C503.001 23.2841 509.717 29.9997 518.001 29.9997Z" fill="#55ACEE"/>
<path d="M527.188 10.78C526.545 11.065 525.854 11.2578 525.129 11.3439C525.869 10.9003 526.437 10.1984 526.706 9.36067C526.013 9.77165 525.245 10.0698 524.429 10.2305C523.775 9.53394 522.843 9.09863 521.811 9.09863C519.831 9.09863 518.226 10.7043 518.226 12.684C518.226 12.965 518.258 13.2386 518.319 13.5012C515.339 13.3517 512.697 11.9244 510.929 9.75453C510.62 10.284 510.443 10.9003 510.443 11.5573C510.443 12.8009 511.077 13.8988 512.038 14.5416C511.451 14.5231 510.897 14.3619 510.414 14.0926C510.414 14.1079 510.414 14.1231 510.414 14.1381C510.414 15.8753 511.65 17.3243 513.29 17.6534C512.99 17.7358 512.672 17.7793 512.346 17.7793C512.114 17.7793 511.89 17.7572 511.671 17.7154C512.127 19.1395 513.451 20.1762 515.021 20.2053C513.793 21.1671 512.247 21.7401 510.567 21.7401C510.278 21.7401 509.992 21.7233 509.712 21.6899C511.298 22.7076 513.183 23.3009 515.208 23.3009C521.803 23.3009 525.409 17.8376 525.409 13.0993C525.409 12.9439 525.406 12.7891 525.399 12.6356C526.1 12.1303 526.708 11.499 527.188 10.78Z" fill="#F1F2F2"/>
</g>
<g clip-path="url(#clip3)">
<path d="M614.836 127H589.164C587.969 127 587 127.969 587 129.164V154.836C587 156.031 587.969 157 589.164 157H614.836C616.031 157 617 156.031 617 154.836V129.164C617 127.969 616.031 127 614.836 127V127ZM597.641 149.676H593.988V138.685H597.641V149.676ZM595.815 137.184H595.791C594.565 137.184 593.772 136.34 593.772 135.286C593.772 134.207 594.589 133.387 595.839 133.387C597.089 133.387 597.858 134.207 597.882 135.286C597.882 136.34 597.089 137.184 595.815 137.184ZM610.814 149.676H607.161V143.796C607.161 142.318 606.632 141.311 605.31 141.311C604.301 141.311 603.7 141.99 603.436 142.647C603.339 142.881 603.316 143.21 603.316 143.538V149.676H599.663C599.663 149.676 599.711 139.716 599.663 138.685H603.316V140.241C603.801 139.492 604.67 138.427 606.608 138.427C609.012 138.427 610.814 139.998 610.814 143.374V149.676Z" fill="#0077B7"/>
</g>
<g clip-path="url(#clip4)">
<path d="M547.605 276.183H526.395C524.941 276.183 523.758 275 523.758 273.547V260.771C523.758 260.487 523.896 260.22 524.127 260.055L536.491 251.266C536.796 251.049 537.204 251.049 537.509 251.266L549.873 260.055C550.104 260.22 550.242 260.487 550.242 260.771V273.547C550.242 275 549.059 276.183 547.605 276.183Z" fill="#4175DF"/>
<path d="M547.605 276.183C549.059 276.183 550.242 275.001 550.242 273.547V260.772C550.242 260.487 550.104 260.22 549.873 260.055L537.509 251.266C537.357 251.158 537.178 251.104 537 251.104V276.183H547.605Z" fill="#4254B6"/>
<path d="M529.469 258.39C529.469 260.451 527.797 262.121 525.734 262.121C523.672 262.121 522 260.451 522 258.39H529.469Z" fill="#4086F4"/>
<path d="M537 258.39C537 260.451 535.266 262.121 533.203 262.121C531.14 262.121 529.469 260.451 529.469 258.39H537Z" fill="#324492"/>
<path d="M552 258.39H544.531L542.602 249.816H547.112C547.819 249.816 548.465 250.216 548.781 250.847L552 258.39Z" fill="#4254B6"/>
<path d="M544.531 258.39H537V249.816H542.602L544.531 258.39Z" fill="#4086F4"/>
<path d="M537 249.816V258.39H529.469L531.336 249.816H537Z" fill="#4254B6"/>
<path d="M531.336 249.816L529.469 258.39H522L525.218 250.847C525.535 250.216 526.181 249.816 526.888 249.816H531.336V249.816Z" fill="#80AEF8"/>
<path d="M544.531 258.39C544.531 260.451 542.859 262.121 540.797 262.121C538.734 262.121 537 260.451 537 258.39H544.531Z" fill="#4175DF"/>
<path d="M552 258.39C552 260.451 550.328 262.121 548.266 262.121C546.203 262.121 544.531 260.451 544.531 258.39H552Z" fill="#324492"/>
<path d="M545.789 267.394H543.152C542.667 267.394 542.273 267.788 542.273 268.273C542.273 268.759 542.667 269.152 543.152 269.152H544.759C544.396 270.175 543.419 270.91 542.273 270.91C540.82 270.91 539.637 269.727 539.637 268.273C539.637 266.819 540.82 265.636 542.273 265.636C542.978 265.636 543.64 265.911 544.138 266.409C544.481 266.752 545.038 266.752 545.381 266.409C545.724 266.065 545.724 265.509 545.381 265.166C544.551 264.336 543.447 263.879 542.273 263.879C539.85 263.879 537.879 265.85 537.879 268.273C537.879 270.696 539.85 272.668 542.273 272.668C544.697 272.668 546.668 270.696 546.668 268.273C546.668 267.788 546.274 267.394 545.789 267.394Z" fill="#E3E7EA"/>
</g>
<defs>
<linearGradient id="paint0_linear" x1="2.57671" y1="112.445" x2="39.7525" y2="80.2702" gradientUnits="userSpaceOnUse">
<stop stop-color="#FFDD55"/>
<stop offset="0.5" stop-color="#FF543E"/>
<stop offset="1" stop-color="#C837AB"/>
</linearGradient>
<clipPath id="clip0">
<rect width="40" height="40" fill="white" transform="translate(0 75)"/>
</clipPath>
<clipPath id="clip1">
<rect width="40" height="40" fill="white" transform="translate(70 272)"/>
</clipPath>
<clipPath id="clip2">
<rect width="30" height="30" fill="white" transform="translate(503)"/>
</clipPath>
<clipPath id="clip3">
<rect width="30" height="30" fill="white" transform="translate(587 127)"/>
</clipPath>
<clipPath id="clip4">
<rect width="30" height="30" fill="white" transform="translate(522 248)"/>
</clipPath>
</defs>
</svg>
