<svg width="331" height="140" viewBox="0 0 331 140" fill="none" xmlns="http://www.w3.org/2000/svg">
<path d="M13 26C20.1797 26 26 20.1797 26 13C26 5.82031 20.1797 0 13 0C5.82031 0 0 5.82031 0 13C0 20.1797 5.82031 26 13 26Z" fill="#3E89F4"/>
<path d="M8.82684 10.593H6.41943V17.6547H8.82684V10.593Z" fill="white"/>
<path d="M19.4196 11.235C19.4196 10.593 18.9381 10.1116 18.2961 10.1116H14.6048L15.0863 7.38316V7.22265C15.0863 6.90167 14.9258 6.74118 14.7653 6.58069L14.1233 5.93872L10.2714 9.79057C10.111 9.95106 9.95044 10.272 9.95044 10.593V16.3708C9.95044 17.0128 10.4319 17.4943 11.0739 17.4943H16.3702C16.8517 17.4943 17.3332 17.1733 17.4937 16.8523L19.2591 12.6795C19.2591 12.519 19.4196 12.3585 19.4196 12.198V11.235Z" fill="white"/>
<path d="M330 126C330 133.222 324.222 139 317 139C309.778 139 304 133.222 304 126C304 118.778 309.778 113 317 113C324.222 113 330 118.778 330 126Z" fill="#FF2D5A"/>
<path d="M330 126C330 133.222 324.222 139 317 139C309.778 139 304 133.222 304 126C304 118.778 309.778 113 317 113C324.222 113 330 118.778 330 126Z" stroke="#FF2D5A" stroke-miterlimit="10"/>
<path d="M316.999 131.778L316.197 130.976C313.147 128.247 311.221 126.482 311.221 124.235C311.221 122.469 312.666 121.025 314.431 121.025C315.394 121.025 316.357 121.506 316.999 122.309C317.641 121.506 318.604 121.025 319.567 121.025C321.332 121.025 322.777 122.469 322.777 124.235C322.777 126.482 320.851 128.247 317.801 130.976L316.999 131.778Z" fill="white"/>
</svg>
