<svg width="124" height="59" viewBox="0 0 124 59" fill="none" xmlns="http://www.w3.org/2000/svg">
<path d="M109.11 49.381V45.244C109.11 45.1227 109.115 44.9897 109.124 44.845C109.133 44.7003 109.147 44.5533 109.166 44.404L105.512 49.381H109.11ZM111.721 49.381V50.095C111.721 50.1697 111.698 50.2327 111.651 50.284C111.609 50.3353 111.541 50.361 111.448 50.361H110.202V53H109.11V50.361H104.658C104.565 50.361 104.483 50.3353 104.413 50.284C104.348 50.228 104.306 50.1603 104.287 50.081L104.161 49.444L109.04 42.969H110.202V49.381H111.721ZM112.898 52.23C112.898 52.1087 112.919 51.9943 112.961 51.887C113.008 51.7797 113.068 51.6863 113.143 51.607C113.222 51.5277 113.316 51.4647 113.423 51.418C113.53 51.3713 113.645 51.348 113.766 51.348C113.887 51.348 114.002 51.3713 114.109 51.418C114.216 51.4647 114.31 51.5277 114.389 51.607C114.468 51.6863 114.531 51.7797 114.578 51.887C114.625 51.9943 114.648 52.1087 114.648 52.23C114.648 52.356 114.625 52.4727 114.578 52.58C114.531 52.6827 114.468 52.7737 114.389 52.853C114.31 52.9323 114.216 52.993 114.109 53.035C114.002 53.0817 113.887 53.105 113.766 53.105C113.645 53.105 113.53 53.0817 113.423 53.035C113.316 52.993 113.222 52.9323 113.143 52.853C113.068 52.7737 113.008 52.6827 112.961 52.58C112.919 52.4727 112.898 52.356 112.898 52.23ZM119.49 52.118C119.816 52.118 120.108 52.0737 120.365 51.985C120.626 51.8917 120.845 51.7633 121.023 51.6C121.205 51.432 121.342 51.2337 121.436 51.005C121.534 50.7717 121.583 50.515 121.583 50.235C121.583 49.8897 121.524 49.5957 121.408 49.353C121.296 49.1057 121.142 48.905 120.946 48.751C120.754 48.597 120.533 48.485 120.281 48.415C120.029 48.3403 119.765 48.303 119.49 48.303C119.214 48.303 118.951 48.3403 118.699 48.415C118.447 48.485 118.223 48.597 118.027 48.751C117.835 48.905 117.681 49.1057 117.565 49.353C117.453 49.5957 117.397 49.8897 117.397 50.235C117.397 50.515 117.443 50.7717 117.537 51.005C117.635 51.2337 117.772 51.432 117.95 51.6C118.132 51.7633 118.351 51.8917 118.608 51.985C118.869 52.0737 119.163 52.118 119.49 52.118ZM119.49 43.823C119.191 43.823 118.927 43.8673 118.699 43.956C118.475 44.0447 118.286 44.166 118.132 44.32C117.982 44.474 117.868 44.6537 117.789 44.859C117.714 45.0643 117.677 45.2837 117.677 45.517C117.677 45.7457 117.709 45.9673 117.775 46.182C117.84 46.3967 117.945 46.588 118.09 46.756C118.234 46.9193 118.421 47.0523 118.65 47.155C118.883 47.253 119.163 47.302 119.49 47.302C119.816 47.302 120.094 47.253 120.323 47.155C120.556 47.0523 120.745 46.9193 120.89 46.756C121.034 46.588 121.139 46.3967 121.205 46.182C121.27 45.9673 121.303 45.7457 121.303 45.517C121.303 45.2837 121.263 45.0643 121.184 44.859C121.109 44.6537 120.995 44.474 120.841 44.32C120.691 44.166 120.502 44.0447 120.274 43.956C120.05 43.8673 119.788 43.823 119.49 43.823ZM120.925 47.771C121.55 47.9483 122.031 48.2447 122.367 48.66C122.703 49.0753 122.871 49.6073 122.871 50.256C122.871 50.6947 122.787 51.0913 122.619 51.446C122.455 51.796 122.224 52.0947 121.926 52.342C121.632 52.5893 121.277 52.7807 120.862 52.916C120.446 53.0467 119.989 53.112 119.49 53.112C118.99 53.112 118.533 53.0467 118.118 52.916C117.702 52.7807 117.345 52.5893 117.047 52.342C116.748 52.0947 116.517 51.796 116.354 51.446C116.19 51.0913 116.109 50.6947 116.109 50.256C116.109 49.6073 116.277 49.0753 116.613 48.66C116.949 48.2447 117.429 47.9483 118.055 47.771C117.527 47.575 117.128 47.2833 116.858 46.896C116.592 46.504 116.459 46.0373 116.459 45.496C116.459 45.1273 116.531 44.782 116.676 44.46C116.82 44.138 117.026 43.858 117.292 43.62C117.558 43.382 117.875 43.1953 118.244 43.06C118.617 42.9247 119.032 42.857 119.49 42.857C119.942 42.857 120.355 42.9247 120.729 43.06C121.102 43.1953 121.422 43.382 121.688 43.62C121.954 43.858 122.159 44.138 122.304 44.46C122.448 44.782 122.521 45.1273 122.521 45.496C122.521 46.0373 122.385 46.504 122.115 46.896C121.849 47.2833 121.452 47.575 120.925 47.771Z" fill="#1B1B1B"/>
<path d="M9.23077 39L11.8894 44.4322L18.0098 45.2188L13.5325 49.3628L14.6565 55.2812L9.23077 52.41L3.80506 55.2812L4.92907 49.3628L0.451786 45.2188L6.57217 44.4322L9.23077 39Z" fill="#FF492C"/>
<path d="M28.6153 39L31.2739 44.4322L37.3943 45.2188L32.917 49.3628L34.041 55.2812L28.6153 52.41L23.1896 55.2812L24.3136 49.3628L19.8363 45.2188L25.9567 44.4322L28.6153 39Z" fill="#FF492C"/>
<path d="M48.0001 39L50.6587 44.4322L56.779 45.2188L52.3018 49.3628L53.4258 55.2812L48.0001 52.41L42.5743 55.2812L43.6984 49.3628L39.2211 45.2188L45.3415 44.4322L48.0001 39Z" fill="#FF492C"/>
<path d="M67.3846 39L70.0432 44.4322L76.1636 45.2188L71.6863 49.3628L72.8103 55.2812L67.3846 52.41L61.9589 55.2812L63.0829 49.3628L58.6056 45.2188L64.726 44.4322L67.3846 39Z" fill="#FF492C"/>
<path d="M86.7693 40.1374L88.9788 44.652L89.0972 44.8938L89.3642 44.9282L94.4237 45.5784L90.7314 48.9958L90.5281 49.1839L90.5798 49.4561L91.5098 54.3528L87.0032 51.9681L86.7693 51.8443L86.5355 51.9681L82.0289 54.3528L82.9589 49.4561L83.0105 49.1839L82.8073 48.9958L79.115 45.5784L84.1745 44.9282L84.4415 44.8938L84.5598 44.652L86.7693 40.1374Z" fill="white" stroke="#FF492C"/>
<path d="M84.1107 44.4322L86.7693 39V52.41L81.3436 55.2812L82.4676 49.3628L77.9903 45.2188L84.1107 44.4322Z" fill="#FF492C"/>
<path d="M0 9.92693L11.1792 9.92916L17.9769 9.93032V3.18488L0 9.92693Z" fill="#FF9D28"/>
<path d="M17.9771 3.18519V27L26.4673 0L17.9771 3.18519Z" fill="#68C5ED"/>
<path d="M17.9769 9.93043L11.1792 9.92927L17.9769 26.9998V9.93043Z" fill="#044D80"/>
<path d="M0 9.92731L12.9224 14.3096L11.1792 9.92955L0 9.92731Z" fill="#E54747"/>
<path d="M41.1804 20.7313C41.0818 20.8301 40.9176 20.9532 40.6879 21.1012C40.4578 21.2493 40.1585 21.3972 39.7892 21.5453C39.4198 21.6931 38.9681 21.8203 38.4349 21.9276C37.9011 22.0342 37.2899 22.0878 36.6005 22.0878C35.2707 22.0878 34.1215 21.8739 33.1531 21.4467C32.1843 21.0194 31.3841 20.4229 30.7523 19.6586C30.1202 18.8939 29.6566 17.9898 29.3611 16.9454C29.0657 15.9014 28.918 14.7547 28.918 13.5049C28.918 12.2556 29.078 11.1002 29.3981 10.0397C29.7182 8.97912 30.1983 8.06282 30.8385 7.28965C31.4787 6.51707 32.279 5.91271 33.2394 5.47685C34.1997 5.04147 35.3281 4.82329 36.625 4.82329C37.2653 4.82329 37.8439 4.88103 38.361 4.99592C38.8781 5.11105 39.3294 5.24682 39.7154 5.40288C40.1008 5.55935 40.421 5.72344 40.6757 5.89615C40.93 6.06877 41.1228 6.21298 41.2544 6.32771C41.4021 6.45958 41.5291 6.61564 41.636 6.7963C41.7426 6.97745 41.7961 7.17476 41.7961 7.38831C41.7961 7.7174 41.6729 8.04609 41.4267 8.37485C41.1805 8.70395 40.9096 9.00811 40.6141 9.28742C40.4171 9.09012 40.1955 8.889 39.9493 8.68324C39.7031 8.47773 39.428 8.29707 39.1244 8.1406C38.8205 7.98454 38.4757 7.85308 38.0902 7.74598C37.7043 7.63921 37.2735 7.58562 36.7975 7.58562C35.9603 7.58562 35.2586 7.75443 34.6922 8.09123C34.1259 8.42844 33.6703 8.86812 33.3256 9.41076C32.9809 9.9534 32.7347 10.5742 32.5869 11.2729C32.4392 11.9719 32.3653 12.6829 32.3653 13.4063C32.3653 14.1793 32.4392 14.9192 32.5869 15.6259C32.7346 16.333 32.9889 16.958 33.3503 17.5003C33.7111 18.0429 34.1832 18.4788 34.7661 18.8075C35.3485 19.1366 36.0749 19.3008 36.9452 19.3008C37.4045 19.3008 37.8275 19.2434 38.2133 19.1283C38.5988 19.0133 38.9397 18.8734 39.2352 18.7087C39.5306 18.5447 39.7892 18.3722 40.0108 18.1911C40.2324 18.0102 40.4171 17.8542 40.5649 17.7223C40.6634 17.8376 40.778 17.9775 40.9095 18.1417C41.0418 18.3076 41.1651 18.4805 41.2789 18.6597C41.3936 18.8408 41.4921 19.0215 41.5744 19.2021C41.6563 19.3833 41.6974 19.5475 41.6974 19.6953C41.6974 19.9093 41.6563 20.09 41.5744 20.238C41.492 20.386 41.3607 20.5506 41.1804 20.7313ZM53.8699 18.8398C53.8699 20.1466 54.0595 21.0978 54.4396 21.6933C54.1423 21.8088 53.8656 21.8917 53.6097 21.9413C53.3535 21.991 53.0853 22.0157 52.8046 22.0157C52.2102 22.0157 51.76 21.8999 51.4547 21.6683C51.1489 21.437 50.9549 21.1062 50.8725 20.6758C50.509 21.0567 50.0302 21.3791 49.4357 21.6438C48.8412 21.908 48.1143 22.0407 47.2558 22.0407C46.8099 22.0407 46.3641 21.9787 45.9182 21.8555C45.4722 21.7312 45.0674 21.5296 44.7042 21.2496C44.3408 20.9691 44.0436 20.5939 43.8125 20.1239C43.581 19.6539 43.4657 19.081 43.4657 18.4051C43.4657 17.5642 43.6678 16.8797 44.0726 16.3523C44.4771 15.8244 44.9849 15.4081 45.5961 15.103C46.207 14.7982 46.8676 14.5883 47.5779 14.4726C48.2878 14.3571 48.9404 14.2831 49.5348 14.2497C49.7331 14.2334 49.927 14.2249 50.117 14.2249H50.6496V13.7733C50.6496 13.1374 50.48 12.6857 50.1417 12.4183C49.803 12.1507 49.2538 12.0166 48.4944 12.0166C47.7842 12.0166 47.1524 12.1325 46.5994 12.3639C46.0459 12.5958 45.5051 12.8602 44.9768 13.158C44.7453 12.8768 44.5594 12.5668 44.4194 12.2275C44.279 11.8887 44.2089 11.6363 44.2089 11.4707C44.2089 11.2393 44.3366 11.016 44.5928 10.8008C44.8487 10.5861 45.1998 10.3914 45.6457 10.2177C46.0917 10.044 46.6033 9.9037 47.1816 9.79594C47.7594 9.6885 48.3706 9.63466 49.0147 9.63466C49.9065 9.63466 50.662 9.72578 51.2812 9.9076C51.9006 10.0898 52.4042 10.3709 52.7924 10.7512C53.1802 11.132 53.4569 11.6073 53.6222 12.1779C53.7871 12.7486 53.8699 13.4147 53.8699 14.1752V18.8398H53.8699ZM50.699 15.9616H50.3523C50.2364 15.9616 50.1207 15.9702 50.0054 15.9866C49.5924 16.0199 49.1836 16.0694 48.7793 16.1352C48.3744 16.2016 48.0152 16.3174 47.7017 16.4827C47.3878 16.6482 47.1319 16.8634 46.9338 17.1278C46.7356 17.3926 46.6365 17.7319 46.6365 18.1452C46.6365 18.6084 46.7685 19.001 47.0328 19.3237C47.2967 19.6463 47.7427 19.8076 48.3705 19.8076C48.684 19.8076 48.9814 19.7665 49.2623 19.6833C49.5429 19.601 49.7906 19.4934 50.0054 19.361C50.2199 19.2287 50.3894 19.084 50.5133 18.9266C50.6371 18.7697 50.699 18.6251 50.699 18.4926V15.9616H50.699ZM60.0377 11.0736C60.3009 10.7596 60.7127 10.441 61.2723 10.1183C61.832 9.79577 62.5399 9.6345 63.3961 9.6345C64.0054 9.6345 64.5856 9.73795 65.1373 9.94462C65.6884 10.1516 66.1784 10.4867 66.6065 10.9496C67.0346 11.4128 67.3761 12.025 67.6315 12.7856C67.8866 13.5467 68.0143 14.4815 68.0143 15.5894C68.0143 16.8796 67.866 17.9427 67.5697 18.7778C67.2732 19.6134 66.8907 20.2751 66.4217 20.7629C65.9525 21.2509 65.4295 21.5941 64.8536 21.7925C64.2773 21.991 63.7009 22.0904 63.125 22.0904C62.6474 22.0904 62.2316 22.0365 61.8779 21.9291C61.5237 21.8213 61.2234 21.7018 60.9764 21.5693C60.7295 21.4371 60.5403 21.305 60.4087 21.1723C60.2771 21.0401 60.1946 20.9489 60.1618 20.8992V26.9986H56.7927V9.98182C56.8756 9.96558 56.9755 9.94893 57.0923 9.93228C57.1923 9.91605 57.3087 9.90354 57.4418 9.89501C57.5749 9.88689 57.733 9.88266 57.9159 9.88266C58.4648 9.88266 58.9308 9.97378 59.3136 10.1556C59.6962 10.3378 59.9378 10.6437 60.0377 11.0736ZM64.4967 15.6638C64.4967 15.1676 64.4556 14.7047 64.3735 14.2744C64.2915 13.8445 64.156 13.4722 63.9671 13.1579C63.7783 12.8438 63.5235 12.5996 63.2034 12.4258C62.8829 12.2522 62.4932 12.1655 62.0337 12.1655C61.344 12.1655 60.8637 12.298 60.5926 12.5623C60.3218 12.8271 60.1863 13.1168 60.1863 13.4308V18.6911C60.3175 18.8236 60.5512 18.9805 60.888 19.1625C61.2248 19.3446 61.6145 19.4352 62.0581 19.4352C62.8956 19.4352 63.5114 19.1047 63.9055 18.4429C64.2997 17.7814 64.4967 16.8548 64.4967 15.6638ZM70.6145 19.9317C70.4987 19.601 70.4245 19.2534 70.3916 18.8895C70.3583 18.5257 70.342 18.1619 70.342 17.7975V6.2848C70.4574 6.26857 70.5813 6.25192 70.7136 6.23518C70.8288 6.21895 70.9527 6.20661 71.0851 6.19799C71.2171 6.18988 71.3491 6.18565 71.4814 6.18565C71.7454 6.18565 72.0099 6.2105 72.2742 6.26003C72.5381 6.30973 72.7777 6.40897 72.9927 6.55774C73.2071 6.70659 73.3804 6.90945 73.5128 7.16565C73.6448 7.42227 73.7109 7.75733 73.7109 8.1705V9.93212H77.1791V12.4383H73.7109V17.7295C73.7109 18.8833 74.1815 19.4601 75.123 19.4601C75.3541 19.4601 75.5727 19.4231 75.7794 19.3484C75.9858 19.2741 76.1715 19.1915 76.3368 19.1004C76.5018 19.0095 76.6464 18.9144 76.7703 18.8151C76.8942 18.7158 76.9809 18.6415 77.0303 18.5918C77.2781 18.956 77.4677 19.2712 77.6001 19.5371C77.7321 19.8034 77.7983 20.0533 77.7983 20.2869C77.7983 20.5041 77.7118 20.7172 77.5382 20.9257C77.3646 21.1343 77.1209 21.3267 76.8073 21.5019C76.4935 21.677 76.1139 21.8189 75.6679 21.9275C75.222 22.0361 74.7346 22.0905 74.2064 22.0905C73.1821 22.0905 72.3855 21.8918 71.8158 21.495C71.2461 21.0978 70.8454 20.5767 70.6145 19.9317ZM85.7116 19.609C86.1257 19.609 86.4903 19.5637 86.8055 19.4725C87.1202 19.3819 87.4019 19.2702 87.6505 19.1378C87.8989 19.0056 88.1146 18.8608 88.297 18.7036C88.4792 18.5465 88.6448 18.4018 88.7943 18.2692C88.9929 18.5172 89.2 18.8359 89.4156 19.2243C89.6309 19.6134 89.7387 19.9317 89.7387 20.1797C89.7387 20.5437 89.5321 20.8746 89.1196 21.1723C88.7727 21.4371 88.281 21.6645 87.6456 21.8545C87.0096 22.0446 86.2622 22.1398 85.4038 22.1398C84.6272 22.1398 83.8635 22.0407 83.1124 21.8421C82.3608 21.6437 81.6918 21.2963 81.1059 20.7999C80.5194 20.3039 80.0445 19.6382 79.6813 18.8027C79.318 17.9674 79.1364 16.9131 79.1364 15.6391C79.1364 14.5969 79.2975 13.6999 79.6193 12.947C79.9415 12.1945 80.3707 11.57 80.9078 11.0737C81.4441 10.5775 82.051 10.2138 82.7283 9.9819C83.4053 9.75055 84.0991 9.63458 84.8093 9.63458C85.734 9.63458 86.5184 9.77962 87.1624 10.0688C87.8067 10.3584 88.3306 10.7472 88.7355 11.235C89.1399 11.723 89.433 12.2813 89.6149 12.9098C89.7963 13.5386 89.8873 14.2 89.8873 14.8947V15.2421C89.8873 15.3748 89.8831 15.515 89.8749 15.6638C89.8665 15.8129 89.8584 15.9578 89.8503 16.0981C89.8417 16.239 89.8293 16.3505 89.8132 16.4331H82.5054C82.5716 17.343 82.8533 18.0996 83.3504 18.7036C83.8471 19.3075 84.6344 19.609 85.7116 19.609ZM86.8404 14.5721C86.8404 13.7781 86.6866 13.133 86.3794 12.6368C86.0721 12.1406 85.5196 11.8924 84.7228 11.8924C84.0414 11.8924 83.4976 12.1282 83.0908 12.5996C82.6836 13.0711 82.4806 13.7285 82.4806 14.572H86.8404V14.5721ZM95.7502 11.1363C95.8491 10.9887 95.9811 10.8247 96.1464 10.644C96.3113 10.4634 96.5138 10.2993 96.7534 10.1517C96.9926 10.004 97.2569 9.88068 97.5461 9.78227C97.8347 9.68378 98.1445 9.63458 98.4752 9.63458C98.6732 9.63458 98.8838 9.65123 99.1067 9.68378C99.3297 9.71675 99.5359 9.77838 99.7259 9.86833C99.9157 9.95871 100.069 10.0815 100.184 10.2374C100.3 10.3933 100.358 10.586 100.358 10.8155C100.358 11.1764 100.267 11.5909 100.085 12.0589C99.9033 12.5272 99.7219 12.9265 99.5403 13.2572C99.2592 13.0257 98.9785 12.8478 98.6979 12.7238C98.417 12.5998 98.0867 12.5376 97.707 12.5376C97.1951 12.5376 96.7658 12.687 96.4191 12.9854C96.072 13.284 95.8987 13.6406 95.8987 14.0554V22.0876H92.5299V9.98182C92.6123 9.96558 92.7113 9.94893 92.827 9.93228C92.9261 9.91605 93.0416 9.90354 93.1739 9.89501C93.3059 9.88689 93.4626 9.88266 93.6445 9.88266C94.1729 9.88266 94.6311 9.98529 95.0193 10.1901C95.4071 10.3947 95.6511 10.7103 95.7502 11.1363ZM105.329 11.1363C105.428 10.9887 105.56 10.8247 105.725 10.644C105.89 10.4634 106.092 10.2993 106.332 10.1517C106.571 10.004 106.835 9.88068 107.124 9.78227C107.413 9.68378 107.723 9.63458 108.053 9.63458C108.251 9.63458 108.462 9.65123 108.685 9.68378C108.908 9.71675 109.114 9.77838 109.304 9.86833C109.494 9.95871 109.647 10.0815 109.763 10.2374C109.878 10.3933 109.936 10.586 109.936 10.8155C109.936 11.1764 109.845 11.5909 109.664 12.0589C109.482 12.5272 109.3 12.9265 109.119 13.2572C108.838 13.0257 108.557 12.8478 108.276 12.7238C107.995 12.5998 107.665 12.5376 107.285 12.5376C106.774 12.5376 106.344 12.687 105.997 12.9854C105.651 13.284 105.477 13.6406 105.477 14.0554V22.0876H102.108V9.98182C102.191 9.96558 102.29 9.94893 102.406 9.93228C102.505 9.91605 102.62 9.90354 102.752 9.89501C102.884 9.88689 103.041 9.88266 103.223 9.88266C103.751 9.88266 104.21 9.98529 104.598 10.1901C104.985 10.3947 105.229 10.7103 105.329 11.1363ZM121.406 18.8398C121.406 20.1466 121.595 21.0978 121.975 21.6933C121.678 21.8088 121.401 21.8917 121.146 21.9413C120.889 21.991 120.621 22.0157 120.34 22.0157C119.746 22.0157 119.296 21.8999 118.99 21.6683C118.685 21.437 118.491 21.1062 118.408 20.6758C118.045 21.0567 117.566 21.3791 116.971 21.6438C116.377 21.908 115.65 22.0407 114.792 22.0407C114.346 22.0407 113.9 21.9787 113.454 21.8555C113.008 21.7312 112.603 21.5296 112.24 21.2496C111.877 20.9691 111.579 20.5939 111.348 20.1239C111.117 19.6539 111.002 19.081 111.002 18.4051C111.002 17.5642 111.203 16.8797 111.608 16.3523C112.013 15.8244 112.521 15.4081 113.132 15.103C113.743 14.7982 114.403 14.5883 115.114 14.4726C115.823 14.3571 116.476 14.2831 117.071 14.2497C117.269 14.2334 117.463 14.2249 117.653 14.2249H118.185V13.7733C118.185 13.1374 118.016 12.6857 117.677 12.4183C117.339 12.1507 116.79 12.0166 116.03 12.0166C115.32 12.0166 114.688 12.1325 114.135 12.3639C113.582 12.5958 113.041 12.8602 112.513 13.158C112.281 12.8768 112.095 12.5668 111.955 12.2275C111.815 11.8887 111.745 11.6363 111.745 11.4707C111.745 11.2393 111.872 11.016 112.129 10.8008C112.385 10.5861 112.736 10.3914 113.181 10.2177C113.627 10.044 114.139 9.9037 114.717 9.79594C115.295 9.6885 115.906 9.63466 116.55 9.63466C117.442 9.63466 118.198 9.72578 118.817 9.9076C119.436 10.0898 119.94 10.3709 120.328 10.7512C120.716 11.132 120.992 11.6073 121.158 12.1779C121.323 12.7486 121.406 13.4147 121.406 14.1752V18.8398ZM118.235 15.9616H117.888C117.772 15.9616 117.657 15.9702 117.541 15.9866C117.128 16.0199 116.719 16.0694 116.315 16.1352C115.91 16.2016 115.551 16.3174 115.237 16.4827C114.924 16.6482 114.668 16.8634 114.469 17.1278C114.271 17.3926 114.172 17.7319 114.172 18.1452C114.172 18.6084 114.304 19.001 114.569 19.3237C114.833 19.6463 115.279 19.8076 115.906 19.8076C116.22 19.8076 116.517 19.7665 116.798 19.6833C117.079 19.601 117.326 19.4934 117.541 19.361C117.756 19.2287 117.925 19.084 118.049 18.9266C118.173 18.7697 118.235 18.6251 118.235 18.4926V15.9616H118.235Z" fill="#044D80"/>
</svg>
