<svg width="50" height="50" viewBox="0 0 50 50" fill="none" xmlns="http://www.w3.org/2000/svg">
<circle cx="25" cy="25" r="25" fill="url(#paint0_linear)"/>
<circle cx="24.9996" cy="25.0001" r="23.9547" fill="url(#paint1_linear)"/>
<path d="M25 47C20.6488 47 16.3953 45.7097 12.7775 43.2923C9.15958 40.8749 6.33979 37.439 4.67466 33.419C3.00953 29.3991 2.57386 24.9756 3.42273 20.708C4.27161 16.4404 6.3669 12.5204 9.44366 9.44366C12.5204 6.3669 16.4404 4.27161 20.708 3.42273C24.9756 2.57386 29.3991 3.00953 33.419 4.67466C37.439 6.33979 40.8749 9.15958 43.2923 12.7775C45.7097 16.3953 47 20.6488 47 25C46.9933 30.8327 44.6734 36.4246 40.549 40.549C36.4246 44.6734 30.8327 46.9933 25 47V47ZM25 4.25715C20.8975 4.25715 16.887 5.4737 13.4759 7.75295C10.0647 10.0322 7.40609 13.2718 5.83611 17.0621C4.26613 20.8523 3.85535 25.023 4.65572 29.0467C5.45609 33.0705 7.43165 36.7665 10.3326 39.6674C13.2335 42.5684 16.9296 44.5439 20.9533 45.3443C24.977 46.1447 29.1477 45.7339 32.9379 44.1639C36.7282 42.5939 39.9678 39.9353 42.2471 36.5241C44.5263 33.113 45.7429 29.1026 45.7429 25C45.7367 19.5005 43.5493 14.2281 39.6606 10.3394C35.7719 6.45069 30.4995 4.26331 25 4.25715V4.25715Z" fill="white"/>
<path d="M31.4459 39.7212L31.7001 40.5037L32.5229 40.5037L31.8573 40.9873L32.1115 41.7697L31.4459 41.2861L30.7803 41.7697L31.0345 40.9873L30.3689 40.5037L31.1916 40.5037L31.4459 39.7212Z" fill="#BAD5C9"/>
<path d="M22.6515 42.3345H20.7838V41.964L21.6652 41.0245C21.7862 40.8923 21.8755 40.7769 21.9328 40.6783C21.9915 40.5797 22.0208 40.4862 22.0208 40.3976C22.0208 40.2766 21.9902 40.1817 21.9291 40.1131C21.868 40.0433 21.7806 40.0083 21.6671 40.0083C21.5448 40.0083 21.4481 40.0507 21.377 40.1356C21.3071 40.2192 21.2722 40.3296 21.2722 40.4668H20.7295C20.7295 40.3009 20.7688 40.1493 20.8474 40.0121C20.9272 39.8748 21.0395 39.7675 21.1843 39.6902C21.329 39.6116 21.493 39.5723 21.6765 39.5723C21.9572 39.5723 22.1749 39.6396 22.3296 39.7744C22.4855 39.9091 22.5635 40.0994 22.5635 40.3452C22.5635 40.4799 22.5286 40.6172 22.4587 40.7569C22.3889 40.8966 22.2691 41.0595 22.0994 41.2454L21.4799 41.8985H22.6515V42.3345Z" fill="white"/>
<path d="M24.8186 41.2079C24.8186 41.5847 24.7407 41.8729 24.5847 42.0725C24.4287 42.2722 24.2004 42.372 23.8997 42.372C23.6028 42.372 23.3757 42.274 23.2185 42.0782C23.0613 41.8823 22.9809 41.6016 22.9771 41.236V40.7344C22.9771 40.3539 23.0557 40.0651 23.2129 39.868C23.3714 39.6708 23.5991 39.5723 23.896 39.5723C24.1929 39.5723 24.42 39.6702 24.5772 39.8661C24.7344 40.0607 24.8149 40.3408 24.8186 40.7064V41.2079ZM24.2778 40.6577C24.2778 40.4319 24.2466 40.2678 24.1842 40.1655C24.1231 40.062 24.027 40.0102 23.896 40.0102C23.7687 40.0102 23.6745 40.0595 23.6134 40.158C23.5535 40.2553 23.5217 40.4082 23.518 40.6165V41.279C23.518 41.5011 23.5479 41.6664 23.6078 41.775C23.6689 41.8823 23.7663 41.9359 23.8997 41.9359C24.032 41.9359 24.1274 41.8841 24.1861 41.7806C24.2447 41.677 24.2753 41.5186 24.2778 41.3052V40.6577Z" fill="white"/>
<path d="M27.0532 42.3345H25.1854V41.964L26.0669 41.0245C26.1879 40.8923 26.2771 40.7769 26.3345 40.6783C26.3932 40.5797 26.4225 40.4862 26.4225 40.3976C26.4225 40.2766 26.3919 40.1817 26.3308 40.1131C26.2696 40.0433 26.1823 40.0083 26.0688 40.0083C25.9465 40.0083 25.8498 40.0507 25.7787 40.1356C25.7088 40.2192 25.6739 40.3296 25.6739 40.4668H25.1312C25.1312 40.3009 25.1705 40.1493 25.2491 40.0121C25.3289 39.8748 25.4412 39.7675 25.5859 39.6902C25.7307 39.6116 25.8947 39.5723 26.0781 39.5723C26.3588 39.5723 26.5766 39.6396 26.7313 39.7744C26.8872 39.9091 26.9652 40.0994 26.9652 40.3452C26.9652 40.4799 26.9303 40.6172 26.8604 40.7569C26.7905 40.8966 26.6708 41.0595 26.5011 41.2454L25.8816 41.8985H27.0532V42.3345Z" fill="white"/>
<path d="M29.2203 41.2079C29.2203 41.5847 29.1423 41.8729 28.9864 42.0725C28.8304 42.2722 28.6021 42.372 28.3014 42.372C28.0045 42.372 27.7774 42.274 27.6202 42.0782C27.463 41.8823 27.3825 41.6016 27.3788 41.236V40.7344C27.3788 40.3539 27.4574 40.0651 27.6146 39.868C27.773 39.6708 28.0007 39.5723 28.2977 39.5723C28.5946 39.5723 28.8217 39.6702 28.9789 39.8661C29.1361 40.0607 29.2166 40.3408 29.2203 40.7064V41.2079ZM28.6795 40.6577C28.6795 40.4319 28.6483 40.2678 28.5859 40.1655C28.5248 40.062 28.4287 40.0102 28.2977 40.0102C28.1704 40.0102 28.0762 40.0595 28.0151 40.158C27.9552 40.2553 27.9234 40.4082 27.9196 40.6165V41.279C27.9196 41.5011 27.9496 41.6664 28.0095 41.775C28.0706 41.8823 28.1679 41.9359 28.3014 41.9359C28.4337 41.9359 28.5291 41.8841 28.5878 41.7806C28.6464 41.677 28.677 41.5186 28.6795 41.3052V40.6577Z" fill="white"/>
<path d="M18.5533 39.7212L18.8075 40.5037L19.6303 40.5037L18.9647 40.9873L19.2189 41.7697L18.5533 41.2861L17.8877 41.7697L18.1419 40.9873L17.4763 40.5037L18.2991 40.5037L18.5533 39.7212Z" fill="#BAD5C9"/>
<path d="M12.3222 37.4357H11.9813V36.7816H11.3165V37.4357H10.9756V35.9096H11.3165V36.528H11.9813V35.9096H12.3222V37.4357Z" fill="white"/>
<path d="M12.9836 37.4357H12.6427V35.9096H12.9836V37.4357Z" fill="white"/>
<path d="M14.6098 37.2428C14.5484 37.3106 14.4617 37.3633 14.3496 37.4011C14.2375 37.4381 14.1132 37.4566 13.9768 37.4566C13.8336 37.4566 13.7079 37.428 13.5995 37.3707C13.492 37.3127 13.4086 37.2288 13.3495 37.1191C13.2912 37.0094 13.2613 36.8805 13.2598 36.7324V36.6286C13.2598 36.4763 13.2874 36.3446 13.3427 36.2335C13.3988 36.1217 13.4791 36.0365 13.5836 35.9778C13.6889 35.9184 13.8121 35.8887 13.953 35.8887C14.1492 35.8887 14.3026 35.932 14.4132 36.0186C14.5238 36.1046 14.5894 36.23 14.6098 36.3949H14.278C14.2628 36.3076 14.2291 36.2436 14.1768 36.2031C14.1253 36.1626 14.0541 36.1423 13.9632 36.1423C13.8473 36.1423 13.759 36.1825 13.6984 36.2628C13.6378 36.3432 13.6071 36.4627 13.6064 36.6213V36.7188C13.6064 36.8788 13.6393 36.9996 13.7052 37.0814C13.7711 37.1632 13.8677 37.204 13.995 37.204C14.1231 37.204 14.2143 37.1789 14.2689 37.1286V36.8655H13.9587V36.6339H14.6098V37.2428Z" fill="white"/>
<path d="M16.2337 37.4357H15.8928V36.7816H15.228V37.4357H14.8871V35.9096H15.228V36.528H15.8928V35.9096H16.2337V37.4357Z" fill="white"/>
<path d="M18.3645 35.9096V36.9148C18.3645 37.0817 18.3077 37.2138 18.194 37.3109C18.0812 37.4081 17.9266 37.4566 17.7304 37.4566C17.5372 37.4566 17.3838 37.4095 17.2701 37.3151C17.1565 37.2208 17.0985 37.0912 17.0963 36.9263V35.9096H17.4372V36.9168C17.4372 37.0168 17.463 37.0898 17.5145 37.1359C17.5667 37.1813 17.6387 37.204 17.7304 37.204C17.9221 37.204 18.0194 37.1111 18.0224 36.9252V35.9096H18.3645Z" fill="white"/>
<path d="M19.502 37.0353C19.502 36.9759 19.4793 36.9305 19.4339 36.899C19.3884 36.8669 19.3066 36.8334 19.1884 36.7984C19.0702 36.7628 18.9766 36.7278 18.9077 36.6936C18.7198 36.6 18.6259 36.4739 18.6259 36.3152C18.6259 36.2328 18.6509 36.1594 18.7009 36.0951C18.7516 36.0302 18.824 35.9795 18.9179 35.9432C19.0126 35.9068 19.1187 35.8887 19.2361 35.8887C19.3543 35.8887 19.4596 35.9086 19.552 35.9484C19.6445 35.9875 19.7161 36.0431 19.7668 36.1151C19.8183 36.187 19.8441 36.2688 19.8441 36.3603H19.5032C19.5032 36.2904 19.4793 36.2363 19.4316 36.1979C19.3839 36.1587 19.3168 36.1392 19.2304 36.1392C19.1471 36.1392 19.0823 36.1556 19.0361 36.1884C18.9899 36.2206 18.9668 36.2632 18.9668 36.3163C18.9668 36.3659 18.9937 36.4075 19.0475 36.441C19.102 36.4746 19.182 36.506 19.2873 36.5353C19.4812 36.5891 19.6225 36.6559 19.7111 36.7355C19.7998 36.8152 19.8441 36.9144 19.8441 37.0332C19.8441 37.1652 19.7899 37.269 19.6816 37.3445C19.5733 37.4192 19.4274 37.4566 19.2441 37.4566C19.1168 37.4566 19.0009 37.4353 18.8963 37.3927C18.7918 37.3494 18.7119 37.2903 18.6566 37.2156C18.602 37.1408 18.5747 37.0541 18.5747 36.9556H18.9168C18.9168 37.124 19.0259 37.2082 19.2441 37.2082C19.3251 37.2082 19.3884 37.1932 19.4339 37.1632C19.4793 37.1324 19.502 37.0898 19.502 37.0353Z" fill="white"/>
<path d="M21.0714 36.7743H20.4168V37.1831H21.1851V37.4357H20.0759V35.9096H21.1828V36.1643H20.4168V36.528H21.0714V36.7743Z" fill="white"/>
<path d="M21.9976 36.877H21.726V37.4357H21.3851V35.9096H21.9999C22.1953 35.9096 22.3461 35.9498 22.4522 36.0302C22.5582 36.1105 22.6112 36.2241 22.6112 36.3708C22.6112 36.4749 22.5866 36.5619 22.5374 36.6318C22.4889 36.7009 22.415 36.7561 22.3158 36.7974L22.6738 37.421V37.4357H22.3078L21.9976 36.877ZM21.726 36.6223H22.001C22.0866 36.6223 22.1529 36.6024 22.1999 36.5626C22.2468 36.5221 22.2703 36.4665 22.2703 36.3959C22.2703 36.324 22.248 36.2674 22.2033 36.2262C22.1593 36.1849 22.0915 36.1643 21.9999 36.1643H21.726V36.6223Z" fill="white"/>
<path d="M24.309 37.0353C24.309 36.9759 24.2863 36.9305 24.2409 36.899C24.1954 36.8669 24.1136 36.8334 23.9954 36.7984C23.8772 36.7628 23.7836 36.7278 23.7147 36.6936C23.5268 36.6 23.4329 36.4739 23.4329 36.3152C23.4329 36.2328 23.4579 36.1594 23.5079 36.0951C23.5586 36.0302 23.631 35.9795 23.7249 35.9432C23.8196 35.9068 23.9257 35.8887 24.0431 35.8887C24.1613 35.8887 24.2666 35.9086 24.359 35.9484C24.4515 35.9875 24.5231 36.0431 24.5738 36.1151C24.6253 36.187 24.6511 36.2688 24.6511 36.3603H24.3102C24.3102 36.2904 24.2863 36.2363 24.2386 36.1979C24.1909 36.1587 24.1238 36.1392 24.0374 36.1392C23.9541 36.1392 23.8893 36.1556 23.8431 36.1884C23.7969 36.2206 23.7738 36.2632 23.7738 36.3163C23.7738 36.3659 23.8007 36.4075 23.8545 36.441C23.909 36.4746 23.989 36.506 24.0943 36.5353C24.2882 36.5891 24.4295 36.6559 24.5181 36.7355C24.6068 36.8152 24.6511 36.9144 24.6511 37.0332C24.6511 37.1652 24.5969 37.269 24.4886 37.3445C24.3803 37.4192 24.2344 37.4566 24.0511 37.4566C23.9238 37.4566 23.8079 37.4353 23.7033 37.3927C23.5988 37.3494 23.5189 37.2903 23.4636 37.2156C23.409 37.1408 23.3817 37.0541 23.3817 36.9556H23.7238C23.7238 37.124 23.8329 37.2082 24.0511 37.2082C24.1321 37.2082 24.1954 37.1932 24.2409 37.1632C24.2863 37.1324 24.309 37.0898 24.309 37.0353Z" fill="white"/>
<path d="M25.8171 37.1212H25.2193L25.1057 37.4357H24.7431L25.3591 35.9096H25.675L26.2943 37.4357H25.9318L25.8171 37.1212ZM25.3114 36.8665H25.725L25.517 36.2953L25.3114 36.8665Z" fill="white"/>
<path d="M27.558 36.1643H27.0512V37.4357H26.7103V36.1643H26.2102V35.9096H27.558V36.1643Z" fill="white"/>
<path d="M28.116 37.4357H27.7751V35.9096H28.116V37.4357Z" fill="white"/>
<path d="M29.291 37.0353C29.291 36.9759 29.2683 36.9305 29.2229 36.899C29.1774 36.8669 29.0956 36.8334 28.9774 36.7984C28.8592 36.7628 28.7656 36.7278 28.6967 36.6936C28.5088 36.6 28.4149 36.4739 28.4149 36.3152C28.4149 36.2328 28.4399 36.1594 28.4899 36.0951C28.5406 36.0302 28.613 35.9795 28.7069 35.9432C28.8016 35.9068 28.9077 35.8887 29.0251 35.8887C29.1433 35.8887 29.2486 35.9086 29.341 35.9484C29.4335 35.9875 29.5051 36.0431 29.5558 36.1151C29.6073 36.187 29.6331 36.2688 29.6331 36.3603H29.2922C29.2922 36.2904 29.2683 36.2363 29.2206 36.1979C29.1729 36.1587 29.1058 36.1392 29.0194 36.1392C28.9361 36.1392 28.8713 36.1556 28.8251 36.1884C28.7789 36.2206 28.7558 36.2632 28.7558 36.3163C28.7558 36.3659 28.7827 36.4075 28.8365 36.441C28.891 36.4746 28.971 36.506 29.0763 36.5353C29.2702 36.5891 29.4115 36.6559 29.5001 36.7355C29.5888 36.8152 29.6331 36.9144 29.6331 37.0332C29.6331 37.1652 29.5789 37.269 29.4706 37.3445C29.3623 37.4192 29.2164 37.4566 29.0331 37.4566C28.9058 37.4566 28.7899 37.4353 28.6853 37.3927C28.5808 37.3494 28.5009 37.2903 28.4456 37.2156C28.391 37.1408 28.3637 37.0541 28.3637 36.9556H28.7058C28.7058 37.124 28.8149 37.2082 29.0331 37.2082C29.1141 37.2082 29.1774 37.1932 29.2229 37.1632C29.2683 37.1324 29.291 37.0898 29.291 37.0353Z" fill="white"/>
<path d="M30.8604 36.812H30.2059V37.4357H29.8649V35.9096H30.9422V36.1643H30.2059V36.5584H30.8604V36.812Z" fill="white"/>
<path d="M31.8559 37.1212H31.2582L31.1445 37.4357H30.782L31.3979 35.9096H31.7139L32.3332 37.4357H31.9707L31.8559 37.1212ZM31.3502 36.8665H31.7639L31.5559 36.2953L31.3502 36.8665Z" fill="white"/>
<path d="M33.7617 36.9273C33.7488 37.0915 33.6829 37.2208 33.5639 37.3151C33.4457 37.4095 33.2897 37.4566 33.0957 37.4566C32.8836 37.4566 32.7166 37.3909 32.5946 37.2596C32.4734 37.1275 32.4128 36.9465 32.4128 36.7167V36.6234C32.4128 36.4767 32.4408 36.3474 32.4968 36.2356C32.5529 36.1238 32.6328 36.0382 32.7366 35.9788C32.8412 35.9187 32.9624 35.8887 33.1003 35.8887C33.2912 35.8887 33.445 35.9358 33.5617 36.0302C33.6783 36.1245 33.7458 36.2569 33.7639 36.4274H33.423C33.4147 36.3289 33.3848 36.2576 33.3332 36.2136C33.2825 36.1689 33.2048 36.1465 33.1003 36.1465C32.9866 36.1465 32.9014 36.1842 32.8446 36.2597C32.7885 36.3345 32.7597 36.4508 32.7582 36.6087V36.724C32.7582 36.8889 32.7851 37.0094 32.8389 37.0856C32.8935 37.1618 32.9791 37.1998 33.0957 37.1998C33.201 37.1998 33.2795 37.1778 33.331 37.1338C33.3832 37.0891 33.4132 37.0203 33.4207 36.9273H33.7617Z" fill="white"/>
<path d="M35.1969 36.1643H34.6901V37.4357H34.3492V36.1643H33.8492V35.9096H35.1969V36.1643Z" fill="white"/>
<path d="M35.7549 37.4357H35.414V35.9096H35.7549V37.4357Z" fill="white"/>
<path d="M37.4311 36.7072C37.4311 36.8575 37.4023 36.9892 37.3448 37.1024C37.2872 37.2156 37.2046 37.3029 37.097 37.3644C36.9902 37.4259 36.8675 37.4566 36.7288 37.4566C36.5917 37.4566 36.4693 37.4262 36.3618 37.3654C36.2542 37.3046 36.1708 37.218 36.1118 37.1055C36.0527 36.9923 36.0227 36.8623 36.022 36.7156V36.6402C36.022 36.4899 36.0511 36.3579 36.1095 36.244C36.1686 36.1294 36.2515 36.0417 36.3584 35.9809C36.4659 35.9194 36.5887 35.8887 36.7266 35.8887C36.8644 35.8887 36.9868 35.9194 37.0936 35.9809C37.2012 36.0417 37.2841 36.1294 37.3425 36.244C37.4016 36.3579 37.4311 36.4896 37.4311 36.6391V36.7072ZM37.0857 36.6381C37.0857 36.478 37.0546 36.3565 36.9925 36.2733C36.9303 36.1902 36.8417 36.1486 36.7266 36.1486C36.6122 36.1486 36.5239 36.1898 36.4618 36.2723C36.3996 36.354 36.3682 36.4742 36.3674 36.6328V36.7072C36.3674 36.863 36.3985 36.9839 36.4606 37.0699C36.5228 37.1558 36.6122 37.1988 36.7288 37.1988C36.8432 37.1988 36.9311 37.1576 36.9925 37.0751C37.0538 36.992 37.0849 36.8711 37.0857 36.7125V36.6381Z" fill="white"/>
<path d="M39.0244 37.4357H38.6834L38.0198 36.4316V37.4357H37.6789V35.9096H38.0198L38.6846 36.9158V35.9096H39.0244V37.4357Z" fill="white"/>
<path d="M18.0107 26.505V29.9314C18.0107 30.5006 17.832 30.9508 17.4748 31.2819C17.1199 31.6129 16.634 31.7785 16.0171 31.7785C15.4097 31.7785 14.9274 31.6177 14.5701 31.2962C14.2128 30.9746 14.0306 30.5328 14.0234 29.9707V26.505H15.0953V29.9385C15.0953 30.2791 15.1763 30.528 15.3382 30.6852C15.5026 30.84 15.7288 30.9174 16.0171 30.9174C16.6197 30.9174 16.9257 30.6007 16.9353 29.9671V26.505H18.0107Z" fill="white"/>
<path d="M21.587 30.3422C21.587 30.1398 21.5156 29.9849 21.3727 29.8778C21.2298 29.7682 20.9725 29.6539 20.6009 29.5348C20.2294 29.4133 19.9352 29.2942 19.7185 29.1775C19.1278 28.8583 18.8324 28.4284 18.8324 27.8877C18.8324 27.6067 18.911 27.3566 19.0682 27.1374C19.2278 26.9159 19.4553 26.7432 19.7506 26.6194C20.0484 26.4955 20.3818 26.4336 20.751 26.4336C21.1226 26.4336 21.4536 26.5015 21.7442 26.6372C22.0348 26.7706 22.2599 26.96 22.4195 27.2053C22.5815 27.4506 22.6624 27.7293 22.6624 28.0413H21.5906C21.5906 27.8032 21.5156 27.6186 21.3655 27.4876C21.2155 27.3542 21.0047 27.2875 20.7331 27.2875C20.4711 27.2875 20.2675 27.3435 20.1222 27.4554C19.9769 27.565 19.9042 27.7103 19.9042 27.8913C19.9042 28.0604 19.9888 28.2021 20.1579 28.3165C20.3294 28.4308 20.5807 28.538 20.9118 28.638C21.5215 28.8214 21.9657 29.0489 22.2444 29.3204C22.5231 29.5919 22.6624 29.9302 22.6624 30.3351C22.6624 30.7853 22.4921 31.139 22.1515 31.3962C21.8109 31.6511 21.3524 31.7785 20.776 31.7785C20.3759 31.7785 20.0114 31.7058 19.6827 31.5605C19.354 31.4129 19.1028 31.2116 18.9289 30.9567C18.7574 30.7019 18.6716 30.4065 18.6716 30.0707H19.747C19.747 30.6447 20.09 30.9317 20.776 30.9317C21.0309 30.9317 21.2298 30.8805 21.3727 30.7781C21.5156 30.6733 21.587 30.528 21.587 30.3422Z" fill="white"/>
<path d="M26.5211 29.4526H24.4631V30.846H26.8783V31.707H23.3913V26.505H26.8712V27.3732H24.4631V28.613H26.5211V29.4526Z" fill="white"/>
<path d="M29.4329 29.8027H28.579V31.707H27.5071V26.505H29.44C30.0545 26.505 30.5285 26.642 30.862 26.9159C31.1955 27.1898 31.3622 27.5769 31.3622 28.0771C31.3622 28.432 31.2848 28.7285 31.13 28.9667C30.9775 29.2025 30.7453 29.3907 30.4333 29.5312L31.5587 31.657V31.707H30.4083L29.4329 29.8027ZM28.579 28.9345H29.4436C29.7127 28.9345 29.9212 28.8667 30.0688 28.7309C30.2165 28.5927 30.2903 28.4034 30.2903 28.1628C30.2903 27.9175 30.2201 27.7246 30.0796 27.584C29.9414 27.4435 29.7282 27.3732 29.44 27.3732H28.579V28.9345Z" fill="white"/>
<path d="M34.8778 30.3422C34.8778 30.1398 34.8064 29.9849 34.6634 29.8778C34.5205 29.7682 34.2633 29.6539 33.8917 29.5348C33.5202 29.4133 33.226 29.2942 33.0092 29.1775C32.4185 28.8583 32.1232 28.4284 32.1232 27.8877C32.1232 27.6067 32.2018 27.3566 32.359 27.1374C32.5186 26.9159 32.746 26.7432 33.0414 26.6194C33.3391 26.4955 33.6726 26.4336 34.0418 26.4336C34.4133 26.4336 34.7444 26.5015 35.035 26.6372C35.3256 26.7706 35.5507 26.96 35.7103 27.2053C35.8722 27.4506 35.9532 27.7293 35.9532 28.0413H34.8814C34.8814 27.8032 34.8064 27.6186 34.6563 27.4876C34.5062 27.3542 34.2954 27.2875 34.0239 27.2875C33.7619 27.2875 33.5583 27.3435 33.413 27.4554C33.2677 27.565 33.195 27.7103 33.195 27.8913C33.195 28.0604 33.2796 28.2021 33.4487 28.3165C33.6202 28.4308 33.8715 28.538 34.2026 28.638C34.8123 28.8214 35.2565 29.0489 35.5352 29.3204C35.8139 29.5919 35.9532 29.9302 35.9532 30.3351C35.9532 30.7853 35.7829 31.139 35.4423 31.3962C35.1017 31.6511 34.6432 31.7785 34.0668 31.7785C33.6666 31.7785 33.3022 31.7058 32.9735 31.5605C32.6448 31.4129 32.3935 31.2116 32.2197 30.9567C32.0482 30.7019 31.9624 30.4065 31.9624 30.0707H33.0378C33.0378 30.6447 33.3808 30.9317 34.0668 30.9317C34.3216 30.9317 34.5205 30.8805 34.6634 30.7781C34.8064 30.6733 34.8778 30.528 34.8778 30.3422Z" fill="white"/>
<path d="M12.2523 24.042H11.1805V21.8126H9.09039V24.042H8.01855V18.84H9.09039V20.948H11.1805V18.84H12.2523V24.042Z" fill="white"/>
<path d="M16.1931 22.9702H14.3138L13.9565 24.042H12.8168L14.7533 18.84H15.7465L17.6937 24.042H16.5539L16.1931 22.9702ZM14.6032 22.102H15.9037L15.2499 20.1548L14.6032 22.102Z" fill="white"/>
<path d="M19.2514 22.2092V24.042H18.1796V18.84H20.2089C20.5995 18.84 20.9425 18.9115 21.2379 19.0544C21.5356 19.1973 21.7643 19.4009 21.9239 19.6653C22.0834 19.9273 22.1632 20.2263 22.1632 20.5621C22.1632 21.0718 21.9882 21.4743 21.638 21.7697C21.2903 22.0627 20.808 22.2092 20.191 22.2092H19.2514ZM19.2514 21.341H20.2089C20.4924 21.341 20.7079 21.2743 20.8556 21.1409C21.0056 21.0075 21.0807 20.817 21.0807 20.5692C21.0807 20.3144 21.0056 20.1084 20.8556 19.9511C20.7055 19.7939 20.4983 19.713 20.2339 19.7082H19.2514V21.341Z" fill="white"/>
<path d="M23.9746 22.2092V24.042H22.9028V18.84H24.9321C25.3228 18.84 25.6658 18.9115 25.9611 19.0544C26.2588 19.1973 26.4875 19.4009 26.6471 19.6653C26.8067 19.9273 26.8865 20.2263 26.8865 20.5621C26.8865 21.0718 26.7114 21.4743 26.3613 21.7697C26.0135 22.0627 25.5312 22.2092 24.9143 22.2092H23.9746ZM23.9746 21.341H24.9321C25.2156 21.341 25.4311 21.2743 25.5788 21.1409C25.7289 21.0075 25.8039 20.817 25.8039 20.5692C25.8039 20.3144 25.7289 20.1084 25.5788 19.9511C25.4288 19.7939 25.2215 19.713 24.9572 19.7082H23.9746V21.341Z" fill="white"/>
<path d="M28.7657 24.042H27.6939V18.84H28.7657V24.042Z" fill="white"/>
<path d="M32.8923 21.7876H30.8344V23.181H33.2496V24.042H29.7626V18.84H33.2425V19.7082H30.8344V20.948H32.8923V21.7876Z" fill="white"/>
<path d="M36.5759 22.6772C36.5759 22.4747 36.5044 22.3199 36.3615 22.2127C36.2186 22.1032 35.9613 21.9888 35.5898 21.8697C35.2182 21.7483 34.924 21.6292 34.7073 21.5125C34.1166 21.1933 33.8212 20.7634 33.8212 20.2227C33.8212 19.9416 33.8998 19.6915 34.057 19.4724C34.2166 19.2509 34.4441 19.0782 34.7394 18.9543C35.0372 18.8305 35.3706 18.7686 35.7398 18.7686C36.1114 18.7686 36.4425 18.8364 36.7331 18.9722C37.0237 19.1056 37.2487 19.2949 37.4083 19.5403C37.5703 19.7856 37.6513 20.0643 37.6513 20.3763H36.5794C36.5794 20.1381 36.5044 19.9535 36.3543 19.8225C36.2043 19.6891 35.9935 19.6225 35.722 19.6225C35.46 19.6225 35.2563 19.6784 35.111 19.7904C34.9657 19.8999 34.8931 20.0452 34.8931 20.2263C34.8931 20.3954 34.9776 20.5371 35.1467 20.6514C35.3182 20.7657 35.5695 20.8729 35.9006 20.973C36.5104 21.1564 36.9546 21.3838 37.2333 21.6554C37.5119 21.9269 37.6513 22.2651 37.6513 22.67C37.6513 23.1202 37.481 23.4739 37.1404 23.7312C36.7998 23.986 36.3412 24.1134 35.7648 24.1134C35.3647 24.1134 35.0003 24.0408 34.6716 23.8955C34.3429 23.7478 34.0916 23.5466 33.9177 23.2917C33.7462 23.0368 33.6605 22.7415 33.6605 22.4057H34.7359C34.7359 22.9797 35.0789 23.2667 35.7648 23.2667C36.0197 23.2667 36.2186 23.2155 36.3615 23.1131C36.5044 23.0083 36.5759 22.863 36.5759 22.6772Z" fill="white"/>
<path d="M42.2959 19.7082H40.7024V24.042H39.6306V19.7082H38.0586V18.84H42.2959V19.7082Z" fill="white"/>
<path d="M18.1782 13.9142H18.6043C18.5417 14.1528 18.4224 14.3346 18.2464 14.4596C18.0704 14.59 17.8488 14.6552 17.5817 14.6552C17.2578 14.6552 17.0051 14.5501 16.8235 14.34C16.6415 14.1351 16.5506 13.8425 16.5508 13.4622C16.5508 13.0986 16.6388 12.8146 16.8148 12.6101C16.9966 12.4 17.2494 12.2949 17.5733 12.2949C17.9142 12.2949 18.1783 12.3974 18.3657 12.6022C18.4689 12.7299 18.5441 12.8778 18.5864 13.0364H17.9907C17.9691 12.9897 17.9404 12.9466 17.9055 12.9087C17.831 12.8292 17.726 12.7894 17.5904 12.7894C17.5337 12.7872 17.4772 12.7967 17.4243 12.8172C17.3715 12.8377 17.3234 12.8689 17.2831 12.9087C17.1808 13.0225 17.1297 13.21 17.1297 13.4711C17.1297 13.7323 17.1808 13.9168 17.2831 14.0249C17.3576 14.116 17.4683 14.1614 17.6152 14.1612C17.7015 14.1638 17.7869 14.1432 17.8625 14.1014C17.8803 14.0955 17.8964 14.0854 17.9094 14.0718L17.9561 14.0249C17.9758 13.9993 17.9987 13.9764 18.0243 13.9567C18.0589 13.9282 18.1114 13.9142 18.1782 13.9142Z" fill="white"/>
<path d="M18.6973 14.6126V13.5132C18.6973 13.2915 18.7299 13.1053 18.7951 12.9544C18.8532 12.8131 18.9455 12.6883 19.0635 12.5912C19.176 12.5038 19.305 12.4401 19.4427 12.4037C19.5883 12.364 19.7387 12.344 19.8897 12.3442H19.9749V12.9508H19.7793C19.6145 12.9508 19.4924 12.9906 19.4131 13.0701C19.3337 13.1496 19.2939 13.2746 19.2938 13.445V14.6126H18.6973Z" fill="white"/>
<path d="M20.3178 14.4081C20.1938 14.2984 20.1049 14.1546 20.0622 13.9946C20.0107 13.819 19.9848 13.6368 19.9854 13.4538C19.9856 13.2982 20.0071 13.1434 20.0493 12.9936C20.0856 12.852 20.1542 12.7207 20.2497 12.61C20.3949 12.4408 20.5988 12.3327 20.8204 12.3074C21.0535 12.2765 21.2636 12.2951 21.451 12.3633C21.6615 12.4435 21.8326 12.6024 21.9282 12.8064C22.0249 12.9938 22.0732 13.2125 22.0732 13.4624C22.0762 13.6208 22.0561 13.7787 22.0134 13.9312C21.9796 14.0492 21.9279 14.1612 21.86 14.2634C21.7237 14.4508 21.5505 14.5673 21.3404 14.6129C21.1554 14.6639 20.9606 14.6682 20.7735 14.6255C20.5815 14.5828 20.4296 14.5104 20.3178 14.4081ZM20.7268 12.9084C20.6076 13.0388 20.5536 13.2333 20.5648 13.492C20.576 13.7507 20.624 13.931 20.709 14.0329C20.7431 14.0787 20.8027 14.1171 20.8878 14.148C20.9711 14.1792 21.0624 14.1823 21.1476 14.1567C21.2355 14.131 21.3137 14.067 21.382 13.9648C21.4504 13.8625 21.4876 13.6978 21.4938 13.4708C21.4938 13.2659 21.4611 13.1125 21.3957 13.0107C21.3303 12.9088 21.2551 12.8436 21.17 12.8151C21.0873 12.7868 20.9978 12.7853 20.9143 12.8109C20.8444 12.8276 20.7796 12.861 20.7255 12.9084H20.7268Z" fill="white"/>
<path d="M22.166 14.6128V14.1611L23.3844 12.8147H22.5239C22.4862 12.8154 22.4486 12.8086 22.4135 12.7947C22.3784 12.7808 22.3464 12.7601 22.3194 12.7337C22.2918 12.7083 22.27 12.6773 22.2553 12.6428C22.2406 12.6083 22.2334 12.5711 22.2342 12.5337V12.3462H24.0918V12.8318L22.8905 14.1183H24.1346V14.6128H22.166Z" fill="white"/>
<path d="M25.7273 11.6729H26.0173C26.0558 11.6725 26.0939 11.6803 26.1291 11.6958C26.1644 11.7112 26.196 11.7338 26.2219 11.7623C26.2485 11.7884 26.2698 11.8196 26.2844 11.8539C26.299 11.8883 26.3067 11.9252 26.3071 11.9626V13.6244C26.3071 14.0274 26.1906 14.3001 25.9576 14.4424C25.7297 14.5829 25.467 14.6567 25.1993 14.6553C25.0514 14.6552 24.9045 14.6307 24.7646 14.5829C24.6304 14.5401 24.5118 14.4585 24.4237 14.3485C24.2589 14.1384 24.1766 13.8516 24.1768 13.488C24.1768 13.1302 24.2591 12.8433 24.4237 12.6272C24.5942 12.4056 24.8129 12.2949 25.08 12.2951C25.21 12.2919 25.3387 12.3207 25.4549 12.3789C25.5654 12.4441 25.6589 12.5346 25.7276 12.6429L25.7273 11.6729ZM24.7559 13.4623C24.7559 13.6897 24.7985 13.863 24.8836 13.982C24.9687 14.101 25.0909 14.1607 25.2502 14.1611C25.3201 14.1638 25.3895 14.1488 25.4521 14.1175C25.5147 14.0862 25.5683 14.0396 25.608 13.982C25.6874 13.863 25.7272 13.6897 25.7273 13.4623C25.7273 13.2574 25.6847 13.0956 25.5994 12.9768C25.5562 12.9214 25.5004 12.8771 25.4367 12.8475C25.3731 12.8179 25.3033 12.8038 25.2331 12.8063C25.1645 12.8042 25.0965 12.8195 25.0353 12.8507C24.9742 12.882 24.922 12.9282 24.8836 12.9851C24.7985 13.0989 24.7559 13.258 24.7559 13.4623Z" fill="white"/>
<path d="M27.9858 13.9142H28.4119C28.3493 14.1528 28.23 14.3346 28.054 14.4596C27.878 14.59 27.6564 14.6552 27.3893 14.6552C27.0654 14.6552 26.8127 14.5501 26.6311 14.34C26.4493 14.1351 26.3584 13.8425 26.3584 13.4622C26.3584 13.0986 26.4464 12.8146 26.6224 12.6101C26.8042 12.4 27.057 12.2949 27.3809 12.2949C27.7218 12.2949 27.9859 12.3974 28.1733 12.6022C28.3551 12.8123 28.446 13.1049 28.446 13.4798V13.5737C28.4473 13.5939 28.4445 13.6141 28.4376 13.6332H26.9633C26.9689 13.8096 27.0115 13.9399 27.0912 14.0243C27.1657 14.1154 27.2765 14.1608 27.4234 14.1607C27.5097 14.1633 27.5951 14.1426 27.6707 14.1009C27.6884 14.095 27.7044 14.0848 27.7173 14.0713L27.7643 14.0243C27.7794 13.9965 27.8014 13.973 27.8282 13.9561C27.8747 13.9252 27.9301 13.9104 27.9858 13.9142ZM26.9633 13.2496H27.8338C27.8223 13.0963 27.7825 12.9827 27.7145 12.9087C27.64 12.8292 27.535 12.7894 27.3994 12.7894C27.3427 12.7872 27.2862 12.7967 27.2333 12.8172C27.1805 12.8377 27.1324 12.8689 27.0921 12.9087C27.012 12.9884 26.969 13.1021 26.9633 13.2496Z" fill="white"/>
<path d="M28.4883 13.8626H29.0677C29.0733 13.976 29.1159 14.0611 29.1954 14.1179C29.2805 14.1749 29.3941 14.2034 29.5363 14.2034C29.628 14.2059 29.7188 14.1853 29.8006 14.1436C29.8687 14.1039 29.9028 14.0497 29.9028 13.9816C29.9028 13.8795 29.7835 13.8029 29.5449 13.7516C29.467 13.7402 29.3901 13.7231 29.3147 13.7005C29.0135 13.626 28.8119 13.538 28.7098 13.4365C28.596 13.3342 28.5392 13.1979 28.5394 13.0275C28.5374 12.9251 28.5586 12.8237 28.6014 12.7307C28.6441 12.6377 28.7074 12.5556 28.7864 12.4905C28.9568 12.3601 29.1784 12.2949 29.451 12.2949C29.7464 12.2949 29.9822 12.3601 30.1584 12.4905C30.239 12.559 30.3041 12.6438 30.3496 12.7393C30.3951 12.8348 30.4199 12.9388 30.4225 13.0445H30.0562C30.0055 13.0459 29.9555 13.0331 29.9118 13.0074C29.8681 12.9818 29.8324 12.9444 29.8089 12.8995L29.7408 12.8313C29.6726 12.7803 29.5789 12.7548 29.4597 12.7548C29.3459 12.7548 29.2607 12.7718 29.2041 12.8059C29.179 12.8225 29.1587 12.8454 29.1452 12.8724C29.1317 12.8993 29.1255 12.9292 29.1272 12.9593C29.1272 13.0502 29.2749 13.1268 29.5703 13.1892C29.5997 13.1994 29.6295 13.2079 29.6597 13.2149C29.6836 13.2203 29.7079 13.2231 29.7324 13.2233C30.0222 13.2978 30.2238 13.383 30.3373 13.479C30.4451 13.5812 30.4991 13.7176 30.4993 13.888C30.4993 14.1379 30.4084 14.3311 30.2266 14.4674C30.0562 14.5924 29.8006 14.6549 29.4597 14.6549C29.136 14.6549 28.8945 14.5897 28.7353 14.4593C28.5704 14.3289 28.4881 14.1386 28.4883 13.8883V13.8626Z" fill="white"/>
<path d="M31.1893 12.3463V13.1814L31.9123 12.3463H32.6281L31.8179 13.2155L32.6359 14.6124H31.9221L31.503 13.8455C31.4179 13.6922 31.344 13.627 31.2815 13.6499C31.2189 13.6728 31.1879 13.7058 31.1879 13.7522V14.613H30.5928V11.6817H30.9001C30.9382 11.6812 30.976 11.6885 31.0112 11.7031C31.0463 11.7178 31.0781 11.7395 31.1046 11.7669C31.1311 11.7921 31.1522 11.8224 31.1666 11.856C31.1811 11.8897 31.1885 11.9259 31.1884 11.9624L31.1893 12.3463Z" fill="white"/>
<path d="M32.7665 12.3396V11.9764H32.6357V11.9445C32.6357 11.9385 32.6369 11.9325 32.6392 11.9269C32.6415 11.9212 32.6449 11.9161 32.6492 11.9119C32.6534 11.9076 32.6585 11.9042 32.6642 11.9019C32.6698 11.8996 32.6758 11.8984 32.6818 11.8984H32.9869V11.9767H32.8576V12.3399L32.7665 12.3396Z" fill="white"/>
<path d="M33.0039 12.339V11.944C33.0038 11.9379 33.0049 11.9319 33.0072 11.9262C33.0095 11.9206 33.013 11.9155 33.0173 11.9113C33.026 11.9024 33.0376 11.8972 33.05 11.8965H33.1386L33.2255 12.2337L33.3126 11.8965H33.449V12.339H33.3652V11.9825L33.2755 12.339H33.1819L33.0886 11.9825V12.339H33.0039Z" fill="white"/>
<path d="M24.0527 6.46027C24.6403 6.12721 25.3596 6.12721 25.9473 6.46027C26.5295 6.80263 26.8892 7.42562 26.8946 8.10104C26.8892 8.77646 26.5295 9.39945 25.9473 9.74181C25.3596 10.0749 24.6403 10.0749 24.0527 9.74181C23.4704 9.39945 23.1107 8.77647 23.1054 8.10104C23.1107 7.42562 23.4704 6.80263 24.0527 6.46027Z" fill="white"/>
<path d="M26.0802 8.70036C25.9163 8.60414 25.7065 8.48141 25.5429 8.38495C25.5215 8.37048 25.4963 8.36274 25.4705 8.36274C25.4447 8.36274 25.4195 8.37048 25.3982 8.38495L25.0585 8.5854C25.0477 8.59367 25.0351 8.59928 25.0217 8.60178C25.0084 8.60428 24.9946 8.6036 24.9815 8.5998L24.6211 8.39935C24.5996 8.38967 24.5817 8.37335 24.5702 8.35278C24.5586 8.33221 24.5539 8.30849 24.5569 8.28507V7.90978C24.555 7.89091 24.5593 7.87196 24.5692 7.85576C24.579 7.83956 24.5939 7.827 24.6115 7.81996L24.9529 7.62226C24.9765 7.61141 24.996 7.59354 25.009 7.57111C25.0219 7.54868 25.0276 7.52279 25.0252 7.49701L25.0236 6.86779C25.0236 6.79556 24.9913 6.77636 24.9303 6.81156C24.7651 6.90687 24.0986 7.29062 23.9398 7.38044C23.9206 7.39011 23.9041 7.40446 23.8919 7.42215C23.8798 7.43985 23.8722 7.46032 23.87 7.48169C23.87 7.48489 23.8684 7.48809 23.8684 7.49129V7.51072C23.8701 7.86224 23.8701 8.21384 23.8684 8.56552V8.67477C23.8668 8.70044 23.8727 8.72604 23.8856 8.74833C23.8984 8.77062 23.9176 8.7886 23.9407 8.80002C24.2753 8.9936 24.6092 9.18696 24.9443 9.38215C24.9606 9.39307 24.979 9.40031 24.9984 9.40335C25.0178 9.40639 25.0376 9.40516 25.0565 9.39975C25.0706 9.39568 25.0841 9.38976 25.0967 9.38215C25.2567 9.28913 25.4146 9.19931 25.5737 9.10606C25.5793 9.10321 25.5846 9.10001 25.5897 9.09646C25.755 9.0016 25.9188 8.90538 26.0843 8.81053C26.1428 8.77419 26.1428 8.73739 26.0802 8.70036Z" fill="#23AB6B"/>
<defs>
<linearGradient id="paint0_linear" x1="1.30662" y1="22.9094" x2="48.3449" y2="27.3519" gradientUnits="userSpaceOnUse">
<stop stop-color="#196945"/>
<stop offset="1" stop-color="#28C57A"/>
</linearGradient>
<linearGradient id="paint1_linear" x1="40.8533" y1="7.4914" x2="12.1076" y2="43.7283" gradientUnits="userSpaceOnUse">
<stop stop-color="#27C279"/>
<stop offset="1" stop-color="#186744"/>
</linearGradient>
</defs>
</svg>
