<svg width="51" height="50" viewBox="0 0 51 50" fill="none" xmlns="http://www.w3.org/2000/svg">
<circle cx="25.1465" cy="25" r="25" fill="url(#paint0_linear)"/>
<circle cx="25.1461" cy="25.0001" r="23.9547" fill="url(#paint1_linear)"/>
<path d="M25.1504 47C20.7992 47 16.5457 45.7097 12.9279 43.2923C9.30997 40.8749 6.49018 37.439 4.82505 33.419C3.15992 29.3991 2.72425 24.9756 3.57312 20.708C4.422 16.4404 6.51729 12.5204 9.59405 9.44366C12.6708 6.3669 16.5908 4.27161 20.8584 3.42273C25.126 2.57386 29.5495 3.00953 33.5694 4.67466C37.5894 6.33979 41.0253 9.15958 43.4427 12.7775C45.8601 16.3953 47.1504 20.6488 47.1504 25C47.1437 30.8327 44.8237 36.4246 40.6994 40.549C36.575 44.6734 30.9831 46.9933 25.1504 47V47ZM25.1504 4.25715C21.0478 4.25715 17.0374 5.4737 13.6263 7.75295C10.2151 10.0322 7.55648 13.2718 5.9865 17.0621C4.41652 20.8523 4.00574 25.023 4.80611 29.0467C5.60648 33.0705 7.58204 36.7665 10.483 39.6674C13.3839 42.5684 17.0799 44.5439 21.1037 45.3443C25.1274 46.1447 29.2981 45.7339 33.0883 44.1639C36.8786 42.5939 40.1182 39.9353 42.3974 36.5241C44.6767 33.113 45.8932 29.1026 45.8932 25C45.8871 19.5005 43.6997 14.2281 39.811 10.3394C35.9223 6.45069 30.6499 4.26331 25.1504 4.25715V4.25715Z" fill="white"/>
<path d="M31.5924 39.7212L31.8466 40.5037L32.6693 40.5037L32.0037 40.9873L32.258 41.7697L31.5924 41.2861L30.9268 41.7697L31.181 40.9873L30.5154 40.5037L31.3381 40.5037L31.5924 39.7212Z" fill="#B7C3CB"/>
<path d="M22.798 42.3345H20.9302V41.964L21.8117 41.0245C21.9327 40.8923 22.0219 40.7769 22.0793 40.6783C22.138 40.5797 22.1673 40.4862 22.1673 40.3976C22.1673 40.2766 22.1367 40.1817 22.0756 40.1131C22.0144 40.0433 21.9271 40.0083 21.8136 40.0083C21.6913 40.0083 21.5946 40.0507 21.5235 40.1356C21.4536 40.2192 21.4187 40.3296 21.4187 40.4668H20.876C20.876 40.3009 20.9153 40.1493 20.9939 40.0121C21.0737 39.8748 21.186 39.7675 21.3307 39.6902C21.4755 39.6116 21.6395 39.5723 21.8229 39.5723C22.1037 39.5723 22.3214 39.6396 22.4761 39.7744C22.632 39.9091 22.71 40.0994 22.71 40.3452C22.71 40.4799 22.6751 40.6172 22.6052 40.7569C22.5353 40.8966 22.4156 41.0595 22.2459 41.2454L21.6264 41.8985H22.798V42.3345Z" fill="white"/>
<path d="M24.9651 41.2079C24.9651 41.5847 24.8871 41.8729 24.7312 42.0725C24.5752 42.2722 24.3469 42.372 24.0462 42.372C23.7493 42.372 23.5222 42.274 23.365 42.0782C23.2078 41.8823 23.1273 41.6016 23.1236 41.236V40.7344C23.1236 40.3539 23.2022 40.0651 23.3594 39.868C23.5179 39.6708 23.7456 39.5723 24.0425 39.5723C24.3394 39.5723 24.5665 39.6702 24.7237 39.8661C24.8809 40.0607 24.9614 40.3408 24.9651 40.7064V41.2079ZM24.4243 40.6577C24.4243 40.4319 24.3931 40.2678 24.3307 40.1655C24.2696 40.062 24.1735 40.0102 24.0425 40.0102C23.9152 40.0102 23.821 40.0595 23.7599 40.158C23.7 40.2553 23.6682 40.4082 23.6645 40.6165V41.279C23.6645 41.5011 23.6944 41.6664 23.7543 41.775C23.8154 41.8823 23.9127 41.9359 24.0462 41.9359C24.1785 41.9359 24.2739 41.8841 24.3326 41.7806C24.3912 41.677 24.4218 41.5186 24.4243 41.3052V40.6577Z" fill="white"/>
<path d="M27.1996 42.3345H25.3319V41.964L26.2134 41.0245C26.3344 40.8923 26.4236 40.7769 26.481 40.6783C26.5396 40.5797 26.569 40.4862 26.569 40.3976C26.569 40.2766 26.5384 40.1817 26.4773 40.1131C26.4161 40.0433 26.3288 40.0083 26.2153 40.0083C26.093 40.0083 25.9963 40.0507 25.9252 40.1356C25.8553 40.2192 25.8204 40.3296 25.8204 40.4668H25.2777C25.2777 40.3009 25.317 40.1493 25.3956 40.0121C25.4754 39.8748 25.5877 39.7675 25.7324 39.6902C25.8771 39.6116 26.0412 39.5723 26.2246 39.5723C26.5053 39.5723 26.723 39.6396 26.8778 39.7744C27.0337 39.9091 27.1117 40.0994 27.1117 40.3452C27.1117 40.4799 27.0768 40.6172 27.0069 40.7569C26.937 40.8966 26.8172 41.0595 26.6476 41.2454L26.0281 41.8985H27.1996V42.3345Z" fill="white"/>
<path d="M29.3668 41.2079C29.3668 41.5847 29.2888 41.8729 29.1329 42.0725C28.9769 42.2722 28.7486 42.372 28.4479 42.372C28.151 42.372 27.9239 42.274 27.7667 42.0782C27.6095 41.8823 27.529 41.6016 27.5253 41.236V40.7344C27.5253 40.3539 27.6039 40.0651 27.7611 39.868C27.9195 39.6708 28.1472 39.5723 28.4442 39.5723C28.7411 39.5723 28.9682 39.6702 29.1254 39.8661C29.2826 40.0607 29.3631 40.3408 29.3668 40.7064V41.2079ZM28.8259 40.6577C28.8259 40.4319 28.7948 40.2678 28.7324 40.1655C28.6712 40.062 28.5752 40.0102 28.4442 40.0102C28.3169 40.0102 28.2227 40.0595 28.1616 40.158C28.1017 40.2553 28.0699 40.4082 28.0661 40.6165V41.279C28.0661 41.5011 28.0961 41.6664 28.156 41.775C28.2171 41.8823 28.3144 41.9359 28.4479 41.9359C28.5802 41.9359 28.6756 41.8841 28.7342 41.7806C28.7929 41.677 28.8234 41.5186 28.8259 41.3052V40.6577Z" fill="white"/>
<path d="M18.6998 39.7212L18.954 40.5037L19.7768 40.5037L19.1112 40.9873L19.3654 41.7697L18.6998 41.2861L18.0342 41.7697L18.2884 40.9873L17.6228 40.5037L18.4455 40.5037L18.6998 39.7212Z" fill="#B7C3CB"/>
<path d="M12.6626 37.4563H12.3181V36.7397H11.6463V37.4563H11.3018V35.7842H11.6463V36.4618H12.3181V35.7842H12.6626V37.4563Z" fill="white"/>
<path d="M13.331 37.4563H12.9865V35.7842H13.331V37.4563Z" fill="white"/>
<path d="M14.9743 37.245C14.9123 37.3192 14.8247 37.377 14.7113 37.4184C14.598 37.4589 14.4725 37.4792 14.3347 37.4792C14.19 37.4792 14.0629 37.4478 13.9534 37.3851C13.8447 37.3215 13.7605 37.2296 13.7008 37.1094C13.6418 36.9892 13.6116 36.848 13.61 36.6857V36.572C13.61 36.4051 13.638 36.2608 13.6939 36.1391C13.7505 36.0166 13.8317 35.9232 13.9373 35.8588C14.0437 35.7938 14.1682 35.7612 14.3106 35.7612C14.5088 35.7612 14.6639 35.8087 14.7757 35.9036C14.8874 35.9978 14.9537 36.1352 14.9743 36.3159H14.639C14.6237 36.2202 14.5896 36.1502 14.5368 36.1057C14.4847 36.0613 14.4128 36.0391 14.3209 36.0391C14.2038 36.0391 14.1146 36.0832 14.0533 36.1712C13.9921 36.2593 13.9611 36.3902 13.9603 36.564V36.6708C13.9603 36.8461 13.9936 36.9785 14.0602 37.0681C14.1268 37.1577 14.2244 37.2025 14.353 37.2025C14.4824 37.2025 14.5747 37.1749 14.6298 37.1198V36.8315H14.3163V36.5777H14.9743V37.245Z" fill="white"/>
<path d="M16.6154 37.4563H16.2709V36.7397H15.5991V37.4563H15.2545V35.7842H15.5991V36.4618H16.2709V35.7842H16.6154V37.4563Z" fill="white"/>
<path d="M17.9533 35.7842L18.3828 36.9969L18.81 35.7842H19.2624V37.4563H18.9168V36.9992L18.9512 36.2103L18.4999 37.4563H18.2633L17.8132 36.2114L17.8476 36.9992V37.4563H17.5031V35.7842H17.9533Z" fill="white"/>
<path d="M20.528 37.1117H19.9239L19.8091 37.4563H19.4427L20.0652 35.7842H20.3844L21.0103 37.4563H20.644L20.528 37.1117ZM20.0169 36.8327H20.435L20.2248 36.2068L20.0169 36.8327Z" fill="white"/>
<path d="M21.7855 36.8442H21.511V37.4563H21.1665V35.7842H21.7878C21.9853 35.7842 22.1376 35.8282 22.2448 35.9163C22.352 36.0043 22.4056 36.1287 22.4056 36.2895C22.4056 36.4036 22.3807 36.4989 22.331 36.5754C22.282 36.6512 22.2073 36.7117 22.107 36.7569L22.4688 37.4402V37.4563H22.099L21.7855 36.8442ZM21.511 36.5651H21.7889C21.8754 36.5651 21.9424 36.5433 21.9899 36.4996C22.0374 36.4552 22.0611 36.3944 22.0611 36.3171C22.0611 36.2382 22.0385 36.1762 21.9933 36.131C21.9489 36.0858 21.8804 36.0633 21.7878 36.0633H21.511V36.5651Z" fill="white"/>
<path d="M23.1923 36.7856L23.0131 36.9785V37.4563H22.6686V35.7842H23.0131V36.5421L23.1647 36.3343L23.5908 35.7842H24.0145L23.4208 36.5272L24.0317 37.4563H23.6218L23.1923 36.7856Z" fill="white"/>
<path d="M25.1675 36.7316H24.506V37.1795H25.2823V37.4563H24.1615V35.7842H25.28V36.0633H24.506V36.4618H25.1675V36.7316Z" fill="white"/>
<path d="M26.7661 36.0633H26.2539V37.4563H25.9094V36.0633H25.4041V35.7842H26.7661V36.0633Z" fill="white"/>
<path d="M27.8249 36.8671V37.4563H27.4804V35.7842H28.1327C28.2582 35.7842 28.3685 35.8072 28.4634 35.8531C28.5591 35.899 28.6326 35.9645 28.6839 36.0495C28.7352 36.1337 28.7608 36.2298 28.7608 36.3377C28.7608 36.5016 28.7046 36.6309 28.592 36.7259C28.4802 36.8201 28.3252 36.8671 28.1269 36.8671H27.8249ZM27.8249 36.5881H28.1327C28.2238 36.5881 28.2931 36.5666 28.3405 36.5238C28.3888 36.4809 28.4129 36.4196 28.4129 36.34C28.4129 36.2581 28.3888 36.1919 28.3405 36.1413C28.2923 36.0908 28.2257 36.0648 28.1407 36.0633H27.8249V36.5881Z" fill="white"/>
<path d="M29.6175 36.8442H29.3431V37.4563H28.9986V35.7842H29.6198C29.8174 35.7842 29.9697 35.8282 30.0769 35.9163C30.1841 36.0043 30.2377 36.1287 30.2377 36.2895C30.2377 36.4036 30.2128 36.4989 30.163 36.5754C30.114 36.6512 30.0394 36.7117 29.9391 36.7569L30.3008 37.4402V37.4563H29.931L29.6175 36.8442ZM29.3431 36.5651H29.621C29.7075 36.5651 29.7745 36.5433 29.822 36.4996C29.8694 36.4552 29.8932 36.3944 29.8932 36.3171C29.8932 36.2382 29.8706 36.1762 29.8254 36.131C29.781 36.0858 29.7125 36.0633 29.6198 36.0633H29.3431V36.5651Z" fill="white"/>
<path d="M31.5066 36.7316H30.8452V37.1795H31.6215V37.4563H30.5007V35.7842H31.6192V36.0633H30.8452V36.4618H31.5066V36.7316Z" fill="white"/>
<path d="M32.6906 37.0176C32.6906 36.9525 32.6677 36.9027 32.6217 36.8683C32.5758 36.8331 32.4931 36.7963 32.3737 36.758C32.2543 36.719 32.1597 36.6807 32.09 36.6432C31.9002 36.5406 31.8052 36.4024 31.8052 36.2286C31.8052 36.1383 31.8305 36.0579 31.881 35.9875C31.9323 35.9163 32.0054 35.8608 32.1004 35.8209C32.1961 35.7811 32.3033 35.7612 32.4219 35.7612C32.5414 35.7612 32.6478 35.7831 32.7412 35.8267C32.8346 35.8696 32.9069 35.9304 32.9582 36.0093C33.0103 36.0881 33.0363 36.1777 33.0363 36.278H32.6918C32.6918 36.2014 32.6677 36.1421 32.6194 36.1C32.5712 36.0571 32.5035 36.0357 32.4162 36.0357C32.332 36.0357 32.2665 36.0537 32.2198 36.0897C32.1731 36.1249 32.1498 36.1716 32.1498 36.2298C32.1498 36.2841 32.1769 36.3297 32.2313 36.3664C32.2864 36.4032 32.3672 36.4376 32.4736 36.4698C32.6696 36.5287 32.8124 36.6019 32.902 36.6891C32.9915 36.7764 33.0363 36.8851 33.0363 37.0153C33.0363 37.16 32.9816 37.2737 32.8721 37.3564C32.7626 37.4383 32.6152 37.4792 32.43 37.4792C32.3013 37.4792 32.1842 37.4559 32.0786 37.4092C31.9729 37.3617 31.8921 37.297 31.8362 37.2151C31.7811 37.1332 31.7536 37.0382 31.7536 36.9303H32.0992C32.0992 37.1148 32.2095 37.2071 32.43 37.2071C32.5119 37.2071 32.5758 37.1906 32.6217 37.1577C32.6677 37.124 32.6906 37.0773 32.6906 37.0176Z" fill="white"/>
<path d="M34.2766 36.7316H33.6151V37.1795H34.3914V37.4563H33.2706V35.7842H34.3891V36.0633H33.6151V36.4618H34.2766V36.7316Z" fill="white"/>
<path d="M35.9532 37.4563H35.6087L34.9381 36.3561V37.4563H34.5935V35.7842H34.9381L35.6099 36.8867V35.7842H35.9532V37.4563Z" fill="white"/>
<path d="M37.5667 36.8993C37.5537 37.0792 37.4871 37.2208 37.3669 37.3242C37.2475 37.4276 37.0898 37.4792 36.8938 37.4792C36.6794 37.4792 36.5106 37.4073 36.3873 37.2633C36.2648 37.1186 36.2036 36.9203 36.2036 36.6685V36.5663C36.2036 36.4055 36.2319 36.2638 36.2886 36.1413C36.3452 36.0189 36.426 35.9251 36.5309 35.86C36.6365 35.7942 36.759 35.7612 36.8984 35.7612C37.0913 35.7612 37.2467 35.8129 37.3646 35.9163C37.4825 36.0196 37.5507 36.1647 37.569 36.3515H37.2245C37.2161 36.2436 37.1859 36.1655 37.1338 36.1172C37.0825 36.0682 37.004 36.0437 36.8984 36.0437C36.7835 36.0437 36.6974 36.0851 36.64 36.1678C36.5833 36.2497 36.5542 36.3772 36.5527 36.5502V36.6765C36.5527 36.8572 36.5799 36.9892 36.6342 37.0727C36.6894 37.1561 36.7759 37.1979 36.8938 37.1979C37.0002 37.1979 37.0794 37.1738 37.1315 37.1255C37.1843 37.0765 37.2146 37.0011 37.2222 36.8993H37.5667Z" fill="white"/>
<path d="M38.799 36.7316H38.1375V37.1795H38.9138V37.4563H37.793V35.7842H38.9115V36.0633H38.1375V36.4618H38.799V36.7316Z" fill="white"/>
<path d="M13.3431 30.4173L14.5221 26.505H15.7154L13.904 31.707H12.7857L10.9814 26.505H12.1712L13.3431 30.4173Z" fill="white"/>
<path d="M19.3382 29.4526H17.2803V30.846H19.6955V31.707H16.2084V26.505H19.6883V27.3732H17.2803V28.613H19.3382V29.4526Z" fill="white"/>
<path d="M24.5545 31.707H23.4826L21.3961 28.2843V31.707H20.3243V26.505H21.3961L23.4862 29.9349V26.505H24.5545V31.707Z" fill="white"/>
<path d="M25.4905 31.707V26.505H27.0912C27.5485 26.505 27.957 26.6087 28.3166 26.8159C28.6787 27.0207 28.9609 27.3137 29.1634 27.6948C29.3658 28.0735 29.4671 28.5046 29.4671 28.9881V29.2275C29.4671 29.711 29.367 30.141 29.1669 30.5173C28.9693 30.8936 28.6894 31.1854 28.3273 31.3926C27.9653 31.5998 27.5568 31.7046 27.1019 31.707H25.4905ZM26.5624 27.3732V30.846H27.0804C27.4996 30.846 27.82 30.709 28.0415 30.4351C28.263 30.1612 28.3762 29.7694 28.3809 29.2597V28.9846C28.3809 28.4558 28.2714 28.0556 28.0522 27.7841C27.8331 27.5102 27.5127 27.3732 27.0912 27.3732H26.5624Z" fill="white"/>
<path d="M34.5226 29.2239C34.5226 29.736 34.432 30.185 34.251 30.5709C34.07 30.9567 33.8104 31.2545 33.4722 31.4641C33.1363 31.6737 32.7505 31.7785 32.3146 31.7785C31.8835 31.7785 31.4988 31.6749 31.1606 31.4677C30.8223 31.2604 30.5603 30.9651 30.3745 30.5816C30.1888 30.1957 30.0947 29.7527 30.0923 29.2525V28.9953C30.0923 28.4832 30.184 28.033 30.3674 27.6448C30.5532 27.2541 30.814 26.9552 31.1498 26.748C31.4881 26.5384 31.8739 26.4336 32.3074 26.4336C32.7409 26.4336 33.1256 26.5384 33.4614 26.748C33.7997 26.9552 34.0605 27.2541 34.2439 27.6448C34.4297 28.033 34.5226 28.482 34.5226 28.9917V29.2239ZM33.4364 28.9881C33.4364 28.4427 33.3388 28.0282 33.1435 27.7448C32.9481 27.4614 32.6695 27.3196 32.3074 27.3196C31.9478 27.3196 31.6703 27.4602 31.475 27.7412C31.2797 28.0199 31.1808 28.4296 31.1784 28.9703V29.2239C31.1784 29.7551 31.2761 30.1672 31.4714 30.4601C31.6667 30.7531 31.9478 30.8996 32.3146 30.8996C32.6742 30.8996 32.9505 30.7591 33.1435 30.478C33.3364 30.1946 33.434 29.7825 33.4364 29.2418V28.9881Z" fill="white"/>
<path d="M37.2272 29.8027H36.3733V31.707H35.3014V26.505H37.2343C37.8488 26.505 38.3228 26.642 38.6563 26.9159C38.9897 27.1898 39.1565 27.5769 39.1565 28.0771C39.1565 28.432 39.0791 28.7285 38.9242 28.9667C38.7718 29.2025 38.5396 29.3907 38.2275 29.5312L39.353 31.657V31.707H38.2025L37.2272 29.8027ZM36.3733 28.9345H37.2379C37.507 28.9345 37.7154 28.8667 37.8631 28.7309C38.0108 28.5927 38.0846 28.4034 38.0846 28.1628C38.0846 27.9175 38.0144 27.7246 37.8738 27.584C37.7357 27.4435 37.5225 27.3732 37.2343 27.3732H36.3733V28.9345Z" fill="white"/>
<path d="M13.6514 19.7082H12.0579V24.042H10.9861V19.7082H9.41406V18.84H13.6514V19.7082Z" fill="white"/>
<path d="M16.1916 22.1377H15.3377V24.042H14.2659V18.84H16.1988C16.8133 18.84 17.2873 18.977 17.6208 19.2509C17.9542 19.5248 18.121 19.9118 18.121 20.412C18.121 20.7669 18.0435 21.0635 17.8887 21.3017C17.7363 21.5375 17.504 21.7256 17.192 21.8662L18.3175 23.992V24.042H17.167L16.1916 22.1377ZM15.3377 21.2695H16.2024C16.4715 21.2695 16.6799 21.2016 16.8276 21.0659C16.9753 20.9277 17.0491 20.7384 17.0491 20.4978C17.0491 20.2525 16.9788 20.0595 16.8383 19.919C16.7002 19.7785 16.487 19.7082 16.1988 19.7082H15.3377V21.2695Z" fill="white"/>
<path d="M22.8763 18.84V22.2663C22.8763 22.8356 22.6977 23.2858 22.3404 23.6168C21.9855 23.9479 21.4996 24.1134 20.8827 24.1134C20.2753 24.1134 19.793 23.9527 19.4357 23.6311C19.0785 23.3096 18.8962 22.8677 18.8891 22.3056V18.84H19.9609V22.2735C19.9609 22.6141 20.0419 22.863 20.2039 23.0202C20.3682 23.175 20.5945 23.2524 20.8827 23.2524C21.4853 23.2524 21.7914 22.9356 21.8009 22.302V18.84H22.8763Z" fill="white"/>
<path d="M26.4527 22.6772C26.4527 22.4747 26.3812 22.3199 26.2383 22.2127C26.0954 22.1032 25.8382 21.9888 25.4666 21.8697C25.095 21.7483 24.8009 21.6292 24.5841 21.5125C23.9934 21.1933 23.6981 20.7634 23.6981 20.2227C23.6981 19.9416 23.7767 19.6915 23.9339 19.4724C24.0935 19.2509 24.3209 19.0782 24.6163 18.9543C24.914 18.8305 25.2475 18.7686 25.6167 18.7686C25.9882 18.7686 26.3193 18.8364 26.6099 18.9722C26.9005 19.1056 27.1256 19.2949 27.2852 19.5403C27.4471 19.7856 27.5281 20.0643 27.5281 20.3763H26.4563C26.4563 20.1381 26.3812 19.9535 26.2312 19.8225C26.0811 19.6891 25.8703 19.6225 25.5988 19.6225C25.3368 19.6225 25.1331 19.6784 24.9879 19.7904C24.8426 19.8999 24.7699 20.0452 24.7699 20.2263C24.7699 20.3954 24.8545 20.5371 25.0236 20.6514C25.1951 20.7657 25.4464 20.8729 25.7774 20.973C26.3872 21.1564 26.8314 21.3838 27.1101 21.6554C27.3888 21.9269 27.5281 22.2651 27.5281 22.67C27.5281 23.1202 27.3578 23.4739 27.0172 23.7312C26.6766 23.986 26.2181 24.1134 25.6417 24.1134C25.2415 24.1134 24.8771 24.0408 24.5484 23.8955C24.2197 23.7478 23.9684 23.5466 23.7945 23.2917C23.623 23.0368 23.5373 22.7415 23.5373 22.4057H24.6127C24.6127 22.9797 24.9557 23.2667 25.6417 23.2667C25.8965 23.2667 26.0954 23.2155 26.2383 23.1131C26.3812 23.0083 26.4527 22.863 26.4527 22.6772Z" fill="white"/>
<path d="M32.1727 19.7082H30.5793V24.042H29.5074V19.7082H27.9354V18.84H32.1727V19.7082Z" fill="white"/>
<path d="M35.917 21.7876H33.8591V23.1809H36.2743V24.042H32.7873V18.84H36.2672V19.7082H33.8591V20.948H35.917V21.7876Z" fill="white"/>
<path d="M36.9031 24.042V18.84H38.5037C38.961 18.84 39.3695 18.9436 39.7292 19.1508C40.0912 19.3557 40.3735 19.6487 40.5759 20.0297C40.7784 20.4085 40.8796 20.8396 40.8796 21.3231V21.5625C40.8796 22.046 40.7796 22.4759 40.5795 22.8523C40.3818 23.2286 40.1019 23.5204 39.7399 23.7276C39.3779 23.9348 38.9694 24.0396 38.5144 24.042H36.9031ZM37.9749 19.7082V23.1809H38.493C38.9122 23.1809 39.2326 23.044 39.4541 22.7701C39.6756 22.4962 39.7887 22.1043 39.7935 21.5946V21.3195C39.7935 20.7908 39.6839 20.3906 39.4648 20.1191C39.2457 19.8452 38.9253 19.7082 38.5037 19.7082H37.9749Z" fill="white"/>
<path d="M18.3247 13.9138H18.7507C18.6882 14.1523 18.5689 14.3341 18.3929 14.4591C18.2168 14.5895 17.9953 14.6547 17.7282 14.6547C17.4043 14.6547 17.1515 14.5496 16.9699 14.3395C16.788 14.1347 16.6971 13.842 16.6973 13.4617C16.6973 13.0981 16.7853 12.8141 16.9613 12.6096C17.1431 12.3995 17.3959 12.2944 17.7198 12.2944C18.0607 12.2944 18.3248 12.3969 18.5122 12.6018C18.6154 12.7294 18.6906 12.8773 18.7329 13.0359H18.1372C18.1156 12.9892 18.0868 12.9461 18.052 12.9082C17.9775 12.8287 17.8725 12.7889 17.7369 12.7889C17.6802 12.7867 17.6237 12.7962 17.5708 12.8167C17.518 12.8372 17.4699 12.8684 17.4295 12.9082C17.3273 13.022 17.2762 13.2095 17.2762 13.4706C17.2762 13.7318 17.3273 13.9164 17.4295 14.0244C17.504 14.1155 17.6148 14.1609 17.7617 14.1607C17.848 14.1634 17.9334 14.1427 18.009 14.1009C18.0268 14.095 18.0429 14.0849 18.0559 14.0713L18.1026 14.0244C18.1223 13.9989 18.1452 13.976 18.1707 13.9562C18.2054 13.9277 18.2579 13.9138 18.3247 13.9138Z" fill="white"/>
<path d="M18.8438 14.6121V13.5127C18.8438 13.2911 18.8763 13.1048 18.9415 12.9539C18.9997 12.8126 19.092 12.6878 19.21 12.5907C19.3225 12.5034 19.4514 12.4396 19.5891 12.4033C19.7348 12.3635 19.8852 12.3435 20.0362 12.3438H20.1214V12.9503H19.9258C19.761 12.9503 19.6389 12.9901 19.5595 13.0696C19.4802 13.1491 19.4404 13.2741 19.4402 13.4445V14.6121H18.8438Z" fill="white"/>
<path d="M20.4643 14.4081C20.3403 14.2984 20.2514 14.1546 20.2087 13.9946C20.1571 13.819 20.1313 13.6368 20.1318 13.4538C20.1321 13.2982 20.1536 13.1434 20.1958 12.9936C20.2321 12.852 20.3006 12.7207 20.3961 12.61C20.5414 12.4408 20.7453 12.3327 20.9669 12.3074C21.1999 12.2765 21.4101 12.2951 21.5975 12.3633C21.808 12.4435 21.9791 12.6024 22.0747 12.8064C22.1714 12.9938 22.2197 13.2125 22.2197 13.4624C22.2227 13.6208 22.2026 13.7787 22.1599 13.9312C22.1261 14.0492 22.0744 14.1612 22.0065 14.2634C21.8702 14.4508 21.697 14.5673 21.4869 14.6129C21.3018 14.6639 21.1071 14.6682 20.92 14.6255C20.728 14.5828 20.5761 14.5104 20.4643 14.4081ZM20.8733 12.9084C20.7541 13.0388 20.7001 13.2333 20.7113 13.492C20.7225 13.7507 20.7705 13.931 20.8555 14.0329C20.8895 14.0787 20.9491 14.1171 21.0343 14.148C21.1176 14.1792 21.2089 14.1823 21.2941 14.1567C21.382 14.131 21.4601 14.067 21.5285 13.9648C21.5968 13.8625 21.6341 13.6978 21.6402 13.4708C21.6402 13.2659 21.6076 13.1125 21.5422 13.0107C21.4768 12.9088 21.4016 12.8436 21.3164 12.8151C21.2338 12.7868 21.1443 12.7853 21.0608 12.8109C20.9909 12.8276 20.926 12.861 20.8719 12.9084H20.8733Z" fill="white"/>
<path d="M22.3115 14.6128V14.1611L23.5299 12.8147H22.6694C22.6317 12.8154 22.5941 12.8086 22.559 12.7947C22.5239 12.7808 22.4919 12.7601 22.4649 12.7337C22.4374 12.7083 22.4155 12.6773 22.4008 12.6428C22.3861 12.6083 22.3789 12.5711 22.3797 12.5337V12.3462H24.2373V12.8318L23.036 14.1183H24.2801V14.6128H22.3115Z" fill="white"/>
<path d="M25.8738 11.6729H26.1638C26.2023 11.6725 26.2404 11.6803 26.2756 11.6958C26.3109 11.7112 26.3425 11.7338 26.3683 11.7623C26.395 11.7884 26.4163 11.8196 26.4309 11.8539C26.4455 11.8883 26.4532 11.9252 26.4536 11.9626V13.6244C26.4536 14.0274 26.3371 14.3001 26.104 14.4424C25.8762 14.5829 25.6135 14.6567 25.3458 14.6553C25.1979 14.6552 25.051 14.6307 24.9111 14.5829C24.7769 14.5401 24.6583 14.4585 24.5702 14.3485C24.4054 14.1384 24.3231 13.8516 24.3232 13.488C24.3232 13.1302 24.4056 12.8433 24.5702 12.6272C24.7406 12.4056 24.9594 12.2949 25.2265 12.2951C25.3564 12.2919 25.4852 12.3207 25.6014 12.3789C25.7119 12.4441 25.8054 12.5346 25.8741 12.6429L25.8738 11.6729ZM24.9024 13.4623C24.9024 13.6897 24.945 13.863 25.0301 13.982C25.1152 14.101 25.2374 14.1607 25.3966 14.1611C25.4666 14.1638 25.536 14.1488 25.5986 14.1175C25.6612 14.0862 25.7148 14.0396 25.7545 13.982C25.8339 13.863 25.8736 13.6897 25.8738 13.4623C25.8738 13.2574 25.8312 13.0956 25.7459 12.9768C25.7026 12.9214 25.6469 12.8771 25.5832 12.8475C25.5196 12.8179 25.4498 12.8038 25.3796 12.8063C25.311 12.8042 25.2429 12.8195 25.1818 12.8507C25.1207 12.882 25.0685 12.9282 25.0301 12.9851C24.945 13.0989 24.9024 13.258 24.9024 13.4623Z" fill="white"/>
<path d="M28.1323 13.9138H28.5584C28.4958 14.1523 28.3765 14.3341 28.2005 14.4591C28.0245 14.5895 27.8029 14.6547 27.5358 14.6547C27.2119 14.6547 26.9592 14.5496 26.7776 14.3395C26.5958 14.1347 26.5049 13.842 26.5049 13.4617C26.5049 13.0981 26.5929 12.8141 26.7689 12.6096C26.9507 12.3995 27.2035 12.2944 27.5274 12.2944C27.8683 12.2944 28.1324 12.3969 28.3198 12.6018C28.5016 12.8119 28.5924 13.1044 28.5924 13.4793V13.5732C28.5938 13.5934 28.5909 13.6136 28.5841 13.6327H27.1098C27.1153 13.8091 27.158 13.9395 27.2377 14.0238C27.3122 14.1149 27.4229 14.1604 27.5699 14.1602C27.6562 14.1628 27.7416 14.1421 27.8172 14.1004C27.8349 14.0945 27.8509 14.0843 27.8638 14.0708L27.9107 14.0238C27.9259 13.996 27.9479 13.9725 27.9747 13.9557C28.0212 13.9247 28.0766 13.91 28.1323 13.9138V13.9138ZM27.1098 13.2491H27.9803C27.9688 13.0958 27.929 12.9822 27.861 12.9082C27.7865 12.8287 27.6815 12.7889 27.5459 12.7889C27.4892 12.7867 27.4327 12.7962 27.3798 12.8167C27.327 12.8372 27.2789 12.8684 27.2385 12.9082C27.1585 12.988 27.1155 13.1016 27.1098 13.2491Z" fill="white"/>
<path d="M28.6348 13.8626H29.2142C29.2198 13.976 29.2624 14.0611 29.3419 14.1179C29.427 14.1749 29.5406 14.2034 29.6827 14.2034C29.7745 14.2059 29.8653 14.1853 29.947 14.1436C30.0152 14.1039 30.0493 14.0497 30.0493 13.9816C30.0493 13.8795 29.93 13.8029 29.6914 13.7516C29.6135 13.7402 29.5366 13.7231 29.4612 13.7005C29.16 13.626 28.9584 13.538 28.8563 13.4365C28.7425 13.3342 28.6857 13.1979 28.6859 13.0275C28.6839 12.9251 28.7051 12.8237 28.7479 12.7307C28.7906 12.6377 28.8539 12.5556 28.9329 12.4905C29.1033 12.3601 29.3248 12.2949 29.5975 12.2949C29.8929 12.2949 30.1287 12.3601 30.3049 12.4905C30.3855 12.559 30.4506 12.6438 30.4961 12.7393C30.5416 12.8348 30.5664 12.9388 30.5689 13.0445H30.2027C30.152 13.0459 30.102 13.0331 30.0583 13.0074C30.0146 12.9818 29.9789 12.9444 29.9554 12.8995L29.8873 12.8313C29.8191 12.7803 29.7254 12.7548 29.6062 12.7548C29.4924 12.7548 29.4072 12.7718 29.3506 12.8059C29.3254 12.8225 29.3051 12.8454 29.2917 12.8724C29.2782 12.8993 29.272 12.9292 29.2737 12.9593C29.2737 13.0502 29.4214 13.1268 29.7168 13.1892C29.7462 13.1994 29.776 13.2079 29.8062 13.2149C29.8301 13.2203 29.8544 13.2231 29.8789 13.2233C30.1687 13.2978 30.3703 13.383 30.4837 13.479C30.5916 13.5812 30.6456 13.7176 30.6458 13.888C30.6458 14.1379 30.5549 14.3311 30.3731 14.4674C30.2027 14.5924 29.947 14.6549 29.6062 14.6549C29.2825 14.6549 29.041 14.5897 28.8817 14.4593C28.7169 14.3289 28.6346 14.1386 28.6348 13.8883V13.8626Z" fill="white"/>
<path d="M31.3357 12.3463V13.1814L32.0588 12.3463H32.7746L31.9644 13.2155L32.7824 14.6124H32.0686L31.6495 13.8455C31.5644 13.6922 31.4905 13.627 31.4279 13.6499C31.3654 13.6728 31.3343 13.7058 31.3343 13.7522V14.613H30.7393V11.6817H31.0466C31.0847 11.6812 31.1225 11.6885 31.1576 11.7031C31.1928 11.7178 31.2246 11.7395 31.2511 11.7669C31.2776 11.7921 31.2987 11.8224 31.3131 11.856C31.3275 11.8897 31.335 11.9259 31.3349 11.9624L31.3357 12.3463Z" fill="white"/>
<path d="M32.913 12.3396V11.9764H32.7822V11.9445C32.7822 11.9385 32.7834 11.9325 32.7857 11.9269C32.788 11.9212 32.7914 11.9161 32.7956 11.9119C32.7999 11.9076 32.805 11.9042 32.8106 11.9019C32.8162 11.8996 32.8223 11.8984 32.8283 11.8984H33.1334V11.9767H33.0041V12.3399L32.913 12.3396Z" fill="white"/>
<path d="M33.1504 12.339V11.944C33.1503 11.9379 33.1514 11.9319 33.1537 11.9262C33.156 11.9206 33.1595 11.9155 33.1638 11.9113C33.1725 11.9024 33.1841 11.8972 33.1965 11.8965H33.2851L33.372 12.2337L33.4591 11.8965H33.5955V12.339H33.5116V11.9825L33.422 12.339H33.3284L33.2351 11.9825V12.339H33.1504Z" fill="white"/>
<path d="M24.1992 6.46027C24.7868 6.12721 25.5061 6.12721 26.0938 6.46027V6.46027V6.46027C26.676 6.80263 27.0357 7.42562 27.041 8.10104V8.10104V8.10104C27.0357 8.77646 26.676 9.39945 26.0938 9.74181V9.74181V9.74181C25.5061 10.0749 24.7868 10.0749 24.1992 9.74181V9.74181V9.74181C23.6169 9.39945 23.2572 8.77647 23.2519 8.10104V8.10104V8.10104C23.2572 7.42562 23.6169 6.80263 24.1992 6.46027V6.46027V6.46027Z" fill="white"/>
<path d="M26.2257 8.70036C26.0618 8.60414 25.852 8.48141 25.6884 8.38495C25.667 8.37048 25.6418 8.36274 25.616 8.36274C25.5902 8.36274 25.565 8.37048 25.5437 8.38495L25.204 8.5854C25.1932 8.59367 25.1806 8.59928 25.1673 8.60178C25.1539 8.60428 25.1401 8.6036 25.127 8.5998L24.7666 8.39935C24.7451 8.38967 24.7272 8.37335 24.7157 8.35278C24.7041 8.33221 24.6995 8.30849 24.7024 8.28507V7.90978C24.7005 7.89091 24.7048 7.87196 24.7147 7.85576C24.7245 7.83956 24.7394 7.827 24.757 7.81996L25.0985 7.62226C25.122 7.61141 25.1415 7.59354 25.1545 7.57111C25.1674 7.54868 25.1731 7.52279 25.1707 7.49701L25.1691 6.86779C25.1691 6.79556 25.1369 6.77636 25.0758 6.81156C24.9106 6.90687 24.2441 7.29062 24.0853 7.38044C24.0661 7.39011 24.0496 7.40446 24.0375 7.42215C24.0253 7.43985 24.0177 7.46032 24.0155 7.48169C24.0155 7.48489 24.0139 7.48809 24.0139 7.49129V7.51072C24.0156 7.86224 24.0156 8.21384 24.0139 8.56552V8.67477C24.0123 8.70044 24.0182 8.72604 24.0311 8.74833C24.0439 8.77062 24.0631 8.7886 24.0862 8.80002C24.4208 8.9936 24.7547 9.18696 25.0898 9.38215C25.1061 9.39307 25.1246 9.40031 25.1439 9.40335C25.1633 9.40639 25.1831 9.40516 25.202 9.39975C25.2161 9.39568 25.2296 9.38976 25.2422 9.38215C25.4022 9.28913 25.5601 9.19931 25.7192 9.10606C25.7248 9.10321 25.7301 9.10001 25.7352 9.09646C25.9005 9.0016 26.0643 8.90538 26.2298 8.81053C26.2883 8.77419 26.2883 8.73739 26.2257 8.70036Z" fill="#346989"/>
<defs>
<linearGradient id="paint0_linear" x1="1.4531" y1="22.9094" x2="48.4914" y2="27.3519" gradientUnits="userSpaceOnUse">
<stop stop-color="#032C51"/>
<stop offset="0.398958" stop-color="#103157"/>
<stop offset="1" stop-color="#428FA9"/>
</linearGradient>
<linearGradient id="paint1_linear" x1="40.9998" y1="7.4914" x2="12.2541" y2="43.7283" gradientUnits="userSpaceOnUse">
<stop stop-color="#428DA8"/>
<stop offset="0.513542" stop-color="#243C63"/>
<stop offset="1" stop-color="#04374A"/>
</linearGradient>
</defs>
</svg>
