<svg id="White_Badges" data-name="White Badges" xmlns="http://www.w3.org/2000/svg" viewBox="0 0 704.36 800"><defs><style>.cls-1{fill:#f8f8f8;}.cls-2{fill:#fff;}.cls-3{fill:#dcdfdd;}.cls-4{fill:#ff492c;}.cls-5{fill:#252530;}</style></defs><polygon class="cls-1" points="667.54 638.25 352.18 800 36.82 638.25 36.82 0 667.54 0 667.54 638.25"/><polygon class="cls-2" points="37.56 0 37.56 638.24 668.28 0 37.56 0"/><path class="cls-3" d="M661.54,6V634.58L352.18,793.26,42.82,634.58V6H661.54m6-6H36.82V638.24L352.18,800,667.54,638.24V0Z"/><polygon class="cls-4" points="424.91 114.11 351.55 156.74 279.45 114.11 279.45 0 424.91 0 424.91 114.11"/><path class="cls-2" d="M387.21,56.45H373.54c.38-2.15,1.7-3.34,4.38-4.71l2.52-1.28c4.5-2.31,6.89-4.91,6.89-9.16A7.44,7.44,0,0,0,384.24,35a12,12,0,0,0-7.35-2.27,11.41,11.41,0,0,0-6.24,1.78,10.48,10.48,0,0,0-4.12,4.5l4,4c1.53-3.1,3.76-4.62,6.69-4.62,2.47,0,4,1.28,4,3.05,0,1.49-.74,2.73-3.59,4.17l-1.61.79c-3.51,1.77-6,3.79-7.35,6.11a16.43,16.43,0,0,0-2.1,8.71v1h20.68Z"/><polygon class="cls-2" points="385.38 68.64 362.75 68.64 351.44 88.23 374.07 88.23 385.38 107.83 396.69 88.23 385.38 68.64"/><path class="cls-2" d="M353.39,101.3a26.13,26.13,0,0,1,0-52.26l8.95-18.72a46.35,46.35,0,0,0-8.95-.87,45.72,45.72,0,1,0,26.93,82.67L370.41,95A26,26,0,0,1,353.39,101.3Z"/><polygon class="cls-4" points="681.96 501.65 22.4 501.65 0 445.65 22.4 389.65 681.96 389.65 704.36 445.65 681.96 501.65"/><path class="cls-2" d="M67.73,424.22h4.92a.69.69,0,0,1,.78.79v30.63a.69.69,0,0,1-.78.78H67.73a.69.69,0,0,1-.79-.78V443.22a.24.24,0,0,0-.27-.27H56.59a.24.24,0,0,0-.27.27v12.42a.69.69,0,0,1-.78.78H50.61a.69.69,0,0,1-.78-.78V425a.69.69,0,0,1,.78-.79h4.93a.69.69,0,0,1,.78.79V437.1c0,.19.09.28.27.28H66.67c.18,0,.27-.09.27-.28V425A.7.7,0,0,1,67.73,424.22Z"/><path class="cls-2" d="M79,429.44a4.06,4.06,0,0,1,0-5.56,4.37,4.37,0,0,1,5.73,0,4.18,4.18,0,0,1,0,5.61,4,4,0,0,1-2.88,1.06A3.88,3.88,0,0,1,79,429.44Zm-.37,26.2V433.56a.69.69,0,0,1,.79-.78h4.92a.69.69,0,0,1,.78.78v22.08a.69.69,0,0,1-.78.78H79.46A.69.69,0,0,1,78.67,455.64Z"/><path class="cls-2" d="M105.49,432.78h4.92a.69.69,0,0,1,.79.78v20.75q0,6-3.45,8.6a14.43,14.43,0,0,1-8.88,2.58,30.32,30.32,0,0,1-3.45-.23c-.46,0-.69-.31-.69-.83l.18-4.28a.73.73,0,0,1,.25-.58.71.71,0,0,1,.63-.11,22.29,22.29,0,0,0,2.8.23,7,7,0,0,0,4.53-1.29,5,5,0,0,0,1.59-4.14c0-.09,0-.14-.09-.16s-.14,0-.23.12a6.59,6.59,0,0,1-5.06,1.84,10.84,10.84,0,0,1-5.5-1.45,8,8,0,0,1-3.56-4.67,18.07,18.07,0,0,1-.69-5.48,17.29,17.29,0,0,1,.82-5.84,9.28,9.28,0,0,1,3.27-4.51,8.75,8.75,0,0,1,5.34-1.7,7,7,0,0,1,5.38,2.07c.09.09.17.12.23.09s.09-.1.09-.23v-.78A.69.69,0,0,1,105.49,432.78Zm-.78,11.64a20.63,20.63,0,0,0-.09-2.21,7.51,7.51,0,0,0-.32-1.47,4.16,4.16,0,0,0-1.38-2,3.77,3.77,0,0,0-2.4-.76,3.63,3.63,0,0,0-2.34.76,4.39,4.39,0,0,0-1.43,2,8.92,8.92,0,0,0-.64,3.72,8.8,8.8,0,0,0,.55,3.68,4,4,0,0,0,1.45,2,4,4,0,0,0,2.46.76,3.74,3.74,0,0,0,3.77-2.71A15,15,0,0,0,104.71,444.42Z"/><path class="cls-2" d="M134.1,434.67a8.23,8.23,0,0,1,2.26,6.11v14.86a.69.69,0,0,1-.78.78h-4.93a.69.69,0,0,1-.78-.78V442.12a4.36,4.36,0,0,0-1-3,3.42,3.42,0,0,0-2.71-1.15,3.55,3.55,0,0,0-2.76,1.15,4.21,4.21,0,0,0-1.06,3v13.52a.69.69,0,0,1-.78.78h-4.93a.69.69,0,0,1-.78-.78V425a.69.69,0,0,1,.78-.79h4.93a.69.69,0,0,1,.78.79v9.84c0,.12,0,.2.09.23s.12,0,.18-.09a6.47,6.47,0,0,1,5.57-2.58A8,8,0,0,1,134.1,434.67Z"/><path class="cls-2" d="M157.06,449.2a.79.79,0,0,1,.6-.32.7.7,0,0,1,.5.23l2.62,2.53a.77.77,0,0,1,.28.55.85.85,0,0,1-.18.55,10.52,10.52,0,0,1-3.89,3,12.35,12.35,0,0,1-5.18,1.08,11.08,11.08,0,0,1-7-2.16,10.53,10.53,0,0,1-3.75-5.93,16.14,16.14,0,0,1-.55-4.28,17.61,17.61,0,0,1,.5-4.51,9.83,9.83,0,0,1,3.71-5.47,10.73,10.73,0,0,1,6.6-2.07,9.64,9.64,0,0,1,7.15,2.66,13.39,13.39,0,0,1,3.43,7.5q.18,1.52.27,3.36a.69.69,0,0,1-.78.78H147.26a.25.25,0,0,0-.28.28,6.51,6.51,0,0,0,.33,1.42,3.76,3.76,0,0,0,1.81,2.19,6.72,6.72,0,0,0,3.29.76A6,6,0,0,0,157.06,449.2Zm-8.31-10.51a3.61,3.61,0,0,0-1.35,2c-.16.58-.25,1-.28,1.15s0,.28.23.28h7.82c.16,0,.23-.06.23-.19a3.36,3.36,0,0,0-.18-1.05,4.15,4.15,0,0,0-1.43-2.12,4.08,4.08,0,0,0-2.57-.78A4.15,4.15,0,0,0,148.75,438.69Z"/><path class="cls-2" d="M170.21,455.87a8,8,0,0,1-3.54-2.44,5.52,5.52,0,0,1-1.24-3.54v-.23a.69.69,0,0,1,.78-.78h4.65c.52,0,.78.09.78.28v.32a2,2,0,0,0,1.1,1.72,5.05,5.05,0,0,0,2.81.72,4.74,4.74,0,0,0,2.53-.6,1.8,1.8,0,0,0,1-1.57,1.33,1.33,0,0,0-.83-1.24,14,14,0,0,0-2.72-.87,27.38,27.38,0,0,1-3.35-1.06,14.39,14.39,0,0,1-4.74-2.48,5.24,5.24,0,0,1-1.75-4.24,6.39,6.39,0,0,1,2.67-5.4,11.32,11.32,0,0,1,7-2,13.14,13.14,0,0,1,5.17.94,7.94,7.94,0,0,1,3.46,2.65,6.46,6.46,0,0,1,1.21,3.86.47.47,0,0,1-.2.39.91.91,0,0,1-.58.16h-4.51q-.78,0-.78-.27v-.28a2,2,0,0,0-1-1.7,4.73,4.73,0,0,0-2.71-.69,5.07,5.07,0,0,0-2.51.55,1.68,1.68,0,0,0-1,1.52,1.47,1.47,0,0,0,.94,1.38,16.29,16.29,0,0,0,3.11,1,24.75,24.75,0,0,1,2.57.69,15.09,15.09,0,0,1,5.2,2.49,5.32,5.32,0,0,1,1.89,4.41,6.16,6.16,0,0,1-2.72,5.32,12.41,12.41,0,0,1-7.26,1.91A15.22,15.22,0,0,1,170.21,455.87Z"/><path class="cls-2" d="M202.05,438h-4.14c-.19,0-.28.09-.28.27v9.53a3.37,3.37,0,0,0,.62,2.23,2.53,2.53,0,0,0,2,.71h1.29a.69.69,0,0,1,.78.78v4a.77.77,0,0,1-.78.83c-1.17.06-2,.09-2.53.09a10.14,10.14,0,0,1-5.7-1.29q-1.89-1.29-1.94-4.78V438.25a.24.24,0,0,0-.27-.27h-2.35a.69.69,0,0,1-.78-.78v-3.64a.69.69,0,0,1,.78-.78h2.35c.18,0,.27-.09.27-.28v-5.19a.7.7,0,0,1,.79-.79h4.69a.69.69,0,0,1,.78.79v5.19a.24.24,0,0,0,.28.28h4.14a.69.69,0,0,1,.78.78v3.64A.69.69,0,0,1,202.05,438Z"/><path class="cls-2" d="M221,455.6a9.59,9.59,0,0,1-4.18-3.36,8.72,8.72,0,0,1-1.48-5.06v-.78a.7.7,0,0,1,.79-.79h4.83q.78,0,.78.6v.65a3.77,3.77,0,0,0,1.68,3.1,7.13,7.13,0,0,0,4.39,1.27,5.35,5.35,0,0,0,3.61-1,3.27,3.27,0,0,0,1.17-2.55,2.59,2.59,0,0,0-.73-1.87,6.58,6.58,0,0,0-2-1.33c-.83-.38-2.16-.91-4-1.59a36.14,36.14,0,0,1-5.25-2.16,10.7,10.7,0,0,1-3.58-3,7.45,7.45,0,0,1-1.48-4.72,8.31,8.31,0,0,1,1.43-4.83,9.09,9.09,0,0,1,4-3.17,14.45,14.45,0,0,1,5.82-1.1A15,15,0,0,1,233,425.1a10.08,10.08,0,0,1,4.3,3.47,8.87,8.87,0,0,1,1.55,5.18v.46a.7.7,0,0,1-.79.78h-4.83c-.52,0-.78-.16-.78-.46v-.46a4.19,4.19,0,0,0-1.58-3.29,6.46,6.46,0,0,0-4.35-1.36,5.53,5.53,0,0,0-3.41.92,3,3,0,0,0-1.19,2.53,2.8,2.8,0,0,0,.69,1.93,6.05,6.05,0,0,0,2.09,1.43c.94.43,2.38,1,4.35,1.66,2.14.79,3.85,1.49,5.1,2.09a9.8,9.8,0,0,1,3.39,2.74,7.28,7.28,0,0,1,1.49,4.73,8.5,8.5,0,0,1-1.45,4.93,9.24,9.24,0,0,1-4.09,3.26,17.39,17.39,0,0,1-12.54,0Z"/><path class="cls-2" d="M257.71,433.45a8.75,8.75,0,0,1,3.65,2.83,6.57,6.57,0,0,1,1.31,4v15.36a.69.69,0,0,1-.78.78H257a.69.69,0,0,1-.78-.78v-1.1q0-.18-.09-.21c-.07,0-.14,0-.23.12q-2.13,2.34-6.31,2.34a8.76,8.76,0,0,1-5.7-1.75,6.22,6.22,0,0,1-2.16-5.15,6.62,6.62,0,0,1,2.48-5.5q2.49-2,7.09-1.95h4.64a.24.24,0,0,0,.28-.28v-1a3,3,0,0,0-.95-2.37,3.92,3.92,0,0,0-2.73-.85,5,5,0,0,0-2.28.46,2.39,2.39,0,0,0-1.22,1.29.86.86,0,0,1-.92.59l-5.1-.64a1.14,1.14,0,0,1-.58-.21.41.41,0,0,1-.16-.43,6.09,6.09,0,0,1,1.59-3.41,9.06,9.06,0,0,1,3.58-2.37,14,14,0,0,1,5-.85A13.15,13.15,0,0,1,257.71,433.45Zm-2.9,17.45a3.27,3.27,0,0,0,1.38-2.71v-1.61a.25.25,0,0,0-.28-.28h-3.26a5.86,5.86,0,0,0-3.27.79,2.48,2.48,0,0,0-1.2,2.2,2.37,2.37,0,0,0,.9,2,3.74,3.74,0,0,0,2.37.71A5.33,5.33,0,0,0,254.81,450.9Z"/><path class="cls-2" d="M279.46,438h-4.14a.24.24,0,0,0-.27.27v9.53a3.32,3.32,0,0,0,.62,2.23,2.53,2.53,0,0,0,2,.71H279a.69.69,0,0,1,.78.78v4a.77.77,0,0,1-.78.83c-1.17.06-2,.09-2.53.09a10.2,10.2,0,0,1-5.71-1.29c-1.25-.86-1.9-2.45-1.93-4.78V438.25a.24.24,0,0,0-.27-.27h-2.35a.69.69,0,0,1-.78-.78v-3.64a.69.69,0,0,1,.78-.78h2.35c.18,0,.27-.09.27-.28v-5.19a.69.69,0,0,1,.78-.79h4.7a.69.69,0,0,1,.78.79v5.19c0,.19.09.28.27.28h4.14a.69.69,0,0,1,.79.78v3.64A.69.69,0,0,1,279.46,438Z"/><path class="cls-2" d="M284.89,429.44a4.06,4.06,0,0,1,0-5.56,4.37,4.37,0,0,1,5.73,0,4.18,4.18,0,0,1,0,5.61,4,4,0,0,1-2.88,1.06A3.88,3.88,0,0,1,284.89,429.44Zm-.37,26.2V433.56a.69.69,0,0,1,.79-.78h4.92a.69.69,0,0,1,.78.78v22.08a.69.69,0,0,1-.78.78h-4.92A.69.69,0,0,1,284.52,455.64Z"/><path class="cls-2" d="M300.16,455.87a8,8,0,0,1-3.54-2.44,5.52,5.52,0,0,1-1.24-3.54v-.23a.69.69,0,0,1,.78-.78h4.65c.52,0,.78.09.78.28v.32a2,2,0,0,0,1.1,1.72,5.05,5.05,0,0,0,2.81.72,4.74,4.74,0,0,0,2.53-.6,1.8,1.8,0,0,0,1-1.57,1.33,1.33,0,0,0-.83-1.24,14,14,0,0,0-2.72-.87,27.38,27.38,0,0,1-3.35-1.06,14.39,14.39,0,0,1-4.74-2.48,5.24,5.24,0,0,1-1.75-4.24,6.39,6.39,0,0,1,2.67-5.4,11.32,11.32,0,0,1,7-2,13.14,13.14,0,0,1,5.17.94,7.85,7.85,0,0,1,3.45,2.65,6.4,6.4,0,0,1,1.22,3.86.5.5,0,0,1-.2.39.91.91,0,0,1-.58.16h-4.51q-.78,0-.78-.27v-.28a2,2,0,0,0-1-1.7,4.75,4.75,0,0,0-2.71-.69,5.07,5.07,0,0,0-2.51.55,1.68,1.68,0,0,0-1,1.52,1.47,1.47,0,0,0,.94,1.38,16.29,16.29,0,0,0,3.11,1,24.75,24.75,0,0,1,2.57.69,15.09,15.09,0,0,1,5.2,2.49,5.32,5.32,0,0,1,1.89,4.41,6.16,6.16,0,0,1-2.72,5.32,12.41,12.41,0,0,1-7.26,1.91A15.22,15.22,0,0,1,300.16,455.87Z"/><path class="cls-2" d="M333.24,433.52v3.91a.69.69,0,0,1-.78.78h-4.19a.25.25,0,0,0-.28.27v17.16a.69.69,0,0,1-.78.78h-4.92a.69.69,0,0,1-.78-.78V438.48c0-.18-.09-.27-.28-.27h-2.44a.69.69,0,0,1-.78-.78v-3.91a.69.69,0,0,1,.78-.79h2.44c.19,0,.28-.09.28-.27v-1a9.35,9.35,0,0,1,.87-4.44,4.84,4.84,0,0,1,2.83-2.25,15.93,15.93,0,0,1,5.41-.58h1.51a.7.7,0,0,1,.79.79v3.26a.69.69,0,0,1-.79.78h-1.28a3.26,3.26,0,0,0-2.23.67A3.17,3.17,0,0,0,328,432v.46a.25.25,0,0,0,.28.27h4.19A.69.69,0,0,1,333.24,433.52Z"/><path class="cls-2" d="M351.5,433.45a8.85,8.85,0,0,1,3.66,2.83,6.63,6.63,0,0,1,1.31,4v15.36a.69.69,0,0,1-.78.78h-4.93a.69.69,0,0,1-.78-.78v-1.1q0-.18-.09-.21c-.06,0-.14,0-.23.12q-2.12,2.34-6.3,2.34a8.79,8.79,0,0,1-5.71-1.75,6.22,6.22,0,0,1-2.16-5.15,6.6,6.6,0,0,1,2.49-5.5q2.47-2,7.08-1.95h4.65c.18,0,.27-.09.27-.28v-1a3,3,0,0,0-.94-2.37,4,4,0,0,0-2.74-.85,5,5,0,0,0-2.28.46,2.37,2.37,0,0,0-1.21,1.29.87.87,0,0,1-.92.59l-5.11-.64a1.14,1.14,0,0,1-.58-.21A.43.43,0,0,1,336,439a6.22,6.22,0,0,1,1.59-3.41,9.1,9.1,0,0,1,3.59-2.37,13.92,13.92,0,0,1,4.94-.85A13.08,13.08,0,0,1,351.5,433.45Zm-2.9,17.45a3.27,3.27,0,0,0,1.38-2.71v-1.61a.25.25,0,0,0-.27-.28h-3.27a5.86,5.86,0,0,0-3.27.79,2.49,2.49,0,0,0-1.19,2.2,2.39,2.39,0,0,0,.89,2,3.74,3.74,0,0,0,2.37.71A5.33,5.33,0,0,0,348.6,450.9Z"/><path class="cls-2" d="M365,455a10,10,0,0,1-3.84-5.06,16.92,16.92,0,0,1-.78-5.43,16.32,16.32,0,0,1,.78-5.33,9.52,9.52,0,0,1,3.82-4.92,11.3,11.3,0,0,1,6.39-1.8,11.46,11.46,0,0,1,6.46,1.84,8.87,8.87,0,0,1,3.71,4.65,5.58,5.58,0,0,1,.37,1.42v.1c0,.39-.23.64-.69.73l-4.83.74-.23,0a.59.59,0,0,1-.65-.55l-.14-.64a3.49,3.49,0,0,0-1.42-2,4.43,4.43,0,0,0-2.62-.78,4.12,4.12,0,0,0-2.49.73,3.89,3.89,0,0,0-1.42,2,11.22,11.22,0,0,0-.51,3.77,12.25,12.25,0,0,0,.46,3.77,4.11,4.11,0,0,0,1.45,2.16,4,4,0,0,0,2.51.79,4.27,4.27,0,0,0,2.5-.76,3.93,3.93,0,0,0,1.5-2.05l0-.23a1,1,0,0,1,.33-.44.69.69,0,0,1,.59-.2l4.83.73a.88.88,0,0,1,.53.32.76.76,0,0,1,.12.56,4.18,4.18,0,0,1-.23,1,8.59,8.59,0,0,1-3.75,4.83,11.8,11.8,0,0,1-6.42,1.75A11,11,0,0,1,365,455Z"/><path class="cls-2" d="M398.46,438h-4.13c-.19,0-.28.09-.28.27v9.53a3.37,3.37,0,0,0,.62,2.23,2.53,2.53,0,0,0,2,.71H398a.69.69,0,0,1,.78.78v4a.77.77,0,0,1-.78.83c-1.17.06-2,.09-2.53.09a10.14,10.14,0,0,1-5.7-1.29q-1.89-1.29-1.94-4.78V438.25a.24.24,0,0,0-.27-.27h-2.35a.69.69,0,0,1-.78-.78v-3.64a.69.69,0,0,1,.78-.78h2.35c.18,0,.27-.09.27-.28v-5.19a.7.7,0,0,1,.79-.79h4.69a.69.69,0,0,1,.78.79v5.19a.24.24,0,0,0,.28.28h4.13a.69.69,0,0,1,.79.78v3.64A.69.69,0,0,1,398.46,438Z"/><path class="cls-2" d="M403.89,429.44a4.06,4.06,0,0,1,0-5.56,4.37,4.37,0,0,1,5.73,0,4.18,4.18,0,0,1,0,5.61,4,4,0,0,1-2.88,1.06A3.88,3.88,0,0,1,403.89,429.44Zm-.37,26.2V433.56a.7.7,0,0,1,.79-.78h4.92a.69.69,0,0,1,.78.78v22.08a.69.69,0,0,1-.78.78h-4.92A.7.7,0,0,1,403.52,455.64Z"/><path class="cls-2" d="M418.93,454.77a10.14,10.14,0,0,1-3.77-5.52,16.36,16.36,0,0,1-.64-4.69,15.49,15.49,0,0,1,.69-4.88,9.93,9.93,0,0,1,3.79-5.34,11.3,11.3,0,0,1,6.65-1.93,10.83,10.83,0,0,1,6.46,1.93,10,10,0,0,1,3.75,5.29,15.56,15.56,0,0,1,.69,4.83,18,18,0,0,1-.6,4.65,10.48,10.48,0,0,1-3.79,5.63,10.62,10.62,0,0,1-6.56,2.05A11,11,0,0,1,418.93,454.77Zm9.2-4.46a5.08,5.08,0,0,0,1.52-2.53,11.48,11.48,0,0,0,.37-3.22,12.27,12.27,0,0,0-.37-3.27,4.76,4.76,0,0,0-1.52-2.44,4,4,0,0,0-2.62-.87,3.9,3.9,0,0,0-2.57.87,4.76,4.76,0,0,0-1.52,2.44,12.27,12.27,0,0,0-.37,3.27,12.08,12.08,0,0,0,.37,3.22,5,5,0,0,0,1.54,2.53,4,4,0,0,0,2.64.92A3.72,3.72,0,0,0,428.13,450.31Z"/><path class="cls-2" d="M459,434.67a8.26,8.26,0,0,1,2.25,6.11v14.86a.69.69,0,0,1-.78.78h-4.92a.69.69,0,0,1-.78-.78V442.12a4.36,4.36,0,0,0-1-3A3.44,3.44,0,0,0,451,438a3.58,3.58,0,0,0-2.76,1.15,4.25,4.25,0,0,0-1.06,3v13.52a.69.69,0,0,1-.78.78h-4.92a.69.69,0,0,1-.78-.78V433.56a.69.69,0,0,1,.78-.78h4.92a.69.69,0,0,1,.78.78v1.29c0,.12,0,.2.1.23s.12,0,.18-.09a6.46,6.46,0,0,1,5.57-2.58A8,8,0,0,1,459,434.67Z"/><path class="cls-2" d="M494.14,425.42a8.71,8.71,0,0,1,3.57,3.52,10.61,10.61,0,0,1,1.26,5.22,9.79,9.79,0,0,1-1.31,5.11,8.88,8.88,0,0,1-3.68,3.42,11.64,11.64,0,0,1-5.45,1.22h-6.48a.24.24,0,0,0-.28.28v11.45a.69.69,0,0,1-.78.78h-4.92a.69.69,0,0,1-.78-.78V425a.69.69,0,0,1,.78-.78h12.74A11,11,0,0,1,494.14,425.42Zm-2.89,12.07a4.17,4.17,0,0,0,1.29-3.19,4.34,4.34,0,0,0-1.29-3.27,4.71,4.71,0,0,0-3.41-1.24h-5.79a.24.24,0,0,0-.28.28v8.37c0,.18.09.27.28.27h5.79A4.74,4.74,0,0,0,491.25,437.49Z"/><path class="cls-2" d="M516.78,433a.8.8,0,0,1,.41,1l-.87,4.83c0,.27-.12.44-.26.5a1.19,1.19,0,0,1-.66,0,5.7,5.7,0,0,0-1.34-.18,10,10,0,0,0-1.06.09,4.49,4.49,0,0,0-2.8,1.22,3.74,3.74,0,0,0-1.15,2.87v12.33a.69.69,0,0,1-.78.78h-4.93a.69.69,0,0,1-.78-.78V433.56a.69.69,0,0,1,.78-.78h4.93a.69.69,0,0,1,.78.78V435c0,.12,0,.2.09.23s.14,0,.23-.09a5.74,5.74,0,0,1,5-2.67A4.87,4.87,0,0,1,516.78,433Z"/><path class="cls-2" d="M523.4,454.77a10.09,10.09,0,0,1-3.77-5.52,16.36,16.36,0,0,1-.64-4.69,15.49,15.49,0,0,1,.69-4.88,9.93,9.93,0,0,1,3.79-5.34,11.28,11.28,0,0,1,6.65-1.93,10.83,10.83,0,0,1,6.46,1.93,10.1,10.1,0,0,1,3.75,5.29,15.56,15.56,0,0,1,.69,4.83,18,18,0,0,1-.6,4.65,10.48,10.48,0,0,1-3.79,5.63,10.62,10.62,0,0,1-6.56,2.05A11,11,0,0,1,523.4,454.77Zm9.2-4.46a5.15,5.15,0,0,0,1.52-2.53,11.87,11.87,0,0,0,.37-3.22,12.7,12.7,0,0,0-.37-3.27,4.83,4.83,0,0,0-1.52-2.44,4.32,4.32,0,0,0-5.2,0,4.81,4.81,0,0,0-1.51,2.44,12.27,12.27,0,0,0-.37,3.27,12.08,12.08,0,0,0,.37,3.22,5,5,0,0,0,1.54,2.53,4,4,0,0,0,2.64.92A3.74,3.74,0,0,0,532.6,450.31Z"/><path class="cls-2" d="M560.25,424.22h4.92a.69.69,0,0,1,.78.79v30.63a.69.69,0,0,1-.78.78h-4.92a.69.69,0,0,1-.78-.78V454.4q0-.18-.12-.21a.22.22,0,0,0-.21.12,6.21,6.21,0,0,1-5.24,2.48,8.82,8.82,0,0,1-5.54-1.86A9.5,9.5,0,0,1,545,450a16.74,16.74,0,0,1-.78-5.52,16.19,16.19,0,0,1,.87-5.7,9.67,9.67,0,0,1,3.34-4.7,8.83,8.83,0,0,1,5.45-1.74,6.37,6.37,0,0,1,5.24,2.25q.09.13.21.09c.08,0,.12-.11.12-.23V425A.69.69,0,0,1,560.25,424.22Zm-.83,20.38a9.63,9.63,0,0,0-1-4.74,3.51,3.51,0,0,0-3.08-1.79,3.57,3.57,0,0,0-3.22,1.75,9.24,9.24,0,0,0-1.1,4.83,9.5,9.5,0,0,0,1,4.51,3.62,3.62,0,0,0,3.36,2,3.45,3.45,0,0,0,3.13-2A9.69,9.69,0,0,0,559.42,444.6Z"/><path class="cls-2" d="M585.41,432.78h4.92a.69.69,0,0,1,.78.78v22.08a.69.69,0,0,1-.78.78h-4.92a.69.69,0,0,1-.78-.78V454.4q0-.18-.12-.21a.21.21,0,0,0-.2.12c-1.2,1.62-3.09,2.44-5.66,2.44a8.07,8.07,0,0,1-5.75-2.12,7.72,7.72,0,0,1-2.26-5.93V433.56a.69.69,0,0,1,.79-.78h4.87a.69.69,0,0,1,.78.78v13.53a4.44,4.44,0,0,0,1,3,3.44,3.44,0,0,0,2.74,1.15,3.65,3.65,0,0,0,2.58-1,4.15,4.15,0,0,0,1.24-2.46V433.56A.69.69,0,0,1,585.41,432.78Z"/><path class="cls-2" d="M599.92,455a10,10,0,0,1-3.84-5.06,16.92,16.92,0,0,1-.78-5.43,16.32,16.32,0,0,1,.78-5.33,9.52,9.52,0,0,1,3.82-4.92,11.3,11.3,0,0,1,6.39-1.8,11.52,11.52,0,0,1,6.47,1.84,8.85,8.85,0,0,1,3.7,4.65,5.19,5.19,0,0,1,.37,1.42v.1c0,.39-.23.64-.69.73l-4.83.74-.23,0a.59.59,0,0,1-.65-.55l-.13-.64a3.5,3.5,0,0,0-1.43-2,4.43,4.43,0,0,0-2.62-.78,4.14,4.14,0,0,0-2.49.73,3.89,3.89,0,0,0-1.42,2,11.22,11.22,0,0,0-.51,3.77,12.57,12.57,0,0,0,.46,3.77,4.11,4.11,0,0,0,1.45,2.16,4,4,0,0,0,2.51.79,4.27,4.27,0,0,0,2.5-.76,3.93,3.93,0,0,0,1.5-2.05l0-.23a1,1,0,0,1,.32-.44.7.7,0,0,1,.6-.2l4.83.73a.91.91,0,0,1,.53.32.8.8,0,0,1,.11.56,4.18,4.18,0,0,1-.23,1,8.51,8.51,0,0,1-3.75,4.83,11.75,11.75,0,0,1-6.42,1.75A11,11,0,0,1,599.92,455Z"/><path class="cls-2" d="M633.39,438h-4.14c-.19,0-.28.09-.28.27v9.53a3.37,3.37,0,0,0,.62,2.23,2.55,2.55,0,0,0,2,.71h1.29a.69.69,0,0,1,.78.78v4a.77.77,0,0,1-.78.83c-1.17.06-2,.09-2.53.09a10.16,10.16,0,0,1-5.7-1.29q-1.89-1.29-1.94-4.78V438.25a.24.24,0,0,0-.27-.27h-2.35a.69.69,0,0,1-.78-.78v-3.64a.69.69,0,0,1,.78-.78h2.35c.18,0,.27-.09.27-.28v-5.19a.7.7,0,0,1,.79-.79h4.69a.69.69,0,0,1,.78.79v5.19a.24.24,0,0,0,.28.28h4.14a.69.69,0,0,1,.78.78v3.64A.69.69,0,0,1,633.39,438Z"/><path class="cls-2" d="M642.13,455.87a8,8,0,0,1-3.55-2.44,5.57,5.57,0,0,1-1.24-3.54v-.23a.69.69,0,0,1,.78-.78h4.65c.52,0,.78.09.78.28v.32a2,2,0,0,0,1.11,1.72,5,5,0,0,0,2.8.72,4.74,4.74,0,0,0,2.53-.6,1.78,1.78,0,0,0,1-1.57,1.33,1.33,0,0,0-.83-1.24,14.14,14.14,0,0,0-2.71-.87,27.08,27.08,0,0,1-3.36-1.06,14.49,14.49,0,0,1-4.74-2.48,5.24,5.24,0,0,1-1.75-4.24,6.39,6.39,0,0,1,2.67-5.4,11.32,11.32,0,0,1,7-2,13.23,13.23,0,0,1,5.18.94,8,8,0,0,1,3.45,2.65,6.47,6.47,0,0,1,1.22,3.86.49.49,0,0,1-.21.39.91.91,0,0,1-.58.16h-4.5c-.53,0-.79-.09-.79-.27v-.28a2,2,0,0,0-1-1.7,4.73,4.73,0,0,0-2.71-.69,5.1,5.1,0,0,0-2.51.55,1.68,1.68,0,0,0-1,1.52,1.48,1.48,0,0,0,1,1.38,15.9,15.9,0,0,0,3.1,1,25.64,25.64,0,0,1,2.58.69,15,15,0,0,1,5.19,2.49,5.32,5.32,0,0,1,1.89,4.41,6.15,6.15,0,0,1-2.71,5.32,12.45,12.45,0,0,1-7.27,1.91A15.13,15.13,0,0,1,642.13,455.87Z"/><path class="cls-5" d="M139.18,567.43c0,.08.06.14.16.19a6.31,6.31,0,0,1,3.42,6.07,6.56,6.56,0,0,1-2.65,5.72,11.8,11.8,0,0,1-7,1.88h-10a.68.68,0,0,1-.5-.19.66.66,0,0,1-.19-.5V555.1a.65.65,0,0,1,.69-.69h9.68q4.68,0,7.08,1.77t2.4,5.72a5.55,5.55,0,0,1-3,5.34C139.24,567.29,139.18,567.35,139.18,567.43Zm-10.33-7.3v4.69a.24.24,0,0,0,.27.27h3.73a3.81,3.81,0,0,0,2.42-.68,2.28,2.28,0,0,0,.84-1.9,2.42,2.42,0,0,0-.84-2,3.75,3.75,0,0,0-2.42-.69h-3.73A.24.24,0,0,0,128.85,560.13Zm6.69,15a2.91,2.91,0,0,0,0-4.07,3.64,3.64,0,0,0-2.4-.71h-4a.24.24,0,0,0-.27.27v4.95a.24.24,0,0,0,.27.27h4A3.63,3.63,0,0,0,135.54,575.09Z"/><path class="cls-5" d="M166,559.67a.68.68,0,0,1-.5.19H153.78a.24.24,0,0,0-.27.27v4.57a.24.24,0,0,0,.27.27h7.41a.72.72,0,0,1,.5.19.68.68,0,0,1,.19.5v4a.65.65,0,0,1-.19.5.69.69,0,0,1-.5.2h-7.41a.24.24,0,0,0-.27.26v4.92a.24.24,0,0,0,.27.27h11.75a.65.65,0,0,1,.69.69v4.07a.66.66,0,0,1-.19.5.68.68,0,0,1-.5.19h-17.7a.65.65,0,0,1-.5-.19.67.67,0,0,1-.2-.5V555.1a.69.69,0,0,1,.2-.5.65.65,0,0,1,.5-.19h17.7a.65.65,0,0,1,.69.69v4.07A.66.66,0,0,1,166,559.67Z"/><path class="cls-5" d="M174.46,580.58a8,8,0,0,1-3.59-2.92,7.67,7.67,0,0,1-1.27-4.39v-.5a.65.65,0,0,1,.69-.69h4.88a.81.81,0,0,1,.49.13.4.4,0,0,1,.2.33V573a2.73,2.73,0,0,0,1.25,2.19,5.1,5.1,0,0,0,3.2,1,3.68,3.68,0,0,0,2.5-.73,2.21,2.21,0,0,0,.8-1.69,1.81,1.81,0,0,0-.94-1.65,16.09,16.09,0,0,0-3.36-1.35l-.84-.27a31.41,31.41,0,0,1-4.3-1.74A9.33,9.33,0,0,1,171,566.1a6.49,6.49,0,0,1-1.31-4.12,7.11,7.11,0,0,1,1.25-4.17,8,8,0,0,1,3.46-2.75,12.44,12.44,0,0,1,5-1,12.68,12.68,0,0,1,5.32,1.08,8.83,8.83,0,0,1,3.7,3,7.76,7.76,0,0,1,1.35,4.5v.3a.7.7,0,0,1-.19.5.68.68,0,0,1-.5.19h-4.88a1.18,1.18,0,0,1-.5-.09.31.31,0,0,1-.19-.29V563a3.11,3.11,0,0,0-1.19-2.38,4.71,4.71,0,0,0-3.19-1,3.9,3.9,0,0,0-2.34.61,2,2,0,0,0-.85,1.73,1.93,1.93,0,0,0,.54,1.4,5.06,5.06,0,0,0,1.67,1c.76.32,1.91.73,3.48,1.25,1.79.61,3.18,1.15,4.18,1.61a8.37,8.37,0,0,1,2.82,2.24,6.06,6.06,0,0,1,1.33,4.09,7.23,7.23,0,0,1-1.27,4.25,8.2,8.2,0,0,1-3.57,2.82,14.65,14.65,0,0,1-10.69,0Z"/><path class="cls-5" d="M213.61,554.6a.72.72,0,0,1,.19.5v4.11a.7.7,0,0,1-.19.5.68.68,0,0,1-.5.19h-6.42a.24.24,0,0,0-.27.27V580.6a.65.65,0,0,1-.69.69h-5a.68.68,0,0,1-.5-.19.66.66,0,0,1-.19-.5V560.17a.24.24,0,0,0-.27-.27H193.6a.65.65,0,0,1-.69-.69V555.1a.68.68,0,0,1,.19-.5.66.66,0,0,1,.5-.19h19.51A.68.68,0,0,1,213.61,554.6Z"/><path class="cls-5" d="M230.37,580.58a8,8,0,0,1-3.59-2.92,7.67,7.67,0,0,1-1.27-4.39v-.5a.65.65,0,0,1,.69-.69h4.88a.87.87,0,0,1,.5.13.41.41,0,0,1,.19.33V573a2.73,2.73,0,0,0,1.25,2.19,5.1,5.1,0,0,0,3.2,1,3.68,3.68,0,0,0,2.5-.73,2.22,2.22,0,0,0,.81-1.69,1.82,1.82,0,0,0-.95-1.65,16.09,16.09,0,0,0-3.36-1.35l-.84-.27a31.41,31.41,0,0,1-4.3-1.74,9.33,9.33,0,0,1-3.15-2.62,6.49,6.49,0,0,1-1.31-4.12,7.11,7.11,0,0,1,1.25-4.17,8,8,0,0,1,3.46-2.75,12.44,12.44,0,0,1,5-1,12.68,12.68,0,0,1,5.32,1.08,8.83,8.83,0,0,1,3.7,3,7.76,7.76,0,0,1,1.35,4.5v.3a.7.7,0,0,1-.19.5.68.68,0,0,1-.5.19h-4.88a1.18,1.18,0,0,1-.5-.09.31.31,0,0,1-.19-.29V563a3.11,3.11,0,0,0-1.19-2.38,4.71,4.71,0,0,0-3.19-1,3.9,3.9,0,0,0-2.34.61,2,2,0,0,0-.85,1.73,1.93,1.93,0,0,0,.54,1.4,5.17,5.17,0,0,0,1.67,1c.76.32,1.91.73,3.48,1.25,1.79.61,3.18,1.15,4.18,1.61a8.5,8.5,0,0,1,2.83,2.24,6.11,6.11,0,0,1,1.32,4.09,7.23,7.23,0,0,1-1.27,4.25,8.2,8.2,0,0,1-3.57,2.82,13.12,13.12,0,0,1-5.3,1A13.29,13.29,0,0,1,230.37,580.58Z"/><path class="cls-5" d="M254.52,580.47a9.09,9.09,0,0,1-3.67-3.52,10.34,10.34,0,0,1-1.3-5.26V564a10.07,10.07,0,0,1,1.3-5.16,9,9,0,0,1,3.67-3.5,12.64,12.64,0,0,1,11,0,9,9,0,0,1,3.69,3.5,10.07,10.07,0,0,1,1.31,5.16v7.68a10.34,10.34,0,0,1-1.31,5.26,9,9,0,0,1-3.69,3.52,12.73,12.73,0,0,1-11,0Zm8.45-5.4a4.46,4.46,0,0,0,1.13-3.19v-8a4.45,4.45,0,0,0-1.13-3.16,3.89,3.89,0,0,0-3-1.21,3.81,3.81,0,0,0-2.93,1.21,4.41,4.41,0,0,0-1.14,3.16v8a4.42,4.42,0,0,0,1.14,3.19,3.87,3.87,0,0,0,2.93,1.19A4,4,0,0,0,263,575.07Z"/><path class="cls-5" d="M293.63,559.67a.66.66,0,0,1-.5.19H281.42a.24.24,0,0,0-.27.27v4.57a.24.24,0,0,0,.27.27h7.41a.7.7,0,0,1,.5.19.68.68,0,0,1,.19.5v4a.65.65,0,0,1-.19.5.67.67,0,0,1-.5.2h-7.41a.24.24,0,0,0-.27.26v10a.66.66,0,0,1-.19.5.68.68,0,0,1-.5.19h-5a.65.65,0,0,1-.69-.69V555.1a.68.68,0,0,1,.19-.5.66.66,0,0,1,.5-.19h17.66a.66.66,0,0,1,.5.19.68.68,0,0,1,.19.5v4.07A.66.66,0,0,1,293.63,559.67Z"/><path class="cls-5" d="M316.83,554.6a.72.72,0,0,1,.19.5v4.11a.7.7,0,0,1-.19.5.68.68,0,0,1-.5.19h-6.42a.24.24,0,0,0-.26.27V580.6a.67.67,0,0,1-.2.5.65.65,0,0,1-.5.19h-5a.68.68,0,0,1-.5-.19.7.7,0,0,1-.19-.5V560.17a.24.24,0,0,0-.27-.27h-6.18a.68.68,0,0,1-.5-.19.66.66,0,0,1-.19-.5V555.1a.65.65,0,0,1,.69-.69h19.51A.68.68,0,0,1,316.83,554.6Z"/><path class="cls-5" d="M326,580.72l-7-25.54a.47.47,0,0,1,0-.23c0-.36.2-.54.61-.54H325a.83.83,0,0,1,.52.17.73.73,0,0,1,.25.45L329,568.58c.05.1.11.15.17.15s.11-.05.14-.15L332.38,555a.7.7,0,0,1,.77-.62h4.57a.74.74,0,0,1,.77.62l3.37,13.55c.06.1.11.15.18.15s.11-.05.13-.15l3-13.55a.68.68,0,0,1,.25-.45.81.81,0,0,1,.52-.17h5.22a.56.56,0,0,1,.61.77l-6.37,25.5a.73.73,0,0,1-.77.61h-5.11a.83.83,0,0,1-.52-.17.7.7,0,0,1-.25-.44l-3.22-14.4c0-.13-.08-.2-.16-.2s-.12.07-.15.2l-2.92,14.4a.67.67,0,0,1-.73.61h-4.76A.72.72,0,0,1,326,580.72Z"/><path class="cls-5" d="M367.79,580.72l-.89-3.15c0-.16-.13-.23-.31-.23h-8.67a.29.29,0,0,0-.31.23l-.88,3.15a.72.72,0,0,1-.77.57h-5.42a.65.65,0,0,1-.54-.21.6.6,0,0,1,0-.56L358,555a.78.78,0,0,1,.81-.58h6.79a.74.74,0,0,1,.81.58l8.1,25.53a.61.61,0,0,1,0,.27c0,.34-.2.5-.61.5h-5.42A.71.71,0,0,1,367.79,580.72Zm-8.61-8.53a.21.21,0,0,0,.23.23h5.69a.22.22,0,0,0,.21-.1.25.25,0,0,0,0-.21l-2.92-10.21c0-.13-.07-.19-.14-.19s-.12.06-.17.19l-2.92,10.21Z"/><path class="cls-5" d="M392.21,580.75l-4.46-10a.29.29,0,0,0-.3-.19h-2.38a.24.24,0,0,0-.27.27v9.75a.67.67,0,0,1-.2.5.64.64,0,0,1-.49.19h-5a.68.68,0,0,1-.5-.19.7.7,0,0,1-.19-.5V555.1a.72.72,0,0,1,.19-.5.68.68,0,0,1,.5-.19h11.18a9.23,9.23,0,0,1,4.45,1,7.34,7.34,0,0,1,3,2.94,8.83,8.83,0,0,1,1,4.35,7.82,7.82,0,0,1-1.24,4.42,7.14,7.14,0,0,1-3.48,2.73.25.25,0,0,0-.15.38l4.91,10.22.08.3c0,.34-.21.5-.61.5H393A.81.81,0,0,1,392.21,580.75Zm-7.41-20.62v5.3a.24.24,0,0,0,.27.27h4.18a3.28,3.28,0,0,0,2.3-.79,2.66,2.66,0,0,0,.89-2.09,2.77,2.77,0,0,0-.89-2.15,3.25,3.25,0,0,0-2.3-.81h-4.18A.24.24,0,0,0,384.8,560.13Z"/><path class="cls-5" d="M421.85,559.67a.66.66,0,0,1-.5.19H409.6a.24.24,0,0,0-.27.27v4.57a.24.24,0,0,0,.27.27H417a.67.67,0,0,1,.7.69v4a.68.68,0,0,1-.7.7H409.6a.24.24,0,0,0-.27.26v4.92a.24.24,0,0,0,.27.27h11.75a.66.66,0,0,1,.5.19.68.68,0,0,1,.19.5v4.07a.65.65,0,0,1-.69.69h-17.7a.68.68,0,0,1-.5-.19.66.66,0,0,1-.19-.5V555.1a.65.65,0,0,1,.69-.69h17.7a.66.66,0,0,1,.5.19.68.68,0,0,1,.19.5v4.07A.66.66,0,0,1,421.85,559.67Z"/><path class="cls-5" d="M451.69,580.72l-.88-3.15c0-.16-.13-.23-.31-.23h-8.68a.3.3,0,0,0-.31.23l-.88,3.15a.72.72,0,0,1-.77.57h-5.41a.62.62,0,0,1-.54-.21.59.59,0,0,1,0-.56L441.94,555a.76.76,0,0,1,.8-.58h6.8a.75.75,0,0,1,.81.58l8.1,25.53a.81.81,0,0,1,0,.27c0,.34-.21.5-.62.5h-5.41A.72.72,0,0,1,451.69,580.72Zm-8.6-8.53a.2.2,0,0,0,.23.23H449a.22.22,0,0,0,.23-.31l-2.92-10.21c0-.13-.07-.19-.13-.19s-.12.06-.17.19l-2.92,10.21Z"/><path class="cls-5" d="M462.67,580.72l-7-25.54a.47.47,0,0,1,0-.23c0-.36.2-.54.61-.54h5.38a.83.83,0,0,1,.52.17.73.73,0,0,1,.25.45l3.22,13.55c.05.1.11.15.17.15s.11-.05.14-.15L469,555a.7.7,0,0,1,.77-.62h4.57a.74.74,0,0,1,.77.62l3.37,13.55c.06.1.11.15.18.15s.11-.05.13-.15l3-13.55a.68.68,0,0,1,.25-.45.81.81,0,0,1,.52-.17h5.22a.56.56,0,0,1,.61.77L482,580.68a.73.73,0,0,1-.77.61h-5.11a.83.83,0,0,1-.52-.17.7.7,0,0,1-.25-.44l-3.22-14.4c0-.13-.08-.2-.16-.2s-.12.07-.15.2l-2.92,14.4a.67.67,0,0,1-.73.61h-4.76A.72.72,0,0,1,462.67,580.72Z"/><path class="cls-5" d="M504.41,580.72l-.88-3.15c0-.16-.13-.23-.31-.23h-8.67a.29.29,0,0,0-.31.23l-.88,3.15a.72.72,0,0,1-.77.57h-5.42a.65.65,0,0,1-.54-.21.6.6,0,0,1,0-.56L494.66,555a.78.78,0,0,1,.81-.58h6.79a.74.74,0,0,1,.81.58l8.1,25.53a.61.61,0,0,1,0,.27c0,.34-.2.5-.61.5h-5.42A.72.72,0,0,1,504.41,580.72Zm-8.6-8.53a.21.21,0,0,0,.23.23h5.69a.22.22,0,0,0,.21-.1.25.25,0,0,0,0-.21L499,561.9c0-.13-.07-.19-.14-.19s-.12.06-.17.19l-2.92,10.21Z"/><path class="cls-5" d="M528.84,580.75l-4.46-10a.29.29,0,0,0-.3-.19H521.7a.24.24,0,0,0-.27.27v9.75a.67.67,0,0,1-.2.5.64.64,0,0,1-.49.19h-5a.68.68,0,0,1-.5-.19.7.7,0,0,1-.19-.5V555.1a.72.72,0,0,1,.19-.5.68.68,0,0,1,.5-.19h11.18a9.23,9.23,0,0,1,4.45,1,7.34,7.34,0,0,1,3,2.94,8.83,8.83,0,0,1,1,4.35,7.82,7.82,0,0,1-1.24,4.42,7.18,7.18,0,0,1-3.48,2.73.25.25,0,0,0-.15.38l4.91,10.22.08.3c0,.34-.21.5-.61.5h-5.27A.81.81,0,0,1,528.84,580.75Zm-7.41-20.62v5.3a.24.24,0,0,0,.27.27h4.18a3.28,3.28,0,0,0,2.3-.79,2.66,2.66,0,0,0,.89-2.09,2.77,2.77,0,0,0-.89-2.15,3.25,3.25,0,0,0-2.3-.81H521.7A.24.24,0,0,0,521.43,560.13Z"/><path class="cls-5" d="M539.78,581.1a.66.66,0,0,1-.19-.5V555.1a.65.65,0,0,1,.69-.69h9.56a12.79,12.79,0,0,1,5.3,1,8.1,8.1,0,0,1,3.57,2.95,7.82,7.82,0,0,1,1.27,4.42v10.06a7.79,7.79,0,0,1-1.27,4.42,8.1,8.1,0,0,1-3.57,3,12.63,12.63,0,0,1-5.3,1h-9.56A.68.68,0,0,1,539.78,581.1Zm6.45-5.26h3.88a3.17,3.17,0,0,0,2.5-1.1,4.44,4.44,0,0,0,1-2.93V563.9a4.26,4.26,0,0,0-1-2.94,3.29,3.29,0,0,0-2.56-1.1h-3.84a.24.24,0,0,0-.27.27v15.44A.24.24,0,0,0,546.23,575.84Z"/><path class="cls-5" d="M568.49,580.58a8,8,0,0,1-3.59-2.92,7.67,7.67,0,0,1-1.27-4.39v-.5a.65.65,0,0,1,.69-.69h4.88a.87.87,0,0,1,.5.13.41.41,0,0,1,.19.33V573a2.73,2.73,0,0,0,1.25,2.19,5.1,5.1,0,0,0,3.2,1,3.68,3.68,0,0,0,2.5-.73,2.21,2.21,0,0,0,.8-1.69,1.81,1.81,0,0,0-.94-1.65,16.09,16.09,0,0,0-3.36-1.35l-.84-.27a31.41,31.41,0,0,1-4.3-1.74,9.33,9.33,0,0,1-3.15-2.62,6.49,6.49,0,0,1-1.31-4.12,7.11,7.11,0,0,1,1.25-4.17,8,8,0,0,1,3.46-2.75,12.44,12.44,0,0,1,5-1,12.68,12.68,0,0,1,5.32,1.08,8.83,8.83,0,0,1,3.7,3,7.76,7.76,0,0,1,1.35,4.5v.3a.7.7,0,0,1-.19.5.68.68,0,0,1-.5.19h-4.88a1.18,1.18,0,0,1-.5-.09.31.31,0,0,1-.19-.29V563a3.11,3.11,0,0,0-1.19-2.38,4.71,4.71,0,0,0-3.19-1,3.9,3.9,0,0,0-2.34.61,2,2,0,0,0-.85,1.73,1.93,1.93,0,0,0,.54,1.4,5.06,5.06,0,0,0,1.67,1c.76.32,1.91.73,3.48,1.25,1.79.61,3.18,1.15,4.18,1.61a8.37,8.37,0,0,1,2.82,2.24,6.06,6.06,0,0,1,1.33,4.09,7.23,7.23,0,0,1-1.27,4.25,8.2,8.2,0,0,1-3.57,2.82,13.15,13.15,0,0,1-5.3,1A13.29,13.29,0,0,1,568.49,580.58Z"/><path class="cls-5" d="M205.82,241.59a2.35,2.35,0,0,1,.67,1.74v14.39a2.3,2.3,0,0,1-2.42,2.41H181.63a.84.84,0,0,0-.95.95v71.5a2.3,2.3,0,0,1-2.41,2.42H160.79a2.34,2.34,0,0,1-1.74-.67,2.37,2.37,0,0,1-.68-1.75v-71.5a.84.84,0,0,0-.94-.95H135.79a2.31,2.31,0,0,1-2.42-2.41V243.33a2.33,2.33,0,0,1,2.42-2.42h68.28A2.37,2.37,0,0,1,205.82,241.59Z"/><path class="cls-5" d="M214.62,329.62a31.68,31.68,0,0,1-11.36-17.47,43.14,43.14,0,0,1-1.61-12.1,48.41,48.41,0,0,1,1.75-13,29.93,29.93,0,0,1,11.49-16.6q8.4-6,20.36-6t20,6a31,31,0,0,1,11.42,16.46,43,43,0,0,1,1.89,12.9,46.71,46.71,0,0,1-1.48,11.83,31.59,31.59,0,0,1-11.29,17.88q-8.48,6.58-20.7,6.58T214.62,329.62Zm27-15.12a13.66,13.66,0,0,0,3.69-6.79,33.91,33.91,0,0,0,.81-7.66,31.84,31.84,0,0,0-.94-7.79,12.63,12.63,0,0,0-3.63-6.45,10.33,10.33,0,0,0-13,0,12.78,12.78,0,0,0-3.56,6.45,26.29,26.29,0,0,0-.94,7.79,34.51,34.51,0,0,0,.8,7.66,14.84,14.84,0,0,0,3.77,6.79,8.85,8.85,0,0,0,6.45,2.49A9.1,9.1,0,0,0,241.64,314.5Z"/><path class="cls-5" d="M345.73,300.59a47.34,47.34,0,0,1-2.82,16.94,29.15,29.15,0,0,1-10,13.5,25.31,25.31,0,0,1-15.53,5.18q-10.22,0-15.32-6.19c-.27-.35-.51-.49-.74-.4s-.33.36-.33.81v26.74a2.4,2.4,0,0,1-.67,1.75,2.37,2.37,0,0,1-1.75.67H281.09a2.3,2.3,0,0,1-2.42-2.42V267.93a2.36,2.36,0,0,1,.67-1.75,2.4,2.4,0,0,1,1.75-.67h17.47a2.3,2.3,0,0,1,2.42,2.42v3.23c0,.45.11.71.33.8s.47,0,.74-.4q5.11-7.12,15.32-7.12a25.63,25.63,0,0,1,16.13,5.77,28.79,28.79,0,0,1,10.08,14.92A49.81,49.81,0,0,1,345.73,300.59Zm-23.92-.4q0-6.85-2.28-11.16a9,9,0,0,0-8.2-5q-5.11,0-7.93,5.11a23.29,23.29,0,0,0-2.29,11q0,7.4,2.42,11.82a8.73,8.73,0,0,0,7.8,4.57,8.89,8.89,0,0,0,8.06-4.7Q321.81,307.44,321.81,300.19Z"/><path class="cls-5" d="M394.12,240.91h18.41a2.31,2.31,0,0,1,2.42,2.42v89.25a2.3,2.3,0,0,1-2.42,2.42H395.06a2.3,2.3,0,0,1-2.42-2.42V262.29a.93.93,0,0,0-.27-.68.6.6,0,0,0-.67-.13l-11.29,1.34H380c-1.44,0-2.15-.76-2.15-2.28V248a2.78,2.78,0,0,1,2-2.69l11.29-3.9A7.42,7.42,0,0,1,394.12,240.91Z"/><path class="cls-5" d="M434.57,327.94q-8.86-8.67-8.87-23.59V271.56q0-14.79,8.87-23.25t24.33-8.47q15.45,0,24.46,8.53t9,23.19v32.79q0,14.92-9,23.59t-24.46,8.67Q443.45,336.61,434.57,327.94ZM467,314.23q3-3.15,3-8.67V270.75q0-5.5-3-8.67a10.73,10.73,0,0,0-8.13-3.15,10.35,10.35,0,0,0-7.93,3.15q-3,3.17-3,8.67v34.81c0,3.68,1,6.57,2.89,8.67a10.29,10.29,0,0,0,8,3.16A10.7,10.7,0,0,0,467,314.23Z"/><path class="cls-5" d="M511.32,327.94q-8.86-8.67-8.87-23.59V271.56q0-14.79,8.87-23.25t24.33-8.47q15.45,0,24.46,8.53t9,23.19v32.79q0,14.92-9,23.59t-24.46,8.67Q520.19,336.61,511.32,327.94Zm32.46-13.71q3-3.15,3-8.67V270.75q0-5.5-3-8.67a10.76,10.76,0,0,0-8.13-3.15,10.35,10.35,0,0,0-7.93,3.15c-2,2.11-3,5-3,8.67v34.81q0,5.52,2.89,8.67a10.29,10.29,0,0,0,8,3.16A10.73,10.73,0,0,0,543.78,314.23Z"/><path class="cls-5" d="M277.22,673.38a1.37,1.37,0,0,1-.38-1v-7.75a2.19,2.19,0,0,1,.77-1.69q2.83-2.61,5.91-5.84t5.84-6.15q5.07-5.3,4.76-5,7-7.22,7-10.52a4.73,4.73,0,0,0-1.65-3.69,6.21,6.21,0,0,0-4.26-1.46,6.08,6.08,0,0,0-4.23,1.46,5,5,0,0,0-1.61,3.84V637a1.31,1.31,0,0,1-1.38,1.38H277.84a1.38,1.38,0,0,1-1-.38,1.34,1.34,0,0,1-.38-1V633.6a13.4,13.4,0,0,1,2.84-7.53,16.19,16.19,0,0,1,6.68-5,23.6,23.6,0,0,1,9.22-1.73,22.08,22.08,0,0,1,9.94,2.11,15.79,15.79,0,0,1,6.53,5.72,14.62,14.62,0,0,1,.73,14.36,32.09,32.09,0,0,1-4.61,6.84,157.72,157.72,0,0,1-11.29,11.67l-2.15,2.08c-.2.2-.28.37-.23.5s.21.19.46.19h18.74a1.38,1.38,0,0,1,1,.38,1.34,1.34,0,0,1,.38,1v8.14a1.33,1.33,0,0,1-.38,1,1.35,1.35,0,0,1-1,.39h-35.1A1.35,1.35,0,0,1,277.22,673.38Z"/><path class="cls-5" d="M325.38,669.73q-5.07-5-5.07-13.48V637.51q0-8.44,5.07-13.28t13.9-4.84q8.84,0,14,4.88t5.14,13.24v18.74q0,8.54-5.14,13.48t-14,5Q330.45,674.69,325.38,669.73Zm18.55-7.83a6.86,6.86,0,0,0,1.73-4.95v-19.9a6.86,6.86,0,0,0-1.73-4.95,6.16,6.16,0,0,0-4.65-1.81,5.92,5.92,0,0,0-4.53,1.81,6.93,6.93,0,0,0-1.69,4.95V657a7,7,0,0,0,1.65,4.95,5.88,5.88,0,0,0,4.57,1.8A6.15,6.15,0,0,0,343.93,661.9Z"/><path class="cls-5" d="M364.7,673.38a1.37,1.37,0,0,1-.38-1v-7.75a2.16,2.16,0,0,1,.77-1.69q2.84-2.61,5.91-5.84l5.84-6.15c3.38-3.53,5-5.19,4.76-5q7-7.22,7-10.52a4.73,4.73,0,0,0-1.65-3.69,6.25,6.25,0,0,0-4.27-1.46,6.07,6.07,0,0,0-4.22,1.46,4.93,4.93,0,0,0-1.61,3.84V637a1.35,1.35,0,0,1-.39,1,1.37,1.37,0,0,1-1,.38H365.32a1.37,1.37,0,0,1-1-.38,1.35,1.35,0,0,1-.39-1V633.6a13.49,13.49,0,0,1,2.85-7.53,16.19,16.19,0,0,1,6.68-5,23.55,23.55,0,0,1,9.21-1.73,22.12,22.12,0,0,1,9.95,2.11,15.79,15.79,0,0,1,6.53,5.72,14.69,14.69,0,0,1,.73,14.36,32.09,32.09,0,0,1-4.61,6.84A159.86,159.86,0,0,1,384,660.09l-2.15,2.08c-.21.2-.28.37-.23.5s.2.19.46.19H400.8a1.31,1.31,0,0,1,1.38,1.38v8.14a1.37,1.37,0,0,1-.38,1,1.35,1.35,0,0,1-1,.39H365.7A1.35,1.35,0,0,1,364.7,673.38Z"/><path class="cls-5" d="M415.47,620H426a1.35,1.35,0,0,1,1,.39,1.37,1.37,0,0,1,.38,1v51a1.37,1.37,0,0,1-.38,1,1.35,1.35,0,0,1-1,.39H416a1.34,1.34,0,0,1-1.39-1.39V632.21a.52.52,0,0,0-.15-.38.35.35,0,0,0-.38-.08l-6.46.77h-.23c-.82,0-1.22-.43-1.22-1.3v-7.15a1.58,1.58,0,0,1,1.15-1.53l6.45-2.23A4.22,4.22,0,0,1,415.47,620Z"/></svg>