<svg id="Layer_1" data-name="Layer 1" xmlns="http://www.w3.org/2000/svg" xmlns:xlink="http://www.w3.org/1999/xlink" width="94" height="105.99" viewBox="0 0 94 105.99">
  <g id="container">
    <defs>
      <style>.cls-1,.cls-2{fill:none;}.cls-1{clip-rule:evenodd;}.cls-3{fill:#fff;}.cls-4{fill:#f7f8f7;}.cls-5{fill:#e9e9ea;}.cls-6{clip-path:url(#clip-path);}.cls-7{clip-path:url(#clip-path-2);}.cls-9{clip-path:url(#clip-path-3);}</style>
      <clipPath id="clip-path">
        <polygon class="cls-1" points="90.79 56.99 3.21 56.99 0 64.49 3.21 71.99 90.79 71.99 94 64.49 90.79 56.99"/>
      </clipPath>
      <clipPath id="clip-path-2">
        <rect class="cls-2" y="-1.01" width="94" height="122"/>
      </clipPath>
      <clipPath id="clip-path-3">
        <path class="cls-1" d="M47,21l10-5.6V0H37v15.4ZM49,7.86a2.15,2.15,0,0,1,.3-1.18,2.61,2.61,0,0,1,1.06-.84l.24-.1c.41-.2.51-.37.51-.57s-.22-.41-.57-.41a1,1,0,0,0-1,.62L49,4.85a1.49,1.49,0,0,1,.6-.62A1.72,1.72,0,0,1,50.49,4a1.77,1.77,0,0,1,1.06.31,1,1,0,0,1,.45.86c0,.58-.34.93-1,1.25l-.37.17c-.38.19-.57.35-.63.64h2V8H49ZM51.5,9l1.5,2.5L51.5,14,50,11.49H47L48.5,9ZM47.29,4a6.36,6.36,0,0,1,1.24.12L47.29,6.56A3.52,3.52,0,0,0,43.7,10a3.52,3.52,0,0,0,3.59,3.43,3.68,3.68,0,0,0,2.35-.83L51,14.84A6.5,6.5,0,0,1,47.29,16,6.16,6.16,0,0,1,41,10,6.16,6.16,0,0,1,47.29,4Z"/>
      </clipPath>
    </defs>
    <title>11-9-19_Dive_DC_IGArtboard 2</title>
    <path class="cls-3" d="M47.82,103,6.63,82.45V13.88A17.67,17.67,0,0,0,21.29,2H72.63A17.69,17.69,0,0,0,87.5,13.92V82.45Z"/>
    <path class="cls-4" d="M7,82.45,47.74,103,87,82.43V13.92a19.46,19.46,0,0,1-9-3.69Z"/>
    <path class="cls-5" d="M89,12h-.13A15.51,15.51,0,0,1,73.79,0H20A15.53,15.53,0,0,1,5,12V84.22l1.42.72,40.14,20.44,1.2.61h0l1.19-.63L87.61,84.92,89,84.19V14h0ZM47.74,103,7,82.45V13.88A17.5,17.5,0,0,0,21.49,2H72.28A17.52,17.52,0,0,0,87,13.92V82.45Z"/>
    <g class="cls-6">
      <g class="cls-7">
        <rect id="banner" class="cls-8" x="-5" y="51.99" width="104" height="25" fill="#9132a2"/>
      </g>
    </g>
    <g class="cls-9">
      <g class="cls-7">
        <rect id="logo" class="cls-10" x="32" y="-5.01" width="30" height="31" fill="#9132a2"/>
      </g>
    </g>
  <path fill="#252530" transform="translate(11.62, 52.1)" d="M5.25-10.51L5.25-10.51Q6.24-10.51 6.99-10.11L6.99-10.11L6.99-10.11Q7.74-9.71 8.15-8.96L8.15-8.96L8.15-8.96Q8.56-8.22 8.56-7.26L8.56-7.26L8.56-7.26Q8.56-6.31 8.14-5.59L8.14-5.59L8.14-5.59Q7.71-4.88 6.94-4.48L6.94-4.48L6.94-4.48Q6.17-4.08 5.16-4.08L5.16-4.08L3.03-4.08L3.03-4.08Q2.96-4.08 2.96-4.00L2.96-4.00L2.96-0.18L2.96-0.18Q2.96-0.10 2.90-0.05L2.90-0.05L2.90-0.05Q2.85 0 2.77 0L2.77 0L1.02 0L1.02 0Q0.94 0 0.89-0.05L0.89-0.05L0.89-0.05Q0.84-0.10 0.84-0.18L0.84-0.18L0.84-10.33L0.84-10.33Q0.84-10.41 0.89-10.46L0.89-10.46L0.89-10.46Q0.94-10.51 1.02-10.51L1.02-10.51L5.25-10.51ZM4.93-5.77L4.93-5.77Q5.63-5.77 6.04-6.17L6.04-6.17L6.04-6.17Q6.46-6.57 6.46-7.21L6.46-7.21L6.46-7.21Q6.46-7.88 6.04-8.28L6.04-8.28L6.04-8.28Q5.63-8.69 4.93-8.69L4.93-8.69L3.03-8.69L3.03-8.69Q2.96-8.69 2.96-8.61L2.96-8.61L2.96-5.85L2.96-5.85Q2.96-5.77 3.03-5.77L3.03-5.77L4.93-5.77ZM16.56-4.65L16.56-4.65Q16.65-4.08 16.62-3.38L16.62-3.38L16.62-3.38Q16.61-3.19 16.43-3.19L16.43-3.19L11.79-3.19L11.79-3.19Q11.70-3.19 11.73-3.12L11.73-3.12L11.73-3.12Q11.78-2.82 11.89-2.52L11.89-2.52L11.89-2.52Q12.29-1.68 13.48-1.68L13.48-1.68L13.48-1.68Q14.45-1.69 15-2.46L15-2.46L15-2.46Q15.06-2.55 15.13-2.55L15.13-2.55L15.13-2.55Q15.18-2.55 15.24-2.49L15.24-2.49L16.32-1.43L16.32-1.43Q16.39-1.35 16.39-1.29L16.39-1.29L16.39-1.29Q16.39-1.26 16.34-1.17L16.34-1.17L16.34-1.17Q15.84-0.55 15.06-0.22L15.06-0.22L15.06-0.22Q14.28 0.12 13.35 0.12L13.35 0.12L13.35 0.12Q12.06 0.12 11.17-0.46L11.17-0.46L11.17-0.46Q10.28-1.05 9.88-2.10L9.88-2.10L9.88-2.10Q9.57-2.85 9.57-4.06L9.57-4.06L9.57-4.06Q9.57-4.89 9.79-5.52L9.79-5.52L9.79-5.52Q10.14-6.58 11.00-7.21L11.00-7.21L11.00-7.21Q11.87-7.84 13.05-7.84L13.05-7.84L13.05-7.84Q14.55-7.84 15.46-6.97L15.46-6.97L15.46-6.97Q16.37-6.10 16.56-4.65L16.56-4.65ZM13.06-6.01L13.06-6.01Q12.12-6.01 11.82-5.13L11.82-5.13L11.82-5.13Q11.76-4.93 11.71-4.65L11.71-4.65L11.71-4.65Q11.71-4.58 11.79-4.58L11.79-4.58L14.38-4.58L14.38-4.58Q14.47-4.58 14.45-4.65L14.45-4.65L14.45-4.65Q14.37-5.08 14.37-5.07L14.37-5.07L14.37-5.07Q14.23-5.52 13.90-5.77L13.90-5.77L13.90-5.77Q13.56-6.01 13.06-6.01L13.06-6.01ZM21.77-7.81L21.77-7.81Q22.30-7.81 22.62-7.60L22.62-7.60L22.62-7.60Q22.74-7.54 22.71-7.38L22.71-7.38L22.39-5.67L22.39-5.67Q22.38-5.49 22.18-5.56L22.18-5.56L22.18-5.56Q21.96-5.64 21.66-5.64L21.66-5.64L21.66-5.64Q21.54-5.64 21.33-5.61L21.33-5.61L21.33-5.61Q20.79-5.56 20.41-5.21L20.41-5.21L20.41-5.21Q20.04-4.86 20.04-4.27L20.04-4.27L20.04-0.18L20.04-0.18Q20.04-0.10 19.99-0.05L19.99-0.05L19.99-0.05Q19.93 0 19.86 0L19.86 0L18.11 0L18.11 0Q18.03 0 17.98-0.05L17.98-0.05L17.98-0.05Q17.93-0.10 17.93-0.18L17.93-0.18L17.93-7.53L17.93-7.53Q17.93-7.60 17.98-7.66L17.98-7.66L17.98-7.66Q18.03-7.71 18.11-7.71L18.11-7.71L19.86-7.71L19.86-7.71Q19.93-7.71 19.99-7.66L19.99-7.66L19.99-7.66Q20.04-7.60 20.04-7.53L20.04-7.53L20.04-6.96L20.04-6.96Q20.04-6.92 20.07-6.90L20.07-6.90L20.07-6.90Q20.10-6.88 20.11-6.92L20.11-6.92L20.11-6.92Q20.73-7.81 21.77-7.81L21.77-7.81ZM28.07-7.72L28.07-7.72Q28.14-7.72 28.19-7.67L28.19-7.67L28.19-7.67Q28.25-7.62 28.25-7.54L28.25-7.54L28.25-6.12L28.25-6.12Q28.25-6.04 28.19-5.99L28.19-5.99L28.19-5.99Q28.14-5.94 28.07-5.94L28.07-5.94L26.61-5.94L26.61-5.94Q26.54-5.94 26.54-5.87L26.54-5.87L26.54-0.18L26.54-0.18Q26.54-0.10 26.48-0.05L26.48-0.05L26.48-0.05Q26.43 0 26.36 0L26.36 0L24.60 0L24.60 0Q24.53 0 24.47-0.05L24.47-0.05L24.47-0.05Q24.42-0.10 24.42-0.18L24.42-0.18L24.42-5.87L24.42-5.87Q24.42-5.94 24.34-5.94L24.34-5.94L23.46-5.94L23.46-5.94Q23.39-5.94 23.33-5.99L23.33-5.99L23.33-5.99Q23.28-6.04 23.28-6.12L23.28-6.12L23.28-7.54L23.28-7.54Q23.28-7.62 23.33-7.67L23.33-7.67L23.33-7.67Q23.39-7.72 23.46-7.72L23.46-7.72L24.34-7.72L24.34-7.72Q24.42-7.72 24.42-7.80L24.42-7.80L24.42-8.13L24.42-8.13Q24.42-9.06 24.71-9.58L24.71-9.58L24.71-9.58Q24.99-10.09 25.63-10.31L25.63-10.31L25.63-10.31Q26.27-10.53 27.39-10.50L27.39-10.50L27.96-10.50L27.96-10.50Q28.04-10.50 28.09-10.45L28.09-10.45L28.09-10.45Q28.14-10.39 28.14-10.32L28.14-10.32L28.14-9.11L28.14-9.11Q28.14-9.03 28.09-8.98L28.09-8.98L28.09-8.98Q28.04-8.92 27.96-8.92L27.96-8.92L27.46-8.92L27.46-8.92Q26.94-8.91 26.74-8.71L26.74-8.71L26.74-8.71Q26.54-8.50 26.54-7.96L26.54-7.96L26.54-7.80L26.54-7.80Q26.54-7.72 26.61-7.72L26.61-7.72L28.07-7.72ZM32.88 0.12L32.88 0.12Q31.62 0.12 30.72-0.54L30.72-0.54L30.72-0.54Q29.82-1.20 29.49-2.34L29.49-2.34L29.49-2.34Q29.28-3.04 29.28-3.87L29.28-3.87L29.28-3.87Q29.28-4.75 29.49-5.46L29.49-5.46L29.49-5.46Q29.84-6.57 30.73-7.20L30.73-7.20L30.73-7.20Q31.64-7.83 32.90-7.83L32.90-7.83L32.90-7.83Q34.13-7.83 34.99-7.21L34.99-7.21L34.99-7.21Q35.87-6.58 36.23-5.47L36.23-5.47L36.23-5.47Q36.47-4.72 36.47-3.90L36.47-3.90L36.47-3.90Q36.47-3.09 36.26-2.38L36.26-2.38L36.26-2.38Q35.92-1.21 35.03-0.55L35.03-0.55L35.03-0.55Q34.14 0.12 32.88 0.12L32.88 0.12ZM32.88-1.69L32.88-1.69Q33.38-1.69 33.72-1.99L33.72-1.99L33.72-1.99Q34.06-2.29 34.22-2.82L34.22-2.82L34.22-2.82Q34.34-3.30 34.34-3.87L34.34-3.87L34.34-3.87Q34.34-4.50 34.22-4.93L34.22-4.93L34.22-4.93Q34.05-5.44 33.70-5.73L33.70-5.73L33.70-5.73Q33.36-6.01 32.87-6.01L32.87-6.01L32.87-6.01Q32.35-6.01 32.02-5.73L32.02-5.73L32.02-5.73Q31.68-5.44 31.53-4.93L31.53-4.93L31.53-4.93Q31.41-4.58 31.41-3.87L31.41-3.87L31.41-3.87Q31.41-3.19 31.52-2.82L31.52-2.82L31.52-2.82Q31.66-2.29 32.02-1.99L32.02-1.99L32.02-1.99Q32.37-1.69 32.88-1.69L32.88-1.69ZM41.67-7.81L41.67-7.81Q42.21-7.81 42.52-7.60L42.52-7.60L42.52-7.60Q42.64-7.54 42.61-7.38L42.61-7.38L42.30-5.67L42.30-5.67Q42.28-5.49 42.09-5.56L42.09-5.56L42.09-5.56Q41.86-5.64 41.56-5.64L41.56-5.64L41.56-5.64Q41.44-5.64 41.23-5.61L41.23-5.61L41.23-5.61Q40.70-5.56 40.32-5.21L40.32-5.21L40.32-5.21Q39.95-4.86 39.95-4.27L39.95-4.27L39.95-0.18L39.95-0.18Q39.95-0.10 39.89-0.05L39.89-0.05L39.89-0.05Q39.84 0 39.77 0L39.77 0L38.01 0L38.01 0Q37.93 0 37.88-0.05L37.88-0.05L37.88-0.05Q37.83-0.10 37.83-0.18L37.83-0.18L37.83-7.53L37.83-7.53Q37.83-7.60 37.88-7.66L37.88-7.66L37.88-7.66Q37.93-7.71 38.01-7.71L38.01-7.71L39.77-7.71L39.77-7.71Q39.84-7.71 39.89-7.66L39.89-7.66L39.89-7.66Q39.95-7.60 39.95-7.53L39.95-7.53L39.95-6.96L39.95-6.96Q39.95-6.92 39.97-6.90L39.97-6.90L39.97-6.90Q40.00-6.88 40.02-6.92L40.02-6.92L40.02-6.92Q40.63-7.81 41.67-7.81L41.67-7.81ZM52.12-7.83L52.12-7.83Q53.29-7.83 53.95-7.13L53.95-7.13L53.95-7.13Q54.61-6.42 54.61-5.14L54.61-5.14L54.61-0.18L54.61-0.18Q54.61-0.10 54.56-0.05L54.56-0.05L54.56-0.05Q54.51 0 54.43 0L54.43 0L52.68 0L52.68 0Q52.60 0 52.55-0.05L52.55-0.05L52.55-0.05Q52.50-0.10 52.50-0.18L52.50-0.18L52.50-4.68L52.50-4.68Q52.50-5.29 52.18-5.65L52.18-5.65L52.18-5.65Q51.87-6.01 51.34-6.01L51.34-6.01L51.34-6.01Q50.82-6.01 50.49-5.65L50.49-5.65L50.49-5.65Q50.16-5.29 50.16-4.69L50.16-4.69L50.16-0.18L50.16-0.18Q50.16-0.10 50.11-0.05L50.11-0.05L50.11-0.05Q50.05 0 49.98 0L49.98 0L48.24 0L48.24 0Q48.16 0 48.11-0.05L48.11-0.05L48.11-0.05Q48.06-0.10 48.06-0.18L48.06-0.18L48.06-4.68L48.06-4.68Q48.06-5.28 47.73-5.65L47.73-5.65L47.73-5.65Q47.40-6.01 46.87-6.01L46.87-6.01L46.87-6.01Q46.39-6.01 46.07-5.73L46.07-5.73L46.07-5.73Q45.75-5.44 45.69-4.93L45.69-4.93L45.69-0.18L45.69-0.18Q45.69-0.10 45.64-0.05L45.64-0.05L45.64-0.05Q45.58 0 45.51 0L45.51 0L43.75 0L43.75 0Q43.68 0 43.63-0.05L43.63-0.05L43.63-0.05Q43.57-0.10 43.57-0.18L43.57-0.18L43.57-7.53L43.57-7.53Q43.57-7.60 43.63-7.66L43.63-7.66L43.63-7.66Q43.68-7.71 43.75-7.71L43.75-7.71L45.51-7.71L45.51-7.71Q45.58-7.71 45.64-7.66L45.64-7.66L45.64-7.66Q45.69-7.60 45.69-7.53L45.69-7.53L45.69-6.94L45.69-6.94Q45.69-6.90 45.72-6.88L45.72-6.88L45.72-6.88Q45.75-6.87 45.78-6.92L45.78-6.92L45.78-6.92Q46.39-7.83 47.68-7.83L47.68-7.83L47.68-7.83Q48.43-7.83 49.00-7.51L49.00-7.51L49.00-7.51Q49.56-7.20 49.86-6.61L49.86-6.61L49.86-6.61Q49.90-6.52 49.96-6.61L49.96-6.61L49.96-6.61Q50.29-7.23 50.86-7.53L50.86-7.53L50.86-7.53Q51.42-7.83 52.12-7.83L52.12-7.83ZM62.92-4.65L62.92-4.65Q63.01-4.08 62.98-3.38L62.98-3.38L62.98-3.38Q62.97-3.19 62.79-3.19L62.79-3.19L58.15-3.19L58.15-3.19Q58.06-3.19 58.09-3.12L58.09-3.12L58.09-3.12Q58.14-2.82 58.26-2.52L58.26-2.52L58.26-2.52Q58.65-1.68 59.85-1.68L59.85-1.68L59.85-1.68Q60.81-1.69 61.36-2.46L61.36-2.46L61.36-2.46Q61.42-2.55 61.50-2.55L61.50-2.55L61.50-2.55Q61.54-2.55 61.60-2.49L61.60-2.49L62.68-1.43L62.68-1.43Q62.76-1.35 62.76-1.29L62.76-1.29L62.76-1.29Q62.76-1.26 62.70-1.17L62.70-1.17L62.70-1.17Q62.20-0.55 61.42-0.22L61.42-0.22L61.42-0.22Q60.64 0.12 59.71 0.12L59.71 0.12L59.71 0.12Q58.42 0.12 57.53-0.46L57.53-0.46L57.53-0.46Q56.64-1.05 56.25-2.10L56.25-2.10L56.25-2.10Q55.93-2.85 55.93-4.06L55.93-4.06L55.93-4.06Q55.93-4.89 56.16-5.52L56.16-5.52L56.16-5.52Q56.50-6.58 57.37-7.21L57.37-7.21L57.37-7.21Q58.23-7.84 59.41-7.84L59.41-7.84L59.41-7.84Q60.91-7.84 61.82-6.97L61.82-6.97L61.82-6.97Q62.73-6.10 62.92-4.65L62.92-4.65ZM59.43-6.01L59.43-6.01Q58.48-6.01 58.18-5.13L58.18-5.13L58.18-5.13Q58.12-4.93 58.08-4.65L58.08-4.65L58.08-4.65Q58.08-4.58 58.15-4.58L58.15-4.58L60.75-4.58L60.75-4.58Q60.84-4.58 60.81-4.65L60.81-4.65L60.81-4.65Q60.73-5.08 60.73-5.07L60.73-5.07L60.73-5.07Q60.60-5.52 60.26-5.77L60.26-5.77L60.26-5.77Q59.92-6.01 59.43-6.01L59.43-6.01ZM68.13-7.81L68.13-7.81Q68.67-7.81 68.98-7.60L68.98-7.60L68.98-7.60Q69.10-7.54 69.07-7.38L69.07-7.38L68.76-5.67L68.76-5.67Q68.74-5.49 68.55-5.56L68.55-5.56L68.55-5.56Q68.32-5.64 68.02-5.64L68.02-5.64L68.02-5.64Q67.90-5.64 67.69-5.61L67.69-5.61L67.69-5.61Q67.15-5.56 66.78-5.21L66.78-5.21L66.78-5.21Q66.40-4.86 66.40-4.27L66.40-4.27L66.40-0.18L66.40-0.18Q66.40-0.10 66.35-0.05L66.35-0.05L66.35-0.05Q66.30 0 66.22 0L66.22 0L64.47 0L64.47 0Q64.39 0 64.34-0.05L64.34-0.05L64.34-0.05Q64.29-0.10 64.29-0.18L64.29-0.18L64.29-7.53L64.29-7.53Q64.29-7.60 64.34-7.66L64.34-7.66L64.34-7.66Q64.39-7.71 64.47-7.71L64.47-7.71L66.22-7.71L66.22-7.71Q66.30-7.71 66.35-7.66L66.35-7.66L66.35-7.66Q66.40-7.60 66.40-7.53L66.40-7.53L66.40-6.96L66.40-6.96Q66.40-6.92 66.43-6.90L66.43-6.90L66.43-6.90Q66.46-6.88 66.48-6.92L66.48-6.92L66.48-6.92Q67.09-7.81 68.13-7.81L68.13-7.81Z"/><path fill="#252530" transform="translate(31.56, 37.1)" d="M6.50-10.32L6.50-10.32Q6.50-10.39 6.55-10.45L6.55-10.45L6.55-10.45Q6.60-10.50 6.67-10.50L6.67-10.50L8.43-10.50L8.43-10.50Q8.50-10.50 8.56-10.45L8.56-10.45L8.56-10.45Q8.61-10.39 8.61-10.32L8.61-10.32L8.61-0.18L8.61-0.18Q8.61-0.10 8.56-0.05L8.56-0.05L8.56-0.05Q8.50 0 8.43 0L8.43 0L6.67 0L6.67 0Q6.60 0 6.55-0.05L6.55-0.05L6.55-0.05Q6.50-0.10 6.50-0.18L6.50-0.18L6.50-4.32L6.50-4.32Q6.50-4.39 6.42-4.39L6.42-4.39L3.10-4.39L3.10-4.39Q3.03-4.39 3.03-4.32L3.03-4.32L3.03-0.18L3.03-0.18Q3.03-0.10 2.98-0.05L2.98-0.05L2.98-0.05Q2.92 0 2.85 0L2.85 0L1.09 0L1.09 0Q1.02 0 0.97-0.05L0.97-0.05L0.97-0.05Q0.91-0.10 0.91-0.18L0.91-0.18L0.91-10.32L0.91-10.32Q0.91-10.39 0.97-10.45L0.97-10.45L0.97-10.45Q1.02-10.50 1.09-10.50L1.09-10.50L2.85-10.50L2.85-10.50Q2.92-10.50 2.98-10.45L2.98-10.45L2.98-10.45Q3.03-10.39 3.03-10.32L3.03-10.32L3.03-6.29L3.03-6.29Q3.03-6.21 3.10-6.21L3.10-6.21L6.42-6.21L6.42-6.21Q6.50-6.21 6.50-6.29L6.50-6.29L6.50-10.32ZM11.34-8.58L11.34-8.58Q10.83-8.58 10.49-8.92L10.49-8.92L10.49-8.92Q10.15-9.25 10.15-9.76L10.15-9.76L10.15-9.76Q10.15-10.29 10.48-10.62L10.48-10.62L10.48-10.62Q10.81-10.95 11.34-10.95L11.34-10.95L11.34-10.95Q11.87-10.95 12.20-10.62L12.20-10.62L12.20-10.62Q12.53-10.29 12.53-9.76L12.53-9.76L12.53-9.76Q12.53-9.25 12.19-8.92L12.19-8.92L12.19-8.92Q11.85-8.58 11.34-8.58L11.34-8.58ZM10.44 0L10.44 0Q10.37 0 10.31-0.05L10.31-0.05L10.31-0.05Q10.26-0.10 10.26-0.18L10.26-0.18L10.26-7.54L10.26-7.54Q10.26-7.62 10.31-7.67L10.31-7.67L10.31-7.67Q10.37-7.72 10.44-7.72L10.44-7.72L12.20-7.72L12.20-7.72Q12.27-7.72 12.32-7.67L12.32-7.67L12.32-7.67Q12.38-7.62 12.38-7.54L12.38-7.54L12.38-0.18L12.38-0.18Q12.38-0.10 12.32-0.05L12.32-0.05L12.32-0.05Q12.27 0 12.20 0L12.20 0L10.44 0ZM18.73-7.53L18.73-7.53Q18.73-7.60 18.79-7.66L18.79-7.66L18.79-7.66Q18.84-7.71 18.91-7.71L18.91-7.71L20.67-7.71L20.67-7.71Q20.74-7.71 20.80-7.66L20.80-7.66L20.80-7.66Q20.85-7.60 20.85-7.53L20.85-7.53L20.85-0.69L20.85-0.69Q20.85 1.27 19.72 2.11L19.72 2.11L19.72 2.11Q18.59 2.96 16.80 2.96L16.80 2.96L16.80 2.96Q16.27 2.96 15.63 2.88L15.63 2.88L15.63 2.88Q15.48 2.86 15.48 2.69L15.48 2.69L15.54 1.14L15.54 1.14Q15.54 0.94 15.75 0.97L15.75 0.97L15.75 0.97Q16.29 1.06 16.74 1.06L16.74 1.06L16.74 1.06Q17.70 1.06 18.22 0.65L18.22 0.65L18.22 0.65Q18.73 0.22 18.73-0.70L18.73-0.70L18.73-0.70Q18.73-0.75 18.70-0.76L18.70-0.76L18.70-0.76Q18.67-0.77 18.64-0.73L18.64-0.73L18.64-0.73Q18.07-0.12 16.98-0.12L16.98-0.12L16.98-0.12Q16.00-0.12 15.19-0.59L15.19-0.59L15.19-0.59Q14.37-1.06 14.02-2.11L14.02-2.11L14.02-2.11Q13.80-2.80 13.80-3.90L13.80-3.90L13.80-3.90Q13.80-5.07 14.07-5.80L14.07-5.80L14.07-5.80Q14.38-6.72 15.13-7.27L15.13-7.27L15.13-7.27Q15.88-7.83 16.88-7.83L16.88-7.83L16.88-7.83Q18.03-7.83 18.64-7.14L18.64-7.14L18.64-7.14Q18.67-7.11 18.70-7.12L18.70-7.12L18.70-7.12Q18.73-7.13 18.73-7.17L18.73-7.17L18.73-7.53ZM18.61-2.69L18.61-2.69Q18.73-3.13 18.73-3.92L18.73-3.92L18.73-3.92Q18.73-4.38 18.70-4.63L18.70-4.63L18.70-4.63Q18.67-4.89 18.60-5.12L18.60-5.12L18.60-5.12Q18.46-5.52 18.15-5.77L18.15-5.77L18.15-5.77Q17.84-6.01 17.37-6.01L17.37-6.01L17.37-6.01Q16.92-6.01 16.61-5.77L16.61-5.77L16.61-5.77Q16.29-5.52 16.14-5.12L16.14-5.12L16.14-5.12Q15.93-4.67 15.93-3.90L15.93-3.90L15.93-3.90Q15.93-3.06 16.11-2.70L16.11-2.70L16.11-2.70Q16.24-2.29 16.58-2.05L16.58-2.05L16.58-2.05Q16.92-1.80 17.38-1.80L17.38-1.80L17.38-1.80Q17.86-1.80 18.18-2.05L18.18-2.05L18.18-2.05Q18.49-2.29 18.61-2.69L18.61-2.69ZM26.39-7.83L26.39-7.83Q27.59-7.83 28.32-7.09L28.32-7.09L28.32-7.09Q29.05-6.36 29.05-5.10L29.05-5.10L29.05-0.18L29.05-0.18Q29.05-0.10 29.00-0.05L29.00-0.05L29.00-0.05Q28.95 0 28.88 0L28.88 0L27.12 0L27.12 0Q27.05 0 26.99-0.05L26.99-0.05L26.99-0.05Q26.94-0.10 26.94-0.18L26.94-0.18L26.94-4.67L26.94-4.67Q26.94-5.26 26.60-5.64L26.60-5.64L26.60-5.64Q26.27-6.01 25.71-6.01L25.71-6.01L25.71-6.01Q25.16-6.01 24.82-5.64L24.82-5.64L24.82-5.64Q24.48-5.26 24.48-4.67L24.48-4.67L24.48-0.18L24.48-0.18Q24.48-0.10 24.43-0.05L24.43-0.05L24.43-0.05Q24.38 0 24.30 0L24.30 0L22.55 0L22.55 0Q22.47 0 22.42-0.05L22.42-0.05L22.42-0.05Q22.37-0.10 22.37-0.18L22.37-0.18L22.37-10.32L22.37-10.32Q22.37-10.39 22.42-10.45L22.42-10.45L22.42-10.45Q22.47-10.50 22.55-10.50L22.55-10.50L24.30-10.50L24.30-10.50Q24.38-10.50 24.43-10.45L24.43-10.45L24.43-10.45Q24.48-10.39 24.48-10.32L24.48-10.32L24.48-7.00L24.48-7.00Q24.48-6.96 24.51-6.94L24.51-6.94L24.51-6.94Q24.54-6.93 24.55-6.96L24.55-6.96L24.55-6.96Q25.17-7.83 26.39-7.83L26.39-7.83Z"/><path fill="#fff" transform="translate(30.64, 68.3)" d="M5.47-6.12L5.47-6.12Q5.47-6.07 5.44-6.04L5.44-6.04L5.44-6.04Q5.40-6 5.35-6L5.35-6L1.94-6L1.94-6Q1.89-6 1.89-5.95L1.89-5.95L1.89-4.08L1.89-4.08Q1.89-4.03 1.94-4.03L1.94-4.03L4.23-4.03L4.23-4.03Q4.28-4.03 4.32-4.00L4.32-4.00L4.32-4.00Q4.35-3.96 4.35-3.91L4.35-3.91L4.35-3.15L4.35-3.15Q4.35-3.10 4.32-3.06L4.32-3.06L4.32-3.06Q4.28-3.03 4.23-3.03L4.23-3.03L1.94-3.03L1.94-3.03Q1.89-3.03 1.89-2.98L1.89-2.98L1.89-1.05L1.89-1.05Q1.89-1 1.94-1L1.94-1L5.35-1L5.35-1Q5.40-1 5.44-0.96L5.44-0.96L5.44-0.96Q5.47-0.93 5.47-0.88L5.47-0.88L5.47-0.12L5.47-0.12Q5.47-0.07 5.44-0.04L5.44-0.04L5.44-0.04Q5.40 0 5.35 0L5.35 0L0.85 0L0.85 0Q0.80 0 0.77-0.04L0.77-0.04L0.77-0.04Q0.73-0.07 0.73-0.12L0.73-0.12L0.73-6.88L0.73-6.88Q0.73-6.93 0.77-6.96L0.77-6.96L0.77-6.96Q0.80-7 0.85-7L0.85-7L5.35-7L5.35-7Q5.40-7 5.44-6.96L5.44-6.96L5.44-6.96Q5.47-6.93 5.47-6.88L5.47-6.88L5.47-6.12ZM9.56-4.99L9.56-4.99Q9.56-5.04 9.60-5.08L9.60-5.08L9.60-5.08Q9.63-5.11 9.68-5.11L9.68-5.11L10.59-5.11L10.59-5.11Q10.64-5.11 10.68-5.08L10.68-5.08L10.68-5.08Q10.71-5.04 10.71-4.99L10.71-4.99L10.71-0.12L10.71-0.12Q10.71-0.07 10.68-0.04L10.68-0.04L10.68-0.04Q10.64 0 10.59 0L10.59 0L9.68 0L9.68 0Q9.63 0 9.60-0.04L9.60-0.04L9.60-0.04Q9.56-0.07 9.56-0.12L9.56-0.12L9.56-0.44L9.56-0.44Q9.56-0.47 9.54-0.48L9.54-0.48L9.54-0.48Q9.52-0.49 9.50-0.46L9.50-0.46L9.50-0.46Q9.09 0.07 8.27 0.07L8.27 0.07L8.27 0.07Q7.51 0.07 7.00-0.37L7.00-0.37L7.00-0.37Q6.48-0.81 6.48-1.62L6.48-1.62L6.48-4.99L6.48-4.99Q6.48-5.04 6.51-5.08L6.51-5.08L6.51-5.08Q6.55-5.11 6.60-5.11L6.60-5.11L7.52-5.11L7.52-5.11Q7.57-5.11 7.61-5.08L7.61-5.08L7.61-5.08Q7.64-5.04 7.64-4.99L7.64-4.99L7.64-1.95L7.64-1.95Q7.64-1.48 7.88-1.20L7.88-1.20L7.88-1.20Q8.13-0.92 8.57-0.92L8.57-0.92L8.57-0.92Q9.02-0.92 9.29-1.20L9.29-1.20L9.29-1.20Q9.56-1.48 9.56-1.95L9.56-1.95L9.56-4.99ZM14.33-5.17L14.33-5.17Q14.65-5.17 14.89-5.04L14.89-5.04L14.89-5.04Q14.97-5 14.95-4.89L14.95-4.89L14.78-3.99L14.78-3.99Q14.77-3.87 14.64-3.92L14.64-3.92L14.64-3.92Q14.49-3.97 14.29-3.97L14.29-3.97L14.29-3.97Q14.16-3.97 14.09-3.96L14.09-3.96L14.09-3.96Q13.67-3.94 13.39-3.67L13.39-3.67L13.39-3.67Q13.11-3.39 13.11-2.95L13.11-2.95L13.11-0.12L13.11-0.12Q13.11-0.07 13.07-0.04L13.07-0.04L13.07-0.04Q13.04 0 12.99 0L12.99 0L12.07 0L12.07 0Q12.02 0 11.98-0.04L11.98-0.04L11.98-0.04Q11.95-0.07 11.95-0.12L11.95-0.12L11.95-4.99L11.95-4.99Q11.95-5.04 11.98-5.08L11.98-5.08L11.98-5.08Q12.02-5.11 12.07-5.11L12.07-5.11L12.99-5.11L12.99-5.11Q13.04-5.11 13.07-5.08L13.07-5.08L13.07-5.08Q13.11-5.04 13.11-4.99L13.11-4.99L13.11-4.54L13.11-4.54Q13.11-4.50 13.13-4.50L13.13-4.50L13.13-4.50Q13.14-4.49 13.16-4.52L13.16-4.52L13.16-4.52Q13.58-5.17 14.33-5.17L14.33-5.17ZM17.88 0.08L17.88 0.08Q17.09 0.08 16.52-0.32L16.52-0.32L16.52-0.32Q15.96-0.72 15.73-1.43L15.73-1.43L15.73-1.43Q15.56-1.97 15.56-2.57L15.56-2.57L15.56-2.57Q15.56-3.21 15.72-3.71L15.72-3.71L15.72-3.71Q15.95-4.41 16.52-4.80L16.52-4.80L16.52-4.80Q17.09-5.19 17.89-5.19L17.89-5.19L17.89-5.19Q18.65-5.19 19.20-4.80L19.20-4.80L19.20-4.80Q19.76-4.41 19.99-3.72L19.99-3.72L19.99-3.72Q20.17-3.24 20.17-2.58L20.17-2.58L20.17-2.58Q20.17-1.95 20-1.44L20-1.44L20-1.44Q19.77-0.73 19.21-0.33L19.21-0.33L19.21-0.33Q18.65 0.08 17.88 0.08L17.88 0.08ZM17.88-0.92L17.88-0.92Q18.25-0.92 18.52-1.13L18.52-1.13L18.52-1.13Q18.78-1.34 18.90-1.72L18.90-1.72L18.90-1.72Q19-2.05 19-2.56L19-2.56L19-2.56Q19-3.10 18.90-3.40L18.90-3.40L18.90-3.40Q18.79-3.78 18.52-3.98L18.52-3.98L18.52-3.98Q18.25-4.19 17.86-4.19L17.86-4.19L17.86-4.19Q17.49-4.19 17.22-3.98L17.22-3.98L17.22-3.98Q16.95-3.78 16.83-3.40L16.83-3.40L16.83-3.40Q16.73-3.05 16.73-2.56L16.73-2.56L16.73-2.56Q16.73-2.07 16.83-1.72L16.83-1.72L16.83-1.72Q16.94-1.34 17.21-1.13L17.21-1.13L17.21-1.13Q17.49-0.92 17.88-0.92L17.88-0.92ZM25.60-3.79L25.60-3.79Q25.78-3.28 25.78-2.54L25.78-2.54L25.78-2.54Q25.78-1.83 25.61-1.32L25.61-1.32L25.61-1.32Q25.39-0.66 24.90-0.29L24.90-0.29L24.90-0.29Q24.42 0.08 23.68 0.08L23.68 0.08L23.68 0.08Q22.97 0.08 22.54-0.43L22.54-0.43L22.54-0.43Q22.52-0.45 22.50-0.44L22.50-0.44L22.50-0.44Q22.48-0.43 22.48-0.40L22.48-0.40L22.48 1.77L22.48 1.77Q22.48 1.82 22.45 1.85L22.45 1.85L22.45 1.85Q22.41 1.89 22.36 1.89L22.36 1.89L21.44 1.89L21.44 1.89Q21.39 1.89 21.35 1.85L21.35 1.85L21.35 1.85Q21.32 1.82 21.32 1.77L21.32 1.77L21.32-4.99L21.32-4.99Q21.32-5.04 21.35-5.08L21.35-5.08L21.35-5.08Q21.39-5.11 21.44-5.11L21.44-5.11L22.36-5.11L22.36-5.11Q22.41-5.11 22.45-5.08L22.45-5.08L22.45-5.08Q22.48-5.04 22.48-4.99L22.48-4.99L22.48-4.69L22.48-4.69Q22.48-4.66 22.50-4.65L22.50-4.65L22.50-4.65Q22.52-4.64 22.54-4.67L22.54-4.67L22.54-4.67Q22.98-5.19 23.69-5.19L23.69-5.19L23.69-5.19Q24.40-5.19 24.89-4.82L24.89-4.82L24.89-4.82Q25.38-4.45 25.60-3.79L25.60-3.79ZM24.30-1.34L24.30-1.34Q24.60-1.80 24.60-2.56L24.60-2.56L24.60-2.56Q24.60-3.29 24.36-3.71L24.36-3.71L24.36-3.71Q24.08-4.20 23.51-4.20L23.51-4.20L23.51-4.20Q22.99-4.20 22.73-3.72L22.73-3.72L22.73-3.72Q22.50-3.33 22.50-2.56L22.50-2.56L22.50-2.56Q22.50-1.77 22.75-1.36L22.75-1.36L22.75-1.36Q23.01-0.92 23.50-0.92L23.50-0.92L23.50-0.92Q24.03-0.92 24.30-1.34L24.30-1.34ZM31.21-3.13L31.21-3.13Q31.25-2.88 31.25-2.57L31.25-2.57L31.24-2.26L31.24-2.26Q31.24-2.14 31.12-2.14L31.12-2.14L27.99-2.14L27.99-2.14Q27.94-2.14 27.94-2.09L27.94-2.09L27.94-2.09Q27.97-1.76 28.03-1.64L28.03-1.64L28.03-1.64Q28.27-0.92 29.20-0.91L29.20-0.91L29.20-0.91Q29.88-0.91 30.28-1.47L30.28-1.47L30.28-1.47Q30.32-1.53 30.38-1.53L30.38-1.53L30.38-1.53Q30.42-1.53 30.45-1.50L30.45-1.50L31.07-0.99L31.07-0.99Q31.16-0.92 31.10-0.83L31.10-0.83L31.10-0.83Q30.79-0.39 30.27-0.15L30.27-0.15L30.27-0.15Q29.76 0.09 29.13 0.09L29.13 0.09L29.13 0.09Q28.35 0.09 27.80-0.26L27.80-0.26L27.80-0.26Q27.26-0.61 27.01-1.24L27.01-1.24L27.01-1.24Q26.78-1.78 26.78-2.74L26.78-2.74L26.78-2.74Q26.78-3.32 26.90-3.68L26.90-3.68L26.90-3.68Q27.10-4.38 27.65-4.79L27.65-4.79L27.65-4.79Q28.21-5.19 28.99-5.19L28.99-5.19L28.99-5.19Q30.96-5.19 31.21-3.13L31.21-3.13ZM28.99-4.19L28.99-4.19Q28.62-4.19 28.37-4.00L28.37-4.00L28.37-4.00Q28.13-3.82 28.03-3.49L28.03-3.49L28.03-3.49Q27.97-3.32 27.95-3.05L27.95-3.05L27.95-3.05Q27.93-3 27.99-3L27.99-3L30.02-3L30.02-3Q30.07-3 30.07-3.05L30.07-3.05L30.07-3.05Q30.05-3.30 30.01-3.43L30.01-3.43L30.01-3.43Q29.92-3.79 29.65-3.99L29.65-3.99L29.65-3.99Q29.39-4.19 28.99-4.19L28.99-4.19Z"/><path fill="#252530" transform="translate(29.00, 82.4)" d="M2.16 0L2.16 0Q2.05 0 2.02-0.10L2.02-0.10L0.25-6.87L0.24-6.91L0.24-6.91Q0.24-7 0.35-7L0.35-7L1.59-7L1.59-7Q1.69-7 1.72-6.90L1.72-6.90L2.67-2.83L2.67-2.83Q2.68-2.79 2.70-2.79L2.70-2.79L2.70-2.79Q2.72-2.79 2.73-2.83L2.73-2.83L3.65-6.89L3.65-6.89Q3.68-7 3.78-7L3.78-7L4.99-7L4.99-7Q5.10-7 5.13-6.90L5.13-6.90L6.13-2.83L6.13-2.83Q6.14-2.80 6.16-2.79L6.16-2.79L6.16-2.79Q6.18-2.79 6.19-2.83L6.19-2.83L7.11-6.89L7.11-6.89Q7.14-7 7.24-7L7.24-7L8.42-7L8.42-7Q8.56-7 8.53-6.87L8.53-6.87L6.89-0.10L6.89-0.10Q6.86 0 6.75 0L6.75 0L5.56 0L5.56 0Q5.46 0 5.43-0.10L5.43-0.10L4.41-4.43L4.41-4.43Q4.40-4.47 4.38-4.47L4.38-4.47L4.38-4.47Q4.36-4.47 4.35-4.43L4.35-4.43L3.40-0.11L3.40-0.11Q3.38 0 3.27 0L3.27 0L2.16 0ZM9.50 0L9.50 0Q9.45 0 9.41-0.04L9.41-0.04L9.41-0.04Q9.38-0.07 9.38-0.12L9.38-0.12L9.38-6.88L9.38-6.88Q9.38-6.93 9.41-6.96L9.41-6.96L9.41-6.96Q9.45-7 9.50-7L9.50-7L10.67-7L10.67-7Q10.72-7 10.75-6.96L10.75-6.96L10.75-6.96Q10.79-6.93 10.79-6.88L10.79-6.88L10.79-0.12L10.79-0.12Q10.79-0.07 10.75-0.04L10.75-0.04L10.75-0.04Q10.72 0 10.67 0L10.67 0L9.50 0ZM16.03-6.88L16.03-6.88Q16.03-6.93 16.06-6.96L16.06-6.96L16.06-6.96Q16.10-7 16.15-7L16.15-7L17.32-7L17.32-7Q17.37-7 17.40-6.96L17.40-6.96L17.40-6.96Q17.44-6.93 17.44-6.88L17.44-6.88L17.44-0.12L17.44-0.12Q17.44-0.07 17.40-0.04L17.40-0.04L17.40-0.04Q17.37 0 17.32 0L17.32 0L16.19 0L16.19 0Q16.09 0 16.05-0.08L16.05-0.08L13.46-4.36L13.46-4.36Q13.44-4.39 13.42-4.38L13.42-4.38L13.42-4.38Q13.40-4.38 13.40-4.34L13.40-4.34L13.42-0.12L13.42-0.12Q13.42-0.07 13.38-0.04L13.38-0.04L13.38-0.04Q13.35 0 13.30 0L13.30 0L12.13 0L12.13 0Q12.08 0 12.04-0.04L12.04-0.04L12.04-0.04Q12.01-0.07 12.01-0.12L12.01-0.12L12.01-6.88L12.01-6.88Q12.01-6.93 12.04-6.96L12.04-6.96L12.04-6.96Q12.08-7 12.13-7L12.13-7L13.26-7L13.26-7Q13.36-7 13.40-6.92L13.40-6.92L15.98-2.66L15.98-2.66Q16-2.63 16.02-2.64L16.02-2.64L16.02-2.64Q16.04-2.64 16.04-2.68L16.04-2.68L16.03-6.88ZM23.49-7L23.49-7Q23.54-7 23.57-6.96L23.57-6.96L23.57-6.96Q23.61-6.93 23.61-6.88L23.61-6.88L23.61-5.90L23.61-5.90Q23.61-5.85 23.57-5.82L23.57-5.82L23.57-5.82Q23.54-5.78 23.49-5.78L23.49-5.78L21.70-5.78L21.70-5.78Q21.65-5.78 21.65-5.73L21.65-5.73L21.65-0.12L21.65-0.12Q21.65-0.07 21.61-0.04L21.61-0.04L21.61-0.04Q21.58 0 21.53 0L21.53 0L20.36 0L20.36 0Q20.31 0 20.27-0.04L20.27-0.04L20.27-0.04Q20.24-0.07 20.24-0.12L20.24-0.12L20.24-5.73L20.24-5.73Q20.24-5.78 20.19-5.78L20.19-5.78L18.45-5.78L18.45-5.78Q18.40-5.78 18.36-5.82L18.36-5.82L18.36-5.82Q18.33-5.85 18.33-5.90L18.33-5.90L18.33-6.88L18.33-6.88Q18.33-6.93 18.36-6.96L18.36-6.96L18.36-6.96Q18.40-7 18.45-7L18.45-7L23.49-7ZM29.37-5.91L29.37-5.91Q29.37-5.86 29.34-5.83L29.34-5.83L29.34-5.83Q29.30-5.79 29.25-5.79L29.25-5.79L25.97-5.79L25.97-5.79Q25.92-5.79 25.92-5.74L25.92-5.74L25.92-4.19L25.92-4.19Q25.92-4.14 25.97-4.14L25.97-4.14L28.12-4.14L28.12-4.14Q28.17-4.14 28.20-4.11L28.20-4.11L28.20-4.11Q28.24-4.07 28.24-4.02L28.24-4.02L28.24-3.05L28.24-3.05Q28.24-3 28.20-2.96L28.20-2.96L28.20-2.96Q28.17-2.93 28.12-2.93L28.12-2.93L25.97-2.93L25.97-2.93Q25.92-2.93 25.92-2.88L25.92-2.88L25.92-1.26L25.92-1.26Q25.92-1.21 25.97-1.21L25.97-1.21L29.25-1.21L29.25-1.21Q29.30-1.21 29.34-1.18L29.34-1.18L29.34-1.18Q29.37-1.14 29.37-1.09L29.37-1.09L29.37-0.12L29.37-0.12Q29.37-0.07 29.34-0.04L29.34-0.04L29.34-0.04Q29.30 0 29.25 0L29.25 0L24.63 0L24.63 0Q24.58 0 24.54-0.04L24.54-0.04L24.54-0.04Q24.51-0.07 24.51-0.12L24.51-0.12L24.51-6.88L24.51-6.88Q24.51-6.93 24.54-6.96L24.54-6.96L24.54-6.96Q24.58-7 24.63-7L24.63-7L29.25-7L29.25-7Q29.30-7 29.34-6.96L29.34-6.96L29.34-6.96Q29.37-6.93 29.37-6.88L29.37-6.88L29.37-5.91ZM34.19 0L34.19 0Q34.09 0 34.05-0.09L34.05-0.09L32.80-2.86L32.80-2.86Q32.78-2.90 32.74-2.90L32.74-2.90L31.81-2.90L31.81-2.90Q31.76-2.90 31.76-2.85L31.76-2.85L31.76-0.12L31.76-0.12Q31.76-0.07 31.72-0.04L31.72-0.04L31.72-0.04Q31.69 0 31.64 0L31.64 0L30.47 0L30.47 0Q30.42 0 30.38-0.04L30.38-0.04L30.38-0.04Q30.35-0.07 30.35-0.12L30.35-0.12L30.35-6.88L30.35-6.88Q30.35-6.93 30.38-6.96L30.38-6.96L30.38-6.96Q30.42-7 30.47-7L30.47-7L33.33-7L33.33-7Q33.97-7 34.45-6.74L34.45-6.74L34.45-6.74Q34.94-6.48 35.20-6L35.20-6L35.20-6Q35.47-5.52 35.47-4.89L35.47-4.89L35.47-4.89Q35.47-4.21 35.13-3.73L35.13-3.73L35.13-3.73Q34.79-3.24 34.18-3.04L34.18-3.04L34.18-3.04Q34.13-3.02 34.15-2.97L34.15-2.97L35.51-0.14L35.51-0.14Q35.53-0.10 35.53-0.08L35.53-0.08L35.53-0.08Q35.53 0 35.42 0L35.42 0L34.19 0ZM31.81-5.79L31.81-5.79Q31.76-5.79 31.76-5.74L31.76-5.74L31.76-4.03L31.76-4.03Q31.76-3.98 31.81-3.98L31.81-3.98L33.12-3.98L33.12-3.98Q33.54-3.98 33.80-4.23L33.80-4.23L33.80-4.23Q34.07-4.48 34.07-4.88L34.07-4.88L34.07-4.88Q34.07-5.28 33.80-5.54L33.80-5.54L33.80-5.54Q33.54-5.79 33.12-5.79L33.12-5.79L31.81-5.79Z"/><path fill="#252530" transform="translate(36.68, 91.8)" d="M2.33-1.27L2.33-1.27Q2.31-1.25 2.32-1.23L2.32-1.23L2.32-1.23Q2.33-1.21 2.36-1.21L2.36-1.21L5.07-1.21L5.07-1.21Q5.12-1.21 5.16-1.18L5.16-1.18L5.16-1.18Q5.19-1.14 5.19-1.09L5.19-1.09L5.19-0.12L5.19-0.12Q5.19-0.07 5.16-0.04L5.16-0.04L5.16-0.04Q5.12 0 5.07 0L5.07 0L0.57 0L0.57 0Q0.52 0 0.48-0.04L0.48-0.04L0.48-0.04Q0.45-0.07 0.45-0.12L0.45-0.12L0.45-1.04L0.45-1.04Q0.45-1.13 0.51-1.19L0.51-1.19L0.51-1.19Q1-1.67 1.51-2.23L1.51-2.23L1.51-2.23Q2.02-2.80 2.15-2.94L2.15-2.94L2.15-2.94Q2.43-3.27 2.72-3.57L2.72-3.57L2.72-3.57Q3.63-4.58 3.63-5.07L3.63-5.07L3.63-5.07Q3.63-5.42 3.38-5.65L3.38-5.65L3.38-5.65Q3.13-5.87 2.73-5.87L2.73-5.87L2.73-5.87Q2.33-5.87 2.08-5.65L2.08-5.65L2.08-5.65Q1.83-5.42 1.83-5.05L1.83-5.05L1.83-4.80L1.83-4.80Q1.83-4.75 1.79-4.71L1.79-4.71L1.79-4.71Q1.76-4.68 1.71-4.68L1.71-4.68L0.53-4.68L0.53-4.68Q0.48-4.68 0.45-4.71L0.45-4.71L0.45-4.71Q0.41-4.75 0.41-4.80L0.41-4.80L0.41-5.27L0.41-5.27Q0.44-5.81 0.75-6.23L0.75-6.23L0.75-6.23Q1.06-6.64 1.57-6.86L1.57-6.86L1.57-6.86Q2.09-7.08 2.73-7.08L2.73-7.08L2.73-7.08Q3.44-7.08 3.97-6.82L3.97-6.82L3.97-6.82Q4.49-6.55 4.78-6.10L4.78-6.10L4.78-6.10Q5.06-5.65 5.06-5.10L5.06-5.10L5.06-5.10Q5.06-4.68 4.85-4.24L4.85-4.24L4.85-4.24Q4.64-3.80 4.22-3.29L4.22-3.29L4.22-3.29Q3.91-2.90 3.55-2.52L3.55-2.52L3.55-2.52Q3.19-2.14 2.48-1.42L2.48-1.42L2.33-1.27ZM8.44 0.11L8.44 0.11Q7.34 0.11 6.70-0.51L6.70-0.51L6.70-0.51Q6.06-1.12 6.06-2.18L6.06-2.18L6.06-4.82L6.06-4.82Q6.06-5.86 6.70-6.47L6.70-6.47L6.70-6.47Q7.34-7.08 8.44-7.08L8.44-7.08L8.44-7.08Q9.54-7.08 10.19-6.47L10.19-6.47L10.19-6.47Q10.83-5.86 10.83-4.82L10.83-4.82L10.83-2.18L10.83-2.18Q10.83-1.12 10.19-0.51L10.19-0.51L10.19-0.51Q9.54 0.11 8.44 0.11L8.44 0.11ZM8.44-1.10L8.44-1.10Q8.89-1.10 9.16-1.38L9.16-1.38L9.16-1.38Q9.42-1.65 9.42-2.11L9.42-2.11L9.42-4.86L9.42-4.86Q9.42-5.32 9.16-5.59L9.16-5.59L9.16-5.59Q8.89-5.87 8.44-5.87L8.44-5.87L8.44-5.87Q8-5.87 7.74-5.59L7.74-5.59L7.74-5.59Q7.47-5.32 7.47-4.86L7.47-4.86L7.47-2.11L7.47-2.11Q7.47-1.65 7.74-1.38L7.74-1.38L7.74-1.38Q8-1.10 8.44-1.10L8.44-1.10ZM13.63-1.27L13.63-1.27Q13.61-1.25 13.62-1.23L13.62-1.23L13.62-1.23Q13.63-1.21 13.66-1.21L13.66-1.21L16.37-1.21L16.37-1.21Q16.42-1.21 16.46-1.18L16.46-1.18L16.46-1.18Q16.49-1.14 16.49-1.09L16.49-1.09L16.49-0.12L16.49-0.12Q16.49-0.07 16.46-0.04L16.46-0.04L16.46-0.04Q16.42 0 16.37 0L16.37 0L11.87 0L11.87 0Q11.82 0 11.79-0.04L11.79-0.04L11.79-0.04Q11.75-0.07 11.75-0.12L11.75-0.12L11.75-1.04L11.75-1.04Q11.75-1.13 11.81-1.19L11.81-1.19L11.81-1.19Q12.30-1.67 12.81-2.23L12.81-2.23L12.81-2.23Q13.32-2.80 13.45-2.94L13.45-2.94L13.45-2.94Q13.73-3.27 14.02-3.57L14.02-3.57L14.02-3.57Q14.93-4.58 14.93-5.07L14.93-5.07L14.93-5.07Q14.93-5.42 14.68-5.65L14.68-5.65L14.68-5.65Q14.43-5.87 14.03-5.87L14.03-5.87L14.03-5.87Q13.63-5.87 13.38-5.65L13.38-5.65L13.38-5.65Q13.13-5.42 13.13-5.05L13.13-5.05L13.13-4.80L13.13-4.80Q13.13-4.75 13.10-4.71L13.10-4.71L13.10-4.71Q13.06-4.68 13.01-4.68L13.01-4.68L11.83-4.68L11.83-4.68Q11.78-4.68 11.75-4.71L11.75-4.71L11.75-4.71Q11.71-4.75 11.71-4.80L11.71-4.80L11.71-5.27L11.71-5.27Q11.74-5.81 12.05-6.23L12.05-6.23L12.05-6.23Q12.36-6.64 12.88-6.86L12.88-6.86L12.88-6.86Q13.39-7.08 14.03-7.08L14.03-7.08L14.03-7.08Q14.74-7.08 15.27-6.82L15.27-6.82L15.27-6.82Q15.79-6.55 16.08-6.10L16.08-6.10L16.08-6.10Q16.36-5.65 16.36-5.10L16.36-5.10L16.36-5.10Q16.36-4.68 16.15-4.24L16.15-4.24L16.15-4.24Q15.94-3.80 15.52-3.29L15.52-3.29L15.52-3.29Q15.21-2.90 14.85-2.52L14.85-2.52L14.85-2.52Q14.49-2.14 13.78-1.42L13.78-1.42L13.63-1.27ZM18.34-6.97L18.34-6.97Q18.39-7 18.49-7L18.49-7L19.70-7L19.70-7Q19.75-7 19.79-6.96L19.79-6.96L19.79-6.96Q19.82-6.93 19.82-6.88L19.82-6.88L19.82-0.12L19.82-0.12Q19.82-0.07 19.79-0.04L19.79-0.04L19.79-0.04Q19.75 0 19.70 0L19.70 0L18.53 0L18.53 0Q18.48 0 18.45-0.04L18.45-0.04L18.45-0.04Q18.41-0.07 18.41-0.12L18.41-0.12L18.41-5.60L18.41-5.60Q18.41-5.62 18.39-5.64L18.39-5.64L18.39-5.64Q18.37-5.66 18.35-5.65L18.35-5.65L17.36-5.38L17.32-5.37L17.32-5.37Q17.23-5.37 17.23-5.48L17.23-5.48L17.20-6.34L17.20-6.34Q17.20-6.44 17.29-6.48L17.29-6.48L18.34-6.97Z"/></g>
</svg>
