<svg id="White_Badges" data-name="White Badges" xmlns="http://www.w3.org/2000/svg" viewBox="0 0 704.36 800"><defs><style>.cls-1{fill:#f8f8f8;}.cls-2{fill:#fff;}.cls-3{fill:#dcdfdd;}.cls-4{fill:#ff492c;}.cls-5{fill:#252530;}</style></defs><polygon class="cls-1" points="667.54 638.25 352.18 800 36.82 638.25 36.82 0 667.54 0 667.54 638.25"/><polygon class="cls-2" points="37.56 0 37.56 638.24 668.28 0 37.56 0"/><path class="cls-3" d="M661.54,6V634.58L352.18,793.26,42.82,634.58V6H661.54m6-6H36.82V638.24L352.18,800,667.54,638.24V0Z"/><polygon class="cls-4" points="424.91 114.11 351.55 156.74 279.45 114.11 279.45 0 424.91 0 424.91 114.11"/><path class="cls-2" d="M387.21,56.45H373.54c.38-2.15,1.7-3.34,4.38-4.71l2.52-1.28c4.5-2.31,6.89-4.91,6.89-9.16A7.44,7.44,0,0,0,384.24,35a12,12,0,0,0-7.35-2.27,11.41,11.41,0,0,0-6.24,1.78,10.48,10.48,0,0,0-4.12,4.5l4,4c1.53-3.1,3.76-4.62,6.69-4.62,2.47,0,4,1.28,4,3.05,0,1.49-.74,2.73-3.59,4.17l-1.61.79c-3.51,1.77-6,3.79-7.35,6.11a16.43,16.43,0,0,0-2.1,8.71v1h20.68Z"/><polygon class="cls-2" points="385.38 68.64 362.75 68.64 351.44 88.23 374.07 88.23 385.38 107.83 396.69 88.23 385.38 68.64"/><path class="cls-2" d="M353.39,101.3a26.13,26.13,0,0,1,0-52.26l8.95-18.72a46.35,46.35,0,0,0-8.95-.87,45.72,45.72,0,1,0,26.93,82.67L370.41,95A26,26,0,0,1,353.39,101.3Z"/><polygon class="cls-4" points="681.96 501.65 22.4 501.65 0 445.65 22.4 389.65 681.96 389.65 704.36 445.65 681.96 501.65"/><path class="cls-5" d="M139.19,567.43c0,.08.05.14.15.19a6.31,6.31,0,0,1,3.42,6.07,6.53,6.53,0,0,1-2.65,5.72,11.78,11.78,0,0,1-7,1.88h-10a.68.68,0,0,1-.5-.19.7.7,0,0,1-.19-.5V555.1a.72.72,0,0,1,.19-.5.68.68,0,0,1,.5-.19h9.68c3.12,0,5.49.59,7.09,1.77s2.4,3.08,2.4,5.72a5.54,5.54,0,0,1-3,5.34C139.24,567.29,139.19,567.35,139.19,567.43Zm-10.33-7.3v4.69a.24.24,0,0,0,.27.27h3.72a3.79,3.79,0,0,0,2.42-.68,2.29,2.29,0,0,0,.85-1.9,2.42,2.42,0,0,0-.85-2,3.73,3.73,0,0,0-2.42-.69h-3.72A.24.24,0,0,0,128.86,560.13Zm6.68,15a2.91,2.91,0,0,0,0-4.07,3.6,3.6,0,0,0-2.4-.71h-4a.24.24,0,0,0-.27.27v4.95a.24.24,0,0,0,.27.27h4A3.61,3.61,0,0,0,135.54,575.09Z"/><path class="cls-5" d="M166,559.67a.66.66,0,0,1-.5.19H153.78a.24.24,0,0,0-.27.27v4.57a.24.24,0,0,0,.27.27h7.41a.7.7,0,0,1,.5.19.68.68,0,0,1,.19.5v4a.65.65,0,0,1-.19.5.67.67,0,0,1-.5.2h-7.41a.24.24,0,0,0-.27.26v4.92a.24.24,0,0,0,.27.27h11.75a.66.66,0,0,1,.5.19.68.68,0,0,1,.19.5v4.07a.65.65,0,0,1-.69.69h-17.7a.65.65,0,0,1-.69-.69V555.1a.68.68,0,0,1,.19-.5.66.66,0,0,1,.5-.19h17.7a.66.66,0,0,1,.5.19.68.68,0,0,1,.19.5v4.07A.66.66,0,0,1,166,559.67Z"/><path class="cls-5" d="M174.46,580.58a8,8,0,0,1-3.59-2.92,7.67,7.67,0,0,1-1.27-4.39v-.5a.66.66,0,0,1,.19-.5.68.68,0,0,1,.5-.19h4.88a.87.87,0,0,1,.5.13.39.39,0,0,1,.19.33V573a2.75,2.75,0,0,0,1.25,2.19,5.1,5.1,0,0,0,3.2,1,3.68,3.68,0,0,0,2.5-.73,2.22,2.22,0,0,0,.81-1.69,1.83,1.83,0,0,0-.94-1.65,16.59,16.59,0,0,0-3.36-1.35l-.85-.27a31.41,31.41,0,0,1-4.3-1.74A9.33,9.33,0,0,1,171,566.1a6.48,6.48,0,0,1-1.3-4.12,7.1,7.1,0,0,1,1.24-4.17,8.07,8.07,0,0,1,3.46-2.75,12.44,12.44,0,0,1,5-1,12.64,12.64,0,0,1,5.32,1.08,8.92,8.92,0,0,1,3.71,3,7.82,7.82,0,0,1,1.34,4.5v.3a.66.66,0,0,1-.19.5.68.68,0,0,1-.5.19h-4.88a1.21,1.21,0,0,1-.5-.09.31.31,0,0,1-.19-.29V563a3.11,3.11,0,0,0-1.19-2.38,4.69,4.69,0,0,0-3.19-1,3.9,3.9,0,0,0-2.34.61,2,2,0,0,0-.84,1.73,1.92,1.92,0,0,0,.53,1.4,5.17,5.17,0,0,0,1.67,1c.76.32,1.92.73,3.48,1.25a44.54,44.54,0,0,1,4.18,1.61,8.5,8.5,0,0,1,2.83,2.24,6.11,6.11,0,0,1,1.32,4.09,7.23,7.23,0,0,1-1.27,4.25,8.2,8.2,0,0,1-3.57,2.82,13.12,13.12,0,0,1-5.3,1A13.32,13.32,0,0,1,174.46,580.58Z"/><path class="cls-5" d="M213.61,554.6a.68.68,0,0,1,.19.5v4.11a.66.66,0,0,1-.19.5.68.68,0,0,1-.5.19H206.7a.24.24,0,0,0-.27.27V580.6a.7.7,0,0,1-.19.5.68.68,0,0,1-.5.19h-5a.68.68,0,0,1-.5-.19.7.7,0,0,1-.19-.5V560.17a.24.24,0,0,0-.27-.27H193.6a.68.68,0,0,1-.5-.19.66.66,0,0,1-.19-.5V555.1a.65.65,0,0,1,.69-.69h19.51A.68.68,0,0,1,213.61,554.6Z"/><path class="cls-5" d="M230.37,580.58a8,8,0,0,1-3.59-2.92,7.67,7.67,0,0,1-1.27-4.39v-.5a.7.7,0,0,1,.19-.5.68.68,0,0,1,.5-.19h4.88a.84.84,0,0,1,.5.13.39.39,0,0,1,.19.33V573a2.75,2.75,0,0,0,1.25,2.19,5.11,5.11,0,0,0,3.21,1,3.66,3.66,0,0,0,2.49-.73,2.22,2.22,0,0,0,.81-1.69,1.83,1.83,0,0,0-.94-1.65,16.59,16.59,0,0,0-3.36-1.35l-.85-.27a31.41,31.41,0,0,1-4.3-1.74,9.33,9.33,0,0,1-3.15-2.62,6.48,6.48,0,0,1-1.3-4.12,7.1,7.1,0,0,1,1.24-4.17,8.07,8.07,0,0,1,3.46-2.75,12.44,12.44,0,0,1,5-1,12.64,12.64,0,0,1,5.32,1.08,8.86,8.86,0,0,1,3.71,3,7.82,7.82,0,0,1,1.34,4.5v.3a.66.66,0,0,1-.19.5.68.68,0,0,1-.5.19h-4.88a1.21,1.21,0,0,1-.5-.09.33.33,0,0,1-.19-.29V563a3.11,3.11,0,0,0-1.19-2.38,4.67,4.67,0,0,0-3.19-1,3.92,3.92,0,0,0-2.34.61,2,2,0,0,0-.84,1.73,2,2,0,0,0,.53,1.4,5.17,5.17,0,0,0,1.67,1c.76.32,1.92.73,3.48,1.25,1.79.61,3.19,1.15,4.19,1.61a8.47,8.47,0,0,1,2.82,2.24,6.11,6.11,0,0,1,1.32,4.09,7.3,7.3,0,0,1-1.26,4.25,8.28,8.28,0,0,1-3.58,2.82,13.1,13.1,0,0,1-5.29,1A13.34,13.34,0,0,1,230.37,580.58Z"/><path class="cls-5" d="M254.52,580.47a9.06,9.06,0,0,1-3.66-3.52,10.34,10.34,0,0,1-1.31-5.26V564a10.07,10.07,0,0,1,1.31-5.16,9,9,0,0,1,3.66-3.5,12.66,12.66,0,0,1,11,0,9,9,0,0,1,3.68,3.5,10.07,10.07,0,0,1,1.31,5.16v7.68a10.34,10.34,0,0,1-1.31,5.26,9,9,0,0,1-3.68,3.52,12.75,12.75,0,0,1-11,0Zm8.45-5.4a4.42,4.42,0,0,0,1.14-3.19v-8a4.41,4.41,0,0,0-1.14-3.16,3.87,3.87,0,0,0-3-1.21,3.82,3.82,0,0,0-2.94,1.21,4.4,4.4,0,0,0-1.13,3.16v8a4.41,4.41,0,0,0,1.13,3.19,3.87,3.87,0,0,0,2.94,1.19A3.92,3.92,0,0,0,263,575.07Z"/><path class="cls-5" d="M293.63,559.67a.64.64,0,0,1-.49.19H281.42a.24.24,0,0,0-.27.27v4.57a.24.24,0,0,0,.27.27h7.41a.67.67,0,0,1,.7.69v4a.68.68,0,0,1-.7.7h-7.41a.24.24,0,0,0-.27.26v10a.65.65,0,0,1-.69.69h-5a.68.68,0,0,1-.5-.19.66.66,0,0,1-.19-.5V555.1a.65.65,0,0,1,.69-.69h17.67a.64.64,0,0,1,.49.19.69.69,0,0,1,.2.5v4.07A.67.67,0,0,1,293.63,559.67Z"/><path class="cls-5" d="M316.83,554.6a.68.68,0,0,1,.19.5v4.11a.65.65,0,0,1-.69.69h-6.41a.24.24,0,0,0-.27.27V580.6a.7.7,0,0,1-.19.5.68.68,0,0,1-.5.19h-5a.65.65,0,0,1-.5-.19.67.67,0,0,1-.2-.5V560.17a.24.24,0,0,0-.26-.27h-6.19a.68.68,0,0,1-.5-.19.7.7,0,0,1-.19-.5V555.1a.72.72,0,0,1,.19-.5.68.68,0,0,1,.5-.19h19.51A.66.66,0,0,1,316.83,554.6Z"/><path class="cls-5" d="M326.05,580.72l-7-25.54a.47.47,0,0,1,0-.23c0-.36.2-.54.61-.54H325a.81.81,0,0,1,.52.17.73.73,0,0,1,.25.45L329,568.58c.06.1.11.15.18.15s.11-.05.13-.15L332.38,555a.7.7,0,0,1,.77-.62h4.57a.73.73,0,0,1,.77.62l3.38,13.55c.05.1.11.15.17.15s.11-.05.13-.15l3-13.55a.73.73,0,0,1,.25-.45.81.81,0,0,1,.52-.17h5.22a.57.57,0,0,1,.62.77l-6.38,25.5a.72.72,0,0,1-.77.61h-5.1a.81.81,0,0,1-.52-.17.66.66,0,0,1-.25-.44l-3.23-14.4c0-.13-.08-.2-.15-.2s-.13.07-.16.2l-2.91,14.4a.67.67,0,0,1-.73.61h-4.77A.71.71,0,0,1,326.05,580.72Z"/><path class="cls-5" d="M367.79,580.72l-.89-3.15c0-.16-.12-.23-.3-.23h-8.68a.29.29,0,0,0-.31.23l-.88,3.15a.72.72,0,0,1-.77.57h-5.41a.62.62,0,0,1-.54-.21.59.59,0,0,1,0-.56L358,555a.78.78,0,0,1,.81-.58h6.8a.73.73,0,0,1,.8.58l8.11,25.53a.87.87,0,0,1,0,.27c0,.34-.2.5-.61.5h-5.41A.72.72,0,0,1,367.79,580.72Zm-8.6-8.53a.2.2,0,0,0,.23.23h5.68a.22.22,0,0,0,.23-.31l-2.92-10.21c0-.13-.07-.19-.13-.19s-.12.06-.18.19l-2.91,10.21Z"/><path class="cls-5" d="M392.21,580.75l-4.45-10a.31.31,0,0,0-.31-.19h-2.38a.24.24,0,0,0-.27.27v9.75a.66.66,0,0,1-.19.5.68.68,0,0,1-.5.19h-5a.65.65,0,0,1-.5-.19.67.67,0,0,1-.2-.5V555.1a.69.69,0,0,1,.2-.5.65.65,0,0,1,.5-.19h11.17a9.23,9.23,0,0,1,4.45,1,7.22,7.22,0,0,1,3,2.94,8.84,8.84,0,0,1,1.06,4.35,7.82,7.82,0,0,1-1.25,4.42,7.09,7.09,0,0,1-3.48,2.73.25.25,0,0,0-.15.38l4.92,10.22.07.3c0,.34-.2.5-.61.5H393A.81.81,0,0,1,392.21,580.75Zm-7.41-20.62v5.3a.24.24,0,0,0,.27.27h4.18a3.32,3.32,0,0,0,2.31-.79,2.65,2.65,0,0,0,.88-2.09,2.76,2.76,0,0,0-.88-2.15,3.29,3.29,0,0,0-2.31-.81h-4.18A.24.24,0,0,0,384.8,560.13Z"/><path class="cls-5" d="M421.86,559.67a.68.68,0,0,1-.5.19H409.61a.24.24,0,0,0-.27.27v4.57a.24.24,0,0,0,.27.27H417a.65.65,0,0,1,.69.69v4a.67.67,0,0,1-.69.7h-7.41a.24.24,0,0,0-.27.26v4.92a.24.24,0,0,0,.27.27h11.75a.68.68,0,0,1,.5.19.72.72,0,0,1,.19.5v4.07a.7.7,0,0,1-.19.5.68.68,0,0,1-.5.19H403.65a.68.68,0,0,1-.5-.19.7.7,0,0,1-.19-.5V555.1a.72.72,0,0,1,.19-.5.68.68,0,0,1,.5-.19h17.71a.68.68,0,0,1,.5.19.72.72,0,0,1,.19.5v4.07A.7.7,0,0,1,421.86,559.67Z"/><path class="cls-5" d="M451.69,580.72l-.88-3.15c0-.16-.13-.23-.31-.23h-8.68a.29.29,0,0,0-.3.23l-.89,3.15a.71.71,0,0,1-.76.57h-5.42a.53.53,0,0,1-.58-.77L441.94,555a.78.78,0,0,1,.8-.58h6.8a.74.74,0,0,1,.81.58l8.1,25.53a.61.61,0,0,1,0,.27c0,.34-.2.5-.61.5h-5.42A.72.72,0,0,1,451.69,580.72Zm-8.6-8.53a.21.21,0,0,0,.23.23H449a.23.23,0,0,0,.22-.1.3.3,0,0,0,0-.21l-2.92-10.21c0-.13-.07-.19-.14-.19s-.12.06-.17.19l-2.92,10.21Z"/><path class="cls-5" d="M462.68,580.72l-7-25.54a.47.47,0,0,1,0-.23c0-.36.2-.54.61-.54h5.38a.81.81,0,0,1,.52.17.73.73,0,0,1,.25.45l3.22,13.55c.06.1.11.15.18.15s.11-.05.13-.15L469,555a.7.7,0,0,1,.77-.62h4.57a.73.73,0,0,1,.77.62l3.38,13.55c.05.1.11.15.17.15s.11-.05.13-.15l3-13.55a.73.73,0,0,1,.25-.45.81.81,0,0,1,.52-.17h5.22a.57.57,0,0,1,.62.77L482,580.68a.72.72,0,0,1-.77.61h-5.1a.81.81,0,0,1-.52-.17.66.66,0,0,1-.25-.44l-3.23-14.4c0-.13-.08-.2-.15-.2s-.13.07-.16.2l-2.91,14.4a.67.67,0,0,1-.73.61h-4.77A.71.71,0,0,1,462.68,580.72Z"/><path class="cls-5" d="M504.42,580.72l-.89-3.15c0-.16-.12-.23-.3-.23h-8.68a.29.29,0,0,0-.31.23l-.88,3.15a.72.72,0,0,1-.77.57h-5.41a.62.62,0,0,1-.54-.21.59.59,0,0,1,0-.56L494.66,555a.78.78,0,0,1,.81-.58h6.8a.73.73,0,0,1,.8.58l8.11,25.53a.87.87,0,0,1,0,.27c0,.34-.2.5-.61.5h-5.41A.72.72,0,0,1,504.42,580.72Zm-8.6-8.53a.2.2,0,0,0,.23.23h5.68a.22.22,0,0,0,.23-.31L499,561.9c0-.13-.07-.19-.13-.19s-.12.06-.18.19l-2.91,10.21Z"/><path class="cls-5" d="M528.84,580.75l-4.45-10a.31.31,0,0,0-.31-.19H521.7a.24.24,0,0,0-.27.27v9.75a.66.66,0,0,1-.19.5.68.68,0,0,1-.5.19h-5a.65.65,0,0,1-.5-.19.67.67,0,0,1-.2-.5V555.1a.69.69,0,0,1,.2-.5.65.65,0,0,1,.5-.19h11.17a9.23,9.23,0,0,1,4.45,1,7.22,7.22,0,0,1,3,2.94,8.84,8.84,0,0,1,1.06,4.35,7.82,7.82,0,0,1-1.25,4.42,7.09,7.09,0,0,1-3.48,2.73.25.25,0,0,0-.15.38l4.92,10.22.07.3c0,.34-.2.5-.61.5h-5.26A.81.81,0,0,1,528.84,580.75Zm-7.41-20.62v5.3a.24.24,0,0,0,.27.27h4.18a3.32,3.32,0,0,0,2.31-.79,2.65,2.65,0,0,0,.88-2.09,2.76,2.76,0,0,0-.88-2.15,3.29,3.29,0,0,0-2.31-.81H521.7A.24.24,0,0,0,521.43,560.13Z"/><path class="cls-5" d="M539.78,581.1a.7.7,0,0,1-.19-.5V555.1a.72.72,0,0,1,.19-.5.68.68,0,0,1,.5-.19h9.57a12.85,12.85,0,0,1,5.3,1,8.21,8.21,0,0,1,3.57,2.95,7.89,7.89,0,0,1,1.26,4.42v10.06a7.87,7.87,0,0,1-1.26,4.42,8.21,8.21,0,0,1-3.57,3,12.69,12.69,0,0,1-5.3,1h-9.57A.68.68,0,0,1,539.78,581.1Zm6.46-5.26h3.87a3.17,3.17,0,0,0,2.5-1.1,4.44,4.44,0,0,0,1-2.93V563.9a4.26,4.26,0,0,0-1-2.94,3.26,3.26,0,0,0-2.55-1.1h-3.84a.24.24,0,0,0-.27.27v15.44A.24.24,0,0,0,546.24,575.84Z"/><path class="cls-5" d="M568.49,580.58a8,8,0,0,1-3.59-2.92,7.67,7.67,0,0,1-1.27-4.39v-.5a.66.66,0,0,1,.19-.5.68.68,0,0,1,.5-.19h4.88a.87.87,0,0,1,.5.13.39.39,0,0,1,.19.33V573a2.75,2.75,0,0,0,1.25,2.19,5.1,5.1,0,0,0,3.2,1,3.68,3.68,0,0,0,2.5-.73,2.22,2.22,0,0,0,.81-1.69,1.83,1.83,0,0,0-.94-1.65,16.59,16.59,0,0,0-3.36-1.35l-.85-.27a31.41,31.41,0,0,1-4.3-1.74,9.33,9.33,0,0,1-3.15-2.62,6.48,6.48,0,0,1-1.3-4.12,7.1,7.1,0,0,1,1.24-4.17,8.07,8.07,0,0,1,3.46-2.75,12.44,12.44,0,0,1,5-1,12.64,12.64,0,0,1,5.32,1.08,8.92,8.92,0,0,1,3.71,3,7.82,7.82,0,0,1,1.34,4.5v.3a.66.66,0,0,1-.19.5.68.68,0,0,1-.5.19h-4.88a1.21,1.21,0,0,1-.5-.09.31.31,0,0,1-.19-.29V563a3.11,3.11,0,0,0-1.19-2.38,4.69,4.69,0,0,0-3.19-1,3.9,3.9,0,0,0-2.34.61,2,2,0,0,0-.84,1.73,1.92,1.92,0,0,0,.53,1.4,5.17,5.17,0,0,0,1.67,1c.76.32,1.92.73,3.48,1.25a44.54,44.54,0,0,1,4.18,1.61,8.5,8.5,0,0,1,2.83,2.24,6.11,6.11,0,0,1,1.32,4.09,7.23,7.23,0,0,1-1.27,4.25,8.2,8.2,0,0,1-3.57,2.82,13.12,13.12,0,0,1-5.3,1A13.32,13.32,0,0,1,568.49,580.58Z"/><path class="cls-5" d="M230.15,241.59a2.35,2.35,0,0,1,.67,1.74v14.39a2.3,2.3,0,0,1-2.42,2.41H206a.84.84,0,0,0-1,.95v71.5A2.3,2.3,0,0,1,202.6,335H185.12a2.34,2.34,0,0,1-1.74-.67,2.37,2.37,0,0,1-.68-1.75v-71.5a.84.84,0,0,0-.94-.95H160.12a2.31,2.31,0,0,1-2.42-2.41V243.33a2.33,2.33,0,0,1,2.42-2.42H228.4A2.37,2.37,0,0,1,230.15,241.59Z"/><path class="cls-5" d="M239,329.62a31.68,31.68,0,0,1-11.36-17.47,43.14,43.14,0,0,1-1.61-12.1,48.41,48.41,0,0,1,1.75-13,29.93,29.93,0,0,1,11.49-16.6q8.4-6,20.36-6t20,6A31,31,0,0,1,291,286.88a43,43,0,0,1,1.89,12.9,46.71,46.71,0,0,1-1.48,11.83,31.59,31.59,0,0,1-11.29,17.88q-8.47,6.58-20.7,6.58T239,329.62Zm27-15.12a13.66,13.66,0,0,0,3.69-6.79,33.91,33.91,0,0,0,.81-7.66,31.84,31.84,0,0,0-.94-7.79,12.63,12.63,0,0,0-3.63-6.45,10.33,10.33,0,0,0-13,0,12.78,12.78,0,0,0-3.56,6.45,26.29,26.29,0,0,0-.94,7.79,34.51,34.51,0,0,0,.8,7.66A14.84,14.84,0,0,0,253,314.5a8.85,8.85,0,0,0,6.45,2.49A9.1,9.1,0,0,0,266,314.5Z"/><path class="cls-5" d="M370.06,300.59a47.34,47.34,0,0,1-2.82,16.94,29.15,29.15,0,0,1-10,13.5,25.31,25.31,0,0,1-15.53,5.18q-10.21,0-15.32-6.18c-.27-.36-.51-.5-.74-.41s-.33.36-.33.81v26.74a2.4,2.4,0,0,1-.67,1.75,2.37,2.37,0,0,1-1.75.67H305.42a2.3,2.3,0,0,1-2.42-2.42V267.93a2.36,2.36,0,0,1,.67-1.75,2.4,2.4,0,0,1,1.75-.67h17.47a2.3,2.3,0,0,1,2.42,2.42v3.23c0,.45.11.71.33.8s.47,0,.74-.4q5.12-7.12,15.32-7.12a25.58,25.58,0,0,1,16.13,5.78,28.72,28.72,0,0,1,10.08,14.91A49.81,49.81,0,0,1,370.06,300.59Zm-23.92-.4q0-6.85-2.28-11.16a9,9,0,0,0-8.2-5q-5.12,0-7.93,5.11a23.29,23.29,0,0,0-2.29,11q0,7.4,2.42,11.82a8.73,8.73,0,0,0,7.8,4.57,8.89,8.89,0,0,0,8.06-4.7Q346.14,307.44,346.14,300.19Z"/><path class="cls-5" d="M469.52,304.49a34.93,34.93,0,0,1-2.42,12.9,28.41,28.41,0,0,1-11.62,13.37,34.9,34.9,0,0,1-18.75,5A35.26,35.26,0,0,1,418,330.9a28.52,28.52,0,0,1-11.69-13.37,30.77,30.77,0,0,1-2-7.26v-.54c0-1.34.76-2,2.28-2h18.15a2.76,2.76,0,0,1,2.68,1.75,5.72,5.72,0,0,0,.81,1.75,8.4,8.4,0,0,0,3.29,4.1,9.44,9.44,0,0,0,5.18,1.41,9,9,0,0,0,8.33-5.38,12.71,12.71,0,0,0,1.61-6.45,13.28,13.28,0,0,0-1.34-6.85,7.75,7.75,0,0,0-3.16-3.83,9.94,9.94,0,0,0-5.44-1.41c-3.68,0-6.45,1.25-8.34,3.76a6.34,6.34,0,0,1-1.27,1.21,2.75,2.75,0,0,1-1.55.4H406.75a2.3,2.3,0,0,1-2.41-2.42V243.33a2.31,2.31,0,0,1,2.41-2.42H464a2.31,2.31,0,0,1,2.42,2.42v14.25A2.3,2.3,0,0,1,464,260H427.59a.83.83,0,0,0-.94.94V276a.86.86,0,0,0,.27.74c.17.14.44.12.8-.06a25.09,25.09,0,0,1,12.23-3.1,29.63,29.63,0,0,1,16.8,4.84,27.27,27.27,0,0,1,10.49,13.18A38.49,38.49,0,0,1,469.52,304.49Z"/><path class="cls-5" d="M487,327.94q-8.87-8.67-8.87-23.59V271.56q0-14.79,8.87-23.25t24.33-8.47q15.45,0,24.46,8.53t9,23.19v32.79q0,14.92-9,23.59t-24.46,8.67Q495.87,336.61,487,327.94Zm32.46-13.71q3-3.15,3-8.67V270.75q0-5.5-3-8.67a10.73,10.73,0,0,0-8.13-3.16,10.36,10.36,0,0,0-7.93,3.16q-3,3.17-3,8.67v34.81c0,3.68,1,6.57,2.89,8.67a10.29,10.29,0,0,0,8,3.16A10.7,10.7,0,0,0,519.45,314.23Z"/><path class="cls-5" d="M277.23,673.38a1.33,1.33,0,0,1-.39-1v-7.75a2.19,2.19,0,0,1,.77-1.69c1.89-1.74,3.87-3.69,5.92-5.84l5.83-6.15q5.07-5.3,4.76-5,7-7.22,7-10.52a4.73,4.73,0,0,0-1.65-3.69,6.21,6.21,0,0,0-4.26-1.46,6,6,0,0,0-4.22,1.46,4.94,4.94,0,0,0-1.62,3.84V637a1.31,1.31,0,0,1-1.38,1.38H277.84a1.31,1.31,0,0,1-1.38-1.38V633.6a13.4,13.4,0,0,1,2.84-7.53,16.26,16.26,0,0,1,6.68-5,23.63,23.63,0,0,1,9.22-1.73,22.15,22.15,0,0,1,9.95,2.11,15.76,15.76,0,0,1,6.52,5.72,14.62,14.62,0,0,1,.73,14.36,31.72,31.72,0,0,1-4.61,6.84,157.72,157.72,0,0,1-11.29,11.67l-2.15,2.08c-.2.2-.28.37-.23.5s.21.19.46.19h18.75a1.32,1.32,0,0,1,1.38,1.38v8.14a1.33,1.33,0,0,1-1.38,1.39h-35.1A1.33,1.33,0,0,1,277.23,673.38Z"/><path class="cls-5" d="M325.38,669.73q-5.07-5-5.07-13.48V637.51q0-8.44,5.07-13.28t13.9-4.84q8.84,0,14,4.88t5.15,13.24v18.74q0,8.54-5.15,13.48t-14,5Q330.45,674.69,325.38,669.73Zm18.55-7.83a6.86,6.86,0,0,0,1.73-4.95v-19.9a6.86,6.86,0,0,0-1.73-4.95,6.15,6.15,0,0,0-4.65-1.81,5.93,5.93,0,0,0-4.53,1.81,6.93,6.93,0,0,0-1.69,4.95V657a7,7,0,0,0,1.65,4.95,5.9,5.9,0,0,0,4.57,1.8A6.14,6.14,0,0,0,343.93,661.9Z"/><path class="cls-5" d="M364.7,673.38a1.37,1.37,0,0,1-.38-1v-7.75a2.19,2.19,0,0,1,.77-1.69q2.84-2.61,5.91-5.84t5.84-6.15q5.07-5.3,4.76-5,7-7.22,7-10.52a4.73,4.73,0,0,0-1.65-3.69,6.21,6.21,0,0,0-4.26-1.46,6.09,6.09,0,0,0-4.23,1.46,5,5,0,0,0-1.61,3.84V637a1.31,1.31,0,0,1-1.38,1.38H365.32a1.38,1.38,0,0,1-1-.38,1.34,1.34,0,0,1-.38-1V633.6a13.4,13.4,0,0,1,2.84-7.53,16.26,16.26,0,0,1,6.68-5,23.63,23.63,0,0,1,9.22-1.73,22.08,22.08,0,0,1,9.94,2.11,15.79,15.79,0,0,1,6.53,5.72,14.62,14.62,0,0,1,.73,14.36,31.72,31.72,0,0,1-4.61,6.84A157.72,157.72,0,0,1,384,660.09l-2.15,2.08c-.2.2-.28.37-.23.5s.21.19.46.19H400.8a1.38,1.38,0,0,1,1,.38,1.34,1.34,0,0,1,.38,1v8.14a1.33,1.33,0,0,1-.38,1,1.35,1.35,0,0,1-1,.39H365.7A1.35,1.35,0,0,1,364.7,673.38Z"/><path class="cls-5" d="M415.47,620H426a1.34,1.34,0,0,1,1.39,1.39v51a1.34,1.34,0,0,1-1.39,1.39H416a1.35,1.35,0,0,1-1-.39,1.33,1.33,0,0,1-.38-1V632.21a.49.49,0,0,0-.16-.38.35.35,0,0,0-.38-.08l-6.45.77h-.23c-.82,0-1.23-.43-1.23-1.3v-7.15a1.58,1.58,0,0,1,1.15-1.53l6.45-2.23A4.25,4.25,0,0,1,415.47,620Z"/><path class="cls-2" d="M111.63,429.33a9.88,9.88,0,0,1,4,4,12,12,0,0,1,1.43,5.91,11.09,11.09,0,0,1-1.48,5.77,10.17,10.17,0,0,1-4.16,3.87,13.28,13.28,0,0,1-6.16,1.38H98a.28.28,0,0,0-.32.31v12.95a.78.78,0,0,1-.88.88H91.2a.78.78,0,0,1-.89-.88V428.81a.79.79,0,0,1,.89-.89h14.4A12.43,12.43,0,0,1,111.63,429.33ZM108.36,443a4.76,4.76,0,0,0,1.45-3.62,4.9,4.9,0,0,0-1.45-3.69,5.3,5.3,0,0,0-3.85-1.4H98a.28.28,0,0,0-.32.31V444a.28.28,0,0,0,.32.31h6.55A5.41,5.41,0,0,0,108.36,443Z"/><path class="cls-2" d="M137.22,437.9a.9.9,0,0,1,.46,1.1l-1,5.46c0,.31-.13.5-.28.57a1.36,1.36,0,0,1-.76,0,6.13,6.13,0,0,0-1.5-.21c-.25,0-.64,0-1.2.1a5.14,5.14,0,0,0-3.17,1.38,4.25,4.25,0,0,0-1.3,3.25v13.94a.78.78,0,0,1-.88.88H122a.78.78,0,0,1-.88-.88v-25a.78.78,0,0,1,.88-.88h5.57a.78.78,0,0,1,.88.88v1.61c0,.14,0,.23.1.26s.16,0,.26-.1a6.5,6.5,0,0,1,5.62-3A5.58,5.58,0,0,1,137.22,437.9Z"/><path class="cls-2" d="M144.7,462.5a11.37,11.37,0,0,1-4.26-6.24,18.35,18.35,0,0,1-.73-5.3,17.44,17.44,0,0,1,.78-5.51,11.26,11.26,0,0,1,4.29-6,12.74,12.74,0,0,1,7.52-2.18,12.22,12.22,0,0,1,7.3,2.18,11.34,11.34,0,0,1,4.24,6,17.64,17.64,0,0,1,.78,5.46,20.45,20.45,0,0,1-.68,5.26,11.85,11.85,0,0,1-4.29,6.37,12,12,0,0,1-7.41,2.31A12.38,12.38,0,0,1,144.7,462.5Zm10.4-5a5.84,5.84,0,0,0,1.72-2.86,13,13,0,0,0,.42-3.64,13.88,13.88,0,0,0-.42-3.69,5.48,5.48,0,0,0-1.72-2.76,4.47,4.47,0,0,0-3-1,4.4,4.4,0,0,0-2.91,1,5.48,5.48,0,0,0-1.72,2.76,13.92,13.92,0,0,0-.41,3.69,13.78,13.78,0,0,0,.41,3.64,5.79,5.79,0,0,0,1.74,2.86,4.48,4.48,0,0,0,3,1A4.21,4.21,0,0,0,155.1,457.46Z"/><path class="cls-2" d="M186.36,428h5.56a.78.78,0,0,1,.88.89v34.63a.78.78,0,0,1-.88.88h-5.56a.78.78,0,0,1-.89-.88v-1.4c0-.14,0-.22-.13-.24s-.16,0-.23.13a7,7,0,0,1-5.93,2.81,10,10,0,0,1-6.27-2.11,10.77,10.77,0,0,1-3.77-5.53,19,19,0,0,1-.88-6.25,18.2,18.2,0,0,1,1-6.44,10.89,10.89,0,0,1,3.77-5.31,10,10,0,0,1,6.16-2,7.23,7.23,0,0,1,5.93,2.55c.07.1.15.13.23.1s.13-.12.13-.26V428.86A.79.79,0,0,1,186.36,428Zm-.94,23a10.94,10.94,0,0,0-1.09-5.36,4,4,0,0,0-3.49-2,4,4,0,0,0-3.64,2,12.56,12.56,0,0,0-.15,10.56,4.06,4.06,0,0,0,3.79,2.23,3.87,3.87,0,0,0,3.54-2.23A10.92,10.92,0,0,0,185.42,451Z"/><path class="cls-2" d="M214.8,437.65h5.56a.78.78,0,0,1,.89.88v25a.78.78,0,0,1-.89.88H214.8a.78.78,0,0,1-.88-.88v-1.4c0-.14,0-.22-.13-.24s-.17,0-.24.13q-2,2.76-6.39,2.76a9.11,9.11,0,0,1-6.5-2.39,8.77,8.77,0,0,1-2.55-6.71V438.53a.78.78,0,0,1,.88-.88h5.51a.78.78,0,0,1,.89.88v15.29a5,5,0,0,0,1.12,3.38,3.87,3.87,0,0,0,3.09,1.3,4.1,4.1,0,0,0,2.91-1.07,4.68,4.68,0,0,0,1.41-2.78V438.53A.78.78,0,0,1,214.8,437.65Z"/><path class="cls-2" d="M231.21,462.71a11.37,11.37,0,0,1-4.35-5.72,19.09,19.09,0,0,1-.88-6.14,18.43,18.43,0,0,1,.88-6,10.79,10.79,0,0,1,4.32-5.56,12.72,12.72,0,0,1,7.23-2,12.89,12.89,0,0,1,7.3,2.08,10,10,0,0,1,4.19,5.25,5.77,5.77,0,0,1,.42,1.61v.11c0,.45-.26.73-.78.83l-5.46.83-.26.05a.66.66,0,0,1-.73-.62l-.16-.73a4,4,0,0,0-1.61-2.24,5,5,0,0,0-3-.88,4.68,4.68,0,0,0-2.81.83,4.38,4.38,0,0,0-1.61,2.29,12.51,12.51,0,0,0-.58,4.26,14.18,14.18,0,0,0,.52,4.27,4.67,4.67,0,0,0,1.64,2.44,4.58,4.58,0,0,0,2.84.89,4.83,4.83,0,0,0,2.83-.86,4.39,4.39,0,0,0,1.69-2.31l.05-.26a1.19,1.19,0,0,1,.37-.5.77.77,0,0,1,.67-.23l5.46.83a1,1,0,0,1,.6.36.89.89,0,0,1,.13.63,5,5,0,0,1-.26,1.19,9.65,9.65,0,0,1-4.24,5.46,13.32,13.32,0,0,1-7.25,2A12.38,12.38,0,0,1,231.21,462.71Z"/><path class="cls-2" d="M269,443.52h-4.68a.28.28,0,0,0-.32.31V454.6a3.77,3.77,0,0,0,.71,2.52,2.83,2.83,0,0,0,2.26.8h1.45a.79.79,0,0,1,.89.89v4.47a.87.87,0,0,1-.89.94c-1.31.07-2.27.1-2.86.1-2.87,0-5-.48-6.44-1.46s-2.15-2.77-2.19-5.4V443.83a.28.28,0,0,0-.31-.31H254a.78.78,0,0,1-.89-.88v-4.11a.78.78,0,0,1,.89-.88h2.65a.28.28,0,0,0,.31-.32v-5.87a.79.79,0,0,1,.89-.89h5.3a.78.78,0,0,1,.88.89v5.87a.29.29,0,0,0,.32.32H269a.78.78,0,0,1,.88.88v4.11A.78.78,0,0,1,269,443.52Z"/><path class="cls-2" d="M278.92,463.75a9.1,9.1,0,0,1-4-2.76,6.22,6.22,0,0,1-1.4-4v-.26a.78.78,0,0,1,.88-.88h5.25c.59,0,.89.1.89.31v.36a2.31,2.31,0,0,0,1.24,2,5.75,5.75,0,0,0,3.18.81,5.38,5.38,0,0,0,2.86-.68,2,2,0,0,0,1.09-1.77,1.49,1.49,0,0,0-.94-1.4,16,16,0,0,0-3.07-1,33.59,33.59,0,0,1-3.79-1.19,16.68,16.68,0,0,1-5.36-2.81,5.94,5.94,0,0,1-2-4.79,7.25,7.25,0,0,1,3-6.11,12.91,12.91,0,0,1,7.91-2.26,15,15,0,0,1,5.85,1.07,8.89,8.89,0,0,1,3.9,3,7.37,7.37,0,0,1,1.37,4.37.53.53,0,0,1-.23.44,1,1,0,0,1-.65.18h-5.09c-.59,0-.89-.1-.89-.31v-.31a2.28,2.28,0,0,0-1.14-1.93,5.39,5.39,0,0,0-3.07-.78,5.77,5.77,0,0,0-2.84.63,1.89,1.89,0,0,0-1.11,1.71,1.67,1.67,0,0,0,1.06,1.56,17.88,17.88,0,0,0,3.51,1.09,25.81,25.81,0,0,1,2.91.78,17,17,0,0,1,5.88,2.81,6,6,0,0,1,2.13,5,6.94,6.94,0,0,1-3.06,6,14,14,0,0,1-8.22,2.16A17,17,0,0,1,278.92,463.75Z"/><path class="cls-2" d="M326.75,438.48v4.42a.78.78,0,0,1-.88.88h-4.73a.27.27,0,0,0-.31.31v19.4a.78.78,0,0,1-.89.88h-5.56a.78.78,0,0,1-.89-.88v-19.4a.27.27,0,0,0-.31-.31h-2.75a.78.78,0,0,1-.89-.88v-4.42a.79.79,0,0,1,.89-.89h2.75a.27.27,0,0,0,.31-.31v-1.09a10.51,10.51,0,0,1,1-5,5.57,5.57,0,0,1,3.2-2.55,18.16,18.16,0,0,1,6.11-.65h1.72a.78.78,0,0,1,.88.89v3.69a.78.78,0,0,1-.88.88h-1.46a3.71,3.71,0,0,0-2.52.76,3.59,3.59,0,0,0-.7,2.57v.52a.27.27,0,0,0,.31.31h4.73A.78.78,0,0,1,326.75,438.48Z"/><path class="cls-2" d="M333.72,462.5a11.37,11.37,0,0,1-4.26-6.24,18.35,18.35,0,0,1-.73-5.3,17.44,17.44,0,0,1,.78-5.51,11.26,11.26,0,0,1,4.29-6,12.73,12.73,0,0,1,7.51-2.18,12.23,12.23,0,0,1,7.31,2.18,11.34,11.34,0,0,1,4.24,6,17.64,17.64,0,0,1,.78,5.46,20.45,20.45,0,0,1-.68,5.26,11.64,11.64,0,0,1-11.7,8.68A12.36,12.36,0,0,1,333.72,462.5Zm10.4-5a5.84,5.84,0,0,0,1.72-2.86,13.47,13.47,0,0,0,.41-3.64,14.35,14.35,0,0,0-.41-3.69,5.48,5.48,0,0,0-1.72-2.76,4.48,4.48,0,0,0-3-1,4.39,4.39,0,0,0-2.91,1,5.48,5.48,0,0,0-1.72,2.76,16.2,16.2,0,0,0,0,7.33,5.79,5.79,0,0,0,1.74,2.86,4.48,4.48,0,0,0,3,1A4.23,4.23,0,0,0,344.12,457.46Z"/><path class="cls-2" d="M374.44,437.9a.92.92,0,0,1,.47,1.1l-1,5.46c0,.31-.13.5-.29.57a1.32,1.32,0,0,1-.75,0,6.27,6.27,0,0,0-1.51-.21c-.24,0-.64,0-1.2.1A5.19,5.19,0,0,0,367,446.3a4.25,4.25,0,0,0-1.3,3.25v13.94a.78.78,0,0,1-.88.88h-5.57a.78.78,0,0,1-.88-.88v-25a.78.78,0,0,1,.88-.88h5.57a.78.78,0,0,1,.88.88v1.61c0,.14,0,.23.11.26s.15,0,.26-.1a6.47,6.47,0,0,1,5.61-3A5.58,5.58,0,0,1,374.44,437.9Z"/><path class="cls-2" d="M389.2,463.49V428.86a.79.79,0,0,1,.89-.89h5.56a1.15,1.15,0,0,1,1,.58l7.54,12.16a.29.29,0,0,0,.24.16c.08,0,.14-.05.18-.16l7.64-12.16a1.15,1.15,0,0,1,1-.58h5.57a.78.78,0,0,1,.88.89v34.63a.78.78,0,0,1-.88.88h-5.57a.78.78,0,0,1-.88-.88V441a.27.27,0,0,0-.13-.26c-.09,0-.17,0-.24.16l-5.25,8.58a1.16,1.16,0,0,1-1,.57h-2.65a1.16,1.16,0,0,1-1-.57l-5.2-8.58c-.07-.14-.15-.19-.23-.16a.25.25,0,0,0-.13.26v22.52a.78.78,0,0,1-.89.88h-5.56A.78.78,0,0,1,389.2,463.49Z"/><path class="cls-2" d="M442.4,438.4a9.9,9.9,0,0,1,4.13,3.2,7.47,7.47,0,0,1,1.49,4.52v17.37a.78.78,0,0,1-.89.88h-5.56a.78.78,0,0,1-.89-.88v-1.25c0-.14,0-.21-.1-.23s-.16,0-.26.13c-1.59,1.76-4,2.65-7.12,2.65a9.94,9.94,0,0,1-6.45-2A7,7,0,0,1,424.3,457a7.45,7.45,0,0,1,2.81-6.21c1.87-1.48,4.54-2.21,8-2.21h5.25a.28.28,0,0,0,.31-.32v-1.09a3.43,3.43,0,0,0-1.06-2.68,4.48,4.48,0,0,0-3.1-1A5.7,5.7,0,0,0,434,444a2.72,2.72,0,0,0-1.38,1.46,1,1,0,0,1-1,.67l-5.77-.72a1.38,1.38,0,0,1-.65-.24.46.46,0,0,1-.18-.49,6.93,6.93,0,0,1,1.79-3.85,10.23,10.23,0,0,1,4.06-2.68,15.58,15.58,0,0,1,5.59-1A14.81,14.81,0,0,1,442.4,438.4Zm-3.28,19.73a3.69,3.69,0,0,0,1.56-3.06v-1.82a.28.28,0,0,0-.31-.32h-3.69a6.67,6.67,0,0,0-3.69.89,2.81,2.81,0,0,0-1.35,2.49,2.64,2.64,0,0,0,1,2.21,4.18,4.18,0,0,0,2.68.81A6,6,0,0,0,439.12,458.13Z"/><path class="cls-2" d="M469.18,437.9a.91.91,0,0,1,.47,1.1l-1,5.46c0,.31-.13.5-.29.57a1.31,1.31,0,0,1-.75,0,6.21,6.21,0,0,0-1.51-.21c-.24,0-.64,0-1.19.1a5.2,5.2,0,0,0-3.18,1.38,4.28,4.28,0,0,0-1.3,3.25v13.94a.78.78,0,0,1-.88.88H454a.78.78,0,0,1-.89-.88v-25a.78.78,0,0,1,.89-.88h5.56a.78.78,0,0,1,.88.88v1.61c0,.14,0,.23.11.26s.15,0,.26-.1a6.49,6.49,0,0,1,5.61-3A5.58,5.58,0,0,1,469.18,437.9Z"/><path class="cls-2" d="M473,463.49V428.86a.78.78,0,0,1,.88-.89h5.57a.78.78,0,0,1,.88.89V446c0,.14,0,.21.13.23s.16,0,.23-.13l6.92-7.95a1.53,1.53,0,0,1,1.09-.52H495a1.06,1.06,0,0,1,.58.13.43.43,0,0,1,.21.39,1,1,0,0,1-.21.57l-6.4,8a.35.35,0,0,0-.05.41l7.64,16.17.11.42c0,.42-.26.62-.78.62h-5.88a1.06,1.06,0,0,1-1-.67l-5-11.91c-.11-.21-.25-.23-.42-.05l-3.22,4.11a.59.59,0,0,0-.16.36v7.28a.78.78,0,0,1-.88.88h-5.57A.78.78,0,0,1,473,463.49Z"/><path class="cls-2" d="M516.5,456.21a.89.89,0,0,1,.68-.36.76.76,0,0,1,.57.26l3,2.86a.88.88,0,0,1,.32.62,1,1,0,0,1-.21.62,12,12,0,0,1-4.4,3.36,14,14,0,0,1-5.85,1.22,12.54,12.54,0,0,1-7.93-2.44,12,12,0,0,1-4.23-6.71,18.19,18.19,0,0,1-.63-4.84,19.47,19.47,0,0,1,.57-5.09,11.12,11.12,0,0,1,4.19-6.19,12.15,12.15,0,0,1,7.46-2.34,10.89,10.89,0,0,1,8.09,3,15.14,15.14,0,0,1,3.87,8.48c.14,1.14.24,2.41.31,3.8a.78.78,0,0,1-.88.88h-16a.28.28,0,0,0-.32.31,7.6,7.6,0,0,0,.37,1.61,4.2,4.2,0,0,0,2,2.47,7.42,7.42,0,0,0,3.72.86A6.78,6.78,0,0,0,516.5,456.21Zm-9.38-11.88a4,4,0,0,0-1.54,2.26c-.17.66-.28,1.09-.31,1.3s.05.31.26.31h8.84c.17,0,.26-.07.26-.21a3.69,3.69,0,0,0-.21-1.19,4.41,4.41,0,0,0-4.52-3.28A4.6,4.6,0,0,0,507.12,444.33Z"/><path class="cls-2" d="M540.63,443.52H536a.28.28,0,0,0-.31.31V454.6a3.77,3.77,0,0,0,.7,2.52,2.84,2.84,0,0,0,2.26.8h1.46a.78.78,0,0,1,.88.89v4.47a.87.87,0,0,1-.88.94c-1.32.07-2.27.1-2.86.1-2.88,0-5-.48-6.45-1.46s-2.15-2.77-2.19-5.4V443.83a.28.28,0,0,0-.31-.31H525.6a.78.78,0,0,1-.88-.88v-4.11a.78.78,0,0,1,.88-.88h2.65a.28.28,0,0,0,.31-.32v-5.87a.79.79,0,0,1,.89-.89h5.3a.79.79,0,0,1,.89.89v5.87a.28.28,0,0,0,.31.32h4.68a.78.78,0,0,1,.88.88v4.11A.78.78,0,0,1,540.63,443.52Z"/><path class="cls-2" d="M563.72,456.21a.89.89,0,0,1,.67-.36.79.79,0,0,1,.58.26l3,2.86a.86.86,0,0,1,.31.62,1,1,0,0,1-.21.62,11.93,11.93,0,0,1-4.39,3.36,14,14,0,0,1-5.85,1.22,12.54,12.54,0,0,1-7.93-2.44,12,12,0,0,1-4.24-6.71,18.61,18.61,0,0,1-.62-4.84,19.47,19.47,0,0,1,.57-5.09,11.07,11.07,0,0,1,4.19-6.19,12.13,12.13,0,0,1,7.46-2.34,10.86,10.86,0,0,1,8.08,3,15.08,15.08,0,0,1,3.88,8.48c.14,1.14.24,2.41.31,3.8a.78.78,0,0,1-.88.88h-16a.27.27,0,0,0-.31.31,7.73,7.73,0,0,0,.36,1.61,4.22,4.22,0,0,0,2.06,2.47,7.42,7.42,0,0,0,3.72.86A6.81,6.81,0,0,0,563.72,456.21Zm-9.39-11.88a4,4,0,0,0-1.53,2.26,13.34,13.34,0,0,0-.31,1.3c0,.21,0,.31.26.31h8.84c.17,0,.26-.07.26-.21a3.69,3.69,0,0,0-.21-1.19,4.41,4.41,0,0,0-4.53-3.28A4.62,4.62,0,0,0,554.33,444.33Z"/><path class="cls-2" d="M590.08,437.9a.91.91,0,0,1,.47,1.1l-1,5.46c0,.31-.13.5-.29.57a1.31,1.31,0,0,1-.75,0,6.21,6.21,0,0,0-1.51-.21c-.24,0-.64,0-1.19.1a5.2,5.2,0,0,0-3.18,1.38,4.28,4.28,0,0,0-1.29,3.25v13.94a.78.78,0,0,1-.89.88H574.9a.78.78,0,0,1-.89-.88v-25a.78.78,0,0,1,.89-.88h5.56a.78.78,0,0,1,.89.88v1.61c0,.14,0,.23.1.26s.15,0,.26-.1a6.5,6.5,0,0,1,5.61-3A5.58,5.58,0,0,1,590.08,437.9Z"/><path class="cls-2" d="M598.09,463.75a9,9,0,0,1-4-2.76,6.22,6.22,0,0,1-1.41-4v-.26a.78.78,0,0,1,.88-.88h5.26c.59,0,.88.1.88.31v.36a2.33,2.33,0,0,0,1.25,2,5.72,5.72,0,0,0,3.17.81,5.38,5.38,0,0,0,2.86-.68,2,2,0,0,0,1.09-1.77,1.5,1.5,0,0,0-.93-1.4,16.47,16.47,0,0,0-3.07-1,33.22,33.22,0,0,1-3.8-1.19,16.52,16.52,0,0,1-5.35-2.81,5.91,5.91,0,0,1-2-4.79,7.25,7.25,0,0,1,3-6.11,12.87,12.87,0,0,1,7.9-2.26,14.93,14.93,0,0,1,5.85,1.07,8.89,8.89,0,0,1,3.9,3,7.31,7.31,0,0,1,1.38,4.37.55.55,0,0,1-.23.44,1.08,1.08,0,0,1-.66.18H609c-.59,0-.88-.1-.88-.31v-.31a2.29,2.29,0,0,0-1.15-1.93,5.37,5.37,0,0,0-3.07-.78,5.7,5.7,0,0,0-2.83.63,1.88,1.88,0,0,0-1.12,1.71A1.68,1.68,0,0,0,601,446.9a17.88,17.88,0,0,0,3.51,1.09,27,27,0,0,1,2.91.78,17,17,0,0,1,5.87,2.81,6,6,0,0,1,2.14,5,7,7,0,0,1-3.07,6,14,14,0,0,1-8.22,2.16A17,17,0,0,1,598.09,463.75Z"/></svg>