<svg xmlns="http://www.w3.org/2000/svg" xmlns:xlink="http://www.w3.org/1999/xlink"><defs>
<clipPath id="clip0">
<rect width="20" height="20" fill="white"/>
</clipPath>

<clipPath id="clip0">
<rect width="20" height="20" fill="white"/>
</clipPath>

<clipPath id="clip0">
<rect width="20" height="20" fill="white"/>
</clipPath>

<clipPath id="clip0">
<rect width="30" height="30" fill="white" transform="translate(15 15)"/>
</clipPath>

<clipPath id="clip0">
<rect width="30" height="30" fill="white" transform="translate(15 15)"/>
</clipPath>

<clipPath id="clip0">
<rect width="20" height="20" fill="white"/>
</clipPath>

<clipPath id="clip0">
<rect width="30" height="30" fill="white" transform="translate(15 15)"/>
</clipPath>

<linearGradient id="paint0_linear" x1="1.28835" y1="18.7226" x2="19.8762" y2="2.63498" gradientUnits="userSpaceOnUse">
<stop stop-color="#FFDD55"/>
<stop offset="0.5" stop-color="#FF543E"/>
<stop offset="1" stop-color="#C837AB"/>
</linearGradient>
<clipPath id="clip0">
<rect width="20" height="20" fill="white"/>
</clipPath>

<clipPath id="clip0">
<rect width="20" height="20" fill="white"/>
</clipPath>

<clipPath id="clip0">
<rect width="30" height="30" fill="white" transform="translate(15 15)"/>
</clipPath>

<clipPath id="clip0">
<rect width="30" height="30" fill="white" transform="translate(15 15)"/>
</clipPath>

<clipPath id="clip0">
<rect width="30" height="30" fill="white" transform="translate(15 15)"/>
</clipPath>
</defs><symbol id="arrow-btn" viewBox="0 0 12 12">
<path d="M8.08066 1.9079C7.91718 1.73871 7.64509 1.73871 7.4759 1.9079C7.31242 2.07138 7.31242 2.34347 7.4759 2.50657L10.5424 5.57307H0.423372C0.187488 5.57345 0 5.76094 0 5.99682C0 6.23271 0.187488 6.42629 0.423372 6.42629H10.5424L7.4759 9.48707C7.31242 9.65627 7.31242 9.92874 7.4759 10.0918C7.64509 10.261 7.91756 10.261 8.08066 10.0918L11.8731 6.29939C12.0423 6.13591 12.0423 5.86383 11.8731 5.70073L8.08066 1.9079Z" fill="white"/>
</symbol><symbol id="check" viewBox="0 0 20 20">
<g clip-path="url(#clip0)">
<path d="M19.1271 1.30183C18.2246 0.815865 17.218 1.75308 16.6279 2.30846C15.2742 3.6275 14.1287 5.15481 12.8443 6.54328C11.4211 8.07059 10.1021 9.5979 8.64421 11.0906C7.81113 11.9236 6.90863 12.8261 6.35324 13.8675C5.10363 12.6525 4.02757 11.3335 2.6391 10.2575C1.63247 9.49382 -0.0336895 8.93843 0.00102212 10.7781C0.0704453 13.1733 2.18785 15.742 3.74987 17.3733C4.40939 18.0676 5.27718 18.7965 6.28382 18.8312C7.49872 18.9007 8.74834 17.4428 9.47728 16.6444C10.7617 15.2559 11.803 13.6939 12.9832 12.2707C14.5105 10.3963 16.0725 8.55655 17.5651 6.64741C18.5023 5.46722 21.4528 2.55139 19.1271 1.30183ZM1.52828 10.6393C1.49356 10.6393 1.45885 10.6393 1.38943 10.674C1.25058 10.6393 1.14645 10.6045 1.0076 10.5351C1.11174 10.4657 1.28529 10.5004 1.52828 10.6393Z" fill="#12B366"/>
</g>

</symbol><symbol id="cross" viewBox="0 0 20 20">
<g clip-path="url(#clip0)">
<path d="M11.7688 10.0008L19.6335 2.13602C20.1222 1.6478 20.1222 0.85566 19.6335 0.367448C19.1449 -0.121181 18.3536 -0.121181 17.865 0.367448L10.0002 8.2322L2.13504 0.367448C1.64641 -0.121181 0.8551 -0.121181 0.366471 0.367448C-0.122157 0.85566 -0.122157 1.6478 0.366471 2.13602L8.23164 10.0008L0.366471 17.8655C-0.122157 18.3537 -0.122157 19.1459 0.366471 19.6341C0.610786 19.878 0.930979 20.0001 1.25076 20.0001C1.57053 20.0001 1.89073 19.878 2.13504 19.6337L10.0002 11.7689L17.865 19.6337C18.1093 19.878 18.4295 20.0001 18.7492 20.0001C19.069 20.0001 19.3892 19.878 19.6335 19.6337C20.1222 19.1455 20.1222 18.3533 19.6335 17.8651L11.7688 10.0008Z" fill="#FF2D5A"/>
</g>

</symbol><symbol id="ellipse-tab-1" viewBox="0 0 70 70">
<path d="M70 35C70 43.277 66.2284 53.158 61.425 59.15C55.0107 67.1515 46.0529 70 35 70C24.6906 70 17.2553 66.2427 10.85 59.15C5.24553 52.9441 0 44.0205 0 35C0 25.034 2.33229 15.2993 9.01698 8.925C15.2979 2.93572 25.636 0 35 0C49.4199 0 62.5394 4.52028 67.9 16.975C69.7253 21.216 70 30.0899 70 35Z" fill="#3E89F4" fill-opacity="0.1"/>
</symbol><symbol id="ellipse-tab-2" viewBox="0 0 70 70">
<path d="M70 35C70 43.277 66.2284 53.158 61.425 59.15C55.0107 67.1515 46.0529 70 35 70C24.6906 70 17.2553 66.2427 10.85 59.15C5.24553 52.9441 0 44.0205 0 35C0 25.034 2.33229 15.2993 9.01698 8.925C15.2979 2.93572 25.636 0 35 0C49.4199 0 62.5394 4.52028 67.9 16.975C69.7253 21.216 70 30.0899 70 35Z" fill="#FFEEE3"/>
</symbol><symbol id="ellipse-tab-3" viewBox="0 0 70 70">
<path d="M70 35C70 43.277 66.2284 53.158 61.425 59.15C55.0107 67.1515 46.0529 70 35 70C24.6906 70 17.2553 66.2427 10.85 59.15C5.24553 52.9441 0 44.0205 0 35C0 25.034 2.33229 15.2993 9.01698 8.925C15.2979 2.93572 25.636 0 35 0C49.4199 0 62.5394 4.52028 67.9 16.975C69.7253 21.216 70 30.0899 70 35Z" fill="#E7F7F0"/>
</symbol><symbol id="facebook" viewBox="0 0 20 20">
<g clip-path="url(#clip0)">
<path d="M18.896 3.53445e-08H1.10306C0.493774 0.000305211 -0.000152553 0.494537 3.53445e-08 1.10397V18.8969C0.000305211 19.5062 0.494537 20.0002 1.10397 20H18.896C19.5056 20.0002 19.9998 19.5061 20 18.8965C20 18.8963 20 18.8962 20 18.896V1.10306C19.9997 0.493774 19.5055 -0.000152553 18.896 3.53445e-08Z" fill="#4267B2"/>
<path d="M13.8086 20V12.2657H16.416L16.8066 9.23831H13.8086V7.31021C13.8086 6.43573 14.0514 5.83987 15.3053 5.83987H16.8945V3.13953C16.618 3.10275 15.6694 3.02051 14.5656 3.02051C12.2609 3.02051 10.6836 4.42676 10.6836 7.01038V9.23831H8.08594V12.2657H10.6836V20H13.8086Z" fill="white"/>
</g>

</symbol><symbol id="fb" viewBox="0 0 30 30">
<path d="M15.0001 0C6.71586 0 0 6.74393 0 15.0628C0 22.5239 5.40783 28.7029 12.4984 29.8994V18.2053H8.87992V13.9971H12.4984V10.8941C12.4984 7.29377 14.6882 5.33179 17.8871 5.33179C19.4191 5.33179 20.7357 5.44643 21.1179 5.49692V9.26024L18.8993 9.26132C17.16 9.26132 16.8247 10.0911 16.8247 11.3092V13.9949H20.9748L20.4335 18.2032H16.8247V30C24.2463 29.093 30 22.7565 30 15.0585C30 6.74393 23.2841 0 15.0001 0Z" fill="#3E89F4"/>
</symbol><symbol id="feature-1" viewBox="0 0 60 60">
<rect width="60" height="60" rx="16" fill="#FFAF0D"/>
<g clip-path="url(#clip0)">
<path d="M41.3789 38.8742C41.2907 38.817 40.627 38.352 39.9625 36.9455C38.742 34.3625 38.4859 30.724 38.4859 28.1265C38.4859 28.1152 38.4856 28.104 38.4852 28.0927C38.4719 24.6598 36.4163 21.7004 33.4746 20.3726V18.342C33.4746 16.4992 31.9779 15 30.1382 15H29.8617C28.0219 15 26.5252 16.4992 26.5252 18.342V20.3725C23.5737 21.7046 21.514 24.679 21.514 28.1265C21.514 30.724 21.2578 34.3625 20.0374 36.9455C19.3729 38.352 18.7092 38.8169 18.6209 38.8742C18.2493 39.0462 18.0661 39.4434 18.1516 39.846C18.2379 40.2526 18.6179 40.5329 19.033 40.5329H25.4752C25.5111 43.0021 27.5264 45 30 45C32.4735 45 34.4888 43.0021 34.5247 40.5329H40.9669C41.3819 40.5329 41.762 40.2526 41.8483 39.846C41.9337 39.4434 41.7505 39.0461 41.3789 38.8742ZM28.2831 18.342C28.2831 17.47 28.9913 16.7607 29.8617 16.7607H30.1382C31.0087 16.7607 31.7169 17.47 31.7169 18.342V19.8019C31.1621 19.6873 30.5878 19.6269 29.9997 19.6269C29.4118 19.6269 28.8377 19.6872 28.2832 19.8018V18.342H28.2831ZM30 43.2393C28.4957 43.2393 27.2687 42.0313 27.233 40.533H32.7669C32.7312 42.0312 31.5042 43.2393 30 43.2393ZM33.539 38.7722C33.5388 38.7722 21.036 38.7722 21.036 38.7722C21.188 38.5352 21.3428 38.2669 21.4966 37.9637C22.6746 35.6409 23.2719 32.3312 23.2719 28.1265C23.2719 24.4106 26.29 21.3876 29.9997 21.3876C33.7093 21.3876 36.7275 24.4106 36.7275 28.1294C36.7275 28.1402 36.7276 28.151 36.728 28.1618C36.7314 32.3496 37.3286 35.6474 38.5033 37.9637C38.6571 38.267 38.8119 38.5352 38.9639 38.7722H33.539Z" fill="white"/>
</g>

</symbol><symbol id="feature-2" viewBox="0 0 60 60">
<rect width="60" height="60" rx="16" fill="#12B366"/>
<path d="M30 44C37.7467 44 44 37.7467 44 30C44 22.2533 37.7467 16 30 16C22.2533 16 16 22.2533 16 30C16 37.7467 22.2533 44 30 44Z" stroke="white" stroke-width="1.5" stroke-linecap="square"/>
<path d="M30 22V30.925L35 36" stroke="white" stroke-width="1.5" stroke-linecap="round" stroke-linejoin="round"/>
</symbol><symbol id="feature-3" viewBox="0 0 60 60">
<rect width="60" height="60" rx="16" fill="#3E89F4"/>
<g clip-path="url(#clip0)">
<path d="M34.4999 35.025C32.8454 35.025 31.4999 33.6795 31.4999 32.025C31.4999 30.3705 32.8454 29.025 34.4999 29.025C36.1544 29.025 37.4999 30.3705 37.4999 32.025C37.4999 33.6795 36.1544 35.025 34.4999 35.025ZM34.4999 30.525C33.6719 30.525 32.9999 31.197 32.9999 32.025C32.9999 32.853 33.6719 33.525 34.4999 33.525C35.3279 33.525 35.9999 32.853 35.9999 32.025C35.9999 31.197 35.3279 30.525 34.4999 30.525Z" fill="white"/>
<path d="M25.5 35.025C23.8455 35.025 22.5 33.6795 22.5 32.025C22.5 30.3705 23.8455 29.025 25.5 29.025C27.1545 29.025 28.5 30.3705 28.5 32.025C28.5 33.6795 27.1545 35.025 25.5 35.025ZM25.5 30.525C24.672 30.525 24 31.197 24 32.025C24 32.853 24.672 33.525 25.5 33.525C26.328 33.525 27 32.853 27 32.025C27 31.197 26.328 30.525 25.5 30.525Z" fill="white"/>
<path d="M38.25 44.025H21.75C19.6815 44.025 18 42.3435 18 40.275V28.275C18 26.2065 19.6815 24.525 21.75 24.525H38.25C40.3185 24.525 42 26.2065 42 28.275V40.275C42 42.3435 40.3185 44.025 38.25 44.025ZM21.75 26.025C20.5095 26.025 19.5 27.0345 19.5 28.275V40.275C19.5 41.5155 20.5095 42.525 21.75 42.525H38.25C39.4905 42.525 40.5 41.5155 40.5 40.275V28.275C40.5 27.0345 39.4905 26.025 38.25 26.025H21.75Z" fill="white"/>
<path d="M30 26.025C29.586 26.025 29.25 25.689 29.25 25.275V20.775C29.25 20.361 29.586 20.025 30 20.025C30.414 20.025 30.75 20.361 30.75 20.775V25.275C30.75 25.689 30.414 26.025 30 26.025Z" fill="white"/>
<path d="M33.75 39.525H26.25C25.836 39.525 25.5 39.189 25.5 38.775C25.5 38.361 25.836 38.025 26.25 38.025H33.75C34.164 38.025 34.5 38.361 34.5 38.775C34.5 39.189 34.164 39.525 33.75 39.525Z" fill="white"/>
<path d="M30 21.525C28.3455 21.525 27 20.1795 27 18.525C27 16.8705 28.3455 15.525 30 15.525C31.6545 15.525 33 16.8705 33 18.525C33 20.1795 31.6545 21.525 30 21.525ZM30 17.025C29.172 17.025 28.5 17.697 28.5 18.525C28.5 19.353 29.172 20.025 30 20.025C30.828 20.025 31.5 19.353 31.5 18.525C31.5 17.697 30.828 17.025 30 17.025Z" fill="white"/>
<path d="M18.75 35.025H15.75C15.336 35.025 15 34.689 15 34.275C15 33.861 15.336 33.525 15.75 33.525H18.75C19.164 33.525 19.5 33.861 19.5 34.275C19.5 34.689 19.164 35.025 18.75 35.025Z" fill="white"/>
<path d="M44.25 35.025H41.25C40.836 35.025 40.5 34.689 40.5 34.275C40.5 33.861 40.836 33.525 41.25 33.525H44.25C44.664 33.525 45 33.861 45 34.275C45 34.689 44.664 35.025 44.25 35.025Z" fill="white"/>
<path d="M15.75 38.025C15.336 38.025 15 37.689 15 37.275V31.275C15 30.861 15.336 30.525 15.75 30.525C16.164 30.525 16.5 30.861 16.5 31.275V37.275C16.5 37.689 16.164 38.025 15.75 38.025Z" fill="white"/>
<path d="M44.25 38.025C43.836 38.025 43.5 37.689 43.5 37.275V31.275C43.5 30.861 43.836 30.525 44.25 30.525C44.664 30.525 45 30.861 45 31.275V37.275C45 37.689 44.664 38.025 44.25 38.025Z" fill="white"/>
</g>

</symbol><symbol id="feature-4" viewBox="0 0 60 60">
<rect width="60" height="60" rx="16" fill="#FF6A00"/>
<path d="M30.7383 15.9469C30.1279 15.3362 29.316 15 28.4527 15C27.5894 15 26.7775 15.3362 26.167 15.9467C25.5564 16.5573 25.2201 17.369 25.2201 18.2323C25.2201 18.8895 25.4154 19.5161 25.7775 20.0474L19.4838 35.4584C19.0924 35.2939 18.6683 35.2073 18.2309 35.2073C17.3678 35.2073 16.5559 35.5433 15.9453 36.1538C14.685 37.4143 14.6848 39.4649 15.9453 40.7253L19.2737 44.0538C19.8842 44.6642 20.696 45.0004 21.5594 45.0004C22.423 45.0004 23.2346 44.6642 23.845 44.0538C24.4554 43.4433 24.7917 42.6315 24.7919 41.7681C24.7919 41.3307 24.7052 40.9066 24.5406 40.5152L27.7416 39.2081L28.9926 40.4591C29.7946 41.2611 31.043 41.712 32.2407 41.712C32.7827 41.712 33.3144 41.6198 33.7896 41.4257L36.8576 40.1726C37.7058 39.826 38.2815 39.1856 38.4366 38.4152C38.5919 37.645 38.3094 36.8313 37.6612 36.1833L36.9322 35.4543L39.9512 34.2213C40.4826 34.5834 41.1094 34.7786 41.7665 34.7786C41.7667 34.7786 41.7667 34.7786 41.7667 34.7786C42.6298 34.7786 43.4417 34.4424 44.0521 33.832C45.3124 32.5715 45.3124 30.5207 44.0521 29.2604L30.7383 15.9469ZM35.0491 34.3246C35.0462 34.3257 35.0432 34.327 35.0402 34.3282L27.6234 37.3575C27.6205 37.3586 27.6175 37.3598 27.6147 37.3609L23.4319 39.0693L20.9297 36.5671L27.1021 21.4532L38.5454 32.8967L35.0491 34.3246ZM22.6019 42.8109C22.3236 43.0893 21.9533 43.2426 21.5594 43.2426C21.1655 43.2426 20.7951 43.0892 20.5165 42.8107L17.1881 39.4825C16.6132 38.9075 16.6132 37.9718 17.1881 37.3969C17.4667 37.1183 17.837 36.9649 18.2309 36.9649C18.6248 36.9649 18.9951 37.1185 19.2737 37.3971L22.6019 40.7253C22.8805 41.0038 23.034 41.3742 23.034 41.7679C23.0338 42.162 22.8805 42.5321 22.6019 42.8109ZM36.4183 37.4264C36.6429 37.6509 36.7505 37.8848 36.7134 38.0679C36.6765 38.2513 36.4868 38.4253 36.1929 38.5452L33.1249 39.7983C32.2522 40.1547 30.9022 39.8825 30.2357 39.2163L29.5065 38.4873L35.167 36.1753L36.4183 37.4264ZM42.8091 32.5889C42.5305 32.8675 42.1604 33.0208 41.7667 33.0208C41.7667 33.0208 41.7667 33.0208 41.7665 33.0208C41.3726 33.0208 41.002 32.8672 40.7234 32.5889L27.4099 19.2751V19.2749C27.1313 18.9966 26.978 18.6265 26.978 18.2325C26.978 17.8386 27.1313 17.4683 27.4099 17.1897C27.6885 16.9112 28.0588 16.7578 28.4527 16.7578C28.8466 16.7578 29.2169 16.9112 29.4955 17.1897L42.8091 30.5033C43.384 31.0785 43.384 32.0139 42.8091 32.5889Z" fill="white"/>
<path d="M40.1035 20.7757C40.3282 20.7757 40.5532 20.6899 40.7249 20.5182L44.7425 16.5006C45.0858 16.1573 45.0858 15.6008 44.7425 15.2575C44.3992 14.9142 43.8428 14.9142 43.4997 15.2575L39.4818 19.2751C39.1387 19.6185 39.1387 20.1749 39.4818 20.5182C39.6535 20.6899 39.8785 20.7757 40.1035 20.7757Z" fill="white"/>
<path d="M36.1086 18.1128C36.3336 18.1128 36.5586 18.027 36.7302 17.8553L38.0853 16.5003C38.4286 16.1573 38.4286 15.6008 38.0853 15.2575C37.7421 14.9142 37.1855 14.9142 36.8422 15.2575L35.4872 16.6125C35.1441 16.9556 35.1441 17.512 35.4872 17.8553C35.6589 18.027 35.8839 18.1128 36.1086 18.1128Z" fill="white"/>
<path d="M43.497 21.914L42.142 23.2693C41.7987 23.6126 41.7987 24.169 42.142 24.5124C42.3137 24.684 42.5385 24.7696 42.7635 24.7696C42.9884 24.7696 43.2134 24.6838 43.3848 24.5124L44.7399 23.1571C45.0832 22.8138 45.0832 22.2574 44.7399 21.914C44.3965 21.571 43.8401 21.571 43.497 21.914Z" fill="white"/>
</symbol><symbol id="google" viewBox="0 0 20 20">
<g clip-path="url(#clip0)">
<path d="M17.0703 18.7889H2.92969C1.96043 18.7889 1.17188 18.0003 1.17188 17.0311V8.51441C1.17188 8.32473 1.26371 8.14676 1.41832 8.03684L9.66051 2.17746C9.86379 2.03297 10.1362 2.03297 10.3395 2.17746L18.5817 8.03684C18.7363 8.14676 18.8282 8.32473 18.8282 8.51441V17.0311C18.8281 18.0003 18.0396 18.7889 17.0703 18.7889Z" fill="#4175DF"/>
<path d="M17.0703 18.7889C18.0396 18.7889 18.8281 18.0003 18.8281 17.0311V8.5144C18.8281 8.32472 18.7363 8.14675 18.5817 8.03683L10.3395 2.17745C10.2379 2.10519 10.1189 2.06909 10 2.06909V18.7889H17.0703Z" fill="#4254B6"/>
<path d="M4.97926 6.92676C4.97926 8.30039 3.86473 9.41375 2.48965 9.41375C1.11457 9.41375 0 8.30039 0 6.92676H4.97926Z" fill="#4086F4"/>
<path d="M9.99999 6.92676C9.99999 8.30039 8.84398 9.41375 7.46886 9.41375C6.09374 9.41375 4.97925 8.30043 4.97925 6.92676H9.99999Z" fill="#324492"/>
<path d="M20 6.92684H15.0208L13.7345 1.21094H16.7411C17.2125 1.21094 17.6436 1.47703 17.8544 1.89816L20 6.92684Z" fill="#4254B6"/>
<path d="M15.0207 6.92684H10V1.21094H13.7345L15.0207 6.92684Z" fill="#4086F4"/>
<path d="M9.99999 1.21094V6.92684H4.97925L6.22405 1.21094H9.99999Z" fill="#4254B6"/>
<path d="M6.22406 1.21094L4.97926 6.92684H0L2.14563 1.8982C2.35641 1.47707 2.78754 1.21098 3.25891 1.21098H6.22406V1.21094Z" fill="#80AEF8"/>
<path d="M15.0207 6.92676C15.0207 8.30039 13.9062 9.41375 12.5311 9.41375C11.1561 9.41375 10 8.30039 10 6.92676H15.0207Z" fill="#4175DF"/>
<path d="M20 6.92676C20 8.30039 18.8854 9.41375 17.5104 9.41375C16.1353 9.41375 15.0208 8.30043 15.0208 6.92676H20Z" fill="#324492"/>
<path d="M15.8594 12.9294H14.1016C13.778 12.9294 13.5156 13.1917 13.5156 13.5153C13.5156 13.8389 13.778 14.1013 14.1016 14.1013H15.1727C14.9308 14.7832 14.2795 15.2732 13.5156 15.2732C12.5464 15.2732 11.7578 14.4846 11.7578 13.5153C11.7578 12.5461 12.5464 11.7575 13.5156 11.7575C13.9852 11.7575 14.4266 11.9404 14.7586 12.2724C14.9874 12.5012 15.3584 12.5012 15.5872 12.2724C15.8161 12.0436 15.816 11.6726 15.5872 11.4438C15.0339 10.8904 14.2982 10.5857 13.5156 10.5857C11.9002 10.5857 10.5859 11.9 10.5859 13.5154C10.5859 15.1308 11.9002 16.4451 13.5156 16.4451C15.1311 16.4451 16.4453 15.1308 16.4453 13.5154C16.4453 13.1917 16.183 12.9294 15.8594 12.9294Z" fill="#E3E7EA"/>
</g>

</symbol><symbol id="icon-1" viewBox="0 0 60 60">
<rect width="60" height="60" rx="16" fill="#3E89F4"/>
<path fill-rule="evenodd" clip-rule="evenodd" d="M21.8182 27.2727C24.8306 27.2727 27.2727 24.8306 27.2727 21.8182C27.2727 18.8057 24.8306 16.3636 21.8182 16.3636C18.8057 16.3636 16.3636 18.8057 16.3636 21.8182C16.3636 24.8306 18.8057 27.2727 21.8182 27.2727ZM21.8182 28.6364C25.5838 28.6364 28.6364 25.5838 28.6364 21.8182C28.6364 18.0526 25.5838 15 21.8182 15C18.0526 15 15 18.0526 15 21.8182C15 25.5838 18.0526 28.6364 21.8182 28.6364Z" fill="white"/>
<path d="M23.072 21.8103H22.2631V25.9091H21.0375V21.8103H20.4546V20.3698H21.0375V19.4377C21.0375 18.7711 21.2664 17.7273 22.274 17.7273L23.1819 17.7325V19.1308H22.5232C22.4151 19.1308 22.2632 19.2055 22.2632 19.5234V20.3712H23.1791L23.072 21.8103Z" fill="white"/>
<path fill-rule="evenodd" clip-rule="evenodd" d="M40.9091 16.3636H35.4546C33.9483 16.3636 32.7273 17.5847 32.7273 19.0909V24.5455C32.7273 26.0517 33.9483 27.2727 35.4546 27.2727H40.9091C42.4153 27.2727 43.6364 26.0517 43.6364 24.5455V19.0909C43.6364 17.5847 42.4153 16.3636 40.9091 16.3636ZM35.4546 15C33.1952 15 31.3636 16.8316 31.3636 19.0909V24.5455C31.3636 26.8048 33.1952 28.6364 35.4546 28.6364H40.9091C43.1684 28.6364 45 26.8048 45 24.5455V19.0909C45 16.8316 43.1684 15 40.9091 15H35.4546Z" fill="white"/>
<path fill-rule="evenodd" clip-rule="evenodd" d="M21.8182 39.5455C22.5713 39.5455 23.1819 38.935 23.1819 38.1819C23.1819 37.4287 22.5713 36.8182 21.8182 36.8182C21.0651 36.8182 20.4546 37.4287 20.4546 38.1819C20.4546 38.935 21.0651 39.5455 21.8182 39.5455ZM21.8182 40.9091C23.3245 40.9091 24.5455 39.6881 24.5455 38.1819C24.5455 36.6756 23.3245 35.4546 21.8182 35.4546C20.312 35.4546 19.0909 36.6756 19.0909 38.1819C19.0909 39.6881 20.312 40.9091 21.8182 40.9091Z" fill="white"/>
<path fill-rule="evenodd" clip-rule="evenodd" d="M24.5455 32.7272H19.0909C17.5847 32.7272 16.3636 33.9482 16.3636 35.4544V40.909C16.3636 42.4152 17.5847 43.6363 19.0909 43.6363H24.5455C26.0517 43.6363 27.2727 42.4152 27.2727 40.909V35.4544C27.2727 33.9482 26.0517 32.7272 24.5455 32.7272ZM19.0909 31.3635C16.8316 31.3635 15 33.1951 15 35.4544V40.909C15 43.1683 16.8316 44.9999 19.0909 44.9999H24.5455C26.8048 44.9999 28.6364 43.1683 28.6364 40.909V35.4544C28.6364 33.1951 26.8048 31.3635 24.5455 31.3635H19.0909Z" fill="white"/>
<path d="M24.5454 34.0908H25.909V35.4545H24.5454V34.0908Z" fill="white"/>
<path d="M36.9123 20.4637V24.843H35.6811V20.4637H36.9123ZM37.0394 19.2644C37.0394 19.3686 37.0195 19.4671 36.9798 19.56C36.9401 19.6501 36.8858 19.7304 36.817 19.8007C36.7481 19.8683 36.6674 19.9232 36.5747 19.9654C36.4846 20.0048 36.388 20.0246 36.2847 20.0246C36.1841 20.0246 36.0901 20.0048 36.0028 19.9654C35.9154 19.9232 35.8373 19.8683 35.7684 19.8007C35.7022 19.7304 35.6493 19.6501 35.6096 19.56C35.5725 19.4671 35.554 19.3686 35.554 19.2644C35.554 19.1575 35.5725 19.0575 35.6096 18.9646C35.6493 18.8717 35.7022 18.79 35.7684 18.7197C35.8373 18.6493 35.9154 18.5944 36.0028 18.555C36.0901 18.5156 36.1841 18.4958 36.2847 18.4958C36.388 18.4958 36.4846 18.5156 36.5747 18.555C36.6674 18.5944 36.7481 18.6493 36.817 18.7197C36.8858 18.79 36.9401 18.8717 36.9798 18.9646C37.0195 19.0575 37.0394 19.1575 37.0394 19.2644Z" fill="white"/>
<path d="M38.9086 20.9368C38.9881 20.858 39.0701 20.7848 39.1549 20.7172C39.2396 20.6496 39.3296 20.5933 39.4249 20.5483C39.5229 20.5004 39.6275 20.4638 39.7387 20.4385C39.8526 20.4103 39.9757 20.3962 40.1081 20.3962C40.3331 20.3962 40.5317 20.4385 40.7038 20.5229C40.8786 20.6046 41.0255 20.72 41.1447 20.8692C41.2639 21.0156 41.3539 21.1916 41.4148 21.3971C41.4756 21.5998 41.5061 21.8208 41.5061 22.0601V24.843H40.2749V22.0601C40.2749 21.8461 40.2286 21.68 40.1359 21.5618C40.0432 21.4407 39.9068 21.3802 39.7268 21.3802C39.5917 21.3802 39.4646 21.4112 39.3455 21.4731C39.229 21.5322 39.1152 21.6139 39.0039 21.718V24.843H37.7727V20.4638H38.5353C38.6889 20.4638 38.7895 20.537 38.8371 20.6834L38.9086 20.9368Z" fill="white"/>
<path fill-rule="evenodd" clip-rule="evenodd" d="M39.2272 36.6827C39.0127 36.284 38.8036 35.9526 38.5861 35.6812C38.6599 35.6055 38.7226 35.5422 38.7602 35.5064C39.3845 34.9118 39.9998 34.6611 41.0233 34.6611C42.8838 34.6611 44.4943 36.1643 44.4943 38.1322C44.4943 40.1001 42.8838 41.6033 41.0233 41.6033C39.3731 41.6033 38.672 40.7449 37.6032 38.3696C36.7196 36.406 36.2395 35.8182 35.2382 35.8182C33.936 35.8182 32.9241 36.8988 32.9241 38.1322C32.9241 39.3709 33.9278 40.4462 35.2382 40.4462C35.8417 40.4462 36.5631 40.2061 37.1931 39.8662C37.417 40.2511 37.6386 40.5636 37.8743 40.8118C37.0629 41.274 36.1124 41.6033 35.2382 41.6033C33.2703 41.6033 31.7671 39.9927 31.7671 38.1322C31.7671 36.2762 33.2793 34.6611 35.2382 34.6611C36.8884 34.6611 37.5894 35.5195 38.6583 37.8948C39.5419 39.8584 40.022 40.4462 41.0233 40.4462C42.2619 40.4462 43.3373 39.4426 43.3373 38.1322C43.3373 36.8218 42.2619 35.8182 41.0233 35.8182C40.2996 35.8182 39.9692 35.9527 39.5582 36.3442C39.5038 36.396 39.3686 36.5357 39.2272 36.6827Z" fill="white"/>
</symbol><symbol id="icon-10" viewBox="0 0 60 60">
<rect width="60" height="60" rx="16" fill="#FFAF0D"/>
<path d="M32.8666 16.8667C32.8666 15.8357 33.7023 15 34.7333 15C35.7642 15 36.6 15.8357 36.6 16.8667V18.7333H41.2666V23.4H43.1333C44.1642 23.4 45 24.2357 45 25.2667C45 26.2976 44.1642 27.1333 43.1333 27.1333H41.2666V31.8H36.6V29.9333C36.6 28.9024 35.7642 28.0667 34.7333 28.0667C33.7023 28.0667 32.8666 28.9024 32.8666 29.9333V31.8H28.2V27.1333H30.0666C31.0976 27.1333 31.9333 26.2976 31.9333 25.2667C31.9333 24.2357 31.0976 23.4 30.0666 23.4H28.2V18.7333H32.8666V16.8667Z" stroke="white" stroke-width="1.5" stroke-linecap="square"/>
<path d="M19.7778 16.8667C19.7778 15.8357 20.6334 15 21.6889 15C22.7444 15 23.6 15.8357 23.6 16.8667V18.7333H28.3778V23.4H30.2889C31.3444 23.4 32.2 24.2357 32.2 25.2667C32.2 26.2976 31.3444 27.1333 30.2889 27.1333H28.3778V31.8H23.6V29.9333C23.6 28.9024 22.7444 28.0667 21.6889 28.0667C20.6334 28.0667 19.7778 28.9024 19.7778 29.9333V31.8H15V27.1333H16.9111C17.9666 27.1333 18.8222 26.2976 18.8222 25.2667C18.8222 24.2357 17.9666 23.4 16.9111 23.4H15V18.7333H19.7778V16.8667Z" stroke="white" stroke-width="1.5" stroke-linecap="square"/>
<path d="M19.7778 30.0666C19.7778 29.0357 20.6334 28.2 21.6889 28.2C22.7444 28.2 23.6 29.0357 23.6 30.0666V31.9333H28.3778V36.6H30.2889C31.3444 36.6 32.2 37.4357 32.2 38.4666C32.2 39.4976 31.3444 40.3333 30.2889 40.3333H28.3778V45H23.6V43.1333C23.6 42.1023 22.7444 41.2666 21.6889 41.2666C20.6334 41.2666 19.7778 42.1023 19.7778 43.1333V45H15V40.3333H16.9111C17.9666 40.3333 18.8222 39.4976 18.8222 38.4666C18.8222 37.4357 17.9666 36.6 16.9111 36.6H15V31.9333H19.7778V30.0666Z" stroke="white" stroke-width="1.5" stroke-linecap="square"/>
<path d="M32.8666 30.0666C32.8666 29.0357 33.7023 28.2 34.7333 28.2C35.7642 28.2 36.6 29.0357 36.6 30.0666V31.9333H41.2666V36.6H43.1333C44.1642 36.6 45 37.4357 45 38.4666C45 39.4976 44.1642 40.3333 43.1333 40.3333H41.2666V45H36.6V43.1333C36.6 42.1023 35.7642 41.2666 34.7333 41.2666C33.7023 41.2666 32.8666 42.1023 32.8666 43.1333V45H28.2V40.3333H30.0666C31.0976 40.3333 31.9333 39.4976 31.9333 38.4666C31.9333 37.4357 31.0976 36.6 30.0666 36.6H28.2V31.9333H32.8666V30.0666Z" stroke="white" stroke-width="1.5" stroke-linecap="square"/>
</symbol><symbol id="icon-11" viewBox="0 0 60 60">
<rect width="60" height="60" rx="16" fill="#FF2D5A"/>
<path d="M24.0986 24.4822H20.7939V26.8528H24.0986V24.4822Z" fill="white"/>
<path d="M24.0986 28.4469H20.7939V30.8175H24.0986V28.4469Z" fill="white"/>
<path d="M24.0986 32.4115H20.7939V34.7821H24.0986V32.4115Z" fill="white"/>
<path d="M29.9353 28.4469H26.6306V30.8175H29.9353V28.4469Z" fill="white"/>
<path d="M29.9353 24.4822H26.6306V26.8528H29.9353V24.4822Z" fill="white"/>
<path d="M35.7294 24.4822H32.4247V26.8528H35.7294V24.4822Z" fill="white"/>
<path d="M28.6909 38.8692C28.6909 38.8284 28.6909 38.7875 28.6909 38.7058H17.1888C16.8884 38.7058 16.6309 38.4605 16.6309 38.1744V19.4959C16.6309 19.2098 16.8884 18.9646 17.1888 18.9646H20.794V20.5586C20.794 21.0082 21.1802 21.3352 21.6094 21.3352C22.0815 21.3352 22.4249 20.9673 22.4249 20.5586V18.9646H27.4034V20.5586C27.4034 21.0082 27.7896 21.3352 28.2188 21.3352C28.648 21.3352 29.0343 20.9673 29.0343 20.5586V18.9646H34.0128V20.5586C34.0128 21.0082 34.399 21.3352 34.8282 21.3352C35.3003 21.3352 35.6437 20.9673 35.6437 20.5586V18.9646H39.2488C39.5492 18.9646 39.8067 19.2098 39.8067 19.4959V29.5504C40.3647 29.6322 40.9226 29.7548 41.4805 29.9183V19.4959C41.4805 18.3515 40.4934 17.3706 39.2488 17.3706H35.6437V15.7766C35.6437 15.327 35.2574 15 34.8282 15C34.3561 15 34.0128 15.3678 34.0128 15.7766V17.3706H29.0772V15.7766C29.0772 15.327 28.6909 15 28.2617 15C27.8325 15 27.4463 15.3678 27.4463 15.7766V17.3706H22.4678V15.7766C22.4678 15.327 22.0815 15 21.6523 15C21.1802 15 20.8369 15.3678 20.8369 15.7766V17.3706H17.2317C16.03 17.3706 15 18.3106 15 19.4959V38.2153C15 39.3597 15.9871 40.3406 17.2317 40.3406H28.8197C28.7338 39.8502 28.6909 39.3597 28.6909 38.8692Z" fill="white"/>
<path d="M35.7294 29.8774V28.4469H32.4247V30.8175H33.4976C34.1843 30.4088 34.9139 30.0818 35.7294 29.8774Z" fill="white"/>
<path d="M29.9353 34.3325V32.4115H26.6306V34.7821H29.7207C29.7636 34.6186 29.8495 34.4551 29.9353 34.3325Z" fill="white"/>
<path d="M38.5622 45C42.1245 45 45 42.2616 45 38.8692C45 35.4768 42.1245 32.7384 38.5622 32.7384C35 32.7384 32.1245 35.4768 32.1245 38.8692C32.1245 42.2616 35 45 38.5622 45Z" stroke="white" stroke-width="1.5" stroke-linecap="square"/>
<path d="M38.5623 34.782V38.9509L41.1373 41.3215" stroke="white" stroke-width="1.5" stroke-linecap="round" stroke-linejoin="round"/>
</symbol><symbol id="icon-12" viewBox="0 0 60 60">
<rect width="60" height="60" rx="16" fill="#12B366"/>
<path d="M30.7383 15.9469C30.1279 15.3362 29.316 15 28.4527 15C27.5894 15 26.7775 15.3362 26.167 15.9467C25.5564 16.5573 25.2201 17.369 25.2201 18.2323C25.2201 18.8895 25.4154 19.5161 25.7775 20.0474L19.4838 35.4584C19.0924 35.2939 18.6683 35.2073 18.2309 35.2073C17.3678 35.2073 16.5559 35.5433 15.9453 36.1538C14.685 37.4143 14.6848 39.4649 15.9453 40.7253L19.2737 44.0538C19.8842 44.6642 20.696 45.0004 21.5594 45.0004C22.423 45.0004 23.2346 44.6642 23.845 44.0538C24.4554 43.4433 24.7917 42.6315 24.7919 41.7681C24.7919 41.3307 24.7052 40.9066 24.5406 40.5152L27.7416 39.2081L28.9926 40.4591C29.7946 41.2611 31.043 41.712 32.2407 41.712C32.7827 41.712 33.3144 41.6198 33.7896 41.4257L36.8576 40.1726C37.7058 39.826 38.2815 39.1856 38.4366 38.4152C38.5919 37.645 38.3094 36.8313 37.6612 36.1833L36.9322 35.4543L39.9512 34.2213C40.4826 34.5834 41.1094 34.7786 41.7665 34.7786C41.7667 34.7786 41.7667 34.7786 41.7667 34.7786C42.6298 34.7786 43.4417 34.4424 44.0521 33.832C45.3124 32.5715 45.3124 30.5207 44.0521 29.2604L30.7383 15.9469ZM35.0491 34.3246C35.0462 34.3257 35.0432 34.327 35.0402 34.3282L27.6234 37.3575C27.6205 37.3586 27.6175 37.3598 27.6147 37.3609L23.4319 39.0693L20.9297 36.5671L27.1021 21.4532L38.5454 32.8967L35.0491 34.3246ZM22.6019 42.8109C22.3236 43.0893 21.9533 43.2426 21.5594 43.2426C21.1655 43.2426 20.7951 43.0892 20.5165 42.8107L17.1881 39.4825C16.6132 38.9075 16.6132 37.9718 17.1881 37.3969C17.4667 37.1183 17.837 36.9649 18.2309 36.9649C18.6248 36.9649 18.9951 37.1185 19.2737 37.3971L22.6019 40.7253C22.8805 41.0038 23.034 41.3742 23.034 41.7679C23.0338 42.162 22.8805 42.5321 22.6019 42.8109ZM36.4183 37.4264C36.6429 37.6509 36.7505 37.8848 36.7134 38.0679C36.6765 38.2513 36.4868 38.4253 36.1929 38.5452L33.1249 39.7983C32.2522 40.1547 30.9022 39.8825 30.2357 39.2163L29.5065 38.4873L35.167 36.1753L36.4183 37.4264ZM42.8091 32.5889C42.5305 32.8675 42.1604 33.0208 41.7667 33.0208C41.7667 33.0208 41.7667 33.0208 41.7665 33.0208C41.3726 33.0208 41.002 32.8672 40.7234 32.5889L27.4099 19.2751V19.2749C27.1313 18.9966 26.978 18.6265 26.978 18.2325C26.978 17.8386 27.1313 17.4683 27.4099 17.1897C27.6885 16.9112 28.0588 16.7578 28.4527 16.7578C28.8466 16.7578 29.2169 16.9112 29.4955 17.1897L42.8091 30.5033C43.384 31.0785 43.384 32.0139 42.8091 32.5889Z" fill="white"/>
<path d="M40.1035 20.7757C40.3282 20.7757 40.5532 20.6899 40.7249 20.5182L44.7425 16.5006C45.0858 16.1573 45.0858 15.6008 44.7425 15.2575C44.3992 14.9142 43.8428 14.9142 43.4997 15.2575L39.4818 19.2751C39.1387 19.6185 39.1387 20.1749 39.4818 20.5182C39.6535 20.6899 39.8785 20.7757 40.1035 20.7757Z" fill="white"/>
<path d="M36.1086 18.1128C36.3336 18.1128 36.5586 18.027 36.7302 17.8553L38.0853 16.5003C38.4286 16.1573 38.4286 15.6008 38.0853 15.2575C37.7421 14.9142 37.1855 14.9142 36.8422 15.2575L35.4872 16.6125C35.1441 16.9556 35.1441 17.512 35.4872 17.8553C35.6589 18.027 35.8839 18.1128 36.1086 18.1128Z" fill="white"/>
<path d="M43.497 21.914L42.142 23.2693C41.7987 23.6126 41.7987 24.169 42.142 24.5124C42.3137 24.684 42.5385 24.7696 42.7635 24.7696C42.9884 24.7696 43.2134 24.6838 43.3848 24.5124L44.7399 23.1571C45.0832 22.8138 45.0832 22.2574 44.7399 21.914C44.3965 21.571 43.8401 21.571 43.497 21.914Z" fill="white"/>
</symbol><symbol id="icon-2" viewBox="0 0 60 60">
<rect width="60" height="60" rx="16" fill="#FF6A00"/>
<path d="M15 45C15 42.5625 18.25 42.5625 19.875 40.9375C20.6875 40.125 18.25 40.125 18.25 36.0625C18.25 33.3544 19.3331 32 21.5 32C23.6669 32 24.75 33.3544 24.75 36.0625C24.75 40.125 22.3125 40.125 23.125 40.9375C24.75 42.5625 28 42.5625 28 45" stroke="white" stroke-width="2" stroke-linecap="square"/>
<path d="M15 28C15 25.5625 18.25 25.5625 19.875 23.9375C20.6875 23.125 18.25 23.125 18.25 19.0625C18.25 16.3544 19.3331 15 21.5 15C23.6669 15 24.75 16.3544 24.75 19.0625C24.75 23.125 22.3125 23.125 23.125 23.9375C24.75 25.5625 28 25.5625 28 28" stroke="white" stroke-width="2" stroke-linecap="square"/>
<path d="M32 28C32 25.5625 35.25 25.5625 36.875 23.9375C37.6875 23.125 35.25 23.125 35.25 19.0625C35.25 16.3544 36.3331 15 38.5 15C40.6669 15 41.75 16.3544 41.75 19.0625C41.75 23.125 39.3125 23.125 40.125 23.9375C41.75 25.5625 45 25.5625 45 28" stroke="white" stroke-width="2" stroke-linecap="square"/>
<path fill-rule="evenodd" clip-rule="evenodd" d="M39.62 37.0384C39.4009 36.6364 39.1874 36.3022 38.9651 36.0286C39.0405 35.9523 39.1045 35.8884 39.143 35.8523C39.7807 35.2528 40.4091 35 41.4545 35C43.3549 35 45 36.5157 45 38.5C45 40.4843 43.3549 42 41.4545 42C39.769 42 39.0529 41.1344 37.9612 38.7394C37.0586 36.7594 36.5682 36.1667 35.5455 36.1667C34.2154 36.1667 33.1818 37.2564 33.1818 38.5C33.1818 39.749 34.207 40.8333 35.5455 40.8333C36.162 40.8333 36.8988 40.5912 37.5423 40.2484C37.771 40.6366 37.9973 40.9517 38.2381 41.202C37.4093 41.668 36.4383 42 35.5455 42C33.5354 42 32 40.376 32 38.5C32 36.6286 33.5446 35 35.5455 35C37.231 35 37.9471 35.8656 39.0388 38.2606C39.9414 40.2406 40.4318 40.8333 41.4545 40.8333C42.7198 40.8333 43.8182 39.8213 43.8182 38.5C43.8182 37.1787 42.7198 36.1667 41.4545 36.1667C40.7153 36.1667 40.3779 36.3024 39.958 36.6971C39.9025 36.7493 39.7644 36.8902 39.62 37.0384Z" fill="white"/>
</symbol><symbol id="icon-3" viewBox="0 0 60 60">
<rect width="60" height="60" rx="16" fill="#FFAF0D"/>
<path d="M16.7632 24.3924L15.0197 36.6326C14.9386 37.202 15.356 37.7143 15.901 37.7143H36.6534C37.0843 37.7143 37.4535 37.3885 37.5303 36.9405L39.6283 24.7002C39.7274 24.1225 39.3072 23.5909 38.7514 23.5909H17.6445M16.7632 24.3924C16.8289 23.9316 17.2035 23.5909 17.6445 23.5909M16.7632 24.3924L15 36.7727V17.9416C15 17.4215 15.399 17 15.8912 17H22.0619C22.4114 17 22.7287 17.2159 22.8733 17.5521L23.6711 19.4071C23.8156 19.7433 24.1329 19.9592 24.4824 19.9592H37.0164C37.5085 19.9592 37.9075 20.3807 37.9075 20.9007V23.1201L17.6445 23.5909M16.7632 24.3924L17.6445 23.5909" stroke="white" stroke-width="1.5" stroke-linecap="round" stroke-linejoin="round"/>
<path d="M36.7857 42.7144C41.3223 42.7144 45 39.9961 45 36.643C45 33.2898 41.3223 30.5715 36.7857 30.5715C32.2491 30.5715 28.5714 33.2898 28.5714 36.643C28.5714 39.9961 32.2491 42.7144 36.7857 42.7144Z" fill="#FFAF0D"/>
<path fill-rule="evenodd" clip-rule="evenodd" d="M37.7703 35.3005C37.5777 34.9313 37.3899 34.6244 37.1946 34.3731C37.2609 34.303 37.3172 34.2444 37.3509 34.2112C37.9116 33.6606 38.4641 33.4285 39.3831 33.4285C41.0538 33.4285 42.5 34.8205 42.5 36.6428C42.5 38.465 41.0538 39.857 39.3831 39.857C37.9013 39.857 37.2718 39.0621 36.312 36.8626C35.5185 35.0443 35.0874 34.4999 34.1883 34.4999C33.019 34.4999 32.1104 35.5006 32.1104 36.6428C32.1104 37.7898 33.0117 38.7856 34.1883 38.7856C34.7303 38.7856 35.3781 38.5633 35.9438 38.2485C36.1448 38.6049 36.3438 38.8943 36.5554 39.1241C35.8269 39.5521 34.9733 39.857 34.1883 39.857C32.4212 39.857 31.0714 38.3656 31.0714 36.6428C31.0714 34.9241 32.4293 33.4285 34.1883 33.4285C35.6701 33.4285 36.2996 34.2234 37.2594 36.4229C38.0529 38.2412 38.484 38.7856 39.3831 38.7856C40.4954 38.7856 41.461 37.8562 41.461 36.6428C41.461 35.4293 40.4954 34.4999 39.3831 34.4999C38.7332 34.4999 38.4366 34.6245 38.0675 34.987C38.0187 35.035 37.8972 35.1644 37.7703 35.3005Z" fill="white"/>
</symbol><symbol id="icon-4" viewBox="0 0 60 60">
<rect width="60" height="60" rx="16" fill="#12B366"/>
<g clip-path="url(#clip0)">
<path d="M38.2923 19H21.7077C20.2123 19 19 20.1695 19 21.6122V32.3878C19 33.8305 20.2123 35 21.7077 35H38.2923C39.7877 35 41 33.8305 41 32.3878V21.6122C41 20.1695 39.7877 19 38.2923 19Z" stroke="white" stroke-width="1.5"/>
<path d="M40.5538 16H19.4462C17.5429 16 16 17.9005 16 20.2449V37.7551C16 40.0995 17.5429 42 19.4462 42H40.5538C42.4571 42 44 40.0995 44 37.7551V20.2449C44 17.9005 42.4571 16 40.5538 16Z" stroke="white" stroke-width="1.5"/>
<path d="M19 32L23.3341 28.1584C23.5883 27.933 23.9631 27.9318 24.2187 28.1554L27.6688 31.1744C27.964 31.4327 28.4076 31.3858 28.6462 31.0712L34.5629 23.2701C34.813 22.9403 35.2843 22.9074 35.575 23.1995L41 28.6492" stroke="white" stroke-width="1.5" stroke-linecap="round" stroke-linejoin="round"/>
<path d="M24 24C24.5523 24 25 23.5523 25 23C25 22.4477 24.5523 22 24 22C23.4477 22 23 22.4477 23 23C23 23.5523 23.4477 24 24 24Z" stroke="white" stroke-width="2"/>
<path d="M37.2717 37.7993C37.029 37.7993 36.8324 37.996 36.8324 38.2386V39.6331H35.4379C35.1953 39.6331 34.9987 39.8297 34.9987 40.0723C34.9987 40.315 35.1953 40.5116 35.4379 40.5116H36.8324V41.9061C36.8324 42.1487 37.029 42.3454 37.2717 42.3454C37.5143 42.3454 37.711 42.1487 37.711 41.9061V40.5116H39.1054C39.3481 40.5116 39.5447 40.315 39.5447 40.0723C39.5447 39.8297 39.3481 39.6331 39.1054 39.6331H37.711V38.2386C37.7109 37.996 37.5143 37.7993 37.2717 37.7993Z" fill="white"/>
<path d="M21.0038 38.768C21.0563 38.2408 20.6715 37.771 20.1444 37.7186C19.6172 37.6661 19.1474 38.0509 19.095 38.578C19.0425 39.1052 19.4273 39.575 19.9544 39.6274C20.4816 39.6799 20.9514 39.2951 21.0038 38.768Z" fill="white"/>
<path d="M24.3947 38.7682C24.4472 38.2411 24.0624 37.7712 23.5352 37.7188C23.0081 37.6663 22.5383 38.0511 22.4858 38.5783C22.4334 39.1054 22.8182 39.5752 23.3453 39.6277C23.8724 39.6801 24.3423 39.2953 24.3947 38.7682Z" fill="white"/>
<path d="M27.7863 38.7687C27.8388 38.2416 27.454 37.7717 26.9268 37.7193C26.3997 37.6669 25.9299 38.0516 25.8774 38.5788C25.825 39.1059 26.2098 39.5757 26.7369 39.6282C27.264 39.6806 27.7339 39.2958 27.7863 38.7687Z" fill="white"/>
<path d="M38.2143 48.1429C42.7509 48.1429 46.4286 45.4246 46.4286 42.0714C46.4286 38.7183 42.7509 36 38.2143 36C33.6777 36 30 38.7183 30 42.0714C30 45.4246 33.6777 48.1429 38.2143 48.1429Z" fill="#12B366"/>
<path fill-rule="evenodd" clip-rule="evenodd" d="M38.1989 39.7292C38.0062 39.36 37.8185 39.0531 37.6232 38.8018C37.6895 38.7317 37.7458 38.6731 37.7795 38.6399C38.3401 38.0893 38.8926 37.8572 39.8117 37.8572C41.4824 37.8572 42.9286 39.2492 42.9286 41.0715C42.9286 42.8937 41.4824 44.2857 39.8117 44.2857C38.3299 44.2857 37.7004 43.4909 36.7406 41.2913C35.9471 39.473 35.516 38.9286 34.6169 38.9286C33.4476 38.9286 32.539 39.9294 32.539 41.0715C32.539 42.2185 33.4403 43.2143 34.6169 43.2143C35.1589 43.2143 35.8066 42.992 36.3724 42.6772C36.5734 43.0336 36.7724 43.323 36.984 43.5529C36.2555 43.9809 35.4019 44.2857 34.6169 44.2857C32.8498 44.2857 31.5 42.7943 31.5 41.0715C31.5 39.3528 32.8579 37.8572 34.6169 37.8572C36.0987 37.8572 36.7282 38.6521 37.688 40.8516C38.4815 42.6699 38.9126 43.2143 39.8117 43.2143C40.924 43.2143 41.8896 42.2849 41.8896 41.0715C41.8896 39.858 40.924 38.9286 39.8117 38.9286C39.1618 38.9286 38.8652 39.0532 38.4961 39.4157C38.4473 39.4637 38.3258 39.5931 38.1989 39.7292Z" fill="white"/>
</g>

</symbol><symbol id="icon-5" viewBox="0 0 60 60">
<rect width="60" height="60" rx="16" fill="#FF2D5A"/>
<path d="M23.0209 19.8889C21.3913 19.8889 20.0542 21.226 20.0542 22.8557C20.0542 24.4853 21.3913 25.8224 23.0209 25.8224C24.6505 25.8224 25.9877 24.4853 25.9877 22.8557C25.9877 21.1843 24.6505 19.8889 23.0209 19.8889ZM23.0209 24.1092C22.3106 24.1092 21.7256 23.5242 21.7256 22.8139C21.7256 22.1035 22.3106 21.5185 23.0209 21.5185C23.7313 21.5185 24.3163 22.1035 24.3163 22.8139C24.3163 23.5242 23.7313 24.1092 23.0209 24.1092Z" fill="white"/>
<path d="M30.168 42.035H22.7721C19.4292 42.035 16.6714 39.319 16.6714 35.9344V35.8508L21.5185 31.4216C21.6439 31.2962 21.8528 31.2962 22.0199 31.4216L25.697 34.8062C26.1149 35.1823 26.6999 35.3912 27.2849 35.3494C27.8699 35.3076 28.4131 34.9733 28.7473 34.5137L35.2658 25.5299C35.3494 25.4045 35.4748 25.4045 35.5165 25.3627C35.6001 25.3627 35.6837 25.3627 35.809 25.4881L39.8622 29.792C41.2411 29.8755 42.5365 30.2098 43.7065 30.7948V22.7721C43.7065 18.4682 40.2383 15 35.9344 15H22.7721C18.51 15 15 18.51 15 22.7721V35.9344C15 40.2383 18.4682 43.7065 22.7721 43.7065H30.7948C30.5441 43.205 30.3352 42.62 30.168 42.035ZM16.7132 22.7721C16.7132 19.4292 19.4292 16.6714 22.8138 16.6714H35.9762C39.319 16.6714 42.0768 19.3874 42.0768 22.7721V29.6248L37.0626 24.3599C36.6448 23.9003 36.0598 23.6913 35.433 23.7331C34.8062 23.7749 34.263 24.0674 33.9287 24.5688L27.3684 33.5526C27.2849 33.678 27.1595 33.678 27.1177 33.7198C27.0759 33.7198 26.9506 33.7198 26.8252 33.6362L23.1481 30.2098C22.3542 29.4995 21.1424 29.4995 20.3903 30.2098L16.7132 33.5944V22.7721Z" fill="white"/>
<path fill-rule="evenodd" clip-rule="evenodd" d="M37.813 36.2683C38.0637 35.349 38.9412 34.6804 39.9858 34.6804C41.1976 34.6804 42.2004 35.5997 42.2004 36.7697C42.2004 37.9397 41.1976 38.8589 39.9858 38.8589C38.9412 38.8589 38.0637 38.1904 37.813 37.2711H33.8434V36.2265H37.813V36.2683ZM35.0134 41.4914C35.2641 40.5721 36.1416 39.9036 37.1862 39.9036C38.398 39.9036 39.4008 40.8228 39.4008 41.9928C39.4008 43.1628 38.398 44.0821 37.1862 44.0821C36.1416 44.0821 35.2641 43.4135 35.0134 42.4943H33.8434V41.4914H35.0134ZM40.529 42.536V41.4914H45V42.536H40.529ZM37.1862 43.0793C37.813 43.0793 38.3144 42.6196 38.3144 42.0346C38.3144 41.4496 37.813 40.99 37.1862 40.99C36.5594 40.99 36.058 41.4496 36.058 42.0346C36.058 42.6196 36.5594 43.0793 37.1862 43.0793ZM43.2868 37.3129V36.2683H44.9583V37.3129H43.2868ZM39.944 37.8561C40.5708 37.8561 41.0722 37.3965 41.0722 36.8115C41.0722 36.2265 40.5708 35.7668 39.944 35.7668C39.3173 35.7668 38.8158 36.2265 38.8158 36.8115C38.8158 37.3965 39.359 37.8561 39.944 37.8561Z" fill="white" stroke="white" stroke-width="0.5"/>
</symbol><symbol id="icon-6" viewBox="0 0 60 60">
<rect width="60" height="60" rx="16" fill="#12B366"/>
<path d="M37.75 15H19.375C17.7181 15 16.375 16.3431 16.375 18V30.375C16.375 32.0319 17.7181 33.375 19.375 33.375H37.75C39.4069 33.375 40.75 32.0319 40.75 30.375V18C40.75 16.3431 39.4069 15 37.75 15Z" stroke="white" stroke-width="1.5"/>
<path d="M16.375 29.0624L21.14 24.9781C21.4195 24.7385 21.8316 24.7372 22.1126 24.975L25.9058 28.1846C26.2303 28.4592 26.718 28.4095 26.9804 28.0749L33.4854 19.7811C33.7603 19.4305 34.2785 19.3955 34.5981 19.706L40.5625 25.4999" stroke="white" stroke-width="1.5" stroke-linecap="round" stroke-linejoin="round"/>
<path d="M21.4375 21.1875C22.2659 21.1875 22.9375 20.5159 22.9375 19.6875C22.9375 18.8591 22.2659 18.1875 21.4375 18.1875C20.6091 18.1875 19.9375 18.8591 19.9375 19.6875C19.9375 20.5159 20.6091 21.1875 21.4375 21.1875Z" stroke="white" stroke-width="1.5"/>
<path d="M40.375 36.375H16.75C16.3358 36.375 16 36.7108 16 37.125C16 37.5392 16.3358 37.875 16.75 37.875H40.375C40.7892 37.875 41.125 37.5392 41.125 37.125C41.125 36.7108 40.7892 36.375 40.375 36.375Z" fill="white"/>
<path d="M40.375 40.125H16.75C16.3358 40.125 16 40.4608 16 40.875C16 41.2892 16.3358 41.625 16.75 41.625H40.375C40.7892 41.625 41.125 41.2892 41.125 40.875C41.125 40.4608 40.7892 40.125 40.375 40.125Z" fill="white"/>
<path d="M37.375 45.75C42.1385 45.75 46 41.8885 46 37.125C46 32.3615 42.1385 28.5 37.375 28.5C32.6115 28.5 28.75 32.3615 28.75 37.125C28.75 41.8885 32.6115 45.75 37.375 45.75Z" fill="#12B366"/>
<path fill-rule="evenodd" clip-rule="evenodd" d="M37.375 32.625C38.9293 32.625 40.4156 33.4297 41.8007 34.7519C42.2732 35.203 42.7007 35.6845 43.077 36.1663C43.3041 36.457 43.4653 36.6857 43.5536 36.8219L43.75 37.125L43.5536 37.4281C43.4653 37.5643 43.3041 37.793 43.077 38.0837C42.7007 38.5655 42.2732 39.047 41.8007 39.4981C40.4156 40.8203 38.9293 41.625 37.375 41.625C35.8207 41.625 34.3344 40.8203 32.9493 39.4981C32.4768 39.047 32.0493 38.5655 31.673 38.0837C31.4459 37.793 31.2847 37.5643 31.1964 37.4281L31 37.125L31.1964 36.8219C31.2847 36.6857 31.4459 36.457 31.673 36.1663C32.0493 35.6845 32.4768 35.203 32.9493 34.7519C34.3344 33.4297 35.8207 32.625 37.375 32.625ZM42.1745 36.8532C41.8299 36.4122 41.4382 35.9709 41.0084 35.5606C39.8154 34.4219 38.5746 33.75 37.375 33.75C36.1754 33.75 34.9346 34.4219 33.7416 35.5606C33.3118 35.9709 32.9201 36.4122 32.5755 36.8532C32.5011 36.9485 32.4324 37.0394 32.3695 37.125C32.4324 37.2106 32.5011 37.3015 32.5755 37.3968C32.9201 37.8378 33.3118 38.2791 33.7416 38.6894C34.9346 39.8281 36.1754 40.5 37.375 40.5C38.5746 40.5 39.8154 39.8281 41.0084 38.6894C41.4382 38.2791 41.8299 37.8378 42.1745 37.3968C42.2489 37.3015 42.3176 37.2106 42.3805 37.125C42.3176 37.0394 42.2489 36.9485 42.1745 36.8532ZM37.375 39.375C36.1161 39.375 35.0956 38.3676 35.0956 37.125C35.0956 35.8824 36.1161 34.875 37.375 34.875C38.6339 34.875 39.6544 35.8824 39.6544 37.125C39.6544 38.3676 38.6339 39.375 37.375 39.375ZM37.375 38.25C38.0044 38.25 38.5147 37.7463 38.5147 37.125C38.5147 36.5037 38.0044 36 37.375 36C36.7456 36 36.2353 36.5037 36.2353 37.125C36.2353 37.7463 36.7456 38.25 37.375 38.25Z" fill="white"/>
</symbol><symbol id="icon-7" viewBox="0 0 60 60">
<rect width="60" height="60" rx="16" fill="#3E89F4"/>
<path d="M42.5006 16.8125H38.4375V14.9375C38.4375 14.4191 38.0184 14 37.5 14C36.9816 14 36.5625 14.4191 36.5625 14.9375V16.8125H30.9375V14.9375C30.9375 14.4191 30.5175 14 30 14C29.4825 14 29.0625 14.4191 29.0625 14.9375V16.8125H23.4375V14.9375C23.4375 14.4191 23.0175 14 22.5 14C21.9825 14 21.5625 14.4191 21.5625 14.9375V16.8125H17.5003C16.1194 16.8125 15 17.931 15 19.3119V41.4997C15 42.8806 16.1194 44 17.5003 44H42.5006C43.8816 44 45 42.8806 45 41.4997V19.3119C45 17.931 43.8816 16.8125 42.5006 16.8125ZM43.125 41.4997C43.125 41.8447 42.8447 42.125 42.5006 42.125H17.5003C17.1553 42.125 16.875 41.8447 16.875 41.4997V19.3119C16.875 18.9678 17.1553 18.6875 17.5003 18.6875H21.5625V20.5625C21.5625 21.0809 21.9825 21.5 22.5 21.5C23.0175 21.5 23.4375 21.0809 23.4375 20.5625V18.6875H29.0625V20.5625C29.0625 21.0809 29.4825 21.5 30 21.5C30.5175 21.5 30.9375 21.0809 30.9375 20.5625V18.6875H36.5625V20.5625C36.5625 21.0809 36.9816 21.5 37.5 21.5C38.0184 21.5 38.4375 21.0809 38.4375 20.5625V18.6875H42.5006C42.8447 18.6875 43.125 18.9678 43.125 19.3119V41.4997Z" fill="white"/>
<path d="M25.3125 25.25H21.5625V28.0625H25.3125V25.25Z" fill="white"/>
<path d="M25.3125 29.9375H21.5625V32.75H25.3125V29.9375Z" fill="#E4EFFF"/>
<path d="M25.3125 34.625H21.5625V37.4375H25.3125V34.625Z" fill="#B3D2FF"/>
<path d="M31.875 34.625H28.125V37.4375H31.875V34.625Z" fill="white"/>
<path d="M31.875 29.9375H28.125V32.75H31.875V29.9375Z" fill="#B3D2FF"/>
<path d="M31.875 25.25H28.125V28.0625H31.875V25.25Z" fill="#E4EFFF"/>
<path d="M38.4375 34.625H34.6875V37.4375H38.4375V34.625Z" fill="#E4EFFF"/>
<path d="M38.4375 29.9375H34.6875V32.75H38.4375V29.9375Z" fill="white"/>
<path d="M38.4375 25.25H34.6875V28.0625H38.4375V25.25Z" fill="#B3D2FF"/>
</symbol><symbol id="icon-8" viewBox="0 0 60 60">
<rect width="60" height="60" rx="16" fill="#FF6A00"/>
<path d="M27.7512 44.0206H17.5387C17.012 44.0206 16.5812 43.601 16.5812 43.0882V33.1415C16.5812 32.6287 17.012 32.2092 17.5387 32.2092H27.7512C28.2777 32.2092 28.7088 32.6287 28.7088 33.1415V43.0878C28.7088 43.6007 28.2777 44.0204 27.7512 44.0204V44.0206Z" stroke="white" stroke-width="1.5"/>
<path d="M17.0858 31.4714C16.8623 31.4718 16.6447 31.5426 16.4649 31.6734C16.2852 31.8042 16.1525 31.9882 16.0864 32.1984L15 36.2604C14.9994 36.5077 15.0484 36.7528 15.1443 36.9814C15.2402 37.2101 15.381 37.4178 15.5587 37.5926C15.7364 37.7674 15.9475 37.9059 16.1797 38.0002C16.4119 38.0944 16.6608 38.1425 16.912 38.1416C17.9635 38.1416 18.8238 37.3036 18.8238 36.2604L19.4581 31.4714H17.0858Z" fill="#FFB783"/>
<path d="M29.1622 32.1982C29.0961 31.988 28.9635 31.8041 28.7837 31.6733C28.6039 31.5426 28.3864 31.4718 28.1629 31.4714H25.7904L26.4249 36.2604C26.4242 36.5077 26.4732 36.7528 26.5691 36.9814C26.665 37.21 26.8058 37.4177 26.9835 37.5925C27.1612 37.7674 27.3722 37.9059 27.6044 38.0001C27.8366 38.0943 28.0855 38.1425 28.3367 38.1416C28.5878 38.1425 28.8367 38.0943 29.0689 38.0001C29.3011 37.9059 29.5122 37.7674 29.6898 37.5925C29.8675 37.4177 30.0083 37.21 30.1042 36.9814C30.2 36.7528 30.2491 36.5077 30.2484 36.2604L29.1622 32.1982ZM22.6011 31.4716H19.4118L18.7775 36.2606C18.7768 36.5079 18.8259 36.753 18.9218 36.9816C19.0176 37.2102 19.1584 37.4179 19.3361 37.5928C19.5138 37.7676 19.7248 37.9061 19.957 38.0003C20.1893 38.0946 20.4381 38.1427 20.6893 38.1418C21.7407 38.1418 22.6011 37.3038 22.6011 36.2606V31.4714V31.4716Z" fill="white"/>
<path d="M22.6027 31.4714V36.2604C22.6027 37.295 23.463 38.1416 24.5144 38.1416C24.7656 38.1425 25.0145 38.0943 25.2467 38.0001C25.4789 37.9059 25.6899 37.7674 25.8676 37.5925C26.0453 37.4177 26.1861 37.21 26.282 36.9814C26.3778 36.7528 26.4269 36.5077 26.4262 36.2604L25.792 31.4714H22.6027Z" fill="#FFB783"/>
<path opacity="0.1" d="M30.2947 36.2095C30.2954 36.4568 30.2463 36.7018 30.1505 36.9304C30.0546 37.1591 29.9138 37.3668 29.7361 37.5416C29.5584 37.7164 29.3474 37.855 29.1152 37.9492C28.883 38.0434 28.6341 38.0916 28.383 38.0907C28.1318 38.0916 27.8829 38.0434 27.6507 37.9492C27.4185 37.855 27.2075 37.7164 27.0298 37.5416C26.8521 37.3668 26.7113 37.1591 26.6154 36.9304C26.5196 36.7018 26.4705 36.4568 26.4712 36.2095H30.2947ZM18.8238 36.2095C18.8244 36.4568 18.7754 36.7018 18.6795 36.9304C18.5836 37.1591 18.4428 37.3668 18.2652 37.5416C18.0875 37.7164 17.8765 37.855 17.6442 37.9492C17.412 38.0434 17.1632 38.0916 16.912 38.0907C16.6608 38.0916 16.4119 38.0435 16.1797 37.9493C15.9474 37.855 15.7364 37.7165 15.5587 37.5417C15.381 37.3669 15.2402 37.1591 15.1443 36.9305C15.0484 36.7019 14.9993 36.4568 15 36.2095H18.824H18.8238ZM22.6474 36.2095C22.648 36.4568 22.599 36.7018 22.5031 36.9304C22.4072 37.1591 22.2664 37.3668 22.0887 37.5416C21.9111 37.7164 21.7001 37.855 21.4678 37.9492C21.2356 38.0434 20.9867 38.0916 20.7356 38.0907C20.4844 38.0916 20.2356 38.0434 20.0033 37.9492C19.7711 37.855 19.5601 37.7164 19.3824 37.5416C19.2047 37.3668 19.0639 37.1591 18.9681 36.9304C18.8722 36.7018 18.8232 36.4568 18.8238 36.2095H22.6474ZM26.4712 36.2095C26.4718 36.4568 26.4228 36.7018 26.3269 36.9304C26.231 37.1591 26.0902 37.3668 25.9126 37.5416C25.7349 37.7164 25.5238 37.855 25.2916 37.9492C25.0594 38.0434 24.8105 38.0916 24.5594 38.0907C24.3082 38.0916 24.0593 38.0435 23.827 37.9493C23.5948 37.855 23.3838 37.7165 23.2061 37.5417C23.0284 37.3669 22.8875 37.1591 22.7917 36.9305C22.6958 36.7019 22.6467 36.4568 22.6474 36.2095H26.4712Z" fill="#231F20"/>
<path d="M26.1245 40.8948V41.5768H27.0885C27.0112 41.9822 26.6511 42.2771 26.1245 42.2771C25.5397 42.2771 25.0658 41.7906 25.0658 41.2153C25.0658 40.64 25.5397 40.1537 26.1245 40.1537C26.3875 40.1537 26.6236 40.2425 26.8093 40.4171L27.3232 39.9116C27.0128 39.627 26.6074 39.4524 26.1243 39.4524C25.1349 39.4524 24.3328 40.2418 24.3328 41.2153C24.3328 42.1891 25.1349 42.9782 26.1245 42.9782C27.1594 42.9782 27.8444 42.2627 27.8444 41.2553C27.8444 41.1303 27.8328 41.0101 27.8118 40.8948H26.1245Z" fill="white"/>
<path fill-rule="evenodd" clip-rule="evenodd" d="M27.2301 16.8807C26.0135 15.6686 24.3956 15.0007 22.6719 15C19.1201 15 16.2294 17.8767 16.228 21.4125C16.2275 22.5428 16.5242 23.6461 17.0881 24.6186L16.174 27.9417L19.5899 27.0499C20.5312 27.5609 21.5908 27.8302 22.6692 27.8305H22.672C26.2234 27.8305 29.1143 24.9535 29.1157 21.4176C29.1164 19.704 28.4467 18.0928 27.2301 16.8807ZM22.6719 26.7475H22.6696C21.7087 26.7471 20.7661 26.4901 19.9437 26.0045L19.7482 25.8889L17.7211 26.4182L18.2622 24.4512L18.1348 24.2496C17.5986 23.4009 17.3155 22.42 17.316 21.4129C17.3171 18.4741 19.7198 16.0831 22.674 16.0831C24.1046 16.0836 25.4494 16.6387 26.4605 17.6462C27.4717 18.6538 28.0282 19.993 28.0277 21.4172C28.0265 24.3563 25.624 26.7475 22.6719 26.7475ZM25.6097 22.7554C25.4487 22.6751 24.6571 22.2876 24.5094 22.2341C24.362 22.1806 24.2545 22.154 24.1473 22.3143C24.0399 22.4747 23.7314 22.8357 23.6374 22.9425C23.5434 23.0495 23.4496 23.0629 23.2886 22.9827C23.1275 22.9025 22.6088 22.7332 21.9937 22.1873C21.5152 21.7624 21.192 21.2377 21.098 21.0773C21.0042 20.9168 21.0973 20.8385 21.1687 20.7503C21.343 20.5349 21.5175 20.3091 21.5712 20.2022C21.6249 20.0952 21.598 20.0017 21.5577 19.9215C21.5175 19.8413 21.1955 19.0526 21.0614 18.7316C20.9306 18.4193 20.798 18.4615 20.699 18.4566C20.6052 18.452 20.4979 18.451 20.3905 18.451C20.2832 18.451 20.1087 18.4911 19.9611 18.6516C19.8135 18.812 19.3976 19.1996 19.3976 19.9883C19.3976 20.777 19.9746 21.5389 20.0551 21.6459C20.1355 21.7529 21.1904 23.3714 22.8055 24.0654C23.1897 24.2306 23.4896 24.3291 23.7234 24.403C24.1092 24.5249 24.4601 24.5077 24.7376 24.4665C25.047 24.4204 25.6901 24.0788 25.8244 23.7045C25.9585 23.3302 25.9585 23.0094 25.9182 22.9425C25.878 22.8757 25.7706 22.8357 25.6097 22.7554Z" fill="white"/>
<path d="M38.3489 22.524L41.0074 24.5311L42.3493 18.8027L35.4911 21.5005L37.578 22.1917L41.3866 19.637L38.3489 22.524Z" fill="white"/>
<path d="M37.5778 22.1917L38.1493 24.2484L38.3487 22.5239L41.3864 19.637L37.5778 22.1917Z" fill="#FFB783"/>
<path d="M39.2141 23.1765L38.1508 24.2486L38.3501 22.5242L39.2141 23.1765Z" fill="#FFB783"/>
<path d="M41.6666 15.5884H36.1761C34.3351 15.5884 32.8427 17.0808 32.8427 18.9219V24.4123C32.8427 26.2533 34.3351 27.7458 36.1761 27.7458H41.6666C43.5076 27.7458 45 26.2533 45 24.4123V18.9219C45 17.0808 43.5076 15.5884 41.6666 15.5884Z" stroke="white" stroke-width="1.5"/>
</symbol><symbol id="icon-9" viewBox="0 0 60 60">
<rect width="60" height="60" rx="16" fill="#3E89F4"/>
<path d="M20.3873 27.3064L16.5789 29.2105L17.0947 25.6006C15.7944 24.4747 15 22.9695 15 21.3158C15 17.8277 18.5346 15 22.8947 15C27.2549 15 30.7895 17.8277 30.7895 21.3158C30.7895 24.8039 27.2549 27.6316 22.8947 27.6316C22.0182 27.6316 21.1751 27.5173 20.3873 27.3064Z" stroke="white" stroke-width="1.5" stroke-linecap="square" stroke-linejoin="round"/>
<path d="M38.5353 42.6727L43.1052 45L42.4864 40.5878C44.0467 39.2118 45 37.372 45 35.3509C45 31.0876 40.7585 27.6316 35.5263 27.6316C30.2941 27.6316 26.0526 31.0876 26.0526 35.3509C26.0526 39.6141 30.2941 43.0702 35.5263 43.0702C36.5781 43.0702 37.5899 42.9305 38.5353 42.6727Z" stroke="white" stroke-width="1.5" stroke-linecap="square" stroke-linejoin="round"/>
<path d="M31.1842 32.3684H39.8684" stroke="white" stroke-width="1.5" stroke-linecap="round"/>
<path d="M19.3422 19.7368H26.4474" stroke="white" stroke-width="1.5" stroke-linecap="round"/>
<path d="M31.1842 35.5264H39.8684" stroke="white" stroke-width="1.5" stroke-linecap="round"/>
<path d="M19.3422 22.5H26.4474" stroke="white" stroke-width="1.5" stroke-linecap="round"/>
<path d="M31.1842 38.6842H39.8684" stroke="white" stroke-width="1.5" stroke-linecap="round"/>
</symbol><symbol id="in" viewBox="0 0 20 20">
<path d="M18.1908 0H1.80916C0.81 0 0 0.81 0 1.80916V18.1908C0 19.19 0.81 20 1.80916 20H18.1908C19.19 20 20 19.19 20 18.1908V1.80916C20 0.81 19.19 0 18.1908 0ZM6.18885 17.2693C6.18885 17.5601 5.95314 17.7958 5.66236 17.7958H3.4212C3.13042 17.7958 2.89471 17.5601 2.89471 17.2693V7.8745C2.89471 7.58372 3.13042 7.34801 3.4212 7.34801H5.66236C5.95314 7.34801 6.18885 7.58372 6.18885 7.8745V17.2693ZM4.54178 6.46241C3.36592 6.46241 2.41267 5.50916 2.41267 4.3333C2.41267 3.15743 3.36592 2.20419 4.54178 2.20419C5.71764 2.20419 6.67089 3.15743 6.67089 4.3333C6.67089 5.50916 5.7177 6.46241 4.54178 6.46241ZM17.901 17.3117C17.901 17.5791 17.6843 17.7958 17.417 17.7958H15.012C14.7447 17.7958 14.528 17.5791 14.528 17.3117V12.905C14.528 12.2476 14.7208 10.0243 12.81 10.0243C11.3279 10.0243 11.0272 11.5461 10.9669 12.2291V17.3117C10.9669 17.5791 10.7502 17.7958 10.4828 17.7958H8.15681C7.88948 17.7958 7.67272 17.5791 7.67272 17.3117V7.83209C7.67272 7.56476 7.88948 7.34801 8.15681 7.34801H10.4828C10.7501 7.34801 10.9669 7.56476 10.9669 7.83209V8.65173C11.5164 7.82696 12.3332 7.19037 14.0722 7.19037C17.9231 7.19037 17.901 10.7881 17.901 12.7648V17.3117Z" fill="#0077B7"/>
</symbol><symbol id="inst" viewBox="0 0 30 30">
<path fill-rule="evenodd" clip-rule="evenodd" d="M29.9098 8.81561C29.8368 7.21893 29.5832 6.12854 29.2124 5.17456C28.8359 4.17366 28.2454 3.26706 27.4823 2.5177C26.7332 1.75461 25.8263 1.16386 24.8254 0.787125C23.8712 0.416565 22.7811 0.163193 21.1844 0.0906372C19.5847 0.017395 19.0736 0 15 0C10.9264 0 10.4153 0.017395 8.81561 0.0901794C7.21893 0.163193 6.12877 0.416794 5.17456 0.787582C4.17366 1.16409 3.26706 1.75461 2.5177 2.5177C1.75461 3.26683 1.16386 4.17343 0.787125 5.17433C0.416565 6.12854 0.163193 7.21893 0.0906372 8.81538C0.017395 10.4153 0 10.9261 0 14.9998C0 19.0736 0.017395 19.5847 0.0906372 21.1844C0.163422 22.7808 0.417023 23.8712 0.787811 24.8254C1.16432 25.8261 1.75484 26.7329 2.51793 27.4821C3.26706 28.2452 4.17389 28.8357 5.17479 29.2122C6.12877 29.5832 7.21916 29.8366 8.81584 29.9096C10.4157 29.9826 10.9266 29.9998 15.0002 29.9998C19.0739 29.9998 19.585 29.9826 21.1846 29.9096C22.7813 29.8366 23.8715 29.5832 24.8257 29.2122C26.8405 28.4331 28.4333 26.8403 29.2124 24.8254C29.5834 23.8712 29.8368 22.7808 29.9098 21.1844C29.9826 19.5845 30 19.0736 30 15C30 10.9261 29.9826 10.4153 29.9098 8.81561ZM27.2097 21.0615C27.1431 22.524 26.8987 23.3183 26.6933 23.8467C26.1887 25.155 25.1548 26.1889 23.8465 26.6936C23.318 26.8989 22.5238 27.1433 21.0612 27.2099C19.4799 27.2823 19.0054 27.2974 15 27.2974C10.9943 27.2974 10.5201 27.2823 8.93852 27.2099C7.4762 27.1433 6.68198 26.8989 6.15326 26.6936C5.50186 26.453 4.91249 26.0696 4.42863 25.5714C3.93036 25.0875 3.54698 24.4984 3.30643 23.8467C3.10112 23.3183 2.85667 22.524 2.79007 21.0615C2.71797 19.4799 2.70264 19.0054 2.70264 15.0002C2.70264 10.9948 2.71797 10.5206 2.79007 8.93875C2.8569 7.4762 3.10112 6.68198 3.30643 6.15349C3.54698 5.50186 3.93059 4.91249 4.42863 4.42863C4.91249 3.93036 5.50186 3.54698 6.15349 3.30666C6.68198 3.10112 7.4762 2.8569 8.93875 2.79007C10.5203 2.71797 10.9948 2.70264 15 2.70264C19.005 2.70264 19.4795 2.71797 21.0612 2.7903C22.5238 2.8569 23.3178 3.10135 23.8465 3.30666C24.4979 3.54721 25.0873 3.93059 25.5711 4.42863C26.0694 4.91249 26.4528 5.50186 26.6931 6.15349C26.8987 6.68198 27.1431 7.4762 27.2097 8.93875C27.2818 10.5203 27.2971 10.9948 27.2971 15C27.2971 19.0054 27.282 19.4797 27.2097 21.0615ZM14.9998 7.2971C10.7458 7.2971 7.29725 10.7459 7.29725 14.9999C7.29725 19.2539 10.7458 22.7024 14.9998 22.7024C19.254 22.7024 22.7026 19.2539 22.7026 14.9999C22.7026 10.7459 19.254 7.2971 14.9998 7.2971ZM14.9998 19.9998C12.2386 19.9996 9.99989 17.7611 10.0001 14.9997C10.0001 12.2384 12.2386 9.99973 15 9.99973C17.7615 9.99996 20 12.2384 20 14.9997C20 17.7611 17.7613 19.9998 14.9998 19.9998ZM23.0071 8.79291C24.0011 8.79291 24.807 7.98702 24.807 6.99299C24.807 5.99872 24.0011 5.19283 23.0071 5.19283C22.0128 5.19283 21.207 5.99872 21.207 6.99299C21.207 7.98702 22.0128 8.79291 23.0071 8.79291Z" fill="#3E89F4"/>
</symbol><symbol id="insta" viewBox="0 0 20 20">
<g clip-path="url(#clip0)">
<path d="M1.25 1.36083C-0.321663 2.99333 3.29688e-06 4.7275 3.29688e-06 9.99583C3.29688e-06 14.3708 -0.76333 18.7567 3.23167 19.7892C4.47917 20.11 15.5325 20.11 16.7783 19.7875C18.4417 19.3583 19.795 18.0092 19.98 15.6567C20.0058 15.3283 20.0058 4.66917 19.9792 4.33417C19.7825 1.82833 18.24 0.384165 16.2075 0.0916646C15.7417 0.0241646 15.6483 0.00416464 13.2583 -2.02656e-06C4.78084 0.00416464 2.9225 -0.373335 1.25 1.36083Z" fill="url(#paint0_linear)"/>
<path d="M9.99834 2.61577C6.97251 2.61577 4.09917 2.3466 3.00167 5.16327C2.54834 6.3266 2.61417 7.83744 2.61417 10.0008C2.61417 11.8991 2.55334 13.6833 3.00167 14.8374C4.09667 17.6558 6.99334 17.3858 9.99667 17.3858C12.8942 17.3858 15.8817 17.6874 16.9925 14.8374C17.4467 13.6624 17.38 12.1741 17.38 10.0008C17.38 7.11577 17.5392 5.25327 16.14 3.85494C14.7233 2.43827 12.8075 2.61577 9.99501 2.61577H9.99834ZM9.33667 3.9466C15.6483 3.9366 16.4517 3.23494 16.0083 12.9824C15.8508 16.4299 13.2258 16.0516 9.99917 16.0516C4.11584 16.0516 3.94667 15.8833 3.94667 9.99744C3.94667 4.04327 4.41334 3.94994 9.33667 3.94494V3.9466ZM13.94 5.17244C13.4508 5.17244 13.0542 5.5691 13.0542 6.05827C13.0542 6.54744 13.4508 6.9441 13.94 6.9441C14.4292 6.9441 14.8258 6.54744 14.8258 6.05827C14.8258 5.5691 14.4292 5.17244 13.94 5.17244ZM9.99834 6.20827C7.90417 6.20827 6.20667 7.9066 6.20667 10.0008C6.20667 12.0949 7.90417 13.7924 9.99834 13.7924C12.0925 13.7924 13.7892 12.0949 13.7892 10.0008C13.7892 7.9066 12.0925 6.20827 9.99834 6.20827ZM9.99834 7.5391C13.2525 7.5391 13.2567 12.4624 9.99834 12.4624C6.74501 12.4624 6.74001 7.5391 9.99834 7.5391Z" fill="white"/>
</g>

</symbol><symbol id="linkedin" viewBox="0 0 30 30">
<path fill-rule="evenodd" clip-rule="evenodd" d="M0 14.8323C0 6.91708 6.71575 0.500488 15 0.500488C23.2843 0.500488 30 6.91708 30 14.8323C30 22.7475 23.2843 29.1641 15 29.1641C6.71575 29.1641 0 22.7475 0 14.8323ZM10.6003 12.3707H7.201V22.1294H10.6003V12.3707ZM10.8243 9.352C10.8022 8.39517 10.0861 7.6664 8.92313 7.6664C7.76025 7.6664 7 8.39517 7 9.352C7 10.289 7.73781 11.0387 8.879 11.0387H8.90075C10.0861 11.0387 10.8243 10.289 10.8243 9.352ZM22.8596 16.534C22.8596 13.5367 21.1826 12.1416 18.9457 12.1416C17.1409 12.1416 16.3328 13.0887 15.8817 13.7532V12.371H12.4819C12.5267 13.2867 12.4819 22.1296 12.4819 22.1296H15.8817V16.6796C15.8817 16.3879 15.9037 16.097 15.9936 15.8882C16.2393 15.3055 16.7987 14.7022 17.7378 14.7022C18.9684 14.7022 19.4603 15.5971 19.4603 16.9084V22.1294H22.8595L22.8596 16.534Z" fill="#3E89F4"/>
</symbol><symbol id="slack" viewBox="0 0 20 18">
<path d="M3.73099 11.1527C3.73099 12.17 2.89999 13.001 1.88271 13.001C0.865455 13.001 0.0344238 12.17 0.0344238 11.1527C0.0344238 10.1355 0.865455 9.30444 1.88271 9.30444H3.73099V11.1527Z" fill="#E01E5A"/>
<path d="M4.66223 11.1527C4.66223 10.1355 5.49326 9.30444 6.51051 9.30444C7.5278 9.30444 8.35879 10.1355 8.35879 11.1527V15.7806C8.35879 16.7979 7.5278 17.6289 6.51051 17.6289C5.49326 17.6289 4.66223 16.7979 4.66223 15.7806V11.1527Z" fill="#E01E5A"/>
<path d="M6.51051 3.73099C5.49326 3.73099 4.66223 2.89999 4.66223 1.88271C4.66223 0.865455 5.49326 0.0344238 6.51051 0.0344238C7.5278 0.0344238 8.35879 0.865455 8.35879 1.88271V3.73099H6.51051Z" fill="#36C5F0"/>
<path d="M6.51058 4.66211C7.52786 4.66211 8.35886 5.49314 8.35886 6.51039C8.35886 7.52768 7.52786 8.35867 6.51058 8.35867H1.88271C0.865455 8.35867 0.0344238 7.52768 0.0344238 6.51039C0.0344238 5.49314 0.865455 4.66211 1.88271 4.66211H6.51058Z" fill="#36C5F0"/>
<path d="M13.9323 6.51039C13.9323 5.49314 14.7633 4.66211 15.7805 4.66211C16.7978 4.66211 17.6288 5.49314 17.6288 6.51039C17.6288 7.52768 16.7978 8.35867 15.7805 8.35867H13.9323V6.51039Z" fill="#2EB67D"/>
<path d="M13.001 6.51058C13.001 7.52786 12.17 8.35886 11.1527 8.35886C10.1355 8.35886 9.30444 7.52786 9.30444 6.51058V1.88271C9.30444 0.865455 10.1355 0.0344238 11.1527 0.0344238C12.17 0.0344238 13.001 0.865455 13.001 1.88271V6.51058Z" fill="#2EB67D"/>
<path d="M11.1527 13.9324C12.17 13.9324 13.001 14.7634 13.001 15.7807C13.001 16.7979 12.17 17.6289 11.1527 17.6289C10.1355 17.6289 9.30444 16.7979 9.30444 15.7807V13.9324H11.1527Z" fill="#ECB22E"/>
<path d="M11.1527 13.001C10.1355 13.001 9.30444 12.17 9.30444 11.1527C9.30444 10.1355 10.1355 9.30444 11.1527 9.30444H15.7806C16.7979 9.30444 17.6289 10.1355 17.6289 11.1527C17.6289 12.17 16.7979 13.001 15.7806 13.001H11.1527Z" fill="#ECB22E"/>
</symbol><symbol id="telegram" viewBox="0 0 20 20">
<path d="M10 20C15.5228 20 20 15.5228 20 10C20 4.47715 15.5228 0 10 0C4.47715 0 0 4.47715 0 10C0 15.5228 4.47715 20 10 20Z" fill="#039BE5"/>
<path d="M4.57581 9.78326L14.2175 6.06576C14.665 5.9041 15.0558 6.17493 14.9108 6.8516L14.9116 6.85076L13.27 14.5849C13.1483 15.1333 12.8225 15.2666 12.3666 15.0083L9.86664 13.1658L8.66081 14.3274C8.52748 14.4608 8.41498 14.5733 8.15664 14.5733L8.33414 12.0291L12.9675 7.84326C13.1691 7.66576 12.9225 7.56576 12.6566 7.74243L6.93081 11.3474L4.46247 10.5774C3.92664 10.4074 3.91497 10.0416 4.57581 9.78326Z" fill="white"/>
</symbol><symbol id="triangle" viewBox="0 0 6 5">
<path d="M2.6038 4.48532C2.80395 4.74532 3.19605 4.74532 3.3962 4.48532L5.84441 1.305C6.09751 0.976213 5.86313 0.5 5.44821 0.5H0.551788C0.136868 0.5 -0.0975129 0.976213 0.155586 1.305L2.6038 4.48532Z" fill="#32333D"/>
</symbol><symbol id="twi" viewBox="0 0 30 25">
<path d="M9.43474 24.1302C20.7561 24.1302 26.9472 14.8474 26.9472 6.79804C26.9472 6.53436 26.9417 6.27182 26.9298 6.01064C28.1314 5.15074 29.176 4.07769 30 2.85626C28.8972 3.34148 27.7103 3.66791 26.4654 3.81537C27.7361 3.06104 28.7119 1.86816 29.1719 0.446029C27.9826 1.14373 26.6656 1.65069 25.2635 1.92456C24.1404 0.740513 22.5412 0 20.7706 0C17.3717 0 14.6152 2.72805 14.6152 6.09083C14.6152 6.56902 14.6693 7.03385 14.7748 7.47988C9.65927 7.22504 5.12306 4.80121 2.08763 1.11519C1.55914 2.0154 1.25427 3.06127 1.25427 4.17714C1.25427 6.2904 2.341 8.15629 3.9933 9.24769C2.98347 9.21688 2.03499 8.94256 1.20575 8.48588C1.20483 8.51148 1.20483 8.5364 1.20483 8.56358C1.20483 11.5139 3.32634 13.9771 6.14296 14.5353C5.62569 14.6746 5.08141 14.7495 4.51996 14.7495C4.12399 14.7495 3.7381 14.711 3.36296 14.6397C4.14665 17.0601 6.41899 18.8214 9.11293 18.8707C7.0063 20.5049 4.35242 21.4783 1.46828 21.4783C0.972061 21.4783 0.481796 21.4502 0 21.394C2.72392 23.1219 5.95871 24.1304 9.43497 24.1304" fill="#3E89F4"/>
</symbol><symbol id="twitter" viewBox="0 0 20 20">
<g clip-path="url(#clip0)">
<path d="M10.0009 19.9998C15.5237 19.9998 20.0008 15.5227 20.0008 9.99991C20.0008 4.47711 15.5237 0 10.0009 0C4.47809 0 0.000976562 4.47711 0.000976562 9.99991C0.000976562 15.5227 4.47809 19.9998 10.0009 19.9998Z" fill="#55ACEE"/>
<path d="M16.1254 7.18656C15.6969 7.37658 15.2359 7.50511 14.7525 7.56251C15.2461 7.26678 15.6249 6.79885 15.8037 6.24037C15.3418 6.51435 14.83 6.71311 14.2858 6.82024C13.8498 6.35588 13.2286 6.06567 12.5407 6.06567C11.2208 6.06567 10.1504 7.13611 10.1504 8.45593C10.1504 8.64328 10.1716 8.82564 10.2126 9.00069C8.22611 8.90104 6.46475 7.9495 5.28575 6.50294C5.08004 6.85589 4.96203 7.26678 4.96203 7.70476C4.96203 8.53383 5.38432 9.26576 6.02534 9.69429C5.63371 9.68199 5.26489 9.5745 4.94278 9.395C4.9426 9.40516 4.9426 9.41532 4.9426 9.4253C4.9426 10.5834 5.76687 11.5494 6.86012 11.7689C6.65976 11.8238 6.44817 11.8528 6.23052 11.8528C6.07614 11.8528 5.92659 11.838 5.78077 11.8102C6.08488 12.7596 6.96743 13.4507 8.01363 13.4702C7.19543 14.1113 6.16492 14.4934 5.04474 14.4934C4.85223 14.4934 4.66149 14.4821 4.47485 14.4598C5.5321 15.1383 6.78882 15.5338 8.13859 15.5338C12.5351 15.5338 14.9395 11.8917 14.9395 8.73277C14.9395 8.6292 14.9372 8.52599 14.9325 8.42367C15.3999 8.08676 15.8051 7.6659 16.1254 7.18656Z" fill="#F1F2F2"/>
</g>

</symbol><symbol id="whatsapp" viewBox="0 0 20 20">
<path d="M10.0025 0H9.9975C4.48375 0 0 4.485 0 10C0 12.1875 0.705 14.215 1.90375 15.8612L0.6575 19.5763L4.50125 18.3475C6.0825 19.395 7.96875 20 10.0025 20C15.5162 20 20 15.5138 20 10C20 4.48625 15.5162 0 10.0025 0Z" fill="#4CAF50"/>
<path d="M15.8213 14.1212C15.5801 14.8025 14.6226 15.3675 13.8588 15.5325C13.3363 15.6437 12.6538 15.7325 10.3563 14.78C7.41756 13.5625 5.52506 10.5762 5.37756 10.3825C5.23631 10.1887 4.19006 8.80123 4.19006 7.36623C4.19006 5.93123 4.91881 5.23248 5.21256 4.93248C5.45381 4.68623 5.85256 4.57373 6.23506 4.57373C6.35881 4.57373 6.47006 4.57998 6.57006 4.58498C6.86381 4.59748 7.01131 4.61498 7.20506 5.07873C7.44631 5.65998 8.03381 7.09498 8.10381 7.24248C8.17506 7.38998 8.24631 7.58998 8.14631 7.78373C8.05256 7.98373 7.97006 8.07248 7.82256 8.24248C7.67506 8.41248 7.53506 8.54248 7.38756 8.72498C7.25256 8.88373 7.10006 9.05373 7.27006 9.34748C7.44006 9.63498 8.02756 10.5937 8.89256 11.3637C10.0088 12.3575 10.9138 12.675 11.2376 12.81C11.4788 12.91 11.7663 12.8862 11.9426 12.6987C12.1663 12.4575 12.4426 12.0575 12.7238 11.6637C12.9238 11.3812 13.1763 11.3462 13.4413 11.4462C13.7113 11.54 15.1401 12.2462 15.4338 12.3925C15.7276 12.54 15.9213 12.61 15.9926 12.7337C16.0626 12.8575 16.0626 13.4387 15.8213 14.1212Z" fill="#FAFAFA"/>
</symbol><symbol id="wordpress" viewBox="0 0 20 20">
<path d="M1.42125 9.99969C1.42125 13.4059 3.39 16.3434 6.265 17.7203L2.16406 6.50844C1.68813 7.5625 1.40625 8.75 1.40625 9.99969H1.42125ZM15.7909 9.56688C15.7909 8.50625 15.41 7.7725 15.0834 7.20125C14.6487 6.49406 14.2412 5.89594 14.2412 5.18906C14.2412 4.40062 14.8387 3.66656 15.6816 3.66656C15.7194 3.66656 15.7441 3.66656 15.8066 3.67344C14.2666 2.28125 12.2188 1.40625 10 1.42125C7.00281 1.42125 4.36656 2.95906 2.8325 5.29625C3.03406 5.29625 3.23875 5.29625 3.395 5.30656C4.29219 5.30656 5.68125 5.1975 5.68125 5.1975C6.14344 5.17063 6.2125 5.85375 5.74375 5.91625C5.74375 5.91625 5.27906 5.97063 4.76188 5.99781L7.88594 15.29L9.76344 9.65969L8.42719 5.99781C7.965 5.97063 7.5275 5.91625 7.5275 5.91625C7.065 5.88906 7.11937 5.18219 7.58187 5.20937C7.58187 5.20937 8.98812 5.30312 9.83187 5.31844C10.7288 5.31844 12.1184 5.20937 12.1184 5.20937C12.5806 5.1825 12.6497 5.86562 12.1809 5.91625C12.1809 5.91625 11.7156 5.97063 11.1991 5.99781L14.2991 15.2191L15.155 12.3603C15.5087 11.1562 15.7812 10.3125 15.7812 9.56688H15.7909ZM10.1503 10.75L7.57625 18.2294C8.345 18.4481 9.17 18.5731 10.0138 18.5731C11.0128 18.5731 11.9706 18.4006 12.8625 18.0869C12.84 18.05 12.8184 18.0109 12.8013 17.9684L10.1503 10.75ZM17.5275 5.875C17.5647 6.15625 17.59 6.4375 17.59 6.75719C17.59 7.6275 17.4272 8.60594 16.9375 9.82969L14.3172 17.4053C16.8675 15.9184 18.5828 13.1553 18.5828 9.99031C18.5784 8.5 18.1875 7.09375 17.5312 5.88438L17.5275 5.875ZM10 0C4.48594 0 0 4.48594 0 10C0 15.5 4.5 20 10 20C15.5 20 20 15.5141 20 9.99969C20 4.5 15.5 0 10 0ZM10 19.5416C4.73906 19.5416 0.458438 15.2609 0.458438 9.99969C0.458438 4.75 4.75 0.46875 10 0.46875C15.25 0.46875 19.5419 4.75 19.5312 10.01C19.5416 15.25 15.25 19.5312 10 19.5416Z" fill="#0073AA"/>
</symbol><symbol id="work-1" viewBox="0 0 60 60">
<rect width="60" height="60" rx="16" fill="#FFAF0D"/>
<rect x="15.75" y="16.75" width="28.5" height="26.5" rx="1.25" stroke="white" stroke-width="1.5"/>
<path d="M25 38C25 36.125 27.5 36.125 28.75 34.875C29.375 34.25 27.5 34.25 27.5 31.125C27.5 29.0419 28.3331 28 30 28C31.6669 28 32.5 29.0419 32.5 31.125C32.5 34.25 30.625 34.25 31.25 34.875C32.5 36.125 35 36.125 35 38" stroke="white" stroke-width="1.5" stroke-linecap="square"/>
<line x1="16" y1="22.75" x2="44" y2="22.75" stroke="white" stroke-width="1.5"/>
<line x1="16" y1="22.75" x2="44" y2="22.75" stroke="white" stroke-width="1.5"/>
<rect x="18" y="19" width="7" height="1.5" rx="0.75" fill="white"/>
<rect x="39" y="19" width="3" height="1.5" rx="0.75" fill="white"/>
<rect x="35" y="19" width="3" height="1.5" rx="0.75" fill="white"/>
</symbol><symbol id="work-2" viewBox="0 0 60 60">
<rect width="60" height="60" rx="16" fill="#12B366"/>
<g clip-path="url(#clip0)">
<rect x="15.75" y="17.75" width="23.5" height="23.5" rx="5.25" stroke="white" stroke-width="1.5"/>
<path d="M42 26L38.7771 29L37 21.5L39.7152 19L42 26Z" fill="#12B366"/>
<path d="M44.3775 20.4338L42.5652 18.6213C41.7371 17.7932 40.3899 17.7932 39.5618 18.6213C38.7821 19.401 26.8737 31.3103 26.0779 32.1062C25.9931 32.191 25.9363 32.3036 25.9161 32.4138L25.0099 37.3075C24.9748 37.4973 25.0353 37.6922 25.1717 37.8286C25.3083 37.9652 25.5032 38.0256 25.6927 37.9904L30.586 37.0841C30.6991 37.0631 30.8103 37.0057 30.8937 36.9223L44.3775 23.4374C45.2075 22.6074 45.2077 21.2639 44.3775 20.4338ZM26.3173 36.6829L26.8655 33.7226L29.2775 36.1347L26.3173 36.6829ZM30.4794 35.6793L27.3208 32.5206L38.8524 20.988L42.011 24.1468L30.4794 35.6793ZM43.5489 22.6088L42.8396 23.3182L39.681 20.1594L40.3904 19.45C40.7615 19.0788 41.3654 19.0788 41.7366 19.45L43.5489 21.2625C43.921 21.6346 43.921 22.2367 43.5489 22.6088Z" fill="white"/>
<rect x="20" y="23.5" width="15" height="1.5" rx="0.75" fill="white"/>
<rect x="20" y="27.5" width="11" height="1.5" rx="0.75" fill="white"/>
</g>

</symbol><symbol id="work-3" viewBox="0 0 60 60">
<rect width="60" height="60" rx="16" fill="#FF6A00"/>
<g clip-path="url(#clip0)">
<path d="M24 36C24 33.75 27 33.75 28.5 32.25C29.25 31.5 27 31.5 27 27.75C27 25.2503 27.9997 24 30 24C32.0003 24 33 25.2503 33 27.75C33 31.5 30.75 31.5 31.5 32.25C33 33.75 36 33.75 36 36" stroke="white" stroke-width="1.5" stroke-linecap="square"/>
<path d="M18 33C18 31.5 20 31.5 21 30.5C21.5 30 20 30 20 27.5C20 25.8335 20.6665 25 22 25C23.3335 25 24 25.8335 24 27.5C24 30 22.5 30 23 30.5C24 31.5 26 31.5 26 33" stroke="white" stroke-width="1.5" stroke-linecap="square"/>
<path d="M34 33C34 31.5 36 31.5 37 30.5C37.5 30 36 30 36 27.5C36 25.8335 36.6665 25 38 25C39.3335 25 40 25.8335 40 27.5C40 30 38.5 30 39 30.5C40 31.5 42 31.5 42 33" stroke="white" stroke-width="1.5" stroke-linecap="square"/>
<path d="M15 15.75C15 15.3358 15.3358 15 15.75 15C16.1642 15 16.5 15.3358 16.5 15.75V19.25C16.5 19.6642 16.1642 20 15.75 20C15.3358 20 15 19.6642 15 19.25V15.75Z" fill="white"/>
<path d="M15.75 16.5C15.3358 16.5 15 16.1642 15 15.75C15 15.3358 15.3358 15 15.75 15L19.25 15C19.6642 15 20 15.3358 20 15.75C20 16.1642 19.6642 16.5 19.25 16.5L15.75 16.5Z" fill="white"/>
<path d="M15 44.25C15 44.6642 15.3358 45 15.75 45C16.1642 45 16.5 44.6642 16.5 44.25V40.75C16.5 40.3358 16.1642 40 15.75 40C15.3358 40 15 40.3358 15 40.75V44.25Z" fill="white"/>
<path d="M15.75 43.5C15.3358 43.5 15 43.8358 15 44.25C15 44.6642 15.3358 45 15.75 45L19.25 45C19.6642 45 20 44.6642 20 44.25C20 43.8358 19.6642 43.5 19.25 43.5L15.75 43.5Z" fill="white"/>
<path d="M45 15.75C45 15.3358 44.6642 15 44.25 15C43.8358 15 43.5 15.3358 43.5 15.75V19.25C43.5 19.6642 43.8358 20 44.25 20C44.6642 20 45 19.6642 45 19.25V15.75Z" fill="white"/>
<path d="M44.25 16.5C44.6642 16.5 45 16.1642 45 15.75C45 15.3358 44.6642 15 44.25 15L40.75 15C40.3358 15 40 15.3358 40 15.75C40 16.1642 40.3358 16.5 40.75 16.5L44.25 16.5Z" fill="white"/>
<path d="M45 44.25C45 44.6642 44.6642 45 44.25 45C43.8358 45 43.5 44.6642 43.5 44.25V40.75C43.5 40.3358 43.8358 40 44.25 40C44.6642 40 45 40.3358 45 40.75V44.25Z" fill="white"/>
<path d="M44.25 43.5C44.6642 43.5 45 43.8358 45 44.25C45 44.6642 44.6642 45 44.25 45L40.75 45C40.3358 45 40 44.6642 40 44.25C40 43.8358 40.3358 43.5 40.75 43.5L44.25 43.5Z" fill="white"/>
</g>

</symbol><symbol id="work-4" viewBox="0 0 60 60">
<rect width="60" height="60" rx="16" fill="#3E89F4"/>
<path d="M30.4377 39.2616C33.9999 39.2616 36.8755 36.5232 36.8755 33.1308C36.8755 29.7384 33.9999 27 30.4377 27C26.8755 27 24 29.7384 24 33.1308C24 36.5232 26.8755 39.2616 30.4377 39.2616Z" stroke="white" stroke-width="1.5" stroke-linecap="square"/>
<path d="M30.4377 29.0435V33.2124L33.0128 35.583" stroke="white" stroke-width="1.5" stroke-linecap="round" stroke-linejoin="round"/>
<rect x="15.75" y="16.75" width="28.5" height="26.5" rx="1.25" stroke="white" stroke-width="1.5"/>
<line x1="16" y1="22.75" x2="44" y2="22.75" stroke="white" stroke-width="1.5"/>
<line x1="16" y1="22.75" x2="44" y2="22.75" stroke="white" stroke-width="1.5"/>
<rect x="18" y="19" width="7" height="1.5" rx="0.75" fill="white"/>
<rect x="39" y="19" width="3" height="1.5" rx="0.75" fill="white"/>
<rect x="35" y="19" width="3" height="1.5" rx="0.75" fill="white"/>
</symbol><symbol id="work-5" viewBox="0 0 60 60">
<rect width="60" height="60" rx="16" fill="#FF2D5A"/>
<g clip-path="url(#clip0)">
<path d="M45 20.8633C45 17.6324 42.3715 15.0039 39.1406 15.0039C37.0844 15.0039 35.2022 16.0883 34.1502 17.7936C32.8311 17.3465 31.4336 17.1133 30 17.1133C28.5664 17.1133 27.1689 17.3465 25.8498 17.7936C24.7978 16.0883 22.9156 15.0039 20.8594 15.0039C17.6285 15.0039 15 17.6324 15 20.8633C15 22.9195 16.0844 24.8017 17.7896 25.8537C17.3426 27.1728 17.1094 28.5703 17.1094 30.0039C17.1094 33.4471 18.4502 36.6842 20.885 39.1189C21.3114 39.5453 21.7628 39.9374 22.2352 40.2953L19.552 43.4883L21.3463 44.9961L24.2457 41.5458C26.0106 42.4278 27.9694 42.8945 30 42.8945C32.0306 42.8945 33.9893 42.4278 35.7543 41.5458L38.6537 44.9961L40.448 43.4883L37.7648 40.2953C38.2372 39.9374 38.6887 39.5453 39.1151 39.1189C41.5498 36.6842 42.8906 33.4471 42.8906 30.0039C42.8906 28.5704 42.6574 27.1728 42.2104 25.8537C43.9156 24.8017 45 22.9195 45 20.8633ZM17.3438 20.8633C17.3438 18.9248 18.9209 17.3477 20.8594 17.3477C21.9862 17.3477 23.0258 17.8902 23.6786 18.7634C22.6676 19.3339 21.7281 20.0457 20.8849 20.8889C20.0418 21.7321 19.33 22.6716 18.7594 23.6825C17.8863 23.0297 17.3438 21.99 17.3438 20.8633ZM30 40.5508C24.1845 40.5508 19.4531 35.8195 19.4531 30.0039C19.4531 24.1884 24.1845 19.457 30 19.457C35.8155 19.457 40.5469 24.1884 40.5469 30.0039C40.5469 35.8195 35.8155 40.5508 30 40.5508ZM41.2405 23.6825C40.67 22.6715 39.9582 21.732 39.115 20.8888C38.2719 20.0457 37.3323 19.3339 36.3214 18.7633C36.9742 17.8902 38.0138 17.3477 39.1406 17.3477C41.0791 17.3477 42.6562 18.9248 42.6562 20.8633C42.6562 21.99 42.1137 23.0297 41.2405 23.6825ZM31.1719 24.1445H28.8281V31.1758H35.8594V28.832H31.1719V24.1445Z" fill="white"/>
</g>

</symbol></svg>